<svg width="128" height="49" viewBox="0 0 128 49" fill="none" xmlns="http://www.w3.org/2000/svg">
<path d="M0.5 24.5017L6.24571 23.9358L2.8828 19.2428L0.5 24.5017ZM128 48.6593L127.77 42.8904L122.889 45.9743L128 48.6593ZM7.47415 20.265C9.00213 19.2539 10.5187 18.2857 12.0241 17.3598L11.5002 16.508C9.98514 17.4398 8.45922 18.4141 6.92232 19.431L7.47415 20.265ZM16.6719 14.6151C18.2685 13.712 19.852 12.8577 21.4226 12.0516L20.966 11.1619C19.3829 11.9744 17.7875 12.8352 16.1796 13.7447L16.6719 14.6151ZM26.279 9.69363C27.9479 8.93011 29.602 8.22236 31.2413 7.56975L30.8714 6.64066C29.2161 7.29967 27.5466 8.01403 25.8629 8.78427L26.279 9.69363ZM36.3065 5.71236C38.0436 5.13073 39.7637 4.6126 41.467 4.15715L41.2087 3.19109C39.4849 3.65203 37.745 4.17614 35.989 4.76411L36.3065 5.71236ZM46.7105 2.9419C48.4988 2.59215 50.2682 2.31342 52.0189 2.10471L51.9005 1.11174C50.1245 1.32347 48.3306 1.6061 46.5185 1.96049L46.7105 2.9419ZM57.3816 1.68106C59.195 1.612 60.9879 1.62031 62.7607 1.70484L62.8083 0.705972C61.0066 0.620067 59.1851 0.611657 57.3436 0.68178L57.3816 1.68106ZM68.1093 2.19828C69.8907 2.44348 71.6515 2.7681 73.392 3.17096L73.6175 2.19672C71.8476 1.78705 70.0571 1.45695 68.2457 1.20762L68.1093 2.19828ZM78.5661 4.61741C80.2617 5.17446 81.9377 5.80823 83.5945 6.51763L83.9881 5.59835C82.3051 4.87772 80.6019 4.23364 78.8783 3.66737L78.5661 4.61741ZM88.4466 8.83928C90.0136 9.66931 91.563 10.5692 93.0952 11.538L93.6296 10.6928C92.0765 9.71074 90.505 8.79795 88.9147 7.9556L88.4466 8.83928ZM97.5398 14.5763C98.9677 15.6268 100.38 16.7391 101.778 17.9122L102.421 17.1463C101.007 15.96 99.5782 14.8344 98.1324 13.7708L97.5398 14.5763ZM105.804 21.5C107.091 22.7135 108.364 23.98 109.624 25.2988L110.347 24.608C109.076 23.2771 107.79 21.9983 106.491 20.7726L105.804 21.5ZM113.256 29.2855C114.419 30.6224 115.57 32.005 116.711 33.4327L117.492 32.8087C116.343 31.3704 115.183 29.977 114.011 28.6292L113.256 29.2855ZM119.999 37.7171C121.053 39.145 122.097 40.6124 123.132 42.1189L123.956 41.5528C122.916 40.0373 121.865 38.5605 120.803 37.1231L119.999 37.7171Z" fill="#838383"/>
</svg>
