<svg width="64" height="23" viewBox="0 0 64 23" fill="none" xmlns="http://www.w3.org/2000/svg">
<path d="M0.662016 22.458L5.92303 20.0799L1.23309 16.7128L0.662016 22.458ZM63.3869 14.8148L61.4317 9.38242L57.7048 13.7918L63.3869 14.8148ZM5.91234 16.4323C7.10069 15.0354 8.29509 13.7412 9.49532 12.5475L8.79015 11.8385C7.56891 13.0531 6.35574 14.3678 5.15067 15.7843L5.91234 16.4323ZM13.4128 9.02165C14.8344 7.87418 16.2634 6.86162 17.6996 5.98019L17.1766 5.12789C15.7014 6.03324 14.2374 7.07092 12.7847 8.24353L13.4128 9.02165ZM22.3683 3.58239C24.0203 2.89581 25.6823 2.37335 27.3542 2.00974L27.1417 1.03259C25.4095 1.4093 23.6903 1.95004 21.9845 2.65896L22.3683 3.58239ZM32.5423 1.38623C34.2688 1.3428 36.0081 1.45899 37.7603 1.73051L37.9134 0.742305C36.1047 0.462019 34.3057 0.341554 32.5171 0.38655L32.5423 1.38623ZM42.8644 2.9453C44.4841 3.46218 46.1149 4.10483 47.7566 4.87017L48.1791 3.96382C46.5019 3.18193 44.8316 2.52339 43.1684 1.99263L42.8644 2.9453ZM52.4157 7.35139C53.8813 8.22727 55.355 9.19606 56.8365 10.2555L57.4182 9.44208C55.9162 8.36797 54.4196 7.38398 52.9286 6.49299L52.4157 7.35139Z" fill="#838383"/>
</svg>
