<svg width="79" height="31" viewBox="0 0 79 31" fill="none" xmlns="http://www.w3.org/2000/svg">
<path d="M0 15.7504L5.74287 15.1565L2.3571 10.48L0 15.7504ZM79 31L78.7954 25.2301L73.9008 28.2923L79 31ZM6.75856 11.7029C8.27622 10.7393 9.77513 9.84659 11.2555 9.02371L10.7697 8.14966C9.27141 8.98247 7.75578 9.88517 6.22254 10.8587L6.75856 11.7029ZM15.8875 6.64739C17.5118 5.88509 19.1129 5.20997 20.6911 4.62037L20.3412 3.68361C18.7362 4.28318 17.1102 4.96893 15.4627 5.74212L15.8875 6.64739ZM25.6459 3.0284C27.3675 2.56745 29.0607 2.21253 30.7262 1.96125L30.577 0.972444C28.873 1.22953 27.1432 1.59227 25.3873 2.06242L25.6459 3.0284ZM35.8889 1.50958C37.6436 1.47034 39.3668 1.55149 41.0594 1.75019L41.176 0.75701C39.4365 0.552805 37.6669 0.469565 35.8666 0.509833L35.8889 1.50958ZM46.1407 2.72113C47.8014 3.16437 49.4325 3.72672 51.0347 4.4056L51.4249 3.48484C49.7807 2.78818 48.1055 2.21051 46.3986 1.75495L46.1407 2.72113ZM55.6642 6.73542C57.129 7.59246 58.5692 8.55201 59.9852 9.61202L60.5845 8.81147C59.1398 7.73002 57.6683 6.74937 56.1692 5.8723L55.6642 6.73542ZM63.9872 12.9315C65.2389 14.0737 66.4709 15.2979 67.6836 16.6026L68.4161 15.9218C67.1858 14.5983 65.9344 13.3546 64.6613 12.1929L63.9872 12.9315ZM71.1007 20.5533C72.1668 21.8735 73.2172 23.2583 74.2523 24.7065L75.0659 24.125C74.02 22.6618 72.9578 21.2613 71.8787 19.925L71.1007 20.5533Z" fill="#838383"/>
</svg>
