<svg width="100" height="100" fill="none" xmlns="http://www.w3.org/2000/svg"><g clip-path="url(#clip0)"><path d="M96.087 41.68l-31.301-31.3-13.18 13.18L28.047 0l-2.306 2.306 25.865 25.866 13.18-13.18 28.995 28.995h-5.93v3.295h11.531V35.75h-3.295v5.93z" fill="#000"/><path d="M96.087 41.68l-31.301-31.3-13.18 13.18L28.047 0l-2.306 2.306 25.865 25.866 13.18-13.18 28.995 28.995h-5.93v3.295h11.531V35.75h-3.295v5.93z" fill="url(#paint0_linear)"/><path d="M15.362 6.096A14.765 14.765 0 00.535 20.923c0 3.789 1.483 7.413 4.119 10.213C2.018 32.29.535 33.937.535 35.75v57.66c0 4.283 7.414 6.59 14.827 6.59 7.414 0 14.827-2.307 14.827-6.59V35.75c0-1.813-1.482-3.46-4.118-4.614 5.6-5.93 5.436-15.32-.495-20.922-2.8-2.636-6.425-4.118-10.214-4.118zm0 3.295c6.425 0 11.532 5.106 11.532 11.532 0 6.425-5.107 11.532-11.532 11.532S3.83 27.348 3.83 20.923c0-6.426 5.107-11.532 11.532-11.532zm0 87.314c-7.413 0-11.532-2.307-11.532-3.295v-3.954c3.624 1.647 7.579 2.471 11.532 2.307 3.954.164 7.908-.66 11.532-2.307v3.954c0 .988-4.118 3.295-11.532 3.295zm0-8.237c-7.413 0-11.532-2.307-11.532-3.295V81.22c3.624 1.647 7.579 2.47 11.532 2.307 3.954.164 7.908-.66 11.532-2.307v3.954c0 .988-4.118 3.295-11.532 3.295zm0-8.237c-7.413 0-11.532-2.307-11.532-3.295V72.98c3.624 1.648 7.579 2.472 11.532 2.308 3.954.164 7.908-.66 11.532-2.308v3.955c0 .988-4.118 3.295-11.532 3.295zm0-8.237c-7.413 0-11.532-2.308-11.532-3.295v-3.955c3.624 1.648 7.579 2.471 11.532 2.307 3.954.164 7.908-.66 11.532-2.307V68.7c0 .987-4.118 3.295-11.532 3.295zm0-8.238c-7.413 0-11.532-2.307-11.532-3.295v-3.954c3.624 1.647 7.579 2.471 11.532 2.307 3.954.164 7.908-.66 11.532-2.307v3.954c0 .988-4.118 3.295-11.532 3.295zm0-8.237c-7.413 0-11.532-2.307-11.532-3.295V48.27c3.624 1.647 7.579 2.47 11.532 2.307 3.954.164 7.908-.66 11.532-2.307v3.954c0 .988-4.118 3.295-11.532 3.295zm0-8.237c-7.413 0-11.532-2.307-11.532-3.295v-3.955c3.624 1.648 7.579 2.472 11.532 2.308 3.954.164 7.908-.66 11.532-2.308v3.955c0 .988-4.118 3.295-11.532 3.295zM26.894 35.75c0 .988-4.118 3.295-11.532 3.295-7.413 0-11.532-2.307-11.532-3.295 0-.33.989-1.484 3.624-2.307a14.877 14.877 0 0015.65 0c2.802.823 3.79 1.977 3.79 2.307z" fill="#000"/><path d="M15.362 6.096A14.765 14.765 0 00.535 20.923c0 3.789 1.483 7.413 4.119 10.213C2.018 32.29.535 33.937.535 35.75v57.66c0 4.283 7.414 6.59 14.827 6.59 7.414 0 14.827-2.307 14.827-6.59V35.75c0-1.813-1.482-3.46-4.118-4.614 5.6-5.93 5.436-15.32-.495-20.922-2.8-2.636-6.425-4.118-10.214-4.118zm0 3.295c6.425 0 11.532 5.106 11.532 11.532 0 6.425-5.107 11.532-11.532 11.532S3.83 27.348 3.83 20.923c0-6.426 5.107-11.532 11.532-11.532zm0 87.314c-7.413 0-11.532-2.307-11.532-3.295v-3.954c3.624 1.647 7.579 2.471 11.532 2.307 3.954.164 7.908-.66 11.532-2.307v3.954c0 .988-4.118 3.295-11.532 3.295zm0-8.237c-7.413 0-11.532-2.307-11.532-3.295V81.22c3.624 1.647 7.579 2.47 11.532 2.307 3.954.164 7.908-.66 11.532-2.307v3.954c0 .988-4.118 3.295-11.532 3.295zm0-8.237c-7.413 0-11.532-2.307-11.532-3.295V72.98c3.624 1.648 7.579 2.472 11.532 2.308 3.954.164 7.908-.66 11.532-2.308v3.955c0 .988-4.118 3.295-11.532 3.295zm0-8.237c-7.413 0-11.532-2.308-11.532-3.295v-3.955c3.624 1.648 7.579 2.471 11.532 2.307 3.954.164 7.908-.66 11.532-2.307V68.7c0 .987-4.118 3.295-11.532 3.295zm0-8.238c-7.413 0-11.532-2.307-11.532-3.295v-3.954c3.624 1.647 7.579 2.471 11.532 2.307 3.954.164 7.908-.66 11.532-2.307v3.954c0 .988-4.118 3.295-11.532 3.295zm0-8.237c-7.413 0-11.532-2.307-11.532-3.295V48.27c3.624 1.647 7.579 2.47 11.532 2.307 3.954.164 7.908-.66 11.532-2.307v3.954c0 .988-4.118 3.295-11.532 3.295zm0-8.237c-7.413 0-11.532-2.307-11.532-3.295v-3.955c3.624 1.648 7.579 2.472 11.532 2.308 3.954.164 7.908-.66 11.532-2.308v3.955c0 .988-4.118 3.295-11.532 3.295zM26.894 35.75c0 .988-4.118 3.295-11.532 3.295-7.413 0-11.532-2.307-11.532-3.295 0-.33.989-1.484 3.624-2.307a14.877 14.877 0 0015.65 0c2.802.823 3.79 1.977 3.79 2.307z" fill="url(#paint1_linear)"/><path d="M49.959 45.635c-7.414 0-14.827 2.306-14.827 6.59V93.41c0 4.282 7.413 6.589 14.827 6.589 7.413 0 14.827-2.307 14.827-6.59V52.226c0-4.284-7.414-6.59-14.827-6.59zm0 51.07c-7.414 0-11.532-2.306-11.532-3.294v-3.955c3.624 1.648 7.578 2.471 11.532 2.307 3.953.164 7.907-.66 11.532-2.307v3.955c0 .987-4.119 3.295-11.532 3.295zm0-8.237c-7.414 0-11.532-2.307-11.532-3.294v-3.955c3.624 1.647 7.578 2.471 11.532 2.307 3.953.164 7.907-.66 11.532-2.307v3.955c0 .987-4.119 3.294-11.532 3.294zm0-8.237c-7.414 0-11.532-2.307-11.532-3.295v-3.954c3.624 1.647 7.578 2.47 11.532 2.307 3.953.164 7.907-.66 11.532-2.307v3.954c0 .988-4.119 3.295-11.532 3.295zm0-8.237c-7.414 0-11.532-2.307-11.532-3.295v-3.954c3.624 1.647 7.578 2.47 11.532 2.307 3.953.164 7.907-.66 11.532-2.308V68.7c0 .988-4.119 3.295-11.532 3.295zm0-8.237c-7.414 0-11.532-2.307-11.532-3.295v-3.955c3.624 1.648 7.578 2.471 11.532 2.307 3.953.164 7.907-.66 11.532-2.307v3.955c0 .988-4.119 3.295-11.532 3.295zm0-8.238c-7.414 0-11.532-2.307-11.532-3.294 0-.99 4.118-3.295 11.532-3.295 7.413 0 11.532 2.306 11.532 3.295 0 .987-4.119 3.294-11.532 3.294z" fill="#000"/><path d="M49.959 45.635c-7.414 0-14.827 2.306-14.827 6.59V93.41c0 4.282 7.413 6.589 14.827 6.589 7.413 0 14.827-2.307 14.827-6.59V52.226c0-4.284-7.414-6.59-14.827-6.59zm0 51.07c-7.414 0-11.532-2.306-11.532-3.294v-3.955c3.624 1.648 7.578 2.471 11.532 2.307 3.953.164 7.907-.66 11.532-2.307v3.955c0 .987-4.119 3.295-11.532 3.295zm0-8.237c-7.414 0-11.532-2.307-11.532-3.294v-3.955c3.624 1.647 7.578 2.471 11.532 2.307 3.953.164 7.907-.66 11.532-2.307v3.955c0 .987-4.119 3.294-11.532 3.294zm0-8.237c-7.414 0-11.532-2.307-11.532-3.295v-3.954c3.624 1.647 7.578 2.47 11.532 2.307 3.953.164 7.907-.66 11.532-2.307v3.954c0 .988-4.119 3.295-11.532 3.295zm0-8.237c-7.414 0-11.532-2.307-11.532-3.295v-3.954c3.624 1.647 7.578 2.47 11.532 2.307 3.953.164 7.907-.66 11.532-2.308V68.7c0 .988-4.119 3.295-11.532 3.295zm0-8.237c-7.414 0-11.532-2.307-11.532-3.295v-3.955c3.624 1.648 7.578 2.471 11.532 2.307 3.953.164 7.907-.66 11.532-2.307v3.955c0 .988-4.119 3.295-11.532 3.295zm0-8.238c-7.414 0-11.532-2.307-11.532-3.294 0-.99 4.118-3.295 11.532-3.295 7.413 0 11.532 2.306 11.532 3.295 0 .987-4.119 3.294-11.532 3.294z" fill="url(#paint2_linear)"/><path d="M84.555 53.872c-7.413 0-14.827 2.306-14.827 6.59V93.41c0 4.283 7.414 6.59 14.828 6.59 7.413 0 14.826-2.307 14.826-6.59V60.461c0-4.283-7.413-6.59-14.827-6.59zm0 42.833c-7.413 0-11.532-2.307-11.532-3.295v-3.954c3.624 1.647 7.579 2.471 11.532 2.307 3.954.164 7.908-.66 11.533-2.307v3.954c0 .988-4.119 3.295-11.532 3.295zm0-8.237c-7.413 0-11.532-2.307-11.532-3.295V81.22c3.624 1.647 7.579 2.47 11.532 2.307 3.954.164 7.908-.66 11.533-2.307v3.954c0 .988-4.119 3.295-11.532 3.295zm0-8.237c-7.413 0-11.532-2.307-11.532-3.295V72.98c3.624 1.648 7.579 2.472 11.532 2.307 3.954.165 7.908-.66 11.533-2.307v3.955c0 .988-4.119 3.295-11.532 3.295zm0-8.237c-7.413 0-11.532-2.308-11.532-3.295v-3.955c3.624 1.647 7.579 2.471 11.532 2.307 3.954.164 7.908-.66 11.533-2.307V68.7c0 .987-4.119 3.294-11.532 3.294zm0-8.238c-7.413 0-11.532-2.307-11.532-3.295s4.119-3.294 11.532-3.294c7.414 0 11.533 2.306 11.533 3.294s-4.119 3.295-11.532 3.295z" fill="#000"/><path d="M84.555 53.872c-7.413 0-14.827 2.306-14.827 6.59V93.41c0 4.283 7.414 6.59 14.828 6.59 7.413 0 14.826-2.307 14.826-6.59V60.461c0-4.283-7.413-6.59-14.827-6.59zm0 42.833c-7.413 0-11.532-2.307-11.532-3.295v-3.954c3.624 1.647 7.579 2.471 11.532 2.307 3.954.164 7.908-.66 11.533-2.307v3.954c0 .988-4.119 3.295-11.532 3.295zm0-8.237c-7.413 0-11.532-2.307-11.532-3.295V81.22c3.624 1.647 7.579 2.47 11.532 2.307 3.954.164 7.908-.66 11.533-2.307v3.954c0 .988-4.119 3.295-11.532 3.295zm0-8.237c-7.413 0-11.532-2.307-11.532-3.295V72.98c3.624 1.648 7.579 2.472 11.532 2.307 3.954.165 7.908-.66 11.533-2.307v3.955c0 .988-4.119 3.295-11.532 3.295zm0-8.237c-7.413 0-11.532-2.308-11.532-3.295v-3.955c3.624 1.647 7.579 2.471 11.532 2.307 3.954.164 7.908-.66 11.533-2.307V68.7c0 .987-4.119 3.294-11.532 3.294zm0-8.238c-7.413 0-11.532-2.307-11.532-3.295s4.119-3.294 11.532-3.294c7.414 0 11.533 2.306 11.533 3.294s-4.119 3.295-11.532 3.295z" fill="url(#paint3_linear)"/><path d="M84.06 42.834L64.787 23.558l-13.18 13.18-8.731-8.732-2.307 2.307L51.607 41.35l13.18-13.18 16.967 16.97 2.306-2.306z" fill="#000"/><path d="M84.06 42.834L64.787 23.558l-13.18 13.18-8.731-8.732-2.307 2.307L51.607 41.35l13.18-13.18 16.967 16.97 2.306-2.306z" fill="url(#paint4_linear)"/><path d="M32.344 22.113l2.33-2.33 4.892 4.893-2.33 2.33-4.892-4.893z" fill="#000"/><path d="M32.344 22.113l2.33-2.33 4.892 4.893-2.33 2.33-4.892-4.893z" fill="url(#paint5_linear)"/></g><defs><linearGradient id="paint0_linear" x1="62.562" y1="0" x2="62.562" y2="47.282" gradientUnits="userSpaceOnUse"><stop stop-color="#FFE5AC"/><stop offset="0" stop-color="#FFE5AC"/><stop offset="1" stop-color="#B99C5D"/></linearGradient><linearGradient id="paint1_linear" x1="15.362" y1="6.096" x2="15.362" y2="100" gradientUnits="userSpaceOnUse"><stop stop-color="#FFE5AC"/><stop offset="0" stop-color="#FFE5AC"/><stop offset="1" stop-color="#B99C5D"/></linearGradient><linearGradient id="paint2_linear" x1="49.959" y1="45.635" x2="49.959" y2="100" gradientUnits="userSpaceOnUse"><stop stop-color="#FFE5AC"/><stop offset="0" stop-color="#FFE5AC"/><stop offset="1" stop-color="#B99C5D"/></linearGradient><linearGradient id="paint3_linear" x1="84.555" y1="53.872" x2="84.555" y2="100" gradientUnits="userSpaceOnUse"><stop stop-color="#FFE5AC"/><stop offset="0" stop-color="#FFE5AC"/><stop offset="1" stop-color="#B99C5D"/></linearGradient><linearGradient id="paint4_linear" x1="62.315" y1="23.558" x2="62.315" y2="45.14" gradientUnits="userSpaceOnUse"><stop stop-color="#FFE5AC"/><stop offset="0" stop-color="#FFE5AC"/><stop offset="1" stop-color="#B99C5D"/></linearGradient><linearGradient id="paint5_linear" x1="35.955" y1="19.783" x2="35.955" y2="27.005" gradientUnits="userSpaceOnUse"><stop stop-color="#FFE5AC"/><stop offset="0" stop-color="#FFE5AC"/><stop offset="1" stop-color="#B99C5D"/></linearGradient><clipPath id="clip0"><path fill="#fff" d="M0 0h100v100H0z"/></clipPath></defs></svg>