<svg width="100" height="100" fill="none" xmlns="http://www.w3.org/2000/svg"><path d="M89.063 18.75H56.25v3.125h32.813a4.688 4.688 0 014.687 4.688V62.5H21.875v-6.25H18.75v14.063a7.822 7.822 0 007.813 7.812h18.542L43.933 87.5h-1.745a4.688 4.688 0 000 9.375h31.25a4.688 4.688 0 000-9.375h-1.746l-1.172-9.375h18.543a7.822 7.822 0 007.812-7.813v-43.75a7.822 7.822 0 00-7.813-7.812zM75 92.188a1.563 1.563 0 01-1.563 1.562h-31.25a1.563 1.563 0 010-3.125h31.25A1.563 1.563 0 0175 92.188zM68.542 87.5h-21.46l1.173-9.375H67.37l1.172 9.375zM89.062 75h-62.5a4.688 4.688 0 01-4.687-4.688v-4.687H93.75v4.688A4.688 4.688 0 0189.062 75z" fill="#000"/><path d="M89.063 18.75H56.25v3.125h32.813a4.688 4.688 0 014.687 4.688V62.5H21.875v-6.25H18.75v14.063a7.822 7.822 0 007.813 7.812h18.542L43.933 87.5h-1.745a4.688 4.688 0 000 9.375h31.25a4.688 4.688 0 000-9.375h-1.746l-1.172-9.375h18.543a7.822 7.822 0 007.812-7.813v-43.75a7.822 7.822 0 00-7.813-7.812zM75 92.188a1.563 1.563 0 01-1.563 1.562h-31.25a1.563 1.563 0 010-3.125h31.25A1.563 1.563 0 0175 92.188zM68.542 87.5h-21.46l1.173-9.375H67.37l1.172 9.375zM89.062 75h-62.5a4.688 4.688 0 01-4.687-4.688v-4.687H93.75v4.688A4.688 4.688 0 0189.062 75z" fill="url(#paint0_linear)"/><path d="M84.375 68.75H87.5v3.125h-3.125V68.75z" fill="#000"/><path d="M84.375 68.75H87.5v3.125h-3.125V68.75z" fill="url(#paint1_linear)"/><path d="M53.125 48.438V7.812a4.688 4.688 0 00-4.688-4.687H7.813a4.687 4.687 0 00-4.688 4.688v40.624a4.688 4.688 0 004.688 4.688h40.624a4.688 4.688 0 004.688-4.688zM7.812 6.25h40.626A1.563 1.563 0 0150 7.813V12.5H6.25V7.812A1.562 1.562 0 017.813 6.25zM6.25 48.438V15.624H50v32.813A1.563 1.563 0 0148.437 50H7.813a1.563 1.563 0 01-1.563-1.563z" fill="#000"/><path d="M53.125 48.438V7.812a4.688 4.688 0 00-4.688-4.687H7.813a4.687 4.687 0 00-4.688 4.688v40.624a4.688 4.688 0 004.688 4.688h40.624a4.688 4.688 0 004.688-4.688zM7.812 6.25h40.626A1.563 1.563 0 0150 7.813V12.5H6.25V7.812A1.562 1.562 0 017.813 6.25zM6.25 48.438V15.624H50v32.813A1.563 1.563 0 0148.437 50H7.813a1.563 1.563 0 01-1.563-1.563z" fill="url(#paint2_linear)"/><path d="M9.375 7.813H12.5v3.125H9.375V7.812z" fill="#000"/><path d="M9.375 7.813H12.5v3.125H9.375V7.812z" fill="url(#paint3_linear)"/><path d="M15.625 7.813h3.125v3.125h-3.125V7.812z" fill="#000"/><path d="M15.625 7.813h3.125v3.125h-3.125V7.812z" fill="url(#paint4_linear)"/><path d="M21.875 7.813H25v3.125h-3.125V7.812z" fill="#000"/><path d="M21.875 7.813H25v3.125h-3.125V7.812z" fill="url(#paint5_linear)"/><path d="M40.625 31.25H37.5v10.938h-3.125V21.875H31.25v20.313h-3.125V28.124H25v14.063h-3.125v-7.813H18.75v7.813h-3.125v3.124H43.75v-3.124h-3.125V31.25z" fill="#000"/><path d="M40.625 31.25H37.5v10.938h-3.125V21.875H31.25v20.313h-3.125V28.124H25v14.063h-3.125v-7.813H18.75v7.813h-3.125v3.124H43.75v-3.124h-3.125V31.25z" fill="url(#paint6_linear)"/><path d="M9.375 20.313h9.375v3.125H9.375v-3.125z" fill="#000"/><path d="M9.375 20.313h9.375v3.125H9.375v-3.125z" fill="url(#paint7_linear)"/><path d="M9.375 26.563h9.375v3.125H9.375v-3.125z" fill="#000"/><path d="M9.375 26.563h9.375v3.125H9.375v-3.125z" fill="url(#paint8_linear)"/><path d="M60.938 28.125h3.124v3.125h-3.124v-3.125z" fill="#000"/><path d="M60.938 28.125h3.124v3.125h-3.124v-3.125z" fill="url(#paint9_linear)"/><path d="M67.188 28.125h18.75v3.125h-18.75v-3.125z" fill="#000"/><path d="M67.188 28.125h18.75v3.125h-18.75v-3.125z" fill="url(#paint10_linear)"/><path d="M60.938 34.375h25V37.5h-25v-3.125z" fill="#000"/><path d="M60.938 34.375h25V37.5h-25v-3.125z" fill="url(#paint11_linear)"/><path d="M60.938 40.625h25v3.125h-25v-3.125z" fill="#000"/><path d="M60.938 40.625h25v3.125h-25v-3.125z" fill="url(#paint12_linear)"/><path d="M60.938 46.875h18.75V50h-18.75v-3.125z" fill="#000"/><path d="M60.938 46.875h18.75V50h-18.75v-3.125z" fill="url(#paint13_linear)"/><path d="M82.813 46.875h3.124V50h-3.124v-3.125z" fill="#000"/><path d="M82.813 46.875h3.124V50h-3.124v-3.125z" fill="url(#paint14_linear)"/><defs><linearGradient id="paint0_linear" x1="57.813" y1="18.75" x2="57.813" y2="96.875" gradientUnits="userSpaceOnUse"><stop stop-color="#FFE5AC"/><stop offset="0" stop-color="#FFE5AC"/><stop offset="1" stop-color="#B99C5D"/></linearGradient><linearGradient id="paint1_linear" x1="85.938" y1="68.75" x2="85.938" y2="71.875" gradientUnits="userSpaceOnUse"><stop stop-color="#FFE5AC"/><stop offset="0" stop-color="#FFE5AC"/><stop offset="1" stop-color="#B99C5D"/></linearGradient><linearGradient id="paint2_linear" x1="28.125" y1="3.125" x2="28.125" y2="53.125" gradientUnits="userSpaceOnUse"><stop stop-color="#FFE5AC"/><stop offset="0" stop-color="#FFE5AC"/><stop offset="1" stop-color="#B99C5D"/></linearGradient><linearGradient id="paint3_linear" x1="10.938" y1="7.813" x2="10.938" y2="10.938" gradientUnits="userSpaceOnUse"><stop stop-color="#FFE5AC"/><stop offset="0" stop-color="#FFE5AC"/><stop offset="1" stop-color="#B99C5D"/></linearGradient><linearGradient id="paint4_linear" x1="17.188" y1="7.813" x2="17.188" y2="10.938" gradientUnits="userSpaceOnUse"><stop stop-color="#FFE5AC"/><stop offset="0" stop-color="#FFE5AC"/><stop offset="1" stop-color="#B99C5D"/></linearGradient><linearGradient id="paint5_linear" x1="23.438" y1="7.813" x2="23.438" y2="10.938" gradientUnits="userSpaceOnUse"><stop stop-color="#FFE5AC"/><stop offset="0" stop-color="#FFE5AC"/><stop offset="1" stop-color="#B99C5D"/></linearGradient><linearGradient id="paint6_linear" x1="29.688" y1="21.875" x2="29.688" y2="45.313" gradientUnits="userSpaceOnUse"><stop stop-color="#FFE5AC"/><stop offset="0" stop-color="#FFE5AC"/><stop offset="1" stop-color="#B99C5D"/></linearGradient><linearGradient id="paint7_linear" x1="14.063" y1="20.313" x2="14.063" y2="23.438" gradientUnits="userSpaceOnUse"><stop stop-color="#FFE5AC"/><stop offset="0" stop-color="#FFE5AC"/><stop offset="1" stop-color="#B99C5D"/></linearGradient><linearGradient id="paint8_linear" x1="14.063" y1="26.563" x2="14.063" y2="29.688" gradientUnits="userSpaceOnUse"><stop stop-color="#FFE5AC"/><stop offset="0" stop-color="#FFE5AC"/><stop offset="1" stop-color="#B99C5D"/></linearGradient><linearGradient id="paint9_linear" x1="62.5" y1="28.125" x2="62.5" y2="31.25" gradientUnits="userSpaceOnUse"><stop stop-color="#FFE5AC"/><stop offset="0" stop-color="#FFE5AC"/><stop offset="1" stop-color="#B99C5D"/></linearGradient><linearGradient id="paint10_linear" x1="76.563" y1="28.125" x2="76.563" y2="31.25" gradientUnits="userSpaceOnUse"><stop stop-color="#FFE5AC"/><stop offset="0" stop-color="#FFE5AC"/><stop offset="1" stop-color="#B99C5D"/></linearGradient><linearGradient id="paint11_linear" x1="73.438" y1="34.375" x2="73.438" y2="37.5" gradientUnits="userSpaceOnUse"><stop stop-color="#FFE5AC"/><stop offset="0" stop-color="#FFE5AC"/><stop offset="1" stop-color="#B99C5D"/></linearGradient><linearGradient id="paint12_linear" x1="73.438" y1="40.625" x2="73.438" y2="43.75" gradientUnits="userSpaceOnUse"><stop stop-color="#FFE5AC"/><stop offset="0" stop-color="#FFE5AC"/><stop offset="1" stop-color="#B99C5D"/></linearGradient><linearGradient id="paint13_linear" x1="70.313" y1="46.875" x2="70.313" y2="50" gradientUnits="userSpaceOnUse"><stop stop-color="#FFE5AC"/><stop offset="0" stop-color="#FFE5AC"/><stop offset="1" stop-color="#B99C5D"/></linearGradient><linearGradient id="paint14_linear" x1="84.375" y1="46.875" x2="84.375" y2="50" gradientUnits="userSpaceOnUse"><stop stop-color="#FFE5AC"/><stop offset="0" stop-color="#FFE5AC"/><stop offset="1" stop-color="#B99C5D"/></linearGradient></defs></svg>