<svg width="100" height="100" fill="none" xmlns="http://www.w3.org/2000/svg"><path d="M84.98 58.242l-.463.25c-1.872-2.271-5.114-3.151-7.585-1.9l-.026.014-1.094.59a8.306 8.306 0 00-9.511-.86l-5.89 3.203h-7.837a11.32 11.32 0 01-4.9-1.123l-1.078-.521a18.495 18.495 0 00-19.249 1.88c-.026.019-.05.039-.074.06l-2.603 2.318a9.027 9.027 0 01-3.407 1.899l-1.478-4.853a1.173 1.173 0 00-1.121-.83H6.075a1.172 1.172 0 00-1.163 1.314l4.196 34.406a1.172 1.172 0 001.163 1.03h18.882a1.172 1.172 0 001.12-1.514l-2.48-8.14 7.726-4.882a4.648 4.648 0 013.391-.439c.025.006.049.012.074.016l15.714 2.894c4.27.764 8.674.142 12.566-1.774.05-.025.098-.053.143-.084l27.18-18.663a1.172 1.172 0 00.341-1.57 7.46 7.46 0 00-9.948-2.72zm-6.976.435c1.429-.715 3.227-.129 4.376.968l-10.307 5.56-.605.32a8.938 8.938 0 00-1.412-2.566l7.948-4.282zm-10.569-.29a5.96 5.96 0 016.09.041l-5.24 2.822a8.905 8.905 0 00-3.348-1.507l2.498-1.356zM11.308 92.775l-3.91-32.062h10.397l9.775 32.062H11.308zm54.84-13.56a17.976 17.976 0 01-11.03 1.532l-15.676-2.886a6.987 6.987 0 00-5.15.722l-7.21 4.558-5.136-16.846a11.38 11.38 0 004.28-2.394l2.567-2.285a16.16 16.16 0 0116.78-1.614l1.079.521c1.847.89 3.87 1.354 5.92 1.357h10.455a6.611 6.611 0 016.484 5.37l-7.577-.344a45.375 45.375 0 00-8.246.382 1.171 1.171 0 00.321 2.321 42.96 42.96 0 017.819-.36l8.917.402.053.002a1.172 1.172 0 001.172-1.172c0-.19-.008-.378-.02-.565l1.224-.644 12.92-6.968a5.12 5.12 0 016.16.987L66.15 79.215z" fill="#000"/><path d="M84.98 58.242l-.463.25c-1.872-2.271-5.114-3.151-7.585-1.9l-.026.014-1.094.59a8.306 8.306 0 00-9.511-.86l-5.89 3.203h-7.837a11.32 11.32 0 01-4.9-1.123l-1.078-.521a18.495 18.495 0 00-19.249 1.88c-.026.019-.05.039-.074.06l-2.603 2.318a9.027 9.027 0 01-3.407 1.899l-1.478-4.853a1.173 1.173 0 00-1.121-.83H6.075a1.172 1.172 0 00-1.163 1.314l4.196 34.406a1.172 1.172 0 001.163 1.03h18.882a1.172 1.172 0 001.12-1.514l-2.48-8.14 7.726-4.882a4.648 4.648 0 013.391-.439c.025.006.049.012.074.016l15.714 2.894c4.27.764 8.674.142 12.566-1.774.05-.025.098-.053.143-.084l27.18-18.663a1.172 1.172 0 00.341-1.57 7.46 7.46 0 00-9.948-2.72zm-6.976.435c1.429-.715 3.227-.129 4.376.968l-10.307 5.56-.605.32a8.938 8.938 0 00-1.412-2.566l7.948-4.282zm-10.569-.29a5.96 5.96 0 016.09.041l-5.24 2.822a8.905 8.905 0 00-3.348-1.507l2.498-1.356zM11.308 92.775l-3.91-32.062h10.397l9.775 32.062H11.308zm54.84-13.56a17.976 17.976 0 01-11.03 1.532l-15.676-2.886a6.987 6.987 0 00-5.15.722l-7.21 4.558-5.136-16.846a11.38 11.38 0 004.28-2.394l2.567-2.285a16.16 16.16 0 0116.78-1.614l1.079.521c1.847.89 3.87 1.354 5.92 1.357h10.455a6.611 6.611 0 016.484 5.37l-7.577-.344a45.375 45.375 0 00-8.246.382 1.171 1.171 0 00.321 2.321 42.96 42.96 0 017.819-.36l8.917.402.053.002a1.172 1.172 0 001.172-1.172c0-.19-.008-.378-.02-.565l1.224-.644 12.92-6.968a5.12 5.12 0 016.16.987L66.15 79.215z" fill="url(#paint0_linear)"/><path d="M15.034 87.927a3.69 3.69 0 107.38 0 3.69 3.69 0 00-7.38 0zm3.69-1.346a1.346 1.346 0 110 2.692 1.346 1.346 0 010-2.691z" fill="#000"/><path d="M15.034 87.927a3.69 3.69 0 107.38 0 3.69 3.69 0 00-7.38 0zm3.69-1.346a1.346 1.346 0 110 2.692 1.346 1.346 0 010-2.691z" fill="url(#paint1_linear)"/><path d="M58.91 17.638v-3.862a8.895 8.895 0 00-17.79 0v3.862a8.896 8.896 0 0017.79 0zm-15.446 0v-3.862a6.551 6.551 0 0113.103 0v3.862a6.552 6.552 0 01-13.103 0z" fill="#000"/><path d="M58.91 17.638v-3.862a8.895 8.895 0 00-17.79 0v3.862a8.896 8.896 0 0017.79 0zm-15.446 0v-3.862a6.551 6.551 0 0113.103 0v3.862a6.552 6.552 0 01-13.103 0z" fill="url(#paint2_linear)"/><path d="M35.677 50.669h28.676a1.172 1.172 0 001.172-1.172v-2.69h19.631a1.172 1.172 0 001.172-1.172V38.03a8.784 8.784 0 00-8.224-8.76c-.625-.047-.946.349-1.207.667a5.379 5.379 0 01-8.485-.208 1.172 1.172 0 00-.971-.475 8.687 8.687 0 00-4.311 1.258 9.85 9.85 0 00-6.875-3.41c-.606-.025-.912.343-1.209.703a6.309 6.309 0 01-9.956-.243 1.167 1.167 0 00-.972-.475 9.808 9.808 0 00-7.23 3.436 8.714 8.714 0 00-3.996-1.254c-.623-.046-.947.35-1.207.667a5.38 5.38 0 01-8.485-.207 1.176 1.176 0 00-.971-.475 8.78 8.78 0 00-8.557 8.776v7.606a1.171 1.171 0 001.172 1.172h19.661v2.69a1.171 1.171 0 001.172 1.172zM66.94 31.634a7.723 7.723 0 0011.563.03 6.443 6.443 0 015.481 6.365v6.434H65.525v-7.517a9.806 9.806 0 00-1.083-4.487 6.335 6.335 0 012.498-.825zm-23.327-2.169a8.656 8.656 0 0013.073.031 7.528 7.528 0 016.496 7.45v11.38H36.85v-11.38a7.57 7.57 0 016.764-7.48zM16.016 44.463V38.03a6.48 6.48 0 015.713-6.394 7.722 7.722 0 0011.561.03c.807.12 1.583.394 2.287.806a9.819 9.819 0 00-1.072 4.475v7.517h-18.49z" fill="#000"/><path d="M35.677 50.669h28.676a1.172 1.172 0 001.172-1.172v-2.69h19.631a1.172 1.172 0 001.172-1.172V38.03a8.784 8.784 0 00-8.224-8.76c-.625-.047-.946.349-1.207.667a5.379 5.379 0 01-8.485-.208 1.172 1.172 0 00-.971-.475 8.687 8.687 0 00-4.311 1.258 9.85 9.85 0 00-6.875-3.41c-.606-.025-.912.343-1.209.703a6.309 6.309 0 01-9.956-.243 1.167 1.167 0 00-.972-.475 9.808 9.808 0 00-7.23 3.436 8.714 8.714 0 00-3.996-1.254c-.623-.046-.947.35-1.207.667a5.38 5.38 0 01-8.485-.207 1.176 1.176 0 00-.971-.475 8.78 8.78 0 00-8.557 8.776v7.606a1.171 1.171 0 001.172 1.172h19.661v2.69a1.171 1.171 0 001.172 1.172zM66.94 31.634a7.723 7.723 0 0011.563.03 6.443 6.443 0 015.481 6.365v6.434H65.525v-7.517a9.806 9.806 0 00-1.083-4.487 6.335 6.335 0 012.498-.825zm-23.327-2.169a8.656 8.656 0 0013.073.031 7.528 7.528 0 016.496 7.45v11.38H36.85v-11.38a7.57 7.57 0 016.764-7.48zM16.016 44.463V38.03a6.48 6.48 0 015.713-6.394 7.722 7.722 0 0011.561.03c.807.12 1.583.394 2.287.806a9.819 9.819 0 00-1.072 4.475v7.517h-18.49z" fill="url(#paint3_linear)"/><path d="M80.538 21.129v-3.38a7.932 7.932 0 00-15.864 0v3.38a7.932 7.932 0 1015.864 0zm-13.52 0v-3.38a5.588 5.588 0 1111.176 0v3.38a5.588 5.588 0 11-11.176 0z" fill="#000"/><path d="M80.538 21.129v-3.38a7.932 7.932 0 00-15.864 0v3.38a7.932 7.932 0 1015.864 0zm-13.52 0v-3.38a5.588 5.588 0 1111.176 0v3.38a5.588 5.588 0 11-11.176 0z" fill="url(#paint4_linear)"/><path d="M35.326 21.129v-3.38a7.932 7.932 0 00-15.864 0v3.38a7.933 7.933 0 0015.864 0zm-13.52 0v-3.38a5.588 5.588 0 1111.176 0v3.38a5.587 5.587 0 11-11.176 0z" fill="#000"/><path d="M35.326 21.129v-3.38a7.932 7.932 0 00-15.864 0v3.38a7.933 7.933 0 0015.864 0zm-13.52 0v-3.38a5.588 5.588 0 1111.176 0v3.38a5.587 5.587 0 11-11.176 0z" fill="url(#paint5_linear)"/><defs><linearGradient id="paint0_linear" x1="50" y1="55.228" x2="50" y2="95.119" gradientUnits="userSpaceOnUse"><stop stop-color="#FFE5AC"/><stop offset="0" stop-color="#FFE5AC"/><stop offset="1" stop-color="#B99C5D"/></linearGradient><linearGradient id="paint1_linear" x1="18.724" y1="84.238" x2="18.724" y2="91.617" gradientUnits="userSpaceOnUse"><stop stop-color="#FFE5AC"/><stop offset="0" stop-color="#FFE5AC"/><stop offset="1" stop-color="#B99C5D"/></linearGradient><linearGradient id="paint2_linear" x1="50.015" y1="4.922" x2="50.015" y2="26.491" gradientUnits="userSpaceOnUse"><stop stop-color="#FFE5AC"/><stop offset="0" stop-color="#FFE5AC"/><stop offset="1" stop-color="#B99C5D"/></linearGradient><linearGradient id="paint3_linear" x1="50" y1="27.085" x2="50" y2="50.669" gradientUnits="userSpaceOnUse"><stop stop-color="#FFE5AC"/><stop offset="0" stop-color="#FFE5AC"/><stop offset="1" stop-color="#B99C5D"/></linearGradient><linearGradient id="paint4_linear" x1="72.606" y1="9.816" x2="72.606" y2="29.061" gradientUnits="userSpaceOnUse"><stop stop-color="#FFE5AC"/><stop offset="0" stop-color="#FFE5AC"/><stop offset="1" stop-color="#B99C5D"/></linearGradient><linearGradient id="paint5_linear" x1="27.394" y1="9.816" x2="27.394" y2="29.061" gradientUnits="userSpaceOnUse"><stop stop-color="#FFE5AC"/><stop offset="0" stop-color="#FFE5AC"/><stop offset="1" stop-color="#B99C5D"/></linearGradient></defs></svg>