<svg width="100" height="98" fill="none" xmlns="http://www.w3.org/2000/svg"><path d="M8.064 87.676H50v-3.227H8.064a4.839 4.839 0 01-4.838-4.838V8.643a4.838 4.838 0 014.838-4.839h70.968a4.838 4.838 0 014.839 4.839v37.096h3.226V8.644A8.074 8.074 0 0079.032.579H8.064A8.074 8.074 0 000 8.643v70.968a8.076 8.076 0 008.064 8.065z" fill="#000"/><path d="M8.064 87.676H50v-3.227H8.064a4.839 4.839 0 01-4.838-4.838V8.643a4.838 4.838 0 014.838-4.839h70.968a4.838 4.838 0 014.839 4.839v37.096h3.226V8.644A8.074 8.074 0 0079.032.579H8.064A8.074 8.074 0 000 8.643v70.968a8.076 8.076 0 008.064 8.065z" fill="url(#paint0_linear)"/><path d="M6.452 7.03h3.225v3.226H6.452V7.031z" fill="#000"/><path d="M6.452 7.03h3.225v3.226H6.452V7.031z" fill="url(#paint1_linear)"/><path d="M12.903 7.03h3.227v3.226h-3.227V7.031z" fill="#000"/><path d="M12.903 7.03h3.227v3.226h-3.227V7.031z" fill="url(#paint2_linear)"/><path d="M19.355 7.03h3.226v3.226h-3.226V7.031z" fill="#000"/><path d="M19.355 7.03h3.226v3.226h-3.226V7.031z" fill="url(#paint3_linear)"/><path d="M6.452 13.481h74.193v3.227H6.452V13.48z" fill="#000"/><path d="M6.452 13.481h74.193v3.227H6.452V13.48z" fill="url(#paint4_linear)"/><path d="M23.053 20.406l-4.097 4.097a8.089 8.089 0 102.28 2.281l4.097-4.097-2.28-2.28zm-8.538 15.656a4.838 4.838 0 010-9.676c.72.002 1.428.167 2.074.483l-3.213 3.213 2.28 2.28 3.215-3.21a4.75 4.75 0 01.484 2.072 4.838 4.838 0 01-4.84 4.838z" fill="#000"/><path d="M23.053 20.406l-4.097 4.097a8.089 8.089 0 102.28 2.281l4.097-4.097-2.28-2.28zm-8.538 15.656a4.838 4.838 0 010-9.676c.72.002 1.428.167 2.074.483l-3.213 3.213 2.28 2.28 3.215-3.21a4.75 4.75 0 01.484 2.072 4.838 4.838 0 01-4.84 4.838z" fill="url(#paint5_linear)"/><path d="M27.42 26.385h27.419v3.225h-27.42v-3.225z" fill="#000"/><path d="M27.42 26.385h27.419v3.225h-27.42v-3.225z" fill="url(#paint6_linear)"/><path d="M27.42 32.837h11.29v3.225H27.42v-3.225z" fill="#000"/><path d="M27.42 32.837h11.29v3.225H27.42v-3.225z" fill="url(#paint7_linear)"/><path d="M41.935 32.837h22.58v3.225h-22.58v-3.225z" fill="#000"/><path d="M41.935 32.837h22.58v3.225h-22.58v-3.225z" fill="url(#paint8_linear)"/><path d="M58.065 26.385h16.129v3.225h-16.13v-3.225z" fill="#000"/><path d="M58.065 26.385h16.129v3.225h-16.13v-3.225z" fill="url(#paint9_linear)"/><path d="M23.053 39.76l-4.097 4.098a8.089 8.089 0 102.28 2.28l4.097-4.096-2.28-2.281zm-8.538 15.657a4.839 4.839 0 010-9.678c.72.003 1.428.169 2.074.484l-3.213 3.214 2.28 2.28 3.215-3.211c.316.645.481 1.353.484 2.073a4.838 4.838 0 01-4.84 4.838z" fill="#000"/><path d="M23.053 39.76l-4.097 4.098a8.089 8.089 0 102.28 2.28l4.097-4.096-2.28-2.281zm-8.538 15.657a4.839 4.839 0 010-9.678c.72.003 1.428.169 2.074.484l-3.213 3.214 2.28 2.28 3.215-3.211c.316.645.481 1.353.484 2.073a4.838 4.838 0 01-4.84 4.838z" fill="url(#paint10_linear)"/><path d="M27.42 45.74h27.419v3.226h-27.42V45.74z" fill="#000"/><path d="M27.42 45.74h27.419v3.226h-27.42V45.74z" fill="url(#paint11_linear)"/><path d="M27.42 52.192h11.29v3.226H27.42v-3.226z" fill="#000"/><path d="M27.42 52.192h11.29v3.226H27.42v-3.226z" fill="url(#paint12_linear)"/><path d="M41.935 52.192h12.903v3.226H41.935v-3.226z" fill="#000"/><path d="M41.935 52.192h12.903v3.226H41.935v-3.226z" fill="url(#paint13_linear)"/><path d="M58.065 45.74h6.45v3.226h-6.45V45.74z" fill="#000"/><path d="M58.065 45.74h6.45v3.226h-6.45V45.74z" fill="url(#paint14_linear)"/><path d="M23.053 59.115l-4.097 4.097a8.089 8.089 0 102.28 2.28l4.097-4.096-2.28-2.28zm-8.538 15.657a4.839 4.839 0 010-9.678c.72.003 1.428.168 2.074.484l-3.213 3.214 2.28 2.28 3.215-3.212a4.76 4.76 0 01.484 2.073 4.838 4.838 0 01-4.84 4.839z" fill="#000"/><path d="M23.053 59.115l-4.097 4.097a8.089 8.089 0 102.28 2.28l4.097-4.096-2.28-2.28zm-8.538 15.657a4.839 4.839 0 010-9.678c.72.003 1.428.168 2.074.484l-3.213 3.214 2.28 2.28 3.215-3.212a4.76 4.76 0 01.484 2.073 4.838 4.838 0 01-4.84 4.839z" fill="url(#paint15_linear)"/><path d="M27.42 65.095h20.967v3.226H27.42v-3.226z" fill="#000"/><path d="M27.42 65.095h20.967v3.226H27.42v-3.226z" fill="url(#paint16_linear)"/><path d="M27.42 71.546h11.29v3.226H27.42v-3.226z" fill="#000"/><path d="M27.42 71.546h11.29v3.226H27.42v-3.226z" fill="url(#paint17_linear)"/><path d="M41.935 71.546h6.452v3.226h-6.452v-3.226z" fill="#000"/><path d="M41.935 71.546h6.452v3.226h-6.452v-3.226z" fill="url(#paint18_linear)"/><path d="M75.807 97.353C89.17 97.353 100 86.52 100 73.16c0-13.362-10.83-24.194-24.193-24.194-13.362 0-24.194 10.832-24.194 24.194.016 13.355 10.838 24.178 24.194 24.194zm0-45.162c11.58 0 20.968 9.388 20.968 20.968s-9.388 20.968-20.968 20.968S54.84 84.74 54.84 73.159c.013-11.574 9.393-20.955 20.968-20.968z" fill="#000"/><path d="M75.807 97.353C89.17 97.353 100 86.52 100 73.16c0-13.362-10.83-24.194-24.193-24.194-13.362 0-24.194 10.832-24.194 24.194.016 13.355 10.838 24.178 24.194 24.194zm0-45.162c11.58 0 20.968 9.388 20.968 20.968s-9.388 20.968-20.968 20.968S54.84 84.74 54.84 73.159c.013-11.574 9.393-20.955 20.968-20.968z" fill="url(#paint19_linear)"/><path d="M65.968 74.05l-2.887 1.442 3.226 6.452a1.612 1.612 0 001.435.893c.428 0 .838-.17 1.141-.473L88.237 63.01l-2.28-2.28L68.184 78.5l-2.216-4.45z" fill="#000"/><path d="M65.968 74.05l-2.887 1.442 3.226 6.452a1.612 1.612 0 001.435.893c.428 0 .838-.17 1.141-.473L88.237 63.01l-2.28-2.28L68.184 78.5l-2.216-4.45z" fill="url(#paint20_linear)"/><defs><linearGradient id="paint0_linear" x1="43.549" y1=".579" x2="43.549" y2="87.676" gradientUnits="userSpaceOnUse"><stop stop-color="#FFE5AC"/><stop offset="0" stop-color="#FFE5AC"/><stop offset="1" stop-color="#B99C5D"/></linearGradient><linearGradient id="paint1_linear" x1="8.065" y1="7.031" x2="8.065" y2="10.256" gradientUnits="userSpaceOnUse"><stop stop-color="#FFE5AC"/><stop offset="0" stop-color="#FFE5AC"/><stop offset="1" stop-color="#B99C5D"/></linearGradient><linearGradient id="paint2_linear" x1="14.517" y1="7.031" x2="14.517" y2="10.256" gradientUnits="userSpaceOnUse"><stop stop-color="#FFE5AC"/><stop offset="0" stop-color="#FFE5AC"/><stop offset="1" stop-color="#B99C5D"/></linearGradient><linearGradient id="paint3_linear" x1="20.968" y1="7.031" x2="20.968" y2="10.256" gradientUnits="userSpaceOnUse"><stop stop-color="#FFE5AC"/><stop offset="0" stop-color="#FFE5AC"/><stop offset="1" stop-color="#B99C5D"/></linearGradient><linearGradient id="paint4_linear" x1="43.549" y1="13.481" x2="43.549" y2="16.708" gradientUnits="userSpaceOnUse"><stop stop-color="#FFE5AC"/><stop offset="0" stop-color="#FFE5AC"/><stop offset="1" stop-color="#B99C5D"/></linearGradient><linearGradient id="paint5_linear" x1="15.868" y1="20.406" x2="15.868" y2="39.337" gradientUnits="userSpaceOnUse"><stop stop-color="#FFE5AC"/><stop offset="0" stop-color="#FFE5AC"/><stop offset="1" stop-color="#B99C5D"/></linearGradient><linearGradient id="paint6_linear" x1="41.129" y1="26.385" x2="41.129" y2="29.61" gradientUnits="userSpaceOnUse"><stop stop-color="#FFE5AC"/><stop offset="0" stop-color="#FFE5AC"/><stop offset="1" stop-color="#B99C5D"/></linearGradient><linearGradient id="paint7_linear" x1="33.065" y1="32.837" x2="33.065" y2="36.062" gradientUnits="userSpaceOnUse"><stop stop-color="#FFE5AC"/><stop offset="0" stop-color="#FFE5AC"/><stop offset="1" stop-color="#B99C5D"/></linearGradient><linearGradient id="paint8_linear" x1="53.225" y1="32.837" x2="53.225" y2="36.062" gradientUnits="userSpaceOnUse"><stop stop-color="#FFE5AC"/><stop offset="0" stop-color="#FFE5AC"/><stop offset="1" stop-color="#B99C5D"/></linearGradient><linearGradient id="paint9_linear" x1="66.129" y1="26.385" x2="66.129" y2="29.61" gradientUnits="userSpaceOnUse"><stop stop-color="#FFE5AC"/><stop offset="0" stop-color="#FFE5AC"/><stop offset="1" stop-color="#B99C5D"/></linearGradient><linearGradient id="paint10_linear" x1="15.868" y1="39.761" x2="15.868" y2="58.691" gradientUnits="userSpaceOnUse"><stop stop-color="#FFE5AC"/><stop offset="0" stop-color="#FFE5AC"/><stop offset="1" stop-color="#B99C5D"/></linearGradient><linearGradient id="paint11_linear" x1="41.129" y1="45.74" x2="41.129" y2="48.966" gradientUnits="userSpaceOnUse"><stop stop-color="#FFE5AC"/><stop offset="0" stop-color="#FFE5AC"/><stop offset="1" stop-color="#B99C5D"/></linearGradient><linearGradient id="paint12_linear" x1="33.065" y1="52.192" x2="33.065" y2="55.418" gradientUnits="userSpaceOnUse"><stop stop-color="#FFE5AC"/><stop offset="0" stop-color="#FFE5AC"/><stop offset="1" stop-color="#B99C5D"/></linearGradient><linearGradient id="paint13_linear" x1="48.387" y1="52.192" x2="48.387" y2="55.418" gradientUnits="userSpaceOnUse"><stop stop-color="#FFE5AC"/><stop offset="0" stop-color="#FFE5AC"/><stop offset="1" stop-color="#B99C5D"/></linearGradient><linearGradient id="paint14_linear" x1="61.29" y1="45.74" x2="61.29" y2="48.966" gradientUnits="userSpaceOnUse"><stop stop-color="#FFE5AC"/><stop offset="0" stop-color="#FFE5AC"/><stop offset="1" stop-color="#B99C5D"/></linearGradient><linearGradient id="paint15_linear" x1="15.868" y1="59.115" x2="15.868" y2="78.046" gradientUnits="userSpaceOnUse"><stop stop-color="#FFE5AC"/><stop offset="0" stop-color="#FFE5AC"/><stop offset="1" stop-color="#B99C5D"/></linearGradient><linearGradient id="paint16_linear" x1="37.904" y1="65.095" x2="37.904" y2="68.321" gradientUnits="userSpaceOnUse"><stop stop-color="#FFE5AC"/><stop offset="0" stop-color="#FFE5AC"/><stop offset="1" stop-color="#B99C5D"/></linearGradient><linearGradient id="paint17_linear" x1="33.065" y1="71.546" x2="33.065" y2="74.772" gradientUnits="userSpaceOnUse"><stop stop-color="#FFE5AC"/><stop offset="0" stop-color="#FFE5AC"/><stop offset="1" stop-color="#B99C5D"/></linearGradient><linearGradient id="paint18_linear" x1="45.161" y1="71.546" x2="45.161" y2="74.772" gradientUnits="userSpaceOnUse"><stop stop-color="#FFE5AC"/><stop offset="0" stop-color="#FFE5AC"/><stop offset="1" stop-color="#B99C5D"/></linearGradient><linearGradient id="paint19_linear" x1="75.807" y1="48.965" x2="75.807" y2="97.353" gradientUnits="userSpaceOnUse"><stop stop-color="#FFE5AC"/><stop offset="0" stop-color="#FFE5AC"/><stop offset="1" stop-color="#B99C5D"/></linearGradient><linearGradient id="paint20_linear" x1="75.659" y1="60.728" x2="75.659" y2="82.837" gradientUnits="userSpaceOnUse"><stop stop-color="#FFE5AC"/><stop offset="0" stop-color="#FFE5AC"/><stop offset="1" stop-color="#B99C5D"/></linearGradient></defs></svg>