<svg width="30" height="30" viewBox="0 0 30 30" fill="none" xmlns="http://www.w3.org/2000/svg">
<path d="M24.2264 0H4.77363C4.3034 0.00055827 3.85259 0.192108 3.52009 0.53263C3.18758 0.873151 3.00055 1.33484 3 1.81641V28.1836C3.00055 28.6652 3.18758 29.1269 3.52009 29.4674C3.85259 29.8079 4.3034 29.9994 4.77363 30H24.2264C24.6966 29.9994 25.1474 29.8079 25.4799 29.4674C25.8124 29.1269 25.9995 28.6652 26 28.1836V1.81594C25.9993 1.33445 25.8122 0.872884 25.4798 0.532464C25.1473 0.192044 24.6965 0.000558016 24.2264 0ZM25.199 28.1831C25.1988 28.4472 25.0962 28.7004 24.9139 28.8872C24.7315 29.0739 24.4843 29.179 24.2264 29.1792H4.77363C4.51575 29.179 4.26849 29.0739 4.08614 28.8872C3.90379 28.7004 3.80124 28.4472 3.801 28.1831V1.81594C3.80136 1.55191 3.90396 1.29882 4.0863 1.11217C4.26864 0.925521 4.51583 0.820561 4.77363 0.820312H24.2264C24.4843 0.820561 24.7315 0.925586 24.9139 1.11234C25.0962 1.29909 25.1988 1.5523 25.199 1.81641V28.1831Z" fill="#423A2A"/>
<path d="M23.3109 2.34375H5.68905C5.63645 2.34372 5.58436 2.35431 5.53576 2.37491C5.48715 2.39551 5.44299 2.42572 5.40579 2.46381C5.3686 2.50191 5.3391 2.54713 5.31898 2.59691C5.29887 2.64669 5.28853 2.70004 5.28856 2.75391V7.91016C5.28853 7.96403 5.29887 8.01738 5.31898 8.06715C5.3391 8.11693 5.3686 8.16216 5.40579 8.20025C5.44299 8.23834 5.48715 8.26855 5.53576 8.28915C5.58436 8.30976 5.63645 8.32034 5.68905 8.32031H23.3109C23.3635 8.32034 23.4156 8.30976 23.4642 8.28915C23.5128 8.26855 23.557 8.23834 23.5942 8.20025C23.6314 8.16216 23.6609 8.11693 23.681 8.06715C23.7011 8.01738 23.7115 7.96403 23.7114 7.91016V2.75391C23.7115 2.70004 23.7011 2.64669 23.681 2.59691C23.6609 2.54713 23.6314 2.50191 23.5942 2.46381C23.557 2.42572 23.5128 2.39551 23.4642 2.37491C23.4156 2.35431 23.3635 2.34372 23.3109 2.34375ZM22.9104 7.5H6.08955V3.16406H22.9104V7.5Z" fill="#423A2A"/>
<path d="M16.6741 22.8569H12.3259C12.2197 22.8569 12.1178 22.9001 12.0427 22.9771C11.9676 23.054 11.9254 23.1583 11.9254 23.2671V27.2451C11.9252 27.2991 11.9355 27.3525 11.9555 27.4024C11.9756 27.4523 12.0051 27.4976 12.0423 27.5358C12.0795 27.574 12.1237 27.6043 12.1724 27.625C12.221 27.6456 12.2732 27.6563 12.3259 27.6562H16.6741C16.7267 27.6563 16.7788 27.6457 16.8274 27.6251C16.876 27.6045 16.9202 27.5743 16.9574 27.5362C16.9946 27.4981 17.0241 27.4529 17.0442 27.4031C17.0643 27.3533 17.0747 27.2999 17.0746 27.2461V23.2671C17.0746 23.1583 17.0324 23.054 16.9573 22.9771C16.8822 22.9001 16.7803 22.8569 16.6741 22.8569ZM16.2734 26.8359H12.7261V23.6772H16.2734V26.8359Z" fill="#423A2A"/>
<path d="M10.044 22.8569H5.68905C5.58284 22.8569 5.48097 22.9001 5.40586 22.9771C5.33075 23.054 5.28856 23.1583 5.28856 23.2671V27.2451C5.28841 27.2991 5.29866 27.3525 5.31872 27.4024C5.33878 27.4523 5.36826 27.4976 5.40547 27.5358C5.44268 27.574 5.48688 27.6043 5.53554 27.625C5.58421 27.6456 5.63638 27.6563 5.68905 27.6562H10.044C10.0966 27.6563 10.1486 27.6457 10.1973 27.6251C10.2459 27.6045 10.29 27.5743 10.3272 27.5362C10.3644 27.4981 10.3939 27.4529 10.414 27.4031C10.4341 27.3533 10.4445 27.2999 10.4444 27.2461V23.2671C10.4444 23.1583 10.4023 23.054 10.3271 22.9771C10.252 22.9001 10.1502 22.8569 10.044 22.8569ZM9.64345 26.8359H6.08955V23.6772H9.64345V26.8359Z" fill="#423A2A"/>
<path d="M16.6741 16.3514H12.3259C12.2733 16.3514 12.2212 16.362 12.1726 16.3826C12.124 16.4032 12.0798 16.4334 12.0426 16.4715C12.0054 16.5096 11.9759 16.5548 11.9558 16.6046C11.9357 16.6544 11.9253 16.7077 11.9254 16.7616V20.7394C11.9253 20.7933 11.9357 20.8466 11.9558 20.8964C11.9759 20.9462 12.0054 20.9914 12.0426 21.0295C12.0798 21.0676 12.124 21.0978 12.1726 21.1184C12.2212 21.139 12.2733 21.1496 12.3259 21.1496H16.6741C16.7267 21.1496 16.7788 21.139 16.8274 21.1184C16.876 21.0978 16.9202 21.0676 16.9574 21.0295C16.9946 20.9914 17.0241 20.9462 17.0442 20.8964C17.0643 20.8466 17.0747 20.7933 17.0746 20.7394V16.7616C17.0747 16.7077 17.0643 16.6544 17.0442 16.6046C17.0241 16.5548 16.9946 16.5096 16.9574 16.4715C16.9202 16.4334 16.876 16.4032 16.8274 16.3826C16.7788 16.362 16.7267 16.3514 16.6741 16.3514ZM16.2736 20.3292H12.7264V17.1717H16.2736V20.3292Z" fill="#423A2A"/>
<path d="M10.044 16.3514H5.68905C5.63645 16.3514 5.58436 16.362 5.53576 16.3826C5.48715 16.4032 5.44299 16.4334 5.40579 16.4715C5.3686 16.5096 5.3391 16.5548 5.31898 16.6046C5.29887 16.6544 5.28853 16.7077 5.28856 16.7616V20.7394C5.28853 20.7933 5.29887 20.8466 5.31898 20.8964C5.3391 20.9462 5.3686 20.9914 5.40579 21.0295C5.44299 21.0676 5.48715 21.0978 5.53576 21.1184C5.58436 21.139 5.63645 21.1496 5.68905 21.1496H10.044C10.0966 21.1496 10.1486 21.139 10.1973 21.1184C10.2459 21.0978 10.29 21.0676 10.3272 21.0295C10.3644 20.9914 10.3939 20.9462 10.414 20.8964C10.4341 20.8466 10.4445 20.7933 10.4444 20.7394V16.7616C10.4445 16.7077 10.4341 16.6544 10.414 16.6046C10.3939 16.5548 10.3644 16.5096 10.3272 16.4715C10.29 16.4334 10.2459 16.4032 10.1973 16.3826C10.1486 16.362 10.0966 16.3514 10.044 16.3514ZM9.64345 20.3292H6.08955V17.1717H9.64345V20.3292Z" fill="#423A2A"/>
<path d="M23.3109 16.3514H18.956C18.9034 16.3514 18.8514 16.362 18.8027 16.3826C18.7541 16.4032 18.71 16.4334 18.6728 16.4715C18.6356 16.5096 18.6061 16.5548 18.586 16.6046C18.5659 16.6544 18.5555 16.7077 18.5555 16.7616V27.2452C18.5555 27.299 18.5659 27.3524 18.586 27.4022C18.6061 27.452 18.6356 27.4972 18.6728 27.5353C18.71 27.5734 18.7541 27.6036 18.8027 27.6242C18.8514 27.6448 18.9034 27.6554 18.956 27.6553H23.3109C23.3635 27.6554 23.4156 27.6448 23.4642 27.6242C23.5128 27.6036 23.557 27.5734 23.5942 27.5353C23.6314 27.4972 23.6609 27.452 23.681 27.4022C23.7011 27.3524 23.7115 27.299 23.7114 27.2452V16.7616C23.7115 16.7077 23.7011 16.6544 23.681 16.6046C23.6609 16.5548 23.6314 16.5096 23.5942 16.4715C23.557 16.4334 23.5128 16.4032 23.4642 16.3826C23.4156 16.362 23.3635 16.3514 23.3109 16.3514ZM22.9104 26.835H19.3565V17.1717H22.9104V26.835Z" fill="#423A2A"/>
<path d="M16.6741 9.8456H12.3259C12.2733 9.84557 12.2212 9.85616 12.1726 9.87676C12.124 9.89736 12.0798 9.92757 12.0426 9.96566C12.0054 10.0038 11.9759 10.049 11.9558 10.0988C11.9357 10.1485 11.9253 10.2019 11.9254 10.2558V14.2336C11.9253 14.2874 11.9357 14.3408 11.9558 14.3906C11.9759 14.4403 12.0054 14.4856 12.0426 14.5237C12.0798 14.5618 12.124 14.592 12.1726 14.6126C12.2212 14.6332 12.2733 14.6438 12.3259 14.6437H16.6741C16.7267 14.6438 16.7788 14.6332 16.8274 14.6126C16.876 14.592 16.9202 14.5618 16.9574 14.5237C16.9946 14.4856 17.0241 14.4403 17.0442 14.3906C17.0643 14.3408 17.0747 14.2874 17.0746 14.2336V10.2558C17.0747 10.2019 17.0643 10.1485 17.0442 10.0988C17.0241 10.049 16.9946 10.0038 16.9574 9.96566C16.9202 9.92757 16.876 9.89736 16.8274 9.87676C16.7788 9.85616 16.7267 9.84557 16.6741 9.8456ZM16.2734 13.8234H12.7261V10.6659H16.2734V13.8234Z" fill="#423A2A"/>
<path d="M10.044 9.8456H5.68905C5.63645 9.84557 5.58436 9.85616 5.53576 9.87676C5.48715 9.89736 5.44299 9.92757 5.40579 9.96566C5.3686 10.0038 5.3391 10.049 5.31898 10.0988C5.29887 10.1485 5.28853 10.2019 5.28856 10.2558V14.2336C5.28853 14.2874 5.29887 14.3408 5.31898 14.3906C5.3391 14.4403 5.3686 14.4856 5.40579 14.5237C5.44299 14.5618 5.48715 14.592 5.53576 14.6126C5.58436 14.6332 5.63645 14.6438 5.68905 14.6437H10.044C10.0966 14.6438 10.1486 14.6332 10.1973 14.6126C10.2459 14.592 10.29 14.5618 10.3272 14.5237C10.3644 14.4856 10.3939 14.4403 10.414 14.3906C10.4341 14.3408 10.4445 14.2874 10.4444 14.2336V10.2558C10.4445 10.2019 10.4341 10.1485 10.414 10.0988C10.3939 10.049 10.3644 10.0038 10.3272 9.96566C10.29 9.92757 10.2459 9.89736 10.1973 9.87676C10.1486 9.85616 10.0966 9.84557 10.044 9.8456ZM9.64345 13.8234H6.08955V10.6659H9.64345V13.8234Z" fill="#423A2A"/>
<path d="M23.3109 9.8456H18.956C18.9034 9.84557 18.8514 9.85616 18.8027 9.87676C18.7541 9.89736 18.71 9.92757 18.6728 9.96566C18.6356 10.0038 18.6061 10.049 18.586 10.0988C18.5659 10.1485 18.5555 10.2019 18.5555 10.2558V14.2336C18.5555 14.2874 18.5659 14.3408 18.586 14.3906C18.6061 14.4403 18.6356 14.4856 18.6728 14.5237C18.71 14.5618 18.7541 14.592 18.8027 14.6126C18.8514 14.6332 18.9034 14.6438 18.956 14.6437H23.3109C23.3635 14.6438 23.4156 14.6332 23.4642 14.6126C23.5128 14.592 23.557 14.5618 23.5942 14.5237C23.6314 14.4856 23.6609 14.4403 23.681 14.3906C23.7011 14.3408 23.7115 14.2874 23.7114 14.2336V10.2558C23.7115 10.2019 23.7011 10.1485 23.681 10.0988C23.6609 10.049 23.6314 10.0038 23.5942 9.96566C23.557 9.92757 23.5128 9.89736 23.4642 9.87676C23.4156 9.85616 23.3635 9.84557 23.3109 9.8456ZM22.9104 13.8234H19.3565V10.6659H22.9104V13.8234Z" fill="#423A2A"/>
</svg>
