<svg width="65" height="65" viewBox="0 0 65 65" fill="none" xmlns="http://www.w3.org/2000/svg">
<path d="M51.3225 40.0427C50.0468 37.3831 45.4833 33.6916 41.0742 30.1247C38.615 28.1368 36.2912 26.2572 34.8098 24.7758C34.4387 24.4021 33.8836 24.2829 33.3934 24.4589C32.4807 24.7894 31.9173 25.0439 31.4732 25.2416C30.7962 25.5449 30.5687 25.6479 29.6559 25.7399C29.2523 25.7805 28.8895 25.9972 28.6646 26.333C26.7498 29.1957 24.7673 28.9519 23.4429 28.5079C23.0204 28.3671 22.9446 28.1855 22.904 28.0122C22.6196 26.8233 24.047 24.0554 25.8967 22.2055C30.2978 17.8018 32.5673 16.6994 37.3611 18.8418C42.7993 21.2738 48.2486 23.1779 48.3028 23.1968C49.0151 23.4432 49.7815 23.0694 50.0279 22.3626C50.2717 21.6557 49.9006 20.8838 49.1937 20.6374C49.1395 20.6185 43.7987 18.7524 38.4687 16.3663C32.2586 13.5902 28.8514 15.4183 23.9845 20.288C22.132 22.1405 19.6159 25.8888 20.2659 28.6379C20.5448 29.8079 21.3683 30.6746 22.5923 31.078C25.6609 32.091 28.4613 31.1213 30.5467 28.3535C31.408 28.2208 31.8766 28.0258 32.5806 27.7089C32.8352 27.5952 33.1331 27.4625 33.5286 27.3027C35.0778 28.7571 37.1686 30.4497 39.3705 32.2291C43.3517 35.4493 47.8666 39.1002 48.8822 41.2127C49.3833 42.2554 48.8442 42.9352 48.4786 43.2466C47.9423 43.7071 47.2084 43.8533 46.8103 43.5743C46.3716 43.2736 45.8001 43.2547 45.3478 43.5255C44.8928 43.7963 44.6383 44.3082 44.6951 44.8336C44.7872 45.6949 43.9991 46.1879 43.6578 46.3585C42.7911 46.7972 41.8865 46.7214 41.548 46.4072C41.1688 46.0552 40.6244 45.9522 40.1423 46.131C39.6603 46.3124 39.3244 46.7566 39.2756 47.2711C39.1944 48.1594 38.5363 49.0126 37.6777 49.3457C37.2633 49.5027 36.662 49.5976 36.1231 49.1046C35.7873 48.8013 35.3214 48.6848 34.8855 48.7904C34.4441 48.8987 34.0892 49.2184 33.9348 49.6435C33.8834 49.779 33.7669 50.104 32.4994 50.104C31.5975 50.104 29.9752 49.4946 29.1817 48.9691C28.2311 48.3435 22.27 43.8965 17.1216 39.5848C16.3984 38.9754 15.1472 37.6699 14.0422 36.5162C13.0617 35.4924 12.1653 34.5635 11.7048 34.1735C11.128 33.686 10.2748 33.7591 9.79547 34.3333C9.31343 34.9048 9.38376 35.7607 9.9553 36.2427C10.3751 36.5976 11.1876 37.456 12.0841 38.3904C13.292 39.6524 14.5405 40.9579 15.3801 41.6621C20.4231 45.8844 26.4843 50.4426 27.6922 51.236C28.6889 51.8915 30.8366 52.8123 32.4995 52.8123C33.8347 52.8123 34.8612 52.5062 35.5734 51.9077C36.5267 52.2788 37.6101 52.2815 38.6528 51.8752C39.8851 51.3985 40.898 50.4371 41.4722 49.2726C42.5392 49.5001 43.7608 49.3402 44.8711 48.7824C45.9572 48.2354 46.7425 47.3985 47.1325 46.4207C48.2105 46.4776 49.3208 46.0957 50.2389 45.3076C51.7937 43.9779 52.2215 41.9088 51.3225 40.0427Z" fill="url(#paint0_linear)"/>
<path d="M27.0837 17.6035H14.8962C14.1487 17.6035 13.542 18.2102 13.542 18.9577C13.542 19.7052 14.1487 20.3119 14.8962 20.3119H27.0837C27.8312 20.3119 28.4379 19.7052 28.4379 18.9577C28.4379 18.2102 27.8312 17.6035 27.0837 17.6035Z" fill="url(#paint1_linear)"/>
<path d="M55.2902 37.1605C54.8704 36.5404 54.0309 36.3697 53.4107 36.7922L49.4512 39.4518C48.831 39.8688 48.6657 40.7111 49.0829 41.3313C49.3455 41.7186 49.7735 41.9299 50.2096 41.9299C50.4669 41.9299 50.7296 41.8568 50.9625 41.6997L54.9221 39.0402C55.5421 38.623 55.7073 37.7808 55.2902 37.1605Z" fill="url(#paint2_linear)"/>
<path d="M46.8839 43.6225C45.9144 42.8587 41.5783 38.4198 38.897 35.6248C38.3797 35.0831 37.5212 35.0642 36.9822 35.5842C36.4405 36.1015 36.4242 36.96 36.9416 37.499C37.6377 38.2248 43.7774 44.6247 45.2047 45.7514C45.4511 45.9464 45.7491 46.0412 46.0416 46.0412C46.4397 46.0412 46.8378 45.8625 47.1086 45.5239C47.5719 44.9387 47.4717 44.0856 46.8839 43.6225Z" fill="url(#paint3_linear)"/>
<path d="M41.473 46.3394C39.8507 45.042 35.7747 40.7114 34.8538 39.7094C34.3446 39.1569 33.4915 39.1244 32.939 39.6281C32.3891 40.1345 32.3513 40.9931 32.8577 41.5429C32.9065 41.5944 37.7707 46.8459 39.7802 48.4546C40.0294 48.6523 40.33 48.7498 40.6252 48.7498C41.0207 48.7498 41.416 48.5737 41.6841 48.2434C42.1502 47.6583 42.0553 46.8051 41.473 46.3394Z" fill="url(#paint4_linear)"/>
<path d="M36.0835 49.0668C34.1524 47.4391 30.201 43.233 29.4291 42.407C28.9173 41.8599 28.0587 41.8301 27.5143 42.342C26.9673 42.8538 26.9401 43.7096 27.4493 44.2568C28.5598 45.4457 32.3406 49.4541 34.3366 51.1387C34.5912 51.3526 34.8999 51.4582 35.2087 51.4582C35.5932 51.4582 35.9779 51.293 36.246 50.9762C36.7281 50.402 36.6549 49.5488 36.0835 49.0668Z" fill="url(#paint5_linear)"/>
<path d="M15.8275 15.2661C13.5064 13.0668 4.225 12.3545 1.43546 12.1893C1.05092 12.1704 0.696084 12.2976 0.425293 12.555C0.154375 12.8095 0 13.167 0 13.5408V37.9158C0 38.6633 0.606709 39.27 1.35421 39.27H9.47921C10.0642 39.27 10.5842 38.8936 10.7656 38.3356C10.9633 37.7289 15.6298 23.4073 16.2445 16.3656C16.2798 15.9539 16.1281 15.5476 15.8275 15.2661ZM8.49062 36.5617H2.70829V14.9925C7.06063 15.3364 11.7569 16.0839 13.4631 16.9126C12.7455 22.8439 9.49813 33.382 8.49062 36.5617Z" fill="url(#paint6_linear)"/>
<path d="M63.6458 14.8955C53.0128 14.8955 47.1141 17.6174 46.8676 17.7311C46.5156 17.8963 46.2528 18.2024 46.1445 18.5735C46.0362 18.9445 46.0903 19.3427 46.2934 19.673C47.9672 22.3678 53.2078 37.3341 54.2153 40.9849C54.3778 41.5725 54.9114 41.9788 55.5208 41.9788H63.6458C64.3933 41.9788 65 41.3721 65 40.6246V16.2496C65 15.4994 64.3933 14.8955 63.6458 14.8955ZM62.2917 39.2705H56.5337C55.25 35.0888 51.4583 24.185 49.3431 19.6785C51.4095 18.977 55.8486 17.7718 62.2917 17.6202V39.2705Z" fill="url(#paint7_linear)"/>
<defs>
<linearGradient id="paint0_linear" x1="30.6315" y1="15.0645" x2="30.6315" y2="52.8123" gradientUnits="userSpaceOnUse">
<stop stop-color="#FFE5AC"/>
<stop offset="1" stop-color="#D6B56E"/>
</linearGradient>
<linearGradient id="paint1_linear" x1="20.99" y1="17.6035" x2="20.99" y2="20.3119" gradientUnits="userSpaceOnUse">
<stop stop-color="#FFE5AC"/>
<stop offset="1" stop-color="#D6B56E"/>
</linearGradient>
<linearGradient id="paint2_linear" x1="52.1865" y1="36.5596" x2="52.1865" y2="41.9299" gradientUnits="userSpaceOnUse">
<stop stop-color="#FFE5AC"/>
<stop offset="1" stop-color="#D6B56E"/>
</linearGradient>
<linearGradient id="paint3_linear" x1="41.9821" y1="35.2061" x2="41.9821" y2="46.0412" gradientUnits="userSpaceOnUse">
<stop stop-color="#FFE5AC"/>
<stop offset="1" stop-color="#D6B56E"/>
</linearGradient>
<linearGradient id="paint4_linear" x1="37.2405" y1="39.2715" x2="37.2405" y2="48.7498" gradientUnits="userSpaceOnUse">
<stop stop-color="#FFE5AC"/>
<stop offset="1" stop-color="#D6B56E"/>
</linearGradient>
<linearGradient id="paint5_linear" x1="31.8249" y1="41.9766" x2="31.8249" y2="51.4582" gradientUnits="userSpaceOnUse">
<stop stop-color="#FFE5AC"/>
<stop offset="1" stop-color="#D6B56E"/>
</linearGradient>
<linearGradient id="paint6_linear" x1="8.12478" y1="12.1875" x2="8.12478" y2="39.27" gradientUnits="userSpaceOnUse">
<stop stop-color="#FFE5AC"/>
<stop offset="1" stop-color="#D6B56E"/>
</linearGradient>
<linearGradient id="paint7_linear" x1="55.5449" y1="14.8955" x2="55.5449" y2="41.9788" gradientUnits="userSpaceOnUse">
<stop stop-color="#FFE5AC"/>
<stop offset="1" stop-color="#D6B56E"/>
</linearGradient>
</defs>
</svg>
