<svg width="15" height="15" viewBox="0 0 15 15" fill="none" xmlns="http://www.w3.org/2000/svg">
<path d="M7.5 15C3.36433 15 0 11.6357 0 7.5C0 3.36433 3.36433 0 7.5 0C11.6357 0 15 3.36433 15 7.5C15 11.6357 11.6357 15 7.5 15ZM7.5 0.9375C3.88126 0.9375 0.9375 3.88126 0.9375 7.5C0.9375 11.1187 3.88126 14.0625 7.5 14.0625C11.1187 14.0625 14.0625 11.1187 14.0625 7.5C14.0625 3.88126 11.1187 0.9375 7.5 0.9375Z" fill="#D6B56E"/>
<path d="M10.7812 7.96875H4.21875C3.96 7.96875 3.75 7.75875 3.75 7.5C3.75 7.24125 3.96 7.03125 4.21875 7.03125H10.7812C11.04 7.03125 11.25 7.24125 11.25 7.5C11.25 7.75875 11.04 7.96875 10.7812 7.96875Z" fill="#D6B56E"/>
<path d="M7.5 11.25C7.24125 11.25 7.03125 11.04 7.03125 10.7812V4.21875C7.03125 3.96 7.24125 3.75 7.5 3.75C7.75875 3.75 7.96875 3.96 7.96875 4.21875V10.7812C7.96875 11.04 7.75875 11.25 7.5 11.25Z" fill="#D6B56E"/>
</svg>
