<svg width="30" height="30" viewBox="0 0 30 30" fill="none" xmlns="http://www.w3.org/2000/svg">
<g clip-path="url(#clip0)">
<path d="M15.6135 3.70949L8.66333 2.24794C7.48307 2.00234 6.26882 2.21715 5.27311 2.84463L3.36717 0.640358C3.12281 0.35776 2.70037 0.318948 2.4284 0.55411C2.15643 0.789272 2.13383 1.21289 2.37818 1.49549L4.28412 3.69976C3.515 4.58929 3.1271 5.75979 3.20908 6.96401L3.64625 14.066C3.68871 14.6848 3.93032 15.2841 4.3435 15.7619L15.4459 28.6022C16.455 29.7591 18.1778 29.9127 19.291 28.9413C19.2959 28.937 19.2959 28.937 19.3008 28.9327L28.0682 21.3519C29.1946 20.3959 29.3009 18.6698 28.3067 17.5C28.3022 17.4949 28.3022 17.4949 28.2978 17.4897L17.1954 4.64946C16.7822 4.17162 16.2241 3.846 15.6135 3.70949ZM9.1103 8.2819C9.90644 7.59351 11.1268 7.70563 11.8421 8.53288C12.5574 9.36012 12.4921 10.5839 11.696 11.2723C10.8999 11.9607 9.67946 11.8486 8.96417 11.0213C8.25333 10.1992 8.31417 8.97028 9.1103 8.2819ZM27.3138 18.3406C27.8336 18.9417 27.7631 19.8198 27.1846 20.32L18.4123 27.9051C17.8337 28.4053 16.9547 28.3482 16.4349 27.7471L5.33248 14.9068C5.11923 14.6602 4.98954 14.3503 4.9735 14.0319L4.53139 6.93414C4.48414 6.13989 4.70963 5.36124 5.186 4.74281L7.77169 7.73321C6.70069 9.15314 7.01517 11.2159 8.46891 12.3475C9.92266 13.4791 11.9636 13.2409 13.0346 11.821C14.1056 10.4011 13.7911 8.33827 12.3374 7.20668C11.291 6.39632 9.88781 6.26268 8.76067 6.87808L6.17499 3.88767C6.41327 3.75347 6.67327 3.65438 6.94114 3.58439C7.42401 3.46321 7.93396 3.4533 8.43294 3.56063L15.393 5.01363C15.7101 5.08061 15.9981 5.25369 16.2113 5.50032L27.3138 18.3406Z" fill="#423A2A"/>
<path d="M20.2086 17.929C19.3735 17.4029 18.3135 17.4664 17.5915 18.0906C17.2256 18.407 16.6623 18.3553 16.3336 17.9751C16.0048 17.5948 16.035 17.03 16.4009 16.7136C16.7668 16.3972 17.3301 16.449 17.6588 16.8292C17.9032 17.1118 18.3256 17.1506 18.5976 16.9154C18.8696 16.6803 18.8922 16.2566 18.6478 15.974C17.9992 15.2239 16.9563 14.9672 16.0735 15.3355L15.878 15.1094C15.6336 14.8268 15.2112 14.788 14.9392 15.0232C14.6672 15.2583 14.6446 15.6819 14.889 15.9645L15.0845 16.1906C14.4585 17.2257 14.8092 18.6107 15.863 19.2799C16.6982 19.8059 17.7581 19.7425 18.4801 19.1183C18.846 18.8019 19.4093 18.8536 19.738 19.2338C20.0668 19.6141 20.0367 20.1789 19.6707 20.4953C19.3048 20.8117 18.7416 20.7599 18.4128 20.3797C18.1684 20.0971 17.746 20.0583 17.474 20.2935C17.2021 20.5286 17.1795 20.9523 17.4238 21.2349C18.0725 21.985 19.1153 22.2417 19.9982 21.8734L20.2203 22.1303C20.4647 22.4129 20.8871 22.4517 21.1591 22.2166C21.431 21.9814 21.4536 21.5578 21.2093 21.2752L20.9871 21.0183C21.6131 19.9832 21.2625 18.5982 20.2086 17.929Z" fill="#423A2A"/>
</g>
<defs>
<clipPath id="clip0">
<rect width="30" height="30" fill="white"/>
</clipPath>
</defs>
</svg>
