<svg width="65" height="65" viewBox="0 0 65 65" fill="none" xmlns="http://www.w3.org/2000/svg">
<g clip-path="url(#clip0)">
<path d="M17.6038 17.6045C13.8718 17.6045 10.833 20.6432 10.833 24.3753C10.833 28.1073 13.8718 31.1461 17.6038 31.1461C21.3358 31.1461 24.3746 28.1073 24.3746 24.3753C24.3746 20.6432 21.3358 17.6045 17.6038 17.6045ZM17.6038 28.4378C15.364 28.4378 13.5413 26.6151 13.5413 24.3753C13.5413 22.1354 15.364 20.3128 17.6038 20.3128C19.8436 20.3128 21.6663 22.1354 21.6663 24.3753C21.6663 26.6151 19.8435 28.4378 17.6038 28.4378Z" fill="url(#paint0_linear)"/>
<path d="M17.6045 28.4375C10.8851 28.4375 5.41699 33.9056 5.41699 40.625C5.41699 41.3725 6.0237 41.9792 6.7712 41.9792H28.4378C29.1853 41.9792 29.792 41.3725 29.792 40.625C29.792 33.9056 24.3239 28.4375 17.6045 28.4375ZM8.22278 39.2708C8.88091 34.6828 12.8404 31.1458 17.6072 31.1458C22.3739 31.1458 26.3307 34.6828 26.9889 39.2708H8.22278Z" fill="url(#paint1_linear)"/>
<path d="M58.2289 20.3125H36.5622C35.8147 20.3125 35.208 20.9192 35.208 21.6667C35.208 22.4142 35.8147 23.0209 36.5622 23.0209H58.2289C58.9764 23.0209 59.5831 22.4142 59.5831 21.6667C59.5831 20.9192 58.9764 20.3125 58.2289 20.3125Z" fill="url(#paint2_linear)"/>
<path d="M50.1039 28.4375H36.5622C35.8147 28.4375 35.208 29.0442 35.208 29.7917C35.208 30.5392 35.8147 31.1459 36.5622 31.1459H50.1039C50.8514 31.1459 51.4581 30.5392 51.4581 29.7917C51.4581 29.0442 50.8514 28.4375 50.1039 28.4375Z" fill="url(#paint3_linear)"/>
<path d="M58.2289 36.5625H36.5622C35.8147 36.5625 35.208 37.1692 35.208 37.9167C35.208 38.6642 35.8147 39.2709 36.5622 39.2709H58.2289C58.9764 39.2709 59.5831 38.6642 59.5831 37.9167C59.5831 37.1692 58.9764 36.5625 58.2289 36.5625Z" fill="url(#paint4_linear)"/>
<path d="M63.6458 12.1875H1.35421C0.606709 12.1875 0 12.7942 0 13.5417V51.4584C0 52.2058 0.606709 52.8125 1.35421 52.8125H9.47921C10.2267 52.8125 10.8334 52.2058 10.8334 51.4583C10.8334 51.266 10.9039 51.0547 11.0583 50.7975C11.3128 50.3723 11.3128 49.8387 11.0583 49.4136C10.9039 49.1536 10.8334 48.9423 10.8334 48.75C10.8334 48.0025 11.4401 47.3958 12.1876 47.3958C12.9351 47.3958 13.5418 48.0025 13.5418 48.75C13.5418 48.9423 13.4714 49.1536 13.317 49.4108C13.0625 49.836 13.0625 50.3695 13.317 50.7947C13.4714 51.0547 13.5418 51.266 13.5418 51.4583C13.5418 52.2058 14.1485 52.8125 14.896 52.8125H23.021C23.7685 52.8125 24.3753 52.2058 24.3753 51.4583C24.3753 51.266 24.4457 51.0547 24.6001 50.7975C24.8546 50.3723 24.8546 49.8387 24.6001 49.4136C24.4455 49.1536 24.375 48.9423 24.375 48.75C24.375 48.0025 24.9817 47.3958 25.7292 47.3958C26.4767 47.3958 27.0834 48.0025 27.0834 48.75C27.0834 48.9423 27.013 49.1536 26.8586 49.4108C26.604 49.836 26.604 50.3695 26.8586 50.7947C27.013 51.0547 27.0834 51.266 27.0834 51.4583C27.0834 52.2058 27.6901 52.8125 28.4376 52.8125H36.5626C37.3101 52.8125 37.9168 52.2058 37.9168 51.4583C37.9168 51.266 37.9873 51.0547 38.1417 50.7975C38.3962 50.3723 38.3962 49.8387 38.1417 49.4136C37.9873 49.1536 37.9168 48.9423 37.9168 48.75C37.9168 48.0025 38.5235 47.3958 39.271 47.3958C40.0185 47.3958 40.625 48.0025 40.625 48.75C40.625 48.9423 40.5545 49.1536 40.4002 49.4108C40.1456 49.836 40.1456 50.3695 40.4002 50.7947C40.5545 51.0547 40.625 51.266 40.625 51.4583C40.625 52.2058 41.2317 52.8125 41.9792 52.8125H50.1042C50.8517 52.8125 51.4584 52.2058 51.4584 51.4583C51.4584 51.266 51.5289 51.0547 51.6833 50.7975C51.9378 50.3723 51.9378 49.8387 51.6833 49.4136C51.5289 49.1536 51.4584 48.9423 51.4584 48.75C51.4584 48.0025 52.0651 47.3958 52.8126 47.3958C53.5601 47.3958 54.1668 48.0025 54.1668 48.75C54.1668 48.9423 54.0964 49.1536 53.942 49.4108C53.6875 49.836 53.6875 50.3695 53.942 50.7947C54.0964 51.0547 54.1668 51.266 54.1668 51.4583C54.1668 52.2058 54.7735 52.8125 55.521 52.8125H63.646C64.3935 52.8125 65.0003 52.2058 65.0003 51.4583V13.5417C65 12.7942 64.3933 12.1875 63.6458 12.1875ZM62.2917 50.1042H56.6123C56.7883 49.6545 56.875 49.2077 56.875 48.75C56.875 46.5102 55.0523 44.6875 52.8125 44.6875C50.5727 44.6875 48.75 46.5102 48.75 48.75C48.75 49.2077 48.8367 49.6545 49.0127 50.1042H43.0706C43.2467 49.6547 43.3333 49.2078 43.3333 48.75C43.3333 46.5102 41.5106 44.6875 39.2708 44.6875C37.031 44.6875 35.2083 46.5102 35.2083 48.75C35.2083 49.2077 35.295 49.6545 35.471 50.1042H29.5289C29.705 49.6547 29.7916 49.2078 29.7916 48.75C29.7916 46.5102 27.9689 44.6875 25.7291 44.6875C23.4892 44.6875 21.6666 46.5102 21.6666 48.75C21.6666 49.2077 21.7533 49.6545 21.9292 50.1042H15.9872C16.1633 49.6545 16.25 49.2077 16.25 48.75C16.25 46.5102 14.4273 44.6875 12.1875 44.6875C9.94767 44.6875 8.125 46.5102 8.125 48.75C8.125 49.2077 8.21171 49.6545 8.38767 50.1042H2.70829V14.8958H62.2916V50.1042H62.2917Z" fill="url(#paint5_linear)"/>
</g>
<defs>
<linearGradient id="paint0_linear" x1="17.6038" y1="17.6045" x2="17.6038" y2="31.1461" gradientUnits="userSpaceOnUse">
<stop stop-color="#FFE5AC"/>
<stop offset="1" stop-color="#D6B56E"/>
</linearGradient>
<linearGradient id="paint1_linear" x1="17.6045" y1="28.4375" x2="17.6045" y2="41.9792" gradientUnits="userSpaceOnUse">
<stop stop-color="#FFE5AC"/>
<stop offset="1" stop-color="#D6B56E"/>
</linearGradient>
<linearGradient id="paint2_linear" x1="47.3956" y1="20.3125" x2="47.3956" y2="23.0209" gradientUnits="userSpaceOnUse">
<stop stop-color="#FFE5AC"/>
<stop offset="1" stop-color="#D6B56E"/>
</linearGradient>
<linearGradient id="paint3_linear" x1="43.3331" y1="28.4375" x2="43.3331" y2="31.1459" gradientUnits="userSpaceOnUse">
<stop stop-color="#FFE5AC"/>
<stop offset="1" stop-color="#D6B56E"/>
</linearGradient>
<linearGradient id="paint4_linear" x1="47.3956" y1="36.5625" x2="47.3956" y2="39.2709" gradientUnits="userSpaceOnUse">
<stop stop-color="#FFE5AC"/>
<stop offset="1" stop-color="#D6B56E"/>
</linearGradient>
<linearGradient id="paint5_linear" x1="32.5001" y1="12.1875" x2="32.5001" y2="52.8125" gradientUnits="userSpaceOnUse">
<stop stop-color="#FFE5AC"/>
<stop offset="1" stop-color="#D6B56E"/>
</linearGradient>
<clipPath id="clip0">
<rect width="65" height="65" fill="white"/>
</clipPath>
</defs>
</svg>
