<svg width="100" height="100" viewBox="0 0 100 100" fill="none" xmlns="http://www.w3.org/2000/svg">
<path d="M12.5 76.5625H18.75V79.6875H12.5V76.5625Z" fill="black"/>
<path d="M12.5 76.5625H18.75V79.6875H12.5V76.5625Z" fill="url(#paint0_linear)"/>
<path d="M21.875 76.5625H26.5625V79.6875H21.875V76.5625Z" fill="black"/>
<path d="M21.875 76.5625H26.5625V79.6875H21.875V76.5625Z" fill="url(#paint1_linear)"/>
<path d="M12.5 84.375H23.4375V87.5H12.5V84.375Z" fill="black"/>
<path d="M12.5 84.375H23.4375V87.5H12.5V84.375Z" fill="url(#paint2_linear)"/>
<path d="M26.5625 84.375H42.1875V87.5H26.5625V84.375Z" fill="black"/>
<path d="M26.5625 84.375H42.1875V87.5H26.5625V84.375Z" fill="url(#paint3_linear)"/>
<path d="M81.25 76.5625H87.5V79.6875H81.25V76.5625Z" fill="black"/>
<path d="M81.25 76.5625H87.5V79.6875H81.25V76.5625Z" fill="url(#paint4_linear)"/>
<path d="M73.4375 76.5625H78.125V79.6875H73.4375V76.5625Z" fill="black"/>
<path d="M73.4375 76.5625H78.125V79.6875H73.4375V76.5625Z" fill="url(#paint5_linear)"/>
<path d="M76.5625 84.375H87.5V87.5H76.5625V84.375Z" fill="black"/>
<path d="M76.5625 84.375H87.5V87.5H76.5625V84.375Z" fill="url(#paint6_linear)"/>
<path d="M57.8125 84.375H73.4375V87.5H57.8125V84.375Z" fill="black"/>
<path d="M57.8125 84.375H73.4375V87.5H57.8125V84.375Z" fill="url(#paint7_linear)"/>
<path d="M39.0625 67.1875H42.1875V70.3125H39.0625V67.1875Z" fill="black"/>
<path d="M39.0625 67.1875H42.1875V70.3125H39.0625V67.1875Z" fill="url(#paint8_linear)"/>
<path d="M45.3125 67.1875H48.4375V70.3125H45.3125V67.1875Z" fill="black"/>
<path d="M45.3125 67.1875H48.4375V70.3125H45.3125V67.1875Z" fill="url(#paint9_linear)"/>
<path d="M51.5625 67.1875H54.6875V70.3125H51.5625V67.1875Z" fill="black"/>
<path d="M51.5625 67.1875H54.6875V70.3125H51.5625V67.1875Z" fill="url(#paint10_linear)"/>
<path d="M57.8125 67.1875H60.9375V70.3125H57.8125V67.1875Z" fill="black"/>
<path d="M57.8125 67.1875H60.9375V70.3125H57.8125V67.1875Z" fill="url(#paint11_linear)"/>
<path d="M92.1875 3.125H7.8125C6.56973 3.12642 5.37828 3.62074 4.49951 4.49951C3.62074 5.37828 3.12642 6.56973 3.125 7.8125V92.1875C3.12642 93.4303 3.62074 94.6217 4.49951 95.5005C5.37828 96.3793 6.56973 96.8736 7.8125 96.875H92.1875C93.4303 96.8736 94.6217 96.3793 95.5005 95.5005C96.3793 94.6217 96.8736 93.4303 96.875 92.1875V7.8125C96.8736 6.56973 96.3793 5.37828 95.5005 4.49951C94.6217 3.62074 93.4303 3.12642 92.1875 3.125ZM93.75 7.8125V12.5H35.3407L32.2157 6.25H92.1875C92.6018 6.25047 92.9989 6.41525 93.2918 6.70817C93.5848 7.00109 93.7495 7.39824 93.75 7.8125ZM7.8125 6.25H28.7218L31.8468 12.5H6.25V7.8125C6.25047 7.39824 6.41525 7.00109 6.70817 6.70817C7.00109 6.41525 7.39824 6.25047 7.8125 6.25ZM92.1875 93.75H7.8125C7.39824 93.7495 7.00109 93.5848 6.70817 93.2918C6.41525 92.9989 6.25047 92.6018 6.25 92.1875V15.625H93.75V92.1875C93.7495 92.6018 93.5848 92.9989 93.2918 93.2918C92.9989 93.5848 92.6018 93.7495 92.1875 93.75Z" fill="black"/>
<path d="M92.1875 3.125H7.8125C6.56973 3.12642 5.37828 3.62074 4.49951 4.49951C3.62074 5.37828 3.12642 6.56973 3.125 7.8125V92.1875C3.12642 93.4303 3.62074 94.6217 4.49951 95.5005C5.37828 96.3793 6.56973 96.8736 7.8125 96.875H92.1875C93.4303 96.8736 94.6217 96.3793 95.5005 95.5005C96.3793 94.6217 96.8736 93.4303 96.875 92.1875V7.8125C96.8736 6.56973 96.3793 5.37828 95.5005 4.49951C94.6217 3.62074 93.4303 3.12642 92.1875 3.125ZM93.75 7.8125V12.5H35.3407L32.2157 6.25H92.1875C92.6018 6.25047 92.9989 6.41525 93.2918 6.70817C93.5848 7.00109 93.7495 7.39824 93.75 7.8125ZM7.8125 6.25H28.7218L31.8468 12.5H6.25V7.8125C6.25047 7.39824 6.41525 7.00109 6.70817 6.70817C7.00109 6.41525 7.39824 6.25047 7.8125 6.25ZM92.1875 93.75H7.8125C7.39824 93.7495 7.00109 93.5848 6.70817 93.2918C6.41525 92.9989 6.25047 92.6018 6.25 92.1875V15.625H93.75V92.1875C93.7495 92.6018 93.5848 92.9989 93.2918 93.2918C92.9989 93.5848 92.6018 93.7495 92.1875 93.75Z" fill="url(#paint12_linear)"/>
<path d="M10.9375 10.9375C11.8004 10.9375 12.5 10.2379 12.5 9.375C12.5 8.51206 11.8004 7.8125 10.9375 7.8125C10.0746 7.8125 9.375 8.51206 9.375 9.375C9.375 10.2379 10.0746 10.9375 10.9375 10.9375Z" fill="black"/>
<path d="M10.9375 10.9375C11.8004 10.9375 12.5 10.2379 12.5 9.375C12.5 8.51206 11.8004 7.8125 10.9375 7.8125C10.0746 7.8125 9.375 8.51206 9.375 9.375C9.375 10.2379 10.0746 10.9375 10.9375 10.9375Z" fill="url(#paint13_linear)"/>
<path d="M15.625 10.9375C16.4879 10.9375 17.1875 10.2379 17.1875 9.375C17.1875 8.51206 16.4879 7.8125 15.625 7.8125C14.7621 7.8125 14.0625 8.51206 14.0625 9.375C14.0625 10.2379 14.7621 10.9375 15.625 10.9375Z" fill="black"/>
<path d="M15.625 10.9375C16.4879 10.9375 17.1875 10.2379 17.1875 9.375C17.1875 8.51206 16.4879 7.8125 15.625 7.8125C14.7621 7.8125 14.0625 8.51206 14.0625 9.375C14.0625 10.2379 14.7621 10.9375 15.625 10.9375Z" fill="url(#paint14_linear)"/>
<path d="M20.3125 10.9375C21.1754 10.9375 21.875 10.2379 21.875 9.375C21.875 8.51206 21.1754 7.8125 20.3125 7.8125C19.4496 7.8125 18.75 8.51206 18.75 9.375C18.75 10.2379 19.4496 10.9375 20.3125 10.9375Z" fill="black"/>
<path d="M20.3125 10.9375C21.1754 10.9375 21.875 10.2379 21.875 9.375C21.875 8.51206 21.1754 7.8125 20.3125 7.8125C19.4496 7.8125 18.75 8.51206 18.75 9.375C18.75 10.2379 19.4496 10.9375 20.3125 10.9375Z" fill="url(#paint15_linear)"/>
<path d="M65.625 53.1249V35.9374C65.625 35.6588 65.5505 35.3852 65.4092 35.145C65.2679 34.9049 65.0649 34.7069 64.8213 34.5716L50.7588 26.7591C50.5267 26.6301 50.2655 26.5625 50 26.5625C49.7345 26.5625 49.4733 26.6301 49.2412 26.7591L35.1787 34.5716C34.9351 34.7069 34.7321 34.9049 34.5908 35.145C34.4495 35.3852 34.375 35.6588 34.375 35.9374V53.1249C34.375 53.3821 34.4385 53.6354 34.5599 53.8622C34.6813 54.089 34.8568 54.2823 35.0708 54.425L44.4458 60.675C44.7025 60.8461 45.004 60.9374 45.3125 60.9374H54.6875C54.996 60.9374 55.2975 60.8461 55.5542 60.675L64.9292 54.425C65.1432 54.2823 65.3187 54.089 65.4401 53.8622C65.5615 53.6354 65.625 53.3821 65.625 53.1249ZM50 29.9123L60.8451 35.9374L50 41.9625L39.1549 35.9374L50 29.9123ZM54.2144 57.8124H45.7856L37.5 52.2887V38.5929L49.2412 45.1158C49.4733 45.2447 49.7345 45.3124 50 45.3124C50.2655 45.3124 50.5267 45.2447 50.7588 45.1158L62.5 38.5929V52.2887L54.2144 57.8124Z" fill="black"/>
<path d="M65.625 53.1249V35.9374C65.625 35.6588 65.5505 35.3852 65.4092 35.145C65.2679 34.9049 65.0649 34.7069 64.8213 34.5716L50.7588 26.7591C50.5267 26.6301 50.2655 26.5625 50 26.5625C49.7345 26.5625 49.4733 26.6301 49.2412 26.7591L35.1787 34.5716C34.9351 34.7069 34.7321 34.9049 34.5908 35.145C34.4495 35.3852 34.375 35.6588 34.375 35.9374V53.1249C34.375 53.3821 34.4385 53.6354 34.5599 53.8622C34.6813 54.089 34.8568 54.2823 35.0708 54.425L44.4458 60.675C44.7025 60.8461 45.004 60.9374 45.3125 60.9374H54.6875C54.996 60.9374 55.2975 60.8461 55.5542 60.675L64.9292 54.425C65.1432 54.2823 65.3187 54.089 65.4401 53.8622C65.5615 53.6354 65.625 53.3821 65.625 53.1249ZM50 29.9123L60.8451 35.9374L50 41.9625L39.1549 35.9374L50 29.9123ZM54.2144 57.8124H45.7856L37.5 52.2887V38.5929L49.2412 45.1158C49.4733 45.2447 49.7345 45.3124 50 45.3124C50.2655 45.3124 50.5267 45.2447 50.7588 45.1158L62.5 38.5929V52.2887L54.2144 57.8124Z" fill="url(#paint16_linear)"/>
<defs>
<linearGradient id="paint0_linear" x1="15.625" y1="76.5625" x2="15.625" y2="79.6875" gradientUnits="userSpaceOnUse">
<stop stop-color="#FFE5AC"/>
<stop offset="0.0001" stop-color="#FFE5AC"/>
<stop offset="1" stop-color="#B99C5D"/>
</linearGradient>
<linearGradient id="paint1_linear" x1="24.2188" y1="76.5625" x2="24.2188" y2="79.6875" gradientUnits="userSpaceOnUse">
<stop stop-color="#FFE5AC"/>
<stop offset="0.0001" stop-color="#FFE5AC"/>
<stop offset="1" stop-color="#B99C5D"/>
</linearGradient>
<linearGradient id="paint2_linear" x1="17.9688" y1="84.375" x2="17.9688" y2="87.5" gradientUnits="userSpaceOnUse">
<stop stop-color="#FFE5AC"/>
<stop offset="0.0001" stop-color="#FFE5AC"/>
<stop offset="1" stop-color="#B99C5D"/>
</linearGradient>
<linearGradient id="paint3_linear" x1="34.375" y1="84.375" x2="34.375" y2="87.5" gradientUnits="userSpaceOnUse">
<stop stop-color="#FFE5AC"/>
<stop offset="0.0001" stop-color="#FFE5AC"/>
<stop offset="1" stop-color="#B99C5D"/>
</linearGradient>
<linearGradient id="paint4_linear" x1="84.375" y1="76.5625" x2="84.375" y2="79.6875" gradientUnits="userSpaceOnUse">
<stop stop-color="#FFE5AC"/>
<stop offset="0.0001" stop-color="#FFE5AC"/>
<stop offset="1" stop-color="#B99C5D"/>
</linearGradient>
<linearGradient id="paint5_linear" x1="75.7812" y1="76.5625" x2="75.7812" y2="79.6875" gradientUnits="userSpaceOnUse">
<stop stop-color="#FFE5AC"/>
<stop offset="0.0001" stop-color="#FFE5AC"/>
<stop offset="1" stop-color="#B99C5D"/>
</linearGradient>
<linearGradient id="paint6_linear" x1="82.0312" y1="84.375" x2="82.0312" y2="87.5" gradientUnits="userSpaceOnUse">
<stop stop-color="#FFE5AC"/>
<stop offset="0.0001" stop-color="#FFE5AC"/>
<stop offset="1" stop-color="#B99C5D"/>
</linearGradient>
<linearGradient id="paint7_linear" x1="65.625" y1="84.375" x2="65.625" y2="87.5" gradientUnits="userSpaceOnUse">
<stop stop-color="#FFE5AC"/>
<stop offset="0.0001" stop-color="#FFE5AC"/>
<stop offset="1" stop-color="#B99C5D"/>
</linearGradient>
<linearGradient id="paint8_linear" x1="40.625" y1="67.1875" x2="40.625" y2="70.3125" gradientUnits="userSpaceOnUse">
<stop stop-color="#FFE5AC"/>
<stop offset="0.0001" stop-color="#FFE5AC"/>
<stop offset="1" stop-color="#B99C5D"/>
</linearGradient>
<linearGradient id="paint9_linear" x1="46.875" y1="67.1875" x2="46.875" y2="70.3125" gradientUnits="userSpaceOnUse">
<stop stop-color="#FFE5AC"/>
<stop offset="0.0001" stop-color="#FFE5AC"/>
<stop offset="1" stop-color="#B99C5D"/>
</linearGradient>
<linearGradient id="paint10_linear" x1="53.125" y1="67.1875" x2="53.125" y2="70.3125" gradientUnits="userSpaceOnUse">
<stop stop-color="#FFE5AC"/>
<stop offset="0.0001" stop-color="#FFE5AC"/>
<stop offset="1" stop-color="#B99C5D"/>
</linearGradient>
<linearGradient id="paint11_linear" x1="59.375" y1="67.1875" x2="59.375" y2="70.3125" gradientUnits="userSpaceOnUse">
<stop stop-color="#FFE5AC"/>
<stop offset="0.0001" stop-color="#FFE5AC"/>
<stop offset="1" stop-color="#B99C5D"/>
</linearGradient>
<linearGradient id="paint12_linear" x1="50" y1="3.125" x2="50" y2="96.875" gradientUnits="userSpaceOnUse">
<stop stop-color="#FFE5AC"/>
<stop offset="0.0001" stop-color="#FFE5AC"/>
<stop offset="1" stop-color="#B99C5D"/>
</linearGradient>
<linearGradient id="paint13_linear" x1="10.9375" y1="7.8125" x2="10.9375" y2="10.9375" gradientUnits="userSpaceOnUse">
<stop stop-color="#FFE5AC"/>
<stop offset="0.0001" stop-color="#FFE5AC"/>
<stop offset="1" stop-color="#B99C5D"/>
</linearGradient>
<linearGradient id="paint14_linear" x1="15.625" y1="7.8125" x2="15.625" y2="10.9375" gradientUnits="userSpaceOnUse">
<stop stop-color="#FFE5AC"/>
<stop offset="0.0001" stop-color="#FFE5AC"/>
<stop offset="1" stop-color="#B99C5D"/>
</linearGradient>
<linearGradient id="paint15_linear" x1="20.3125" y1="7.8125" x2="20.3125" y2="10.9375" gradientUnits="userSpaceOnUse">
<stop stop-color="#FFE5AC"/>
<stop offset="0.0001" stop-color="#FFE5AC"/>
<stop offset="1" stop-color="#B99C5D"/>
</linearGradient>
<linearGradient id="paint16_linear" x1="50" y1="26.5625" x2="50" y2="60.9374" gradientUnits="userSpaceOnUse">
<stop stop-color="#FFE5AC"/>
<stop offset="0.0001" stop-color="#FFE5AC"/>
<stop offset="1" stop-color="#B99C5D"/>
</linearGradient>
</defs>
</svg>
