<svg width="100" height="100" viewBox="0 0 100 100" fill="none" xmlns="http://www.w3.org/2000/svg">
<path d="M80.8332 16.6665C79.4522 16.6665 78.333 17.7857 78.333 19.1667C78.333 20.5476 79.4522 21.6668 80.8332 21.6668C82.2141 21.6668 83.3333 20.5476 83.3333 19.1667C83.3333 17.7857 82.2141 16.6665 80.8332 16.6665Z" fill="black"/>
<path d="M80.8332 16.6665C79.4522 16.6665 78.333 17.7857 78.333 19.1667C78.333 20.5476 79.4522 21.6668 80.8332 21.6668C82.2141 21.6668 83.3333 20.5476 83.3333 19.1667C83.3333 17.7857 82.2141 16.6665 80.8332 16.6665Z" fill="url(#paint0_linear)"/>
<path d="M87.8459 0.489067C87.1951 -0.16172 86.14 -0.16172 85.4892 0.489067L72.1553 13.8222C71.8432 14.135 71.667 14.5584 71.667 15.0009V26.667C71.667 27.5879 72.4131 28.3341 73.334 28.3341H85.0009C85.4426 28.3341 85.8661 28.1586 86.1789 27.8458L99.512 14.5119C100.163 13.8611 100.163 12.8067 99.512 12.1552L87.8459 0.489067ZM84.3104 25.0008H75.0003V15.6906L86.6671 4.02377L95.9773 13.3339L84.3104 25.0008Z" fill="black"/>
<path d="M87.8459 0.489067C87.1951 -0.16172 86.14 -0.16172 85.4892 0.489067L72.1553 13.8222C71.8432 14.135 71.667 14.5584 71.667 15.0009V26.667C71.667 27.5879 72.4131 28.3341 73.334 28.3341H85.0009C85.4426 28.3341 85.8661 28.1586 86.1789 27.8458L99.512 14.5119C100.163 13.8611 100.163 12.8067 99.512 12.1552L87.8459 0.489067ZM84.3104 25.0008H75.0003V15.6906L86.6671 4.02377L95.9773 13.3339L84.3104 25.0008Z" fill="url(#paint1_linear)"/>
<path d="M1.66702 56.6668H6.66656V56.8804C6.67343 59.8788 8.74481 62.4781 11.6669 63.1533V78.3335C11.6669 79.2544 12.413 80.0005 13.3331 80.0005H23.333C24.2538 80.0005 25 79.2544 25 78.3335V71.6669H26.68C29.4312 71.6593 31.6597 69.4315 31.6666 66.6804V63.1533C33.7952 62.6543 35.5263 61.1101 36.2633 59.0517L64.3234 71.5235C65.1649 71.8973 66.1499 71.5182 66.523 70.6766C66.6176 70.4638 66.6672 70.2334 66.6664 69.9999V29.9998C66.6672 29.0797 65.921 28.3335 65.0002 28.3335C64.7675 28.3335 64.5363 28.3823 64.3234 28.4769L36.2633 40.9487C35.3523 38.3875 32.9315 36.6747 30.2132 36.6671H13.1203C9.55734 36.6701 6.67038 39.5579 6.66656 43.12V43.3336H1.66702C0.746155 43.3336 0 44.0798 0 44.9999V54.9998C0 55.9206 0.746155 56.6668 1.66702 56.6668ZM56.6666 35.5265L63.3331 32.5655V67.4349L56.6666 64.4739V35.5265ZM36.6669 44.417L53.3333 37.0081V62.9999L36.6669 55.5834V44.417ZM21.6667 69.9999V76.6672H15.0002V63.3333H21.6667V69.9999ZM28.3333 66.6804C28.3325 67.5928 27.5932 68.3329 26.68 68.3336H25V63.3333H28.3333V66.6804ZM9.99985 54.9998V43.12C10.0021 41.3981 11.3976 40.0019 13.1203 40.0004H30.2132C31.9359 40.0019 33.3313 41.3981 33.3336 43.12V56.8804C33.3313 58.6024 31.9359 59.9985 30.2132 60.0001H13.1203C11.3976 59.9985 10.0021 58.6024 9.99985 56.8804V54.9998ZM3.33328 46.6669H6.66656V53.3335H3.33328V46.6669Z" fill="black"/>
<path d="M1.66702 56.6668H6.66656V56.8804C6.67343 59.8788 8.74481 62.4781 11.6669 63.1533V78.3335C11.6669 79.2544 12.413 80.0005 13.3331 80.0005H23.333C24.2538 80.0005 25 79.2544 25 78.3335V71.6669H26.68C29.4312 71.6593 31.6597 69.4315 31.6666 66.6804V63.1533C33.7952 62.6543 35.5263 61.1101 36.2633 59.0517L64.3234 71.5235C65.1649 71.8973 66.1499 71.5182 66.523 70.6766C66.6176 70.4638 66.6672 70.2334 66.6664 69.9999V29.9998C66.6672 29.0797 65.921 28.3335 65.0002 28.3335C64.7675 28.3335 64.5363 28.3823 64.3234 28.4769L36.2633 40.9487C35.3523 38.3875 32.9315 36.6747 30.2132 36.6671H13.1203C9.55734 36.6701 6.67038 39.5579 6.66656 43.12V43.3336H1.66702C0.746155 43.3336 0 44.0798 0 44.9999V54.9998C0 55.9206 0.746155 56.6668 1.66702 56.6668ZM56.6666 35.5265L63.3331 32.5655V67.4349L56.6666 64.4739V35.5265ZM36.6669 44.417L53.3333 37.0081V62.9999L36.6669 55.5834V44.417ZM21.6667 69.9999V76.6672H15.0002V63.3333H21.6667V69.9999ZM28.3333 66.6804C28.3325 67.5928 27.5932 68.3329 26.68 68.3336H25V63.3333H28.3333V66.6804ZM9.99985 54.9998V43.12C10.0021 41.3981 11.3976 40.0019 13.1203 40.0004H30.2132C31.9359 40.0019 33.3313 41.3981 33.3336 43.12V56.8804C33.3313 58.6024 31.9359 59.9985 30.2132 60.0001H13.1203C11.3976 59.9985 10.0021 58.6024 9.99985 56.8804V54.9998ZM3.33328 46.6669H6.66656V53.3335H3.33328V46.6669Z" fill="url(#paint2_linear)"/>
<path d="M83.0143 65.5364C82.3635 64.8856 81.3083 64.8856 80.6576 65.5364L68.8709 77.3231C68.2201 77.9739 68.2201 79.029 68.8709 79.6798L85.371 96.1799C86.0218 96.8307 87.0762 96.8307 87.7277 96.1799L99.5121 84.3948C100.163 83.744 100.163 82.6888 99.5121 82.038L83.0143 65.5364ZM93.9708 81.2034L84.5653 80.4817L83.8421 71.0761L93.9708 81.2034ZM86.549 92.6399L72.4056 78.4995L80.4508 70.4551L81.3526 82.1616C81.4152 82.981 82.0659 83.6334 82.8853 83.6967L94.5942 84.5962L86.549 92.6399Z" fill="black"/>
<path d="M83.0143 65.5364C82.3635 64.8856 81.3083 64.8856 80.6576 65.5364L68.8709 77.3231C68.2201 77.9739 68.2201 79.029 68.8709 79.6798L85.371 96.1799C86.0218 96.8307 87.0762 96.8307 87.7277 96.1799L99.5121 84.3948C100.163 83.744 100.163 82.6888 99.5121 82.038L83.0143 65.5364ZM93.9708 81.2034L84.5653 80.4817L83.8421 71.0761L93.9708 81.2034ZM86.549 92.6399L72.4056 78.4995L80.4508 70.4551L81.3526 82.1616C81.4152 82.981 82.0659 83.6334 82.8853 83.6967L94.5942 84.5962L86.549 92.6399Z" fill="url(#paint3_linear)"/>
<path d="M45.0001 31.6666C51.4302 31.6811 56.6548 26.4801 56.6701 20.05C56.6754 17.5171 55.8552 15.0513 54.3332 13.0264L64.5146 2.845L62.1548 0.488281L51.9734 10.6667C46.8182 6.80084 39.5054 7.84531 35.6396 12.9997C31.7738 18.1541 32.8183 25.4669 37.9727 29.3335C39.9998 30.8533 42.4664 31.6719 45.0001 31.6666ZM45.0001 11.6661C49.6022 11.6661 53.333 15.3976 53.333 19.9997C53.333 24.6025 49.6022 28.3333 45.0001 28.3333C40.3973 28.3333 36.6665 24.6025 36.6665 19.9997C36.6719 15.3999 40.3996 11.6722 45.0001 11.6661Z" fill="black"/>
<path d="M45.0001 31.6666C51.4302 31.6811 56.6548 26.4801 56.6701 20.05C56.6754 17.5171 55.8552 15.0513 54.3332 13.0264L64.5146 2.845L62.1548 0.488281L51.9734 10.6667C46.8182 6.80084 39.5054 7.84531 35.6396 12.9997C31.7738 18.1541 32.8183 25.4669 37.9727 29.3335C39.9998 30.8533 42.4664 31.6719 45.0001 31.6666ZM45.0001 11.6661C49.6022 11.6661 53.333 15.3976 53.333 19.9997C53.333 24.6025 49.6022 28.3333 45.0001 28.3333C40.3973 28.3333 36.6665 24.6025 36.6665 19.9997C36.6719 15.3999 40.3996 11.6722 45.0001 11.6661Z" fill="url(#paint4_linear)"/>
<path d="M71.6663 58.3335H79.9998V59.9997C79.9998 60.9206 80.746 61.6667 81.6669 61.6667H95C95.9201 61.6667 96.6663 60.9206 96.6663 59.9997V51.6982C96.6579 48.8677 94.868 46.3492 92.1985 45.41C95.1984 43.2753 95.8995 39.1127 93.7648 36.1128C91.6309 33.113 87.4683 32.4111 84.4684 34.5458C81.4685 36.6805 80.7666 40.8431 82.9013 43.8429C83.3324 44.4487 83.8618 44.979 84.4684 45.41C83.3896 45.7945 82.4275 46.4499 81.6745 47.3128C81.0939 46.6437 80.3851 46.0967 79.5901 45.7045C81.8301 44.0901 82.3375 40.9651 80.7231 38.7251C79.1087 36.4852 75.9837 35.9778 73.743 37.5922C71.503 39.2066 70.9956 42.3316 72.61 44.5716C72.9243 45.008 73.3073 45.3902 73.743 45.7045C71.4603 46.8146 70.0076 49.1278 70 51.6661V56.6664C70 57.5865 70.7462 58.3335 71.6663 58.3335ZM88.3334 36.6667C90.1744 36.6667 91.6667 38.159 91.6667 40C91.6667 41.841 90.1744 43.3333 88.3334 43.3333C86.4925 43.3333 85.0002 41.8402 85.0002 40C85.0002 38.159 86.4925 36.6667 88.3334 36.6667ZM83.3331 56.6664V51.6982C83.3362 49.8404 84.8407 48.3359 86.6985 48.3328H89.9684C91.8254 48.3359 93.3307 49.8404 93.333 51.6982V58.3327H83.3331V56.6664ZM76.6666 40C77.5867 40 78.3328 40.7462 78.3328 41.6663C78.3328 42.5871 77.5867 43.3333 76.6666 43.3333C75.7457 43.3333 74.9995 42.5871 74.9995 41.6663C74.9995 40.7462 75.7457 40 76.6666 40ZM73.3333 51.6661C73.3333 49.8252 74.8256 48.3328 76.6666 48.3328C78.5075 48.3328 79.9998 49.8259 79.9998 51.6661V55.0002H73.3333V51.6661Z" fill="black"/>
<path d="M71.6663 58.3335H79.9998V59.9997C79.9998 60.9206 80.746 61.6667 81.6669 61.6667H95C95.9201 61.6667 96.6663 60.9206 96.6663 59.9997V51.6982C96.6579 48.8677 94.868 46.3492 92.1985 45.41C95.1984 43.2753 95.8995 39.1127 93.7648 36.1128C91.6309 33.113 87.4683 32.4111 84.4684 34.5458C81.4685 36.6805 80.7666 40.8431 82.9013 43.8429C83.3324 44.4487 83.8618 44.979 84.4684 45.41C83.3896 45.7945 82.4275 46.4499 81.6745 47.3128C81.0939 46.6437 80.3851 46.0967 79.5901 45.7045C81.8301 44.0901 82.3375 40.9651 80.7231 38.7251C79.1087 36.4852 75.9837 35.9778 73.743 37.5922C71.503 39.2066 70.9956 42.3316 72.61 44.5716C72.9243 45.008 73.3073 45.3902 73.743 45.7045C71.4603 46.8146 70.0076 49.1278 70 51.6661V56.6664C70 57.5865 70.7462 58.3335 71.6663 58.3335ZM88.3334 36.6667C90.1744 36.6667 91.6667 38.159 91.6667 40C91.6667 41.841 90.1744 43.3333 88.3334 43.3333C86.4925 43.3333 85.0002 41.8402 85.0002 40C85.0002 38.159 86.4925 36.6667 88.3334 36.6667ZM83.3331 56.6664V51.6982C83.3362 49.8404 84.8407 48.3359 86.6985 48.3328H89.9684C91.8254 48.3359 93.3307 49.8404 93.333 51.6982V58.3327H83.3331V56.6664ZM76.6666 40C77.5867 40 78.3328 40.7462 78.3328 41.6663C78.3328 42.5871 77.5867 43.3333 76.6666 43.3333C75.7457 43.3333 74.9995 42.5871 74.9995 41.6663C74.9995 40.7462 75.7457 40 76.6666 40ZM73.3333 51.6661C73.3333 49.8252 74.8256 48.3328 76.6666 48.3328C78.5075 48.3328 79.9998 49.8259 79.9998 51.6661V55.0002H73.3333V51.6661Z" fill="url(#paint5_linear)"/>
<path d="M46.6663 68.3335H39.9997C39.5579 68.3335 39.1338 68.509 38.8209 68.8218L28.8211 78.8216C28.1703 79.4724 28.1703 80.5276 28.8211 81.1783L47.1545 99.5118C47.8053 100.163 48.8605 100.163 49.5113 99.5118L62.8451 86.1786C63.4952 85.5279 63.4952 84.4727 62.8451 83.8219L47.845 68.8218C47.5322 68.509 47.108 68.3335 46.6663 68.3335ZM48.3333 95.9771L32.3566 80.0004L40.6894 71.6668H45.9766L59.3097 84.9999L48.3333 95.9771Z" fill="black"/>
<path d="M46.6663 68.3335H39.9997C39.5579 68.3335 39.1338 68.509 38.8209 68.8218L28.8211 78.8216C28.1703 79.4724 28.1703 80.5276 28.8211 81.1783L47.1545 99.5118C47.8053 100.163 48.8605 100.163 49.5113 99.5118L62.8451 86.1786C63.4952 85.5279 63.4952 84.4727 62.8451 83.8219L47.845 68.8218C47.5322 68.509 47.108 68.3335 46.6663 68.3335ZM48.3333 95.9771L32.3566 80.0004L40.6894 71.6668H45.9766L59.3097 84.9999L48.3333 95.9771Z" fill="url(#paint6_linear)"/>
<path d="M38.8223 82.1548L45.4888 75.4883L47.8456 77.845L41.179 84.5116L38.8223 82.1548Z" fill="black"/>
<path d="M38.8223 82.1548L45.4888 75.4883L47.8456 77.845L41.179 84.5116L38.8223 82.1548Z" fill="url(#paint7_linear)"/>
<path d="M43.8213 87.1544L50.4886 80.4878L52.8453 82.8445L46.1788 89.5118L43.8213 87.1544Z" fill="black"/>
<path d="M43.8213 87.1544L50.4886 80.4878L52.8453 82.8445L46.1788 89.5118L43.8213 87.1544Z" fill="url(#paint8_linear)"/>
<defs>
<linearGradient id="paint0_linear" x1="80.8332" y1="16.6665" x2="80.8332" y2="21.6668" gradientUnits="userSpaceOnUse">
<stop stop-color="#FFE5AC"/>
<stop offset="0.0001" stop-color="#FFE5AC"/>
<stop offset="1" stop-color="#B99C5D"/>
</linearGradient>
<linearGradient id="paint1_linear" x1="85.8335" y1="0.000976562" x2="85.8335" y2="28.3341" gradientUnits="userSpaceOnUse">
<stop stop-color="#FFE5AC"/>
<stop offset="0.0001" stop-color="#FFE5AC"/>
<stop offset="1" stop-color="#B99C5D"/>
</linearGradient>
<linearGradient id="paint2_linear" x1="33.3332" y1="28.3335" x2="33.3332" y2="80.0005" gradientUnits="userSpaceOnUse">
<stop stop-color="#FFE5AC"/>
<stop offset="0.0001" stop-color="#FFE5AC"/>
<stop offset="1" stop-color="#B99C5D"/>
</linearGradient>
<linearGradient id="paint3_linear" x1="84.1915" y1="65.0483" x2="84.1915" y2="96.668" gradientUnits="userSpaceOnUse">
<stop stop-color="#FFE5AC"/>
<stop offset="0.0001" stop-color="#FFE5AC"/>
<stop offset="1" stop-color="#B99C5D"/>
</linearGradient>
<linearGradient id="paint4_linear" x1="48.9101" y1="0.488281" x2="48.9101" y2="31.6666" gradientUnits="userSpaceOnUse">
<stop stop-color="#FFE5AC"/>
<stop offset="0.0001" stop-color="#FFE5AC"/>
<stop offset="1" stop-color="#B99C5D"/>
</linearGradient>
<linearGradient id="paint5_linear" x1="83.3331" y1="33.3105" x2="83.3331" y2="61.6667" gradientUnits="userSpaceOnUse">
<stop stop-color="#FFE5AC"/>
<stop offset="0.0001" stop-color="#FFE5AC"/>
<stop offset="1" stop-color="#B99C5D"/>
</linearGradient>
<linearGradient id="paint6_linear" x1="45.8328" y1="68.3335" x2="45.8328" y2="99.9999" gradientUnits="userSpaceOnUse">
<stop stop-color="#FFE5AC"/>
<stop offset="0.0001" stop-color="#FFE5AC"/>
<stop offset="1" stop-color="#B99C5D"/>
</linearGradient>
<linearGradient id="paint7_linear" x1="43.3339" y1="75.4883" x2="43.3339" y2="84.5116" gradientUnits="userSpaceOnUse">
<stop stop-color="#FFE5AC"/>
<stop offset="0.0001" stop-color="#FFE5AC"/>
<stop offset="1" stop-color="#B99C5D"/>
</linearGradient>
<linearGradient id="paint8_linear" x1="48.3333" y1="80.4878" x2="48.3333" y2="89.5118" gradientUnits="userSpaceOnUse">
<stop stop-color="#FFE5AC"/>
<stop offset="0.0001" stop-color="#FFE5AC"/>
<stop offset="1" stop-color="#B99C5D"/>
</linearGradient>
</defs>
</svg>
