<svg width="100" height="100" viewBox="0 0 100 100" fill="none" xmlns="http://www.w3.org/2000/svg">
<path d="M51.1047 66.0828C50.7703 65.7484 50.3125 65.5844 49.8297 65.6344C49.3594 65.6859 48.9375 65.9484 48.6828 66.3484L38.7906 81.8937L18.1078 61.2094L33.6516 51.3172C34.0516 51.0625 34.3141 50.6406 34.3656 50.1688C34.4172 49.6984 34.2531 49.2281 33.9172 48.8937L18.2922 33.2687C17.6812 32.6578 16.6938 32.6578 16.0828 33.2687L8.64844 40.7031C4.07812 45.275 1.5625 51.35 1.5625 57.8125C1.5625 64.275 4.07812 70.35 8.64844 74.9219L25.0797 91.3516C29.6484 95.9203 35.7234 98.4375 42.1875 98.4375C48.6516 98.4375 54.7266 95.9203 59.2953 91.35L66.7297 83.9172C67.0234 83.625 67.1875 83.2266 67.1875 82.8125C67.1875 82.3984 67.0234 82 66.7297 81.7078L51.1047 66.0828ZM17.1875 36.5844L30.3297 49.7281L25.3922 52.8703L13.1469 40.625L17.1875 36.5844ZM42.1875 95.3125C36.5578 95.3125 31.2672 93.1203 27.2891 89.1406L10.8578 72.7125C6.87812 68.7312 4.6875 63.4406 4.6875 57.8125C4.6875 52.1844 6.87812 46.8938 10.8578 42.9125L10.9375 42.8344L22.6922 54.5891L14.7859 59.6203C14.3859 59.875 14.1234 60.2969 14.0719 60.7687C14.0203 61.2391 14.1844 61.7094 14.5203 62.0437L37.9578 85.4813C38.2938 85.8156 38.7531 85.9828 39.2328 85.9297C39.7031 85.8781 40.125 85.6156 40.3797 85.2156L45.4109 77.3094L57.1656 89.0625L57.0859 89.1422C53.1078 93.1203 47.8172 95.3125 42.1875 95.3125ZM59.375 86.8531L47.1312 74.6094L50.2734 69.6703L63.4156 82.8125L59.375 86.8531Z" fill="black"/>
<path d="M51.1047 66.0828C50.7703 65.7484 50.3125 65.5844 49.8297 65.6344C49.3594 65.6859 48.9375 65.9484 48.6828 66.3484L38.7906 81.8937L18.1078 61.2094L33.6516 51.3172C34.0516 51.0625 34.3141 50.6406 34.3656 50.1688C34.4172 49.6984 34.2531 49.2281 33.9172 48.8937L18.2922 33.2687C17.6812 32.6578 16.6938 32.6578 16.0828 33.2687L8.64844 40.7031C4.07812 45.275 1.5625 51.35 1.5625 57.8125C1.5625 64.275 4.07812 70.35 8.64844 74.9219L25.0797 91.3516C29.6484 95.9203 35.7234 98.4375 42.1875 98.4375C48.6516 98.4375 54.7266 95.9203 59.2953 91.35L66.7297 83.9172C67.0234 83.625 67.1875 83.2266 67.1875 82.8125C67.1875 82.3984 67.0234 82 66.7297 81.7078L51.1047 66.0828ZM17.1875 36.5844L30.3297 49.7281L25.3922 52.8703L13.1469 40.625L17.1875 36.5844ZM42.1875 95.3125C36.5578 95.3125 31.2672 93.1203 27.2891 89.1406L10.8578 72.7125C6.87812 68.7312 4.6875 63.4406 4.6875 57.8125C4.6875 52.1844 6.87812 46.8938 10.8578 42.9125L10.9375 42.8344L22.6922 54.5891L14.7859 59.6203C14.3859 59.875 14.1234 60.2969 14.0719 60.7687C14.0203 61.2391 14.1844 61.7094 14.5203 62.0437L37.9578 85.4813C38.2938 85.8156 38.7531 85.9828 39.2328 85.9297C39.7031 85.8781 40.125 85.6156 40.3797 85.2156L45.4109 77.3094L57.1656 89.0625L57.0859 89.1422C53.1078 93.1203 47.8172 95.3125 42.1875 95.3125ZM59.375 86.8531L47.1312 74.6094L50.2734 69.6703L63.4156 82.8125L59.375 86.8531Z" fill="url(#paint0_linear)"/>
<path d="M98.0156 2.05785C97.6078 1.62504 96.9969 1.45785 96.425 1.62816L83.4062 5.53441C81.6797 4.97191 79.9062 4.68754 78.125 4.68754C69.9828 4.68754 62.9 10.4703 61.2812 18.4391L64.3453 19.061C65.6672 12.5438 71.4625 7.81254 78.125 7.81254C79.7172 7.81254 81.3062 8.09222 82.85 8.64535C83.1609 8.75629 83.5047 8.7641 83.825 8.67191L94.3047 5.52816L90.8344 14.7813C90.6875 15.1719 90.7047 15.6063 90.8797 15.986C91.7484 17.8594 92.1875 19.8422 92.1875 21.875C92.1875 29.6282 85.8797 35.9375 78.125 35.9375C72.5328 35.9375 67.4719 32.625 65.2312 27.5L62.3687 28.75C65.1047 35.0157 71.2906 39.0625 78.125 39.0625C87.6016 39.0625 95.3125 31.3516 95.3125 21.875C95.3125 19.6047 94.8672 17.3907 93.9844 15.2829L98.3375 3.67347C98.5453 3.11722 98.4219 2.49222 98.0156 2.05785Z" fill="black"/>
<path d="M98.0156 2.05785C97.6078 1.62504 96.9969 1.45785 96.425 1.62816L83.4062 5.53441C81.6797 4.97191 79.9062 4.68754 78.125 4.68754C69.9828 4.68754 62.9 10.4703 61.2812 18.4391L64.3453 19.061C65.6672 12.5438 71.4625 7.81254 78.125 7.81254C79.7172 7.81254 81.3062 8.09222 82.85 8.64535C83.1609 8.75629 83.5047 8.7641 83.825 8.67191L94.3047 5.52816L90.8344 14.7813C90.6875 15.1719 90.7047 15.6063 90.8797 15.986C91.7484 17.8594 92.1875 19.8422 92.1875 21.875C92.1875 29.6282 85.8797 35.9375 78.125 35.9375C72.5328 35.9375 67.4719 32.625 65.2312 27.5L62.3687 28.75C65.1047 35.0157 71.2906 39.0625 78.125 39.0625C87.6016 39.0625 95.3125 31.3516 95.3125 21.875C95.3125 19.6047 94.8672 17.3907 93.9844 15.2829L98.3375 3.67347C98.5453 3.11722 98.4219 2.49222 98.0156 2.05785Z" fill="url(#paint1_linear)"/>
<path d="M60.9378 53.125C59.3456 53.125 57.7566 52.8453 56.2128 52.2922C55.9003 52.1781 55.5566 52.1703 55.2378 52.2656L44.7581 55.4094L48.2284 46.1563C48.3753 45.7656 48.3581 45.3312 48.1831 44.9516C47.3144 43.0781 46.8753 41.0953 46.8753 39.0625C46.8753 31.3094 53.1831 25 60.9378 25C66.53 25 71.5909 28.3125 73.8315 33.4375L76.694 32.1859C73.9581 25.9219 67.7722 21.875 60.9378 21.875C51.4612 21.875 43.7503 29.5859 43.7503 39.0625C43.7503 41.3328 44.1956 43.5469 45.0784 45.6547L40.7253 57.2641C40.5175 57.8203 40.6409 58.4453 41.0472 58.8797C41.3472 59.2 41.7628 59.375 42.1878 59.375C42.3378 59.375 42.4878 59.3531 42.6362 59.3094L55.655 55.4031C57.3831 55.9656 59.1565 56.25 60.9378 56.25C69.08 56.25 76.1628 50.4672 77.7815 42.4984L74.7175 41.8766C73.3956 48.3938 67.6003 53.125 60.9378 53.125Z" fill="black"/>
<path d="M60.9378 53.125C59.3456 53.125 57.7566 52.8453 56.2128 52.2922C55.9003 52.1781 55.5566 52.1703 55.2378 52.2656L44.7581 55.4094L48.2284 46.1563C48.3753 45.7656 48.3581 45.3312 48.1831 44.9516C47.3144 43.0781 46.8753 41.0953 46.8753 39.0625C46.8753 31.3094 53.1831 25 60.9378 25C66.53 25 71.5909 28.3125 73.8315 33.4375L76.694 32.1859C73.9581 25.9219 67.7722 21.875 60.9378 21.875C51.4612 21.875 43.7503 29.5859 43.7503 39.0625C43.7503 41.3328 44.1956 43.5469 45.0784 45.6547L40.7253 57.2641C40.5175 57.8203 40.6409 58.4453 41.0472 58.8797C41.3472 59.2 41.7628 59.375 42.1878 59.375C42.3378 59.375 42.4878 59.3531 42.6362 59.3094L55.655 55.4031C57.3831 55.9656 59.1565 56.25 60.9378 56.25C69.08 56.25 76.1628 50.4672 77.7815 42.4984L74.7175 41.8766C73.3956 48.3938 67.6003 53.125 60.9378 53.125Z" fill="url(#paint2_linear)"/>
<path d="M53.125 37.5H56.25V40.625H53.125V37.5Z" fill="black"/>
<path d="M53.125 37.5H56.25V40.625H53.125V37.5Z" fill="url(#paint3_linear)"/>
<path d="M59.375 37.5H62.5V40.625H59.375V37.5Z" fill="black"/>
<path d="M59.375 37.5H62.5V40.625H59.375V37.5Z" fill="url(#paint4_linear)"/>
<path d="M65.625 37.5H68.75V40.625H65.625V37.5Z" fill="black"/>
<path d="M65.625 37.5H68.75V40.625H65.625V37.5Z" fill="url(#paint5_linear)"/>
<path d="M70.3125 20.3125H73.4375V23.4375H70.3125V20.3125Z" fill="black"/>
<path d="M70.3125 20.3125H73.4375V23.4375H70.3125V20.3125Z" fill="url(#paint6_linear)"/>
<path d="M76.5625 20.3125H79.6875V23.4375H76.5625V20.3125Z" fill="black"/>
<path d="M76.5625 20.3125H79.6875V23.4375H76.5625V20.3125Z" fill="url(#paint7_linear)"/>
<path d="M82.8125 20.3125H85.9375V23.4375H82.8125V20.3125Z" fill="black"/>
<path d="M82.8125 20.3125H85.9375V23.4375H82.8125V20.3125Z" fill="url(#paint8_linear)"/>
<defs>
<linearGradient id="paint0_linear" x1="34.375" y1="32.8105" x2="34.375" y2="98.4375" gradientUnits="userSpaceOnUse">
<stop stop-color="#FFE5AC"/>
<stop offset="0.0001" stop-color="#FFE5AC"/>
<stop offset="1" stop-color="#B99C5D"/>
</linearGradient>
<linearGradient id="paint1_linear" x1="79.859" y1="1.5625" x2="79.859" y2="39.0625" gradientUnits="userSpaceOnUse">
<stop stop-color="#FFE5AC"/>
<stop offset="0.0001" stop-color="#FFE5AC"/>
<stop offset="1" stop-color="#B99C5D"/>
</linearGradient>
<linearGradient id="paint2_linear" x1="59.2038" y1="21.875" x2="59.2038" y2="59.375" gradientUnits="userSpaceOnUse">
<stop stop-color="#FFE5AC"/>
<stop offset="0.0001" stop-color="#FFE5AC"/>
<stop offset="1" stop-color="#B99C5D"/>
</linearGradient>
<linearGradient id="paint3_linear" x1="54.6875" y1="37.5" x2="54.6875" y2="40.625" gradientUnits="userSpaceOnUse">
<stop stop-color="#FFE5AC"/>
<stop offset="0.0001" stop-color="#FFE5AC"/>
<stop offset="1" stop-color="#B99C5D"/>
</linearGradient>
<linearGradient id="paint4_linear" x1="60.9375" y1="37.5" x2="60.9375" y2="40.625" gradientUnits="userSpaceOnUse">
<stop stop-color="#FFE5AC"/>
<stop offset="0.0001" stop-color="#FFE5AC"/>
<stop offset="1" stop-color="#B99C5D"/>
</linearGradient>
<linearGradient id="paint5_linear" x1="67.1875" y1="37.5" x2="67.1875" y2="40.625" gradientUnits="userSpaceOnUse">
<stop stop-color="#FFE5AC"/>
<stop offset="0.0001" stop-color="#FFE5AC"/>
<stop offset="1" stop-color="#B99C5D"/>
</linearGradient>
<linearGradient id="paint6_linear" x1="71.875" y1="20.3125" x2="71.875" y2="23.4375" gradientUnits="userSpaceOnUse">
<stop stop-color="#FFE5AC"/>
<stop offset="0.0001" stop-color="#FFE5AC"/>
<stop offset="1" stop-color="#B99C5D"/>
</linearGradient>
<linearGradient id="paint7_linear" x1="78.125" y1="20.3125" x2="78.125" y2="23.4375" gradientUnits="userSpaceOnUse">
<stop stop-color="#FFE5AC"/>
<stop offset="0.0001" stop-color="#FFE5AC"/>
<stop offset="1" stop-color="#B99C5D"/>
</linearGradient>
<linearGradient id="paint8_linear" x1="84.375" y1="20.3125" x2="84.375" y2="23.4375" gradientUnits="userSpaceOnUse">
<stop stop-color="#FFE5AC"/>
<stop offset="0.0001" stop-color="#FFE5AC"/>
<stop offset="1" stop-color="#B99C5D"/>
</linearGradient>
</defs>
</svg>
