<svg width="100" height="100" viewBox="0 0 100 100" fill="none" xmlns="http://www.w3.org/2000/svg">
<g clip-path="url(#clip0)">
<path d="M91.9355 70.9678H41.6386C41.8197 70.4614 41.9355 69.9227 41.9355 69.3549V46.7743C41.9355 44.1068 39.7642 41.9355 37.0968 41.9355H11.2903C8.62289 41.9355 6.45161 44.1068 6.45161 46.7743V69.3549C6.45161 69.9708 6.5792 70.5551 6.78868 71.097C2.95016 71.7128 0 75.0229 0 79.0323C0 83.4788 3.61801 87.0968 8.06452 87.0968H17.7837C16.7599 88.4483 16.129 90.1132 16.129 91.9355C16.129 93.7579 16.7599 95.4228 17.7837 96.7743H6.45161V100H93.5484V96.7743H82.2163C83.2401 95.4228 83.871 93.7579 83.871 91.9355C83.871 90.1132 83.2401 88.4483 82.2163 87.0968H91.9355C96.382 87.0968 100 83.4788 100 79.0323C100 74.5858 96.382 70.9678 91.9355 70.9678ZM19.3548 45.1614H29.0323V48.3872H19.3548V45.1614ZM9.67742 46.7743C9.67742 45.8859 10.4004 45.1614 11.2903 45.1614H16.129V51.613H32.2581V45.1614H37.0968C37.9867 45.1614 38.7097 45.8859 38.7097 46.7743V69.3549C38.7097 70.2448 37.9867 70.9678 37.0968 70.9678H32.2581V64.5162H16.129V70.9678H11.2903C10.4004 70.9678 9.67742 70.2448 9.67742 69.3549V46.7743ZM29.0323 70.9678H19.3548V67.742H29.0323V70.9678ZM19.3548 91.9355C19.3548 89.2681 21.5261 87.0968 24.1935 87.0968C26.861 87.0968 29.0323 89.2681 29.0323 91.9355C29.0323 94.603 26.861 96.7743 24.1935 96.7743C21.5261 96.7743 19.3548 94.603 19.3548 91.9355ZM54.8387 91.9355C54.8387 94.603 52.6674 96.7743 50 96.7743C47.3326 96.7743 45.1613 94.603 45.1613 91.9355C45.1613 89.2681 47.3326 87.0968 50 87.0968C52.6674 87.0968 54.8387 89.2681 54.8387 91.9355ZM56.4099 87.0968H69.395C68.3728 88.4483 67.7419 90.1132 67.7419 91.9355C67.7419 93.7579 68.3728 95.4228 69.3966 96.7743H56.4114C57.4337 95.4228 58.0645 93.7579 58.0645 91.9355C58.0645 90.1132 57.4337 88.4483 56.4099 87.0968ZM43.5901 96.7743H30.605C31.6272 95.4228 32.2581 93.7579 32.2581 91.9355C32.2581 90.1132 31.6272 88.4483 30.6034 87.0968H43.5886C42.5663 88.4483 41.9355 90.1132 41.9355 91.9355C41.9355 93.7579 42.5663 95.4228 43.5901 96.7743ZM80.6452 91.9355C80.6452 94.603 78.4739 96.7743 75.8064 96.7743C73.139 96.7743 70.9677 94.603 70.9677 91.9355C70.9677 89.2681 73.139 87.0968 75.8064 87.0968C78.4739 87.0968 80.6452 89.2681 80.6452 91.9355ZM91.9355 83.871H8.06452C5.39708 83.871 3.22581 81.6998 3.22581 79.0323C3.22581 76.3649 5.39708 74.1936 8.06452 74.1936H91.9355C94.6029 74.1936 96.7742 76.3649 96.7742 79.0323C96.7742 81.6998 94.6029 83.871 91.9355 83.871Z" fill="#191919"/>
<path d="M91.9355 70.9678H41.6386C41.8197 70.4614 41.9355 69.9227 41.9355 69.3549V46.7743C41.9355 44.1068 39.7642 41.9355 37.0968 41.9355H11.2903C8.62289 41.9355 6.45161 44.1068 6.45161 46.7743V69.3549C6.45161 69.9708 6.5792 70.5551 6.78868 71.097C2.95016 71.7128 0 75.0229 0 79.0323C0 83.4788 3.61801 87.0968 8.06452 87.0968H17.7837C16.7599 88.4483 16.129 90.1132 16.129 91.9355C16.129 93.7579 16.7599 95.4228 17.7837 96.7743H6.45161V100H93.5484V96.7743H82.2163C83.2401 95.4228 83.871 93.7579 83.871 91.9355C83.871 90.1132 83.2401 88.4483 82.2163 87.0968H91.9355C96.382 87.0968 100 83.4788 100 79.0323C100 74.5858 96.382 70.9678 91.9355 70.9678ZM19.3548 45.1614H29.0323V48.3872H19.3548V45.1614ZM9.67742 46.7743C9.67742 45.8859 10.4004 45.1614 11.2903 45.1614H16.129V51.613H32.2581V45.1614H37.0968C37.9867 45.1614 38.7097 45.8859 38.7097 46.7743V69.3549C38.7097 70.2448 37.9867 70.9678 37.0968 70.9678H32.2581V64.5162H16.129V70.9678H11.2903C10.4004 70.9678 9.67742 70.2448 9.67742 69.3549V46.7743ZM29.0323 70.9678H19.3548V67.742H29.0323V70.9678ZM19.3548 91.9355C19.3548 89.2681 21.5261 87.0968 24.1935 87.0968C26.861 87.0968 29.0323 89.2681 29.0323 91.9355C29.0323 94.603 26.861 96.7743 24.1935 96.7743C21.5261 96.7743 19.3548 94.603 19.3548 91.9355ZM54.8387 91.9355C54.8387 94.603 52.6674 96.7743 50 96.7743C47.3326 96.7743 45.1613 94.603 45.1613 91.9355C45.1613 89.2681 47.3326 87.0968 50 87.0968C52.6674 87.0968 54.8387 89.2681 54.8387 91.9355ZM56.4099 87.0968H69.395C68.3728 88.4483 67.7419 90.1132 67.7419 91.9355C67.7419 93.7579 68.3728 95.4228 69.3966 96.7743H56.4114C57.4337 95.4228 58.0645 93.7579 58.0645 91.9355C58.0645 90.1132 57.4337 88.4483 56.4099 87.0968ZM43.5901 96.7743H30.605C31.6272 95.4228 32.2581 93.7579 32.2581 91.9355C32.2581 90.1132 31.6272 88.4483 30.6034 87.0968H43.5886C42.5663 88.4483 41.9355 90.1132 41.9355 91.9355C41.9355 93.7579 42.5663 95.4228 43.5901 96.7743ZM80.6452 91.9355C80.6452 94.603 78.4739 96.7743 75.8064 96.7743C73.139 96.7743 70.9677 94.603 70.9677 91.9355C70.9677 89.2681 73.139 87.0968 75.8064 87.0968C78.4739 87.0968 80.6452 89.2681 80.6452 91.9355ZM91.9355 83.871H8.06452C5.39708 83.871 3.22581 81.6998 3.22581 79.0323C3.22581 76.3649 5.39708 74.1936 8.06452 74.1936H91.9355C94.6029 74.1936 96.7742 76.3649 96.7742 79.0323C96.7742 81.6998 94.6029 83.871 91.9355 83.871Z" fill="url(#paint0_linear)"/>
<path d="M25.8064 91.9357C25.8064 92.8264 25.0842 93.5486 24.1935 93.5486C23.3027 93.5486 22.5806 92.8264 22.5806 91.9357C22.5806 91.0449 23.3027 90.3228 24.1935 90.3228C25.0842 90.3228 25.8064 91.0449 25.8064 91.9357Z" fill="#191919"/>
<path d="M25.8064 91.9357C25.8064 92.8264 25.0842 93.5486 24.1935 93.5486C23.3027 93.5486 22.5806 92.8264 22.5806 91.9357C22.5806 91.0449 23.3027 90.3228 24.1935 90.3228C25.0842 90.3228 25.8064 91.0449 25.8064 91.9357Z" fill="url(#paint1_linear)"/>
<path d="M12.9031 79.0323C12.9031 79.9231 12.1809 80.6452 11.2901 80.6452C10.3994 80.6452 9.67725 79.9231 9.67725 79.0323C9.67725 78.1416 10.3994 77.4194 11.2901 77.4194C12.1809 77.4194 12.9031 78.1416 12.9031 79.0323Z" fill="#191919"/>
<path d="M12.9031 79.0323C12.9031 79.9231 12.1809 80.6452 11.2901 80.6452C10.3994 80.6452 9.67725 79.9231 9.67725 79.0323C9.67725 78.1416 10.3994 77.4194 11.2901 77.4194C12.1809 77.4194 12.9031 78.1416 12.9031 79.0323Z" fill="url(#paint2_linear)"/>
<path d="M25.8064 79.0323C25.8064 79.9231 25.0842 80.6452 24.1935 80.6452C23.3027 80.6452 22.5806 79.9231 22.5806 79.0323C22.5806 78.1416 23.3027 77.4194 24.1935 77.4194C25.0842 77.4194 25.8064 78.1416 25.8064 79.0323Z" fill="#191919"/>
<path d="M25.8064 79.0323C25.8064 79.9231 25.0842 80.6452 24.1935 80.6452C23.3027 80.6452 22.5806 79.9231 22.5806 79.0323C22.5806 78.1416 23.3027 77.4194 24.1935 77.4194C25.0842 77.4194 25.8064 78.1416 25.8064 79.0323Z" fill="url(#paint3_linear)"/>
<path d="M38.7097 79.0323C38.7097 79.9231 37.9875 80.6452 37.0968 80.6452C36.2061 80.6452 35.4839 79.9231 35.4839 79.0323C35.4839 78.1416 36.2061 77.4194 37.0968 77.4194C37.9875 77.4194 38.7097 78.1416 38.7097 79.0323Z" fill="#191919"/>
<path d="M38.7097 79.0323C38.7097 79.9231 37.9875 80.6452 37.0968 80.6452C36.2061 80.6452 35.4839 79.9231 35.4839 79.0323C35.4839 78.1416 36.2061 77.4194 37.0968 77.4194C37.9875 77.4194 38.7097 78.1416 38.7097 79.0323Z" fill="url(#paint4_linear)"/>
<path d="M51.613 79.0323C51.613 79.9231 50.8908 80.6452 50.0001 80.6452C49.1094 80.6452 48.3872 79.9231 48.3872 79.0323C48.3872 78.1416 49.1094 77.4194 50.0001 77.4194C50.8908 77.4194 51.613 78.1416 51.613 79.0323Z" fill="#191919"/>
<path d="M51.613 79.0323C51.613 79.9231 50.8908 80.6452 50.0001 80.6452C49.1094 80.6452 48.3872 79.9231 48.3872 79.0323C48.3872 78.1416 49.1094 77.4194 50.0001 77.4194C50.8908 77.4194 51.613 78.1416 51.613 79.0323Z" fill="url(#paint5_linear)"/>
<path d="M64.5158 79.0323C64.5158 79.9231 63.7937 80.6452 62.9029 80.6452C62.0122 80.6452 61.29 79.9231 61.29 79.0323C61.29 78.1416 62.0122 77.4194 62.9029 77.4194C63.7937 77.4194 64.5158 78.1416 64.5158 79.0323Z" fill="#191919"/>
<path d="M64.5158 79.0323C64.5158 79.9231 63.7937 80.6452 62.9029 80.6452C62.0122 80.6452 61.29 79.9231 61.29 79.0323C61.29 78.1416 62.0122 77.4194 62.9029 77.4194C63.7937 77.4194 64.5158 78.1416 64.5158 79.0323Z" fill="url(#paint6_linear)"/>
<path d="M77.4192 79.0323C77.4192 79.9231 76.697 80.6452 75.8063 80.6452C74.9155 80.6452 74.1934 79.9231 74.1934 79.0323C74.1934 78.1416 74.9155 77.4194 75.8063 77.4194C76.697 77.4194 77.4192 78.1416 77.4192 79.0323Z" fill="#191919"/>
<path d="M77.4192 79.0323C77.4192 79.9231 76.697 80.6452 75.8063 80.6452C74.9155 80.6452 74.1934 79.9231 74.1934 79.0323C74.1934 78.1416 74.9155 77.4194 75.8063 77.4194C76.697 77.4194 77.4192 78.1416 77.4192 79.0323Z" fill="url(#paint7_linear)"/>
<path d="M90.3225 79.0323C90.3225 79.9231 89.6003 80.6452 88.7096 80.6452C87.8189 80.6452 87.0967 79.9231 87.0967 79.0323C87.0967 78.1416 87.8189 77.4194 88.7096 77.4194C89.6003 77.4194 90.3225 78.1416 90.3225 79.0323Z" fill="#191919"/>
<path d="M90.3225 79.0323C90.3225 79.9231 89.6003 80.6452 88.7096 80.6452C87.8189 80.6452 87.0967 79.9231 87.0967 79.0323C87.0967 78.1416 87.8189 77.4194 88.7096 77.4194C89.6003 77.4194 90.3225 78.1416 90.3225 79.0323Z" fill="url(#paint8_linear)"/>
<path d="M51.613 91.9357C51.613 92.8264 50.8908 93.5486 50.0001 93.5486C49.1094 93.5486 48.3872 92.8264 48.3872 91.9357C48.3872 91.0449 49.1094 90.3228 50.0001 90.3228C50.8908 90.3228 51.613 91.0449 51.613 91.9357Z" fill="#191919"/>
<path d="M51.613 91.9357C51.613 92.8264 50.8908 93.5486 50.0001 93.5486C49.1094 93.5486 48.3872 92.8264 48.3872 91.9357C48.3872 91.0449 49.1094 90.3228 50.0001 90.3228C50.8908 90.3228 51.613 91.0449 51.613 91.9357Z" fill="url(#paint9_linear)"/>
<path d="M77.4192 91.9357C77.4192 92.8264 76.697 93.5486 75.8063 93.5486C74.9155 93.5486 74.1934 92.8264 74.1934 91.9357C74.1934 91.0449 74.9155 90.3228 75.8063 90.3228C76.697 90.3228 77.4192 91.0449 77.4192 91.9357Z" fill="#191919"/>
<path d="M77.4192 91.9357C77.4192 92.8264 76.697 93.5486 75.8063 93.5486C74.9155 93.5486 74.1934 92.8264 74.1934 91.9357C74.1934 91.0449 74.9155 90.3228 75.8063 90.3228C76.697 90.3228 77.4192 91.0449 77.4192 91.9357Z" fill="url(#paint10_linear)"/>
<path d="M0 96.7744H3.22581V100H0V96.7744Z" fill="#191919"/>
<path d="M0 96.7744H3.22581V100H0V96.7744Z" fill="url(#paint11_linear)"/>
<path d="M96.7744 96.7744H100V100H96.7744V96.7744Z" fill="#191919"/>
<path d="M96.7744 96.7744H100V100H96.7744V96.7744Z" fill="url(#paint12_linear)"/>
<path d="M49.9998 67.742H75.8063C78.4737 67.742 80.645 65.5707 80.645 62.9032V40.3226C80.645 37.6552 78.4737 35.4839 75.8063 35.4839H49.9998C47.3324 35.4839 45.1611 37.6552 45.1611 40.3226V62.9032C45.1611 65.5707 47.3324 67.742 49.9998 67.742ZM67.7418 64.5162H58.0644V61.2903H67.7418V64.5162ZM58.0644 38.7097H67.7418V41.9355H58.0644V38.7097ZM48.3869 40.3226C48.3869 39.4342 49.1099 38.7097 49.9998 38.7097H54.8386V45.1613H70.9676V38.7097H75.8063C76.6962 38.7097 77.4192 39.4342 77.4192 40.3226V62.9032C77.4192 63.7932 76.6962 64.5162 75.8063 64.5162H70.9676V58.0645H54.8386V64.5162H49.9998C49.1099 64.5162 48.3869 63.7932 48.3869 62.9032V40.3226Z" fill="#191919"/>
<path d="M49.9998 67.742H75.8063C78.4737 67.742 80.645 65.5707 80.645 62.9032V40.3226C80.645 37.6552 78.4737 35.4839 75.8063 35.4839H49.9998C47.3324 35.4839 45.1611 37.6552 45.1611 40.3226V62.9032C45.1611 65.5707 47.3324 67.742 49.9998 67.742ZM67.7418 64.5162H58.0644V61.2903H67.7418V64.5162ZM58.0644 38.7097H67.7418V41.9355H58.0644V38.7097ZM48.3869 40.3226C48.3869 39.4342 49.1099 38.7097 49.9998 38.7097H54.8386V45.1613H70.9676V38.7097H75.8063C76.6962 38.7097 77.4192 39.4342 77.4192 40.3226V62.9032C77.4192 63.7932 76.6962 64.5162 75.8063 64.5162H70.9676V58.0645H54.8386V64.5162H49.9998C49.1099 64.5162 48.3869 63.7932 48.3869 62.9032V40.3226Z" fill="url(#paint13_linear)"/>
<path d="M95.1613 0H69.3548C66.6874 0 64.5161 2.17128 64.5161 4.83871V27.4194C64.5161 30.0868 66.6874 32.2581 69.3548 32.2581H95.1613C97.8287 32.2581 100 30.0868 100 27.4194V4.83871C100 2.17128 97.8287 0 95.1613 0ZM77.4193 3.22581H87.0968V6.45161H77.4193V3.22581ZM87.0968 29.0323H77.4193V25.8065H87.0968V29.0323ZM96.7742 27.4194C96.7742 28.3077 96.0512 29.0323 95.1613 29.0323H90.3226V22.5806H74.1935V29.0323H69.3548C68.4649 29.0323 67.7419 28.3077 67.7419 27.4194V4.83871C67.7419 3.95035 68.4649 3.22581 69.3548 3.22581H74.1935V9.67742H90.3226V3.22581H95.1613C96.0512 3.22581 96.7742 3.95035 96.7742 4.83871V27.4194Z" fill="#191919"/>
<path d="M95.1613 0H69.3548C66.6874 0 64.5161 2.17128 64.5161 4.83871V27.4194C64.5161 30.0868 66.6874 32.2581 69.3548 32.2581H95.1613C97.8287 32.2581 100 30.0868 100 27.4194V4.83871C100 2.17128 97.8287 0 95.1613 0ZM77.4193 3.22581H87.0968V6.45161H77.4193V3.22581ZM87.0968 29.0323H77.4193V25.8065H87.0968V29.0323ZM96.7742 27.4194C96.7742 28.3077 96.0512 29.0323 95.1613 29.0323H90.3226V22.5806H74.1935V29.0323H69.3548C68.4649 29.0323 67.7419 28.3077 67.7419 27.4194V4.83871C67.7419 3.95035 68.4649 3.22581 69.3548 3.22581H74.1935V9.67742H90.3226V3.22581H95.1613C96.0512 3.22581 96.7742 3.95035 96.7742 4.83871V27.4194Z" fill="url(#paint14_linear)"/>
</g>
<defs>
<linearGradient id="paint0_linear" x1="50" y1="41.9355" x2="50" y2="100" gradientUnits="userSpaceOnUse">
<stop stop-color="#FFE5AC"/>
<stop offset="0.0001" stop-color="#FFE5AC"/>
<stop offset="1" stop-color="#B99C5D"/>
</linearGradient>
<linearGradient id="paint1_linear" x1="24.1935" y1="90.3228" x2="24.1935" y2="93.5486" gradientUnits="userSpaceOnUse">
<stop stop-color="#FFE5AC"/>
<stop offset="0.0001" stop-color="#FFE5AC"/>
<stop offset="1" stop-color="#B99C5D"/>
</linearGradient>
<linearGradient id="paint2_linear" x1="11.2901" y1="77.4194" x2="11.2901" y2="80.6452" gradientUnits="userSpaceOnUse">
<stop stop-color="#FFE5AC"/>
<stop offset="0.0001" stop-color="#FFE5AC"/>
<stop offset="1" stop-color="#B99C5D"/>
</linearGradient>
<linearGradient id="paint3_linear" x1="24.1935" y1="77.4194" x2="24.1935" y2="80.6452" gradientUnits="userSpaceOnUse">
<stop stop-color="#FFE5AC"/>
<stop offset="0.0001" stop-color="#FFE5AC"/>
<stop offset="1" stop-color="#B99C5D"/>
</linearGradient>
<linearGradient id="paint4_linear" x1="37.0968" y1="77.4194" x2="37.0968" y2="80.6452" gradientUnits="userSpaceOnUse">
<stop stop-color="#FFE5AC"/>
<stop offset="0.0001" stop-color="#FFE5AC"/>
<stop offset="1" stop-color="#B99C5D"/>
</linearGradient>
<linearGradient id="paint5_linear" x1="50.0001" y1="77.4194" x2="50.0001" y2="80.6452" gradientUnits="userSpaceOnUse">
<stop stop-color="#FFE5AC"/>
<stop offset="0.0001" stop-color="#FFE5AC"/>
<stop offset="1" stop-color="#B99C5D"/>
</linearGradient>
<linearGradient id="paint6_linear" x1="62.9029" y1="77.4194" x2="62.9029" y2="80.6452" gradientUnits="userSpaceOnUse">
<stop stop-color="#FFE5AC"/>
<stop offset="0.0001" stop-color="#FFE5AC"/>
<stop offset="1" stop-color="#B99C5D"/>
</linearGradient>
<linearGradient id="paint7_linear" x1="75.8063" y1="77.4194" x2="75.8063" y2="80.6452" gradientUnits="userSpaceOnUse">
<stop stop-color="#FFE5AC"/>
<stop offset="0.0001" stop-color="#FFE5AC"/>
<stop offset="1" stop-color="#B99C5D"/>
</linearGradient>
<linearGradient id="paint8_linear" x1="88.7096" y1="77.4194" x2="88.7096" y2="80.6452" gradientUnits="userSpaceOnUse">
<stop stop-color="#FFE5AC"/>
<stop offset="0.0001" stop-color="#FFE5AC"/>
<stop offset="1" stop-color="#B99C5D"/>
</linearGradient>
<linearGradient id="paint9_linear" x1="50.0001" y1="90.3228" x2="50.0001" y2="93.5486" gradientUnits="userSpaceOnUse">
<stop stop-color="#FFE5AC"/>
<stop offset="0.0001" stop-color="#FFE5AC"/>
<stop offset="1" stop-color="#B99C5D"/>
</linearGradient>
<linearGradient id="paint10_linear" x1="75.8063" y1="90.3228" x2="75.8063" y2="93.5486" gradientUnits="userSpaceOnUse">
<stop stop-color="#FFE5AC"/>
<stop offset="0.0001" stop-color="#FFE5AC"/>
<stop offset="1" stop-color="#B99C5D"/>
</linearGradient>
<linearGradient id="paint11_linear" x1="1.6129" y1="96.7744" x2="1.6129" y2="100" gradientUnits="userSpaceOnUse">
<stop stop-color="#FFE5AC"/>
<stop offset="0.0001" stop-color="#FFE5AC"/>
<stop offset="1" stop-color="#B99C5D"/>
</linearGradient>
<linearGradient id="paint12_linear" x1="98.3873" y1="96.7744" x2="98.3873" y2="100" gradientUnits="userSpaceOnUse">
<stop stop-color="#FFE5AC"/>
<stop offset="0.0001" stop-color="#FFE5AC"/>
<stop offset="1" stop-color="#B99C5D"/>
</linearGradient>
<linearGradient id="paint13_linear" x1="62.9031" y1="35.4839" x2="62.9031" y2="67.742" gradientUnits="userSpaceOnUse">
<stop stop-color="#FFE5AC"/>
<stop offset="0.0001" stop-color="#FFE5AC"/>
<stop offset="1" stop-color="#B99C5D"/>
</linearGradient>
<linearGradient id="paint14_linear" x1="82.2581" y1="0" x2="82.2581" y2="32.2581" gradientUnits="userSpaceOnUse">
<stop stop-color="#FFE5AC"/>
<stop offset="0.0001" stop-color="#FFE5AC"/>
<stop offset="1" stop-color="#B99C5D"/>
</linearGradient>
<clipPath id="clip0">
<rect width="100" height="100" fill="white"/>
</clipPath>
</defs>
</svg>
