<svg width="100" height="100" viewBox="0 0 100 100" fill="none" xmlns="http://www.w3.org/2000/svg">
<path d="M17.7087 35.4167C17.7087 34.8417 17.242 34.375 16.667 34.375H8.33366C7.75866 34.375 7.29199 34.8417 7.29199 35.4167V43.75C7.29199 44.325 7.75866 44.7917 8.33366 44.7917H16.667C17.242 44.7917 17.7087 44.325 17.7087 43.75V35.4167ZM15.6253 42.7083H9.37533V36.4583H15.6253V42.7083Z" fill="url(#paint0_linear)"/>
<path d="M31.2497 35.4167C31.2497 34.8417 30.783 34.375 30.208 34.375H21.8747C21.2997 34.375 20.833 34.8417 20.833 35.4167V43.75C20.833 44.325 21.2997 44.7917 21.8747 44.7917H30.208C30.783 44.7917 31.2497 44.325 31.2497 43.75V35.4167ZM29.1663 42.7083H22.9163V36.4583H29.1663V42.7083Z" fill="url(#paint1_linear)"/>
<path d="M17.7087 48.9582C17.7087 48.3832 17.242 47.9165 16.667 47.9165H8.33366C7.75866 47.9165 7.29199 48.3832 7.29199 48.9582V57.2915C7.29199 57.8665 7.75866 58.3332 8.33366 58.3332H16.667C17.242 58.3332 17.7087 57.8665 17.7087 57.2915V48.9582ZM15.6253 56.2498H9.37533V49.9998H15.6253V56.2498Z" fill="url(#paint2_linear)"/>
<path d="M31.2497 48.9582C31.2497 48.3832 30.783 47.9165 30.208 47.9165H21.8747C21.2997 47.9165 20.833 48.3832 20.833 48.9582V57.2915C20.833 57.8665 21.2997 58.3332 21.8747 58.3332H30.208C30.783 58.3332 31.2497 57.8665 31.2497 57.2915V48.9582ZM29.1663 56.2498H22.9163V49.9998H29.1663V56.2498Z" fill="url(#paint3_linear)"/>
<path d="M16.667 61.4585H8.33366C7.75866 61.4585 7.29199 61.9252 7.29199 62.5002V70.8335C7.29199 71.4085 7.75866 71.8752 8.33366 71.8752H16.667C17.242 71.8752 17.7087 71.4085 17.7087 70.8335V62.5002C17.7087 61.9252 17.242 61.4585 16.667 61.4585ZM15.6253 69.7918H9.37533V63.5418H15.6253V69.7918Z" fill="url(#paint4_linear)"/>
<path d="M30.208 61.4585H21.8747C21.2997 61.4585 20.833 61.9252 20.833 62.5002V70.8335C20.833 71.4085 21.2997 71.8752 21.8747 71.8752H30.208C30.783 71.8752 31.2497 71.4085 31.2497 70.8335V62.5002C31.2497 61.9252 30.783 61.4585 30.208 61.4585ZM29.1663 69.7918H22.9163V63.5418H29.1663V69.7918Z" fill="url(#paint5_linear)"/>
<path d="M48.958 7.2915H40.6247C40.0497 7.2915 39.583 7.75817 39.583 8.33317V16.6665C39.583 17.2415 40.0497 17.7082 40.6247 17.7082H48.958C49.533 17.7082 49.9997 17.2415 49.9997 16.6665V8.33317C49.9997 7.75817 49.533 7.2915 48.958 7.2915ZM47.9163 15.6248H41.6663V9.37484H47.9163V15.6248Z" fill="url(#paint6_linear)"/>
<path d="M54.1667 17.7082H62.5C63.075 17.7082 63.5417 17.2415 63.5417 16.6665V8.33317C63.5417 7.75817 63.075 7.2915 62.5 7.2915H54.1667C53.5917 7.2915 53.125 7.75817 53.125 8.33317V16.6665C53.125 17.2415 53.5917 17.7082 54.1667 17.7082ZM55.2083 9.37484H61.4583V15.6248H55.2083V9.37484Z" fill="url(#paint7_linear)"/>
<path d="M67.7087 17.7082H76.042C76.617 17.7082 77.0837 17.2415 77.0837 16.6665V8.33317C77.0837 7.75817 76.617 7.2915 76.042 7.2915H67.7087C67.1337 7.2915 66.667 7.75817 66.667 8.33317V16.6665C66.667 17.2415 67.1337 17.7082 67.7087 17.7082ZM68.7503 9.37484H75.0003V15.6248H68.7503V9.37484Z" fill="url(#paint8_linear)"/>
<path d="M48.958 20.8335H40.6247C40.0497 20.8335 39.583 21.3002 39.583 21.8752V30.2085C39.583 30.7835 40.0497 31.2502 40.6247 31.2502H48.958C49.533 31.2502 49.9997 30.7835 49.9997 30.2085V21.8752C49.9997 21.3002 49.533 20.8335 48.958 20.8335ZM47.9163 29.1668H41.6663V22.9168H47.9163V29.1668Z" fill="url(#paint9_linear)"/>
<path d="M54.1667 31.2502H62.5C63.075 31.2502 63.5417 30.7835 63.5417 30.2085V21.8752C63.5417 21.3002 63.075 20.8335 62.5 20.8335H54.1667C53.5917 20.8335 53.125 21.3002 53.125 21.8752V30.2085C53.125 30.7835 53.5917 31.2502 54.1667 31.2502ZM55.2083 22.9168H61.4583V29.1668H55.2083V22.9168Z" fill="url(#paint10_linear)"/>
<path d="M67.7087 31.2502H76.042C76.617 31.2502 77.0837 30.7835 77.0837 30.2085V21.8752C77.0837 21.3002 76.617 20.8335 76.042 20.8335H67.7087C67.1337 20.8335 66.667 21.3002 66.667 21.8752V30.2085C66.667 30.7835 67.1337 31.2502 67.7087 31.2502ZM68.7503 22.9168H75.0003V29.1668H68.7503V22.9168Z" fill="url(#paint11_linear)"/>
<path d="M48.958 34.375H40.6247C40.0497 34.375 39.583 34.8417 39.583 35.4167V43.75C39.583 44.325 40.0497 44.7917 40.6247 44.7917H48.958C49.533 44.7917 49.9997 44.325 49.9997 43.75V35.4167C49.9997 34.8417 49.533 34.375 48.958 34.375ZM47.9163 42.7083H41.6663V36.4583H47.9163V42.7083Z" fill="url(#paint12_linear)"/>
<path d="M54.1667 44.7917H62.5C63.075 44.7917 63.5417 44.325 63.5417 43.75V35.4167C63.5417 34.8417 63.075 34.375 62.5 34.375H54.1667C53.5917 34.375 53.125 34.8417 53.125 35.4167V43.75C53.125 44.325 53.5917 44.7917 54.1667 44.7917ZM55.2083 36.4583H61.4583V42.7083H55.2083V36.4583Z" fill="url(#paint13_linear)"/>
<path d="M67.7087 44.7917H76.042C76.617 44.7917 77.0837 44.325 77.0837 43.75V35.4167C77.0837 34.8417 76.617 34.375 76.042 34.375H67.7087C67.1337 34.375 66.667 34.8417 66.667 35.4167V43.75C66.667 44.325 67.1337 44.7917 67.7087 44.7917ZM68.7503 36.4583H75.0003V42.7083H68.7503V36.4583Z" fill="url(#paint14_linear)"/>
<path d="M48.958 47.9165H40.6247C40.0497 47.9165 39.583 48.3832 39.583 48.9582V57.2915C39.583 57.8665 40.0497 58.3332 40.6247 58.3332H48.958C49.533 58.3332 49.9997 57.8665 49.9997 57.2915V48.9582C49.9997 48.3832 49.533 47.9165 48.958 47.9165ZM47.9163 56.2498H41.6663V49.9998H47.9163V56.2498Z" fill="url(#paint15_linear)"/>
<path d="M63.5417 57.2915V48.9582C63.5417 48.3832 63.075 47.9165 62.5 47.9165H54.1667C53.5917 47.9165 53.125 48.3832 53.125 48.9582V57.2915C53.125 57.8665 53.5917 58.3332 54.1667 58.3332H62.5C63.075 58.3332 63.5417 57.8665 63.5417 57.2915ZM61.4583 56.2498H55.2083V49.9998H61.4583V56.2498Z" fill="url(#paint16_linear)"/>
<path d="M67.7087 58.3332H76.042C76.617 58.3332 77.0837 57.8665 77.0837 57.2915V48.9582C77.0837 48.3832 76.617 47.9165 76.042 47.9165H67.7087C67.1337 47.9165 66.667 48.3832 66.667 48.9582V57.2915C66.667 57.8665 67.1337 58.3332 67.7087 58.3332ZM68.7503 49.9998H75.0003V56.2498H68.7503V49.9998Z" fill="url(#paint17_linear)"/>
<path d="M94.7914 70.8335H86.458V68.7502C86.458 67.8345 86.2174 66.9335 85.7611 66.146C85.4726 65.647 84.8341 65.4772 84.3382 65.7658C83.8393 66.0543 83.6695 66.6908 83.958 67.1887C84.2299 67.6606 84.3747 68.2012 84.3747 68.7502V70.8335H71.8747V68.7502C71.8747 67.0273 73.2768 65.6252 74.9997 65.6252H81.2497C81.8247 65.6252 82.2913 65.1585 82.2913 64.5835V3.12516C82.2913 2.55016 81.8247 2.0835 81.2497 2.0835H35.4163C34.8413 2.0835 34.3747 2.55016 34.3747 3.12516V29.1668H22.9163C22.3413 29.1668 21.8747 29.6335 21.8747 30.2085C21.8747 30.7835 22.3413 31.2502 22.9163 31.2502H34.3747V95.8335H4.16634V31.2502H18.7497C19.3247 31.2502 19.7913 30.7835 19.7913 30.2085V20.8335C19.7913 20.7762 19.7674 20.7262 19.7591 20.672C23.2466 16.5835 23.0674 10.42 19.2028 6.55537C18.7955 6.14808 18.1372 6.14808 17.7299 6.55537L4.47155 19.8137C4.06426 20.221 4.06426 20.8793 4.47155 21.2866C6.50176 23.3179 9.16947 24.3325 11.8372 24.3325C13.8924 24.3325 15.9445 23.7231 17.708 22.5179V29.1668H3.12467C2.54967 29.1668 2.08301 29.6335 2.08301 30.2085V96.8752C2.08301 97.4502 2.54967 97.9168 3.12467 97.9168H41.6663C42.2413 97.9168 42.708 97.4502 42.708 96.8752V75.0002H53.1247V95.8335H45.833C45.258 95.8335 44.7913 96.3002 44.7913 96.8752C44.7913 97.4502 45.258 97.9168 45.833 97.9168H94.7914C96.5143 97.9168 97.9164 96.5148 97.9164 94.7918V73.9585C97.9164 72.2356 96.5143 70.8335 94.7914 70.8335ZM6.72676 20.5043L18.4205 8.81058C20.9601 12.0772 20.7299 16.8137 17.7299 19.8137C14.7309 22.8137 9.99238 23.0429 6.72676 20.5043ZM58.5247 95.8335H55.208V73.9585C55.208 73.3835 54.7413 72.9168 54.1663 72.9168H41.6663C41.0913 72.9168 40.6247 73.3835 40.6247 73.9585V95.8335H36.458V4.16683H80.208V63.5418H74.9997C72.1278 63.5418 69.7913 65.8783 69.7913 68.7502V70.8335H61.458C59.7351 70.8335 58.333 72.2356 58.333 73.9585V94.7918C58.333 95.1585 58.408 95.5064 58.5247 95.8335ZM61.458 95.8335C60.8841 95.8335 60.4163 95.3658 60.4163 94.7918V91.772C62.4538 92.1877 64.0622 93.796 64.4778 95.8335H61.458ZM95.833 94.7918C95.833 95.3658 95.3653 95.8335 94.7914 95.8335H91.7716C92.1872 93.796 93.7955 92.1877 95.833 91.772V94.7918ZM95.833 89.6668C92.6466 90.1262 90.1247 92.647 89.6664 95.8335H66.583C66.1236 92.647 63.6028 90.1252 60.4163 89.6668V84.3752H65.6247V85.4168C65.6247 85.9918 66.0913 86.4585 66.6663 86.4585H67.708V88.5418C67.708 89.1168 68.1747 89.5835 68.7497 89.5835C69.3247 89.5835 69.7913 89.1168 69.7913 88.5418V86.4585H70.833C71.408 86.4585 71.8747 85.9918 71.8747 85.4168V84.3752H84.3747V85.4168C84.3747 85.9918 84.8413 86.4585 85.4164 86.4585H86.458V88.5418C86.458 89.1168 86.9247 89.5835 87.4997 89.5835C88.0747 89.5835 88.5414 89.1168 88.5414 88.5418V86.4585H89.583C90.158 86.4585 90.6247 85.9918 90.6247 85.4168V84.3752H95.833V89.6668ZM67.708 84.3752V81.2502H69.7913V84.3752H67.708ZM86.458 84.3752V81.2502H88.5414V84.3752H86.458ZM95.833 82.2918H90.6247V80.2085C90.6247 79.6335 90.158 79.1668 89.583 79.1668H85.4164C84.8413 79.1668 84.3747 79.6335 84.3747 80.2085V82.2918H71.8747V80.2085C71.8747 79.6335 71.408 79.1668 70.833 79.1668H66.6663C66.0913 79.1668 65.6247 79.6335 65.6247 80.2085V82.2918H60.4163V73.9585C60.4163 73.3845 60.8841 72.9168 61.458 72.9168H94.7914C95.3653 72.9168 95.833 73.3845 95.833 73.9585V82.2918Z" fill="url(#paint18_linear)"/>
<path d="M43.7497 70.8333C44.325 70.8333 44.7913 70.367 44.7913 69.7917C44.7913 69.2164 44.325 68.75 43.7497 68.75C43.1744 68.75 42.708 69.2164 42.708 69.7917C42.708 70.367 43.1744 70.8333 43.7497 70.8333Z" fill="url(#paint19_linear)"/>
<path d="M47.9167 70.8333C48.492 70.8333 48.9583 70.367 48.9583 69.7917C48.9583 69.2164 48.492 68.75 47.9167 68.75C47.3414 68.75 46.875 69.2164 46.875 69.7917C46.875 70.367 47.3414 70.8333 47.9167 70.8333Z" fill="url(#paint20_linear)"/>
<path d="M52.0837 70.8333C52.659 70.8333 53.1253 70.367 53.1253 69.7917C53.1253 69.2164 52.659 68.75 52.0837 68.75C51.5084 68.75 51.042 69.2164 51.042 69.7917C51.042 70.367 51.5084 70.8333 52.0837 70.8333Z" fill="url(#paint21_linear)"/>
<defs>
<linearGradient id="paint0_linear" x1="12.5003" y1="34.375" x2="12.5003" y2="44.7917" gradientUnits="userSpaceOnUse">
<stop stop-color="#FFE5AC"/>
<stop offset="0.0001" stop-color="#FFE5AC"/>
<stop offset="1" stop-color="#B99C5D"/>
</linearGradient>
<linearGradient id="paint1_linear" x1="26.0413" y1="34.375" x2="26.0413" y2="44.7917" gradientUnits="userSpaceOnUse">
<stop stop-color="#FFE5AC"/>
<stop offset="0.0001" stop-color="#FFE5AC"/>
<stop offset="1" stop-color="#B99C5D"/>
</linearGradient>
<linearGradient id="paint2_linear" x1="12.5003" y1="47.9165" x2="12.5003" y2="58.3332" gradientUnits="userSpaceOnUse">
<stop stop-color="#FFE5AC"/>
<stop offset="0.0001" stop-color="#FFE5AC"/>
<stop offset="1" stop-color="#B99C5D"/>
</linearGradient>
<linearGradient id="paint3_linear" x1="26.0413" y1="47.9165" x2="26.0413" y2="58.3332" gradientUnits="userSpaceOnUse">
<stop stop-color="#FFE5AC"/>
<stop offset="0.0001" stop-color="#FFE5AC"/>
<stop offset="1" stop-color="#B99C5D"/>
</linearGradient>
<linearGradient id="paint4_linear" x1="12.5003" y1="61.4585" x2="12.5003" y2="71.8752" gradientUnits="userSpaceOnUse">
<stop stop-color="#FFE5AC"/>
<stop offset="0.0001" stop-color="#FFE5AC"/>
<stop offset="1" stop-color="#B99C5D"/>
</linearGradient>
<linearGradient id="paint5_linear" x1="26.0413" y1="61.4585" x2="26.0413" y2="71.8752" gradientUnits="userSpaceOnUse">
<stop stop-color="#FFE5AC"/>
<stop offset="0.0001" stop-color="#FFE5AC"/>
<stop offset="1" stop-color="#B99C5D"/>
</linearGradient>
<linearGradient id="paint6_linear" x1="44.7913" y1="7.2915" x2="44.7913" y2="17.7082" gradientUnits="userSpaceOnUse">
<stop stop-color="#FFE5AC"/>
<stop offset="0.0001" stop-color="#FFE5AC"/>
<stop offset="1" stop-color="#B99C5D"/>
</linearGradient>
<linearGradient id="paint7_linear" x1="58.3333" y1="7.2915" x2="58.3333" y2="17.7082" gradientUnits="userSpaceOnUse">
<stop stop-color="#FFE5AC"/>
<stop offset="0.0001" stop-color="#FFE5AC"/>
<stop offset="1" stop-color="#B99C5D"/>
</linearGradient>
<linearGradient id="paint8_linear" x1="71.8753" y1="7.2915" x2="71.8753" y2="17.7082" gradientUnits="userSpaceOnUse">
<stop stop-color="#FFE5AC"/>
<stop offset="0.0001" stop-color="#FFE5AC"/>
<stop offset="1" stop-color="#B99C5D"/>
</linearGradient>
<linearGradient id="paint9_linear" x1="44.7913" y1="20.8335" x2="44.7913" y2="31.2502" gradientUnits="userSpaceOnUse">
<stop stop-color="#FFE5AC"/>
<stop offset="0.0001" stop-color="#FFE5AC"/>
<stop offset="1" stop-color="#B99C5D"/>
</linearGradient>
<linearGradient id="paint10_linear" x1="58.3333" y1="20.8335" x2="58.3333" y2="31.2502" gradientUnits="userSpaceOnUse">
<stop stop-color="#FFE5AC"/>
<stop offset="0.0001" stop-color="#FFE5AC"/>
<stop offset="1" stop-color="#B99C5D"/>
</linearGradient>
<linearGradient id="paint11_linear" x1="71.8753" y1="20.8335" x2="71.8753" y2="31.2502" gradientUnits="userSpaceOnUse">
<stop stop-color="#FFE5AC"/>
<stop offset="0.0001" stop-color="#FFE5AC"/>
<stop offset="1" stop-color="#B99C5D"/>
</linearGradient>
<linearGradient id="paint12_linear" x1="44.7913" y1="34.375" x2="44.7913" y2="44.7917" gradientUnits="userSpaceOnUse">
<stop stop-color="#FFE5AC"/>
<stop offset="0.0001" stop-color="#FFE5AC"/>
<stop offset="1" stop-color="#B99C5D"/>
</linearGradient>
<linearGradient id="paint13_linear" x1="58.3333" y1="34.375" x2="58.3333" y2="44.7917" gradientUnits="userSpaceOnUse">
<stop stop-color="#FFE5AC"/>
<stop offset="0.0001" stop-color="#FFE5AC"/>
<stop offset="1" stop-color="#B99C5D"/>
</linearGradient>
<linearGradient id="paint14_linear" x1="71.8753" y1="34.375" x2="71.8753" y2="44.7917" gradientUnits="userSpaceOnUse">
<stop stop-color="#FFE5AC"/>
<stop offset="0.0001" stop-color="#FFE5AC"/>
<stop offset="1" stop-color="#B99C5D"/>
</linearGradient>
<linearGradient id="paint15_linear" x1="44.7913" y1="47.9165" x2="44.7913" y2="58.3332" gradientUnits="userSpaceOnUse">
<stop stop-color="#FFE5AC"/>
<stop offset="0.0001" stop-color="#FFE5AC"/>
<stop offset="1" stop-color="#B99C5D"/>
</linearGradient>
<linearGradient id="paint16_linear" x1="58.3333" y1="47.9165" x2="58.3333" y2="58.3332" gradientUnits="userSpaceOnUse">
<stop stop-color="#FFE5AC"/>
<stop offset="0.0001" stop-color="#FFE5AC"/>
<stop offset="1" stop-color="#B99C5D"/>
</linearGradient>
<linearGradient id="paint17_linear" x1="71.8753" y1="47.9165" x2="71.8753" y2="58.3332" gradientUnits="userSpaceOnUse">
<stop stop-color="#FFE5AC"/>
<stop offset="0.0001" stop-color="#FFE5AC"/>
<stop offset="1" stop-color="#B99C5D"/>
</linearGradient>
<linearGradient id="paint18_linear" x1="49.9997" y1="2.0835" x2="49.9997" y2="97.9168" gradientUnits="userSpaceOnUse">
<stop stop-color="#FFE5AC"/>
<stop offset="0.0001" stop-color="#FFE5AC"/>
<stop offset="1" stop-color="#B99C5D"/>
</linearGradient>
<linearGradient id="paint19_linear" x1="43.7497" y1="68.75" x2="43.7497" y2="70.8333" gradientUnits="userSpaceOnUse">
<stop stop-color="#FFE5AC"/>
<stop offset="0.0001" stop-color="#FFE5AC"/>
<stop offset="1" stop-color="#B99C5D"/>
</linearGradient>
<linearGradient id="paint20_linear" x1="47.9167" y1="68.75" x2="47.9167" y2="70.8333" gradientUnits="userSpaceOnUse">
<stop stop-color="#FFE5AC"/>
<stop offset="0.0001" stop-color="#FFE5AC"/>
<stop offset="1" stop-color="#B99C5D"/>
</linearGradient>
<linearGradient id="paint21_linear" x1="52.0837" y1="68.75" x2="52.0837" y2="70.8333" gradientUnits="userSpaceOnUse">
<stop stop-color="#FFE5AC"/>
<stop offset="0.0001" stop-color="#FFE5AC"/>
<stop offset="1" stop-color="#B99C5D"/>
</linearGradient>
</defs>
</svg>
