<svg width="100" height="100" viewBox="0 0 100 100" fill="none" xmlns="http://www.w3.org/2000/svg">
<path d="M95.4041 4.69678H4.5961C2.06192 4.69678 0 6.7585 0 9.29288V71.919C0 74.4534 2.06192 76.5151 4.5961 76.5151H37.5757V86.1106H31.2122C29.5411 86.1106 28.1817 87.4702 28.1817 89.1413V92.2725C28.1817 93.9436 29.5411 95.303 31.2122 95.303H68.7878C70.4589 95.303 71.8183 93.9436 71.8183 92.2725V89.1413C71.8183 87.4702 70.4589 86.1106 68.7878 86.1106H62.4243V76.5151H95.4039C97.9383 76.5151 100 74.4532 100 71.919V9.29288C100 6.7585 97.9383 4.69678 95.4041 4.69678ZM68.788 89.0403C68.8437 89.0403 68.8888 89.0854 68.8888 89.1413V92.2725C68.8888 92.328 68.8437 92.3733 68.788 92.3733H31.2124C31.1567 92.3733 31.1116 92.3282 31.1116 92.2725V89.1413C31.1116 89.0856 31.1567 89.0403 31.2124 89.0403H51.5657C52.3747 89.0403 53.0306 88.3846 53.0306 87.5755C53.0306 86.7663 52.3747 86.1106 51.5657 86.1106H40.5054V76.5151H59.4948V86.1106H57.828C57.0191 86.1106 56.3632 86.7663 56.3632 87.5755C56.3632 88.3846 57.0191 89.0403 57.828 89.0403H68.788ZM97.0705 71.919C97.0705 72.8379 96.3228 73.5854 95.4041 73.5854H4.5961C3.67716 73.5854 2.92969 72.8379 2.92969 71.919V9.29288C2.92969 8.37393 3.67735 7.62647 4.5961 7.62647H95.4041C96.323 7.62647 97.0705 8.37393 97.0705 9.29288V71.919Z" fill="black"/>
<path d="M95.4041 4.69678H4.5961C2.06192 4.69678 0 6.7585 0 9.29288V71.919C0 74.4534 2.06192 76.5151 4.5961 76.5151H37.5757V86.1106H31.2122C29.5411 86.1106 28.1817 87.4702 28.1817 89.1413V92.2725C28.1817 93.9436 29.5411 95.303 31.2122 95.303H68.7878C70.4589 95.303 71.8183 93.9436 71.8183 92.2725V89.1413C71.8183 87.4702 70.4589 86.1106 68.7878 86.1106H62.4243V76.5151H95.4039C97.9383 76.5151 100 74.4532 100 71.919V9.29288C100 6.7585 97.9383 4.69678 95.4041 4.69678ZM68.788 89.0403C68.8437 89.0403 68.8888 89.0854 68.8888 89.1413V92.2725C68.8888 92.328 68.8437 92.3733 68.788 92.3733H31.2124C31.1567 92.3733 31.1116 92.3282 31.1116 92.2725V89.1413C31.1116 89.0856 31.1567 89.0403 31.2124 89.0403H51.5657C52.3747 89.0403 53.0306 88.3846 53.0306 87.5755C53.0306 86.7663 52.3747 86.1106 51.5657 86.1106H40.5054V76.5151H59.4948V86.1106H57.828C57.0191 86.1106 56.3632 86.7663 56.3632 87.5755C56.3632 88.3846 57.0191 89.0403 57.828 89.0403H68.788ZM97.0705 71.919C97.0705 72.8379 96.3228 73.5854 95.4041 73.5854H4.5961C3.67716 73.5854 2.92969 72.8379 2.92969 71.919V9.29288C2.92969 8.37393 3.67735 7.62647 4.5961 7.62647H95.4041C96.323 7.62647 97.0705 8.37393 97.0705 9.29288V71.919Z" fill="url(#paint0_linear)"/>
<path d="M92.272 10.9595H7.72657C6.91758 10.9595 6.26172 11.6151 6.26172 12.4243V68.7877C6.26172 69.5969 6.91758 70.2526 7.72657 70.2526H92.2719C93.0808 70.2526 93.7367 69.5969 93.7367 68.7877V12.4243C93.7369 11.6153 93.081 10.9595 92.272 10.9595ZM34.242 20.1519H51.6657V23.4847H34.242V20.1519ZM31.3122 67.3231H9.19141V20.1519H31.3122V67.3231ZM31.3124 17.222H9.19141V13.8892H31.3124V17.222ZM90.8072 67.3229H34.242V26.4144H90.8072V67.3229ZM54.5954 23.4847V20.1519H70.4544V23.4847H54.5954ZM90.8072 17.2222H86.0101C85.2011 17.2222 84.5453 17.8778 84.5453 18.687C84.5453 19.4962 85.2011 20.1519 86.0101 20.1519H90.8072V23.4847H73.3841V20.1519H79.7464C80.5554 20.1519 81.2113 19.4962 81.2113 18.687C81.2113 17.8778 80.5554 17.2222 79.7464 17.2222H34.242V13.8892H90.8072V17.2222Z" fill="black"/>
<path d="M92.272 10.9595H7.72657C6.91758 10.9595 6.26172 11.6151 6.26172 12.4243V68.7877C6.26172 69.5969 6.91758 70.2526 7.72657 70.2526H92.2719C93.0808 70.2526 93.7367 69.5969 93.7367 68.7877V12.4243C93.7369 11.6153 93.081 10.9595 92.272 10.9595ZM34.242 20.1519H51.6657V23.4847H34.242V20.1519ZM31.3122 67.3231H9.19141V20.1519H31.3122V67.3231ZM31.3124 17.222H9.19141V13.8892H31.3124V17.222ZM90.8072 67.3229H34.242V26.4144H90.8072V67.3229ZM54.5954 23.4847V20.1519H70.4544V23.4847H54.5954ZM90.8072 17.2222H86.0101C85.2011 17.2222 84.5453 17.8778 84.5453 18.687C84.5453 19.4962 85.2011 20.1519 86.0101 20.1519H90.8072V23.4847H73.3841V20.1519H79.7464C80.5554 20.1519 81.2113 19.4962 81.2113 18.687C81.2113 17.8778 80.5554 17.2222 79.7464 17.2222H34.242V13.8892H90.8072V17.2222Z" fill="url(#paint1_linear)"/>
<path d="M15.5559 23.4844H13.9902C13.1813 23.4844 12.5254 24.14 12.5254 24.9492C12.5254 25.7584 13.1813 26.4141 13.9902 26.4141H15.5559C16.3648 26.4141 17.0207 25.7584 17.0207 24.9492C17.0207 24.14 16.3648 23.4844 15.5559 23.4844Z" fill="black"/>
<path d="M15.5559 23.4844H13.9902C13.1813 23.4844 12.5254 24.14 12.5254 24.9492C12.5254 25.7584 13.1813 26.4141 13.9902 26.4141H15.5559C16.3648 26.4141 17.0207 25.7584 17.0207 24.9492C17.0207 24.14 16.3648 23.4844 15.5559 23.4844Z" fill="url(#paint2_linear)"/>
<path d="M26.5154 23.4844H21.8184C21.0094 23.4844 20.3535 24.14 20.3535 24.9492C20.3535 25.7584 21.0094 26.4141 21.8184 26.4141H26.5154C27.3244 26.4141 27.9803 25.7584 27.9803 24.9492C27.9803 24.14 27.3244 23.4844 26.5154 23.4844Z" fill="black"/>
<path d="M26.5154 23.4844H21.8184C21.0094 23.4844 20.3535 24.14 20.3535 24.9492C20.3535 25.7584 21.0094 26.4141 21.8184 26.4141H26.5154C27.3244 26.4141 27.9803 25.7584 27.9803 24.9492C27.9803 24.14 27.3244 23.4844 26.5154 23.4844Z" fill="url(#paint3_linear)"/>
<path d="M15.5559 29.7471H13.9902C13.1813 29.7471 12.5254 30.4027 12.5254 31.2119C12.5254 32.0211 13.1813 32.6768 13.9902 32.6768H15.5559C16.3648 32.6768 17.0207 32.0211 17.0207 31.2119C17.0207 30.4027 16.3648 29.7471 15.5559 29.7471Z" fill="black"/>
<path d="M15.5559 29.7471H13.9902C13.1813 29.7471 12.5254 30.4027 12.5254 31.2119C12.5254 32.0211 13.1813 32.6768 13.9902 32.6768H15.5559C16.3648 32.6768 17.0207 32.0211 17.0207 31.2119C17.0207 30.4027 16.3648 29.7471 15.5559 29.7471Z" fill="url(#paint4_linear)"/>
<path d="M26.5154 29.7471H21.8184C21.0094 29.7471 20.3535 30.4027 20.3535 31.2119C20.3535 32.0211 21.0094 32.6768 21.8184 32.6768H26.5154C27.3244 32.6768 27.9803 32.0211 27.9803 31.2119C27.9803 30.4027 27.3244 29.7471 26.5154 29.7471Z" fill="black"/>
<path d="M26.5154 29.7471H21.8184C21.0094 29.7471 20.3535 30.4027 20.3535 31.2119C20.3535 32.0211 21.0094 32.6768 21.8184 32.6768H26.5154C27.3244 32.6768 27.9803 32.0211 27.9803 31.2119C27.9803 30.4027 27.3244 29.7471 26.5154 29.7471Z" fill="url(#paint5_linear)"/>
<path d="M15.5559 36.0098H13.9902C13.1813 36.0098 12.5254 36.6654 12.5254 37.4746C12.5254 38.2838 13.1813 38.9395 13.9902 38.9395H15.5559C16.3648 38.9395 17.0207 38.2838 17.0207 37.4746C17.0207 36.6654 16.3648 36.0098 15.5559 36.0098Z" fill="black"/>
<path d="M15.5559 36.0098H13.9902C13.1813 36.0098 12.5254 36.6654 12.5254 37.4746C12.5254 38.2838 13.1813 38.9395 13.9902 38.9395H15.5559C16.3648 38.9395 17.0207 38.2838 17.0207 37.4746C17.0207 36.6654 16.3648 36.0098 15.5559 36.0098Z" fill="url(#paint6_linear)"/>
<path d="M26.5154 36.0098H21.8184C21.0094 36.0098 20.3535 36.6654 20.3535 37.4746C20.3535 38.2838 21.0094 38.9395 21.8184 38.9395H26.5154C27.3244 38.9395 27.9803 38.2838 27.9803 37.4746C27.9803 36.6654 27.3244 36.0098 26.5154 36.0098Z" fill="black"/>
<path d="M26.5154 36.0098H21.8184C21.0094 36.0098 20.3535 36.6654 20.3535 37.4746C20.3535 38.2838 21.0094 38.9395 21.8184 38.9395H26.5154C27.3244 38.9395 27.9803 38.2838 27.9803 37.4746C27.9803 36.6654 27.3244 36.0098 26.5154 36.0098Z" fill="url(#paint7_linear)"/>
<path d="M15.5559 42.2725H13.9902C13.1813 42.2725 12.5254 42.9281 12.5254 43.7373C12.5254 44.5465 13.1813 45.2022 13.9902 45.2022H15.5559C16.3648 45.2022 17.0207 44.5465 17.0207 43.7373C17.0207 42.9281 16.3648 42.2725 15.5559 42.2725Z" fill="black"/>
<path d="M15.5559 42.2725H13.9902C13.1813 42.2725 12.5254 42.9281 12.5254 43.7373C12.5254 44.5465 13.1813 45.2022 13.9902 45.2022H15.5559C16.3648 45.2022 17.0207 44.5465 17.0207 43.7373C17.0207 42.9281 16.3648 42.2725 15.5559 42.2725Z" fill="url(#paint8_linear)"/>
<path d="M26.5154 42.2725H21.8184C21.0094 42.2725 20.3535 42.9281 20.3535 43.7373C20.3535 44.5465 21.0094 45.2022 21.8184 45.2022H26.5154C27.3244 45.2022 27.9803 44.5465 27.9803 43.7373C27.9803 42.9281 27.3244 42.2725 26.5154 42.2725Z" fill="black"/>
<path d="M26.5154 42.2725H21.8184C21.0094 42.2725 20.3535 42.9281 20.3535 43.7373C20.3535 44.5465 21.0094 45.2022 21.8184 45.2022H26.5154C27.3244 45.2022 27.9803 44.5465 27.9803 43.7373C27.9803 42.9281 27.3244 42.2725 26.5154 42.2725Z" fill="url(#paint9_linear)"/>
<path d="M15.5559 48.5352H13.9902C13.1813 48.5352 12.5254 49.1908 12.5254 50C12.5254 50.8092 13.1813 51.4649 13.9902 51.4649H15.5559C16.3648 51.4649 17.0207 50.8092 17.0207 50C17.0207 49.1908 16.3648 48.5352 15.5559 48.5352Z" fill="black"/>
<path d="M15.5559 48.5352H13.9902C13.1813 48.5352 12.5254 49.1908 12.5254 50C12.5254 50.8092 13.1813 51.4649 13.9902 51.4649H15.5559C16.3648 51.4649 17.0207 50.8092 17.0207 50C17.0207 49.1908 16.3648 48.5352 15.5559 48.5352Z" fill="url(#paint10_linear)"/>
<path d="M26.5154 48.5352H21.8184C21.0094 48.5352 20.3535 49.1908 20.3535 50C20.3535 50.8092 21.0094 51.4649 21.8184 51.4649H26.5154C27.3244 51.4649 27.9803 50.8092 27.9803 50C27.9803 49.1908 27.3244 48.5352 26.5154 48.5352Z" fill="black"/>
<path d="M26.5154 48.5352H21.8184C21.0094 48.5352 20.3535 49.1908 20.3535 50C20.3535 50.8092 21.0094 51.4649 21.8184 51.4649H26.5154C27.3244 51.4649 27.9803 50.8092 27.9803 50C27.9803 49.1908 27.3244 48.5352 26.5154 48.5352Z" fill="url(#paint11_linear)"/>
<path d="M86.009 37.5752H84.6008C83.983 37.5752 83.4319 37.9625 83.2225 38.5438L78.9643 50.3717L74.7064 38.5441C74.4973 37.9629 73.9459 37.5754 73.3281 37.5754H71.9189C71.11 37.5754 70.4541 38.2311 70.4541 39.0402V54.6967C70.4541 55.5059 71.11 56.1616 71.9189 56.1616C72.7279 56.1616 73.3838 55.5059 73.3838 54.6967V43.5195L77.516 54.9979C77.5506 55.1731 77.6301 55.3456 77.766 55.5391C78.0486 55.9415 78.5016 56.1618 78.9654 56.1618C79.1938 56.1618 79.425 56.1083 79.6399 55.9965C79.9811 55.8194 80.226 55.5241 80.3461 55.184C80.4188 54.9809 82.8994 48.0905 84.5446 43.5213V54.6967C84.5446 55.5059 85.2004 56.1616 86.0094 56.1616C86.8184 56.1616 87.4743 55.5059 87.4743 54.6967V39.04C87.4739 38.2309 86.818 37.5752 86.009 37.5752Z" fill="black"/>
<path d="M86.009 37.5752H84.6008C83.983 37.5752 83.4319 37.9625 83.2225 38.5438L78.9643 50.3717L74.7064 38.5441C74.4973 37.9629 73.9459 37.5754 73.3281 37.5754H71.9189C71.11 37.5754 70.4541 38.2311 70.4541 39.0402V54.6967C70.4541 55.5059 71.11 56.1616 71.9189 56.1616C72.7279 56.1616 73.3838 55.5059 73.3838 54.6967V43.5195L77.516 54.9979C77.5506 55.1731 77.6301 55.3456 77.766 55.5391C78.0486 55.9415 78.5016 56.1618 78.9654 56.1618C79.1938 56.1618 79.425 56.1083 79.6399 55.9965C79.9811 55.8194 80.226 55.5241 80.3461 55.184C80.4188 54.9809 82.8994 48.0905 84.5446 43.5213V54.6967C84.5446 55.5059 85.2004 56.1616 86.0094 56.1616C86.8184 56.1616 87.4743 55.5059 87.4743 54.6967V39.04C87.4739 38.2309 86.818 37.5752 86.009 37.5752Z" fill="url(#paint12_linear)"/>
<path d="M64.0449 49.5022C66.3737 48.6221 68.0346 46.3703 68.0346 43.7371C68.0346 40.3395 65.2705 37.5752 61.8729 37.5752H55.6104C54.8014 37.5752 54.1455 38.2309 54.1455 39.04V54.6967C54.1455 55.5059 54.8014 56.1616 55.6104 56.1616C56.4193 56.1616 57.0752 55.5059 57.0752 54.6967V49.8989H60.9676L63.6942 55.352C63.9508 55.8653 64.468 56.162 65.0055 56.162C65.2256 56.162 65.449 56.112 65.6594 56.0069C66.383 55.645 66.6764 54.7653 66.3145 54.0414L64.0449 49.5022ZM61.8729 46.969H57.0752V40.5047H61.8729C63.6551 40.5047 65.1049 41.9547 65.1049 43.7369C65.1049 45.5192 63.6551 46.969 61.8729 46.969Z" fill="black"/>
<path d="M64.0449 49.5022C66.3737 48.6221 68.0346 46.3703 68.0346 43.7371C68.0346 40.3395 65.2705 37.5752 61.8729 37.5752H55.6104C54.8014 37.5752 54.1455 38.2309 54.1455 39.04V54.6967C54.1455 55.5059 54.8014 56.1616 55.6104 56.1616C56.4193 56.1616 57.0752 55.5059 57.0752 54.6967V49.8989H60.9676L63.6942 55.352C63.9508 55.8653 64.468 56.162 65.0055 56.162C65.2256 56.162 65.449 56.112 65.6594 56.0069C66.383 55.645 66.6764 54.7653 66.3145 54.0414L64.0449 49.5022ZM61.8729 46.969H57.0752V40.5047H61.8729C63.6551 40.5047 65.1049 41.9547 65.1049 43.7369C65.1049 45.5192 63.6551 46.969 61.8729 46.969Z" fill="url(#paint13_linear)"/>
<path d="M50.9703 51.4772C50.3637 50.942 49.4379 51 48.9028 51.6065C47.9914 52.6393 46.6795 53.2317 45.3035 53.2317C42.658 53.2317 40.5059 51.0793 40.5059 48.434V45.3026C40.5057 42.657 42.658 40.5049 45.3035 40.5049C46.6799 40.5049 47.992 41.0975 48.9033 42.1307C49.4387 42.7373 50.3641 42.7951 50.9709 42.2604C51.5776 41.7252 51.6356 40.7996 51.1004 40.1928C49.633 38.5291 47.5201 37.5752 45.3035 37.5752C41.0426 37.5752 37.5762 41.0416 37.5762 45.3026V48.434C37.5762 52.695 41.0428 56.1614 45.3035 56.1614C47.5197 56.1614 49.6324 55.2077 51.0996 53.5448C51.6348 52.9383 51.577 52.0123 50.9703 51.4772Z" fill="black"/>
<path d="M50.9703 51.4772C50.3637 50.942 49.4379 51 48.9028 51.6065C47.9914 52.6393 46.6795 53.2317 45.3035 53.2317C42.658 53.2317 40.5059 51.0793 40.5059 48.434V45.3026C40.5057 42.657 42.658 40.5049 45.3035 40.5049C46.6799 40.5049 47.992 41.0975 48.9033 42.1307C49.4387 42.7373 50.3641 42.7951 50.9709 42.2604C51.5776 41.7252 51.6356 40.7996 51.1004 40.1928C49.633 38.5291 47.5201 37.5752 45.3035 37.5752C41.0426 37.5752 37.5762 41.0416 37.5762 45.3026V48.434C37.5762 52.695 41.0428 56.1614 45.3035 56.1614C47.5197 56.1614 49.6324 55.2077 51.0996 53.5448C51.6348 52.9383 51.577 52.0123 50.9703 51.4772Z" fill="url(#paint14_linear)"/>
<defs>
<linearGradient id="paint0_linear" x1="50" y1="4.69678" x2="50" y2="95.303" gradientUnits="userSpaceOnUse">
<stop stop-color="#FFE5AC"/>
<stop offset="0.0001" stop-color="#FFE5AC"/>
<stop offset="1" stop-color="#B99C5D"/>
</linearGradient>
<linearGradient id="paint1_linear" x1="49.9992" y1="10.9595" x2="49.9992" y2="70.2526" gradientUnits="userSpaceOnUse">
<stop stop-color="#FFE5AC"/>
<stop offset="0.0001" stop-color="#FFE5AC"/>
<stop offset="1" stop-color="#B99C5D"/>
</linearGradient>
<linearGradient id="paint2_linear" x1="14.773" y1="23.4844" x2="14.773" y2="26.4141" gradientUnits="userSpaceOnUse">
<stop stop-color="#FFE5AC"/>
<stop offset="0.0001" stop-color="#FFE5AC"/>
<stop offset="1" stop-color="#B99C5D"/>
</linearGradient>
<linearGradient id="paint3_linear" x1="24.1669" y1="23.4844" x2="24.1669" y2="26.4141" gradientUnits="userSpaceOnUse">
<stop stop-color="#FFE5AC"/>
<stop offset="0.0001" stop-color="#FFE5AC"/>
<stop offset="1" stop-color="#B99C5D"/>
</linearGradient>
<linearGradient id="paint4_linear" x1="14.773" y1="29.7471" x2="14.773" y2="32.6768" gradientUnits="userSpaceOnUse">
<stop stop-color="#FFE5AC"/>
<stop offset="0.0001" stop-color="#FFE5AC"/>
<stop offset="1" stop-color="#B99C5D"/>
</linearGradient>
<linearGradient id="paint5_linear" x1="24.1669" y1="29.7471" x2="24.1669" y2="32.6768" gradientUnits="userSpaceOnUse">
<stop stop-color="#FFE5AC"/>
<stop offset="0.0001" stop-color="#FFE5AC"/>
<stop offset="1" stop-color="#B99C5D"/>
</linearGradient>
<linearGradient id="paint6_linear" x1="14.773" y1="36.0098" x2="14.773" y2="38.9395" gradientUnits="userSpaceOnUse">
<stop stop-color="#FFE5AC"/>
<stop offset="0.0001" stop-color="#FFE5AC"/>
<stop offset="1" stop-color="#B99C5D"/>
</linearGradient>
<linearGradient id="paint7_linear" x1="24.1669" y1="36.0098" x2="24.1669" y2="38.9395" gradientUnits="userSpaceOnUse">
<stop stop-color="#FFE5AC"/>
<stop offset="0.0001" stop-color="#FFE5AC"/>
<stop offset="1" stop-color="#B99C5D"/>
</linearGradient>
<linearGradient id="paint8_linear" x1="14.773" y1="42.2725" x2="14.773" y2="45.2022" gradientUnits="userSpaceOnUse">
<stop stop-color="#FFE5AC"/>
<stop offset="0.0001" stop-color="#FFE5AC"/>
<stop offset="1" stop-color="#B99C5D"/>
</linearGradient>
<linearGradient id="paint9_linear" x1="24.1669" y1="42.2725" x2="24.1669" y2="45.2022" gradientUnits="userSpaceOnUse">
<stop stop-color="#FFE5AC"/>
<stop offset="0.0001" stop-color="#FFE5AC"/>
<stop offset="1" stop-color="#B99C5D"/>
</linearGradient>
<linearGradient id="paint10_linear" x1="14.773" y1="48.5352" x2="14.773" y2="51.4649" gradientUnits="userSpaceOnUse">
<stop stop-color="#FFE5AC"/>
<stop offset="0.0001" stop-color="#FFE5AC"/>
<stop offset="1" stop-color="#B99C5D"/>
</linearGradient>
<linearGradient id="paint11_linear" x1="24.1669" y1="48.5352" x2="24.1669" y2="51.4649" gradientUnits="userSpaceOnUse">
<stop stop-color="#FFE5AC"/>
<stop offset="0.0001" stop-color="#FFE5AC"/>
<stop offset="1" stop-color="#B99C5D"/>
</linearGradient>
<linearGradient id="paint12_linear" x1="78.9642" y1="37.5752" x2="78.9642" y2="56.1618" gradientUnits="userSpaceOnUse">
<stop stop-color="#FFE5AC"/>
<stop offset="0.0001" stop-color="#FFE5AC"/>
<stop offset="1" stop-color="#B99C5D"/>
</linearGradient>
<linearGradient id="paint13_linear" x1="61.0901" y1="37.5752" x2="61.0901" y2="56.162" gradientUnits="userSpaceOnUse">
<stop stop-color="#FFE5AC"/>
<stop offset="0.0001" stop-color="#FFE5AC"/>
<stop offset="1" stop-color="#B99C5D"/>
</linearGradient>
<linearGradient id="paint14_linear" x1="44.5214" y1="37.5752" x2="44.5214" y2="56.1614" gradientUnits="userSpaceOnUse">
<stop stop-color="#FFE5AC"/>
<stop offset="0.0001" stop-color="#FFE5AC"/>
<stop offset="1" stop-color="#B99C5D"/>
</linearGradient>
</defs>
</svg>
