<svg width="100" height="100" viewBox="0 0 100 100" fill="none" xmlns="http://www.w3.org/2000/svg">
<path d="M60.2062 94.5616H60.2043C59.4261 94.7742 58.9676 95.5796 59.1804 96.3597C59.3791 97.079 60.2631 97.5788 60.9785 97.3836C62.8275 96.8075 62.0897 94.1119 60.2062 94.5616Z" fill="url(#paint0_linear)"/>
<path d="M52.7894 95.9308C51.9859 96.0107 51.3969 96.7265 51.477 97.53C51.5527 98.336 52.2854 98.927 53.076 98.8425C53.8795 98.7625 54.4668 98.0468 54.3886 97.2433C54.3086 96.4398 53.5929 95.8528 52.7894 95.9308Z" fill="url(#paint1_linear)"/>
<path d="M37.788 94.8875C37.0021 94.6964 36.2103 95.1781 36.0211 95.9641C35.83 96.7481 36.3115 97.5399 37.0976 97.731C37.8169 97.9013 38.6867 97.3809 38.8626 96.6545C39.0537 95.8685 38.572 95.0787 37.788 94.8875Z" fill="url(#paint2_linear)"/>
<path d="M45.2439 96.0403C44.4363 95.9837 43.7381 96.5922 43.6837 97.3996C43.6271 98.205 44.2354 98.9032 45.0411 98.9578C45.8358 99.0179 46.5488 98.4067 46.6013 97.6005C46.6578 96.7931 46.0494 96.0949 45.2439 96.0403Z" fill="url(#paint3_linear)"/>
<path d="M67.2817 91.956C66.5504 92.2992 66.2344 93.169 66.5777 93.9004C67.1286 94.6896 67.7767 94.9245 68.5221 94.6044C70.2478 93.7243 69.0611 91.1944 67.2817 91.956Z" fill="url(#paint4_linear)"/>
<path d="M73.817 88.1923C73.152 88.6525 72.9881 89.5633 73.4503 90.2264C74.0783 90.918 74.757 91.0402 75.4862 90.593C76.1493 90.1328 76.3131 89.222 75.8529 88.5589C75.3906 87.8939 74.4799 87.7301 73.817 88.1923Z" fill="url(#paint5_linear)"/>
<path d="M90.4075 70.5385C89.684 70.1816 88.8063 70.4799 88.4496 71.2054C88.0928 71.929 88.389 72.8066 89.1145 73.1635C89.8589 73.4999 90.5114 73.2782 91.0725 72.4985C91.4296 71.773 91.1332 70.8973 90.4075 70.5385Z" fill="url(#paint6_linear)"/>
<path d="M94.3392 55.5138C93.5378 55.4183 92.8102 55.9916 92.7146 56.7932C92.6212 57.5801 93.3764 58.4295 94.1695 58.4295C94.9009 58.4295 95.5308 57.8814 95.6205 57.1384C95.6205 57.1364 95.6205 57.1364 95.6205 57.1364C95.7143 56.3349 95.141 55.6074 94.3392 55.5138Z" fill="url(#paint7_linear)"/>
<path d="M93.015 63.1918C92.2407 62.9636 91.4257 63.4064 91.1975 64.1806C90.9672 64.9549 91.4101 65.7681 92.1844 65.9983C92.8976 66.2097 93.7906 65.7301 94.002 65.0095C94.2321 64.2352 93.7894 63.422 93.015 63.1918Z" fill="url(#paint8_linear)"/>
<path d="M79.6287 83.3808C79.0514 83.9464 79.0417 84.8728 79.6073 85.45C80.2945 86.0285 80.9843 86.0351 81.6765 85.4695C82.2537 84.904 82.2615 83.9776 81.696 83.4023C81.1304 82.825 80.206 82.8152 79.6287 83.3808Z" fill="url(#paint9_linear)"/>
<path d="M86.5969 77.3393C85.9416 76.8654 85.0268 77.0117 84.553 77.665C84.0791 78.3203 84.2254 79.2349 84.8807 79.7089C85.6064 80.1662 86.2872 80.057 86.9228 79.3812C87.3965 78.7279 87.2502 77.8132 86.5969 77.3393Z" fill="url(#paint10_linear)"/>
<path d="M23.3014 14.2253C23.5745 14.2253 23.8514 14.1493 24.0971 13.9894C24.7741 13.5486 24.9669 12.6437 24.5281 11.965C24.0893 11.2883 23.1827 11.0952 22.5057 11.534C21.8272 11.9747 21.634 12.8797 22.0747 13.5583C22.3538 13.9894 22.8238 14.2253 23.3014 14.2253Z" fill="url(#paint11_linear)"/>
<path d="M30.1703 10.5546C31.122 10.5546 31.9004 9.416 31.514 8.51264C31.1942 7.77155 30.3341 7.4283 29.593 7.74814C29.5909 7.74814 29.5909 7.74814 29.5909 7.74814C28.8498 8.06603 28.5066 8.9261 28.8264 9.66914C29.0645 10.223 29.6028 10.5546 30.1703 10.5546Z" fill="url(#paint12_linear)"/>
<path d="M45.2614 6.92903C45.2946 6.92903 45.3277 6.92708 45.3589 6.92513C46.1663 6.87247 46.7768 6.17428 46.7219 5.36883C46.6693 4.56338 45.9711 3.95295 45.1658 4.00561C44.3584 4.06021 43.75 4.75645 43.8026 5.56191C43.8553 6.33615 44.4989 6.92903 45.2614 6.92903Z" fill="url(#paint13_linear)"/>
<path d="M37.5618 8.09912C38.4143 8.09912 39.1866 7.13668 38.9836 6.29319C38.7964 5.50919 38.0065 5.02358 37.2205 5.21275C36.4346 5.40193 35.9509 6.19178 36.1401 6.97578C36.3 7.64667 36.9007 8.09912 37.5618 8.09912Z" fill="url(#paint14_linear)"/>
<path d="M17.1467 18.9975C17.4996 18.9975 17.8546 18.8707 18.1354 18.6113C18.7303 18.0652 18.7693 17.1389 18.221 16.544C17.675 15.9512 16.7506 15.9122 16.1557 16.4582C15.5609 17.0063 15.5219 17.9307 16.0699 18.5255C16.3588 18.8395 16.7508 18.9975 17.1467 18.9975Z" fill="url(#paint15_linear)"/>
<path d="M2.76933 58.638C1.97558 58.7862 1.45486 59.5527 1.60308 60.3445C1.73921 61.0676 2.58737 61.6519 3.3115 61.5127C4.10525 61.3625 4.62791 60.598 4.47775 59.8043C4.32738 59.0105 3.56288 58.4879 2.76933 58.638Z" fill="url(#paint16_linear)"/>
<path d="M2.54318 45.9968C3.26945 46.1107 4.09792 45.4903 4.20655 44.7681C4.32746 43.9705 3.77769 43.2255 2.97789 43.1046C2.18024 42.9836 1.43524 43.5336 1.31452 44.3332C1.19361 45.1309 1.74338 45.8778 2.54318 45.9968Z" fill="url(#paint17_linear)"/>
<path d="M2.24855 53.7859H2.27586C3.08326 53.7723 3.72665 53.1053 3.71319 52.2979H3.71124C3.69759 51.4905 3.03255 50.8469 2.22301 50.8606C1.4156 50.8762 0.773971 51.5412 0.787818 52.3486C0.801274 53.1482 1.45285 53.7859 2.24855 53.7859Z" fill="url(#paint18_linear)"/>
<path d="M4.11118 38.3633C4.8199 38.5963 5.72306 38.1523 5.95982 37.4349C6.21335 36.6685 5.79795 35.8396 5.0315 35.5861C4.26506 35.3326 3.4362 35.748 3.18267 36.5144C2.92913 37.2828 3.34454 38.1097 4.11118 38.3633Z" fill="url(#paint19_linear)"/>
<path d="M6.95252 31.1048C7.69557 31.4623 8.35553 31.2614 8.93203 30.5022C9.31233 29.7884 9.04319 28.903 8.3294 28.5227C7.61756 28.1424 6.7302 28.4115 6.3499 29.1253C5.97174 29.8371 6.24088 30.7245 6.95252 31.1048Z" fill="url(#paint20_linear)"/>
<path d="M10.9799 24.4289C11.6999 24.911 12.3837 24.8238 13.0316 24.1675C13.5269 23.5298 13.4099 22.6112 12.7702 22.1159C12.1325 21.6225 11.2141 21.7395 10.7186 22.3772C10.2252 23.0169 10.34 23.9355 10.9799 24.4289Z" fill="url(#paint21_linear)"/>
<path d="M99.1149 24.4023L93.6833 22.0688C93.2934 20.8064 92.8033 19.5741 92.2204 18.3901L94.3965 12.9372C94.6126 12.3956 94.4864 11.7772 94.0753 11.3637L88.7035 5.96172C88.2889 5.54475 87.6648 5.41682 87.1189 5.63661L82.0407 7.68593C80.704 6.94971 79.3008 6.34358 77.8545 5.87786L75.7355 0.890679C75.5062 0.350655 74.9761 0 74.3895 0H66.7926C66.2058 0 65.6757 0.350655 65.4464 0.890679L63.3274 5.87805C61.8811 6.34377 60.4781 6.94971 59.1412 7.68613L54.063 5.63661C53.5171 5.41643 52.893 5.54456 52.4784 5.96172L47.1066 11.3637C46.6955 11.7774 46.5691 12.3956 46.7854 12.9372L48.9615 18.3901C48.4884 19.3512 48.0753 20.3466 47.729 21.3601C41.3276 21.3706 35.1902 23.3199 29.9768 26.9987C28.4316 28.0892 30.1184 30.4795 31.6634 29.3889C49.8502 16.3113 75.96 29.8484 75.7677 52.2671C75.7679 60.0687 72.4714 67.5756 66.7236 72.8629C66.4225 73.1398 66.2511 73.5302 66.2511 73.9394V79.497L61.261 77.3888C60.8717 77.2242 60.43 77.2363 60.0497 77.422C53.0054 80.9156 44.3691 81.1787 37.1282 78.1516L38.6045 76.6347C39.0111 76.2167 39.1307 75.5971 38.9089 75.0579L36.9872 70.3878C36.7639 69.8452 36.2379 69.4885 35.6511 69.4819L32.2629 69.4435C31.6979 68.7564 31.0783 68.1173 30.4119 67.5334L30.376 64.1665C30.3698 63.5818 30.0158 63.057 29.4762 62.832L24.8328 60.8967C24.2895 60.6701 23.664 60.7914 23.2445 61.2037L21.7801 62.6432C17.8958 53.1593 19.8334 41.6405 26.6265 33.9464C27.8655 32.5177 25.6551 30.6006 24.4164 32.0299C16.9614 40.4759 14.7947 53.092 18.9854 63.5313C18.7268 63.5434 18.4682 63.5616 18.2102 63.5859L15.7876 61.2017C15.3685 60.7893 14.7428 60.668 14.1995 60.8938L9.55516 62.8271C9.01533 63.0518 8.66117 63.5762 8.65453 64.1609L8.61299 67.8291C8.05893 68.3287 7.53724 68.8656 7.05338 69.4341L3.3756 69.4741C2.78877 69.4806 2.26279 69.8367 2.03909 70.3792L0.114002 75.0485C-0.108326 75.5878 0.0110291 76.2074 0.417461 76.6257L2.99335 79.2753C2.93484 80.0238 2.92548 80.7768 2.96546 81.5263L0.414731 84.1472C0.00790874 84.5651 -0.111642 85.1847 0.110102 85.724L2.03188 90.3941C2.25518 90.9368 2.78116 91.2933 3.36799 91.3001L6.75616 91.3386C7.32115 92.0254 7.94055 92.6647 8.60714 93.2486L8.64303 96.6155C8.64927 97.2002 9.00324 97.725 9.54287 97.9501L14.1862 99.8853C14.7292 100.112 15.3548 99.9906 15.7745 99.5784L18.1641 97.2293C19.0433 97.2901 19.9285 97.279 20.8091 97.1959L23.2315 99.5797C23.73 100.005 24.2593 100.107 24.8196 99.8877L29.4639 97.9546C30.0037 97.7299 30.3579 97.2055 30.3643 96.6208L30.4061 92.9526C30.9599 92.4529 31.4816 91.9162 31.9655 91.3475L35.6436 91.3074C36.2303 91.3009 36.7563 90.9448 36.98 90.4022L38.9052 85.733C39.1276 85.1937 39.0082 84.5741 38.6018 84.1558L36.0257 81.5062C36.0421 81.2965 36.0546 81.0867 36.0631 80.8766C43.8386 84.1125 53.0919 83.9196 60.7268 80.3388L67.1443 83.05C68.3037 83.3279 68.981 82.8788 69.1762 81.7026V74.5719C75.0633 68.9224 78.4976 61.1183 78.6849 52.9694C79.8371 52.5504 80.9618 52.0399 82.0405 51.4458L87.1187 53.4951C87.6796 53.7087 88.2077 53.6005 88.7033 53.17L94.0751 47.768C94.4862 47.3544 94.6126 46.7362 94.3963 46.1946L92.2202 40.7417C92.8031 39.5577 93.2932 38.3249 93.6831 37.0629L99.1147 34.7295C99.6518 34.4985 99.9999 33.97 99.9999 33.3855V25.746C100 25.1617 99.652 24.6332 99.1149 24.4023ZM34.6443 88.3927L31.2493 88.4298C30.8047 88.4346 30.3862 88.6416 30.1125 88.9922C29.4935 89.7848 28.7883 90.5118 28.0166 91.1529C27.6866 91.4271 27.4934 91.8324 27.4885 92.2616L27.4505 95.6242L24.5918 96.8141L22.3617 94.6193C22.0379 94.2994 21.5786 94.1498 21.1322 94.2132C20.0212 94.3692 18.8959 94.3843 17.7877 94.2579C17.3482 94.2084 16.9113 94.3587 16.5967 94.668L14.416 96.8117L11.5585 95.6207L11.5257 92.545C11.521 92.1066 11.3199 91.6935 10.9779 91.4195C10.1047 90.7196 9.31938 89.9079 8.64342 89.0065C8.37077 88.6427 7.94445 88.4266 7.48985 88.4214L4.36906 88.3859L3.18116 85.4991L5.52048 83.0954C5.81965 82.7881 5.96885 82.3651 5.92867 81.9382C5.83447 80.9352 5.84754 79.9189 5.96807 78.9178C6.02092 78.4792 5.8727 78.0402 5.56475 77.7233L3.18486 75.2753L4.3751 72.3888L7.7699 72.3519C8.21475 72.347 8.63347 72.1401 8.90709 71.7895C9.52552 70.9973 10.2307 70.27 11.0028 69.6286C11.3328 69.3544 11.5261 68.9491 11.5308 68.5201L11.569 65.1574L14.4277 63.9676L16.658 66.1624C16.9823 66.4815 17.4346 66.6316 17.8874 66.5684C18.8263 66.4366 19.7752 66.4054 20.716 66.4752C21.283 66.713 21.9886 66.5406 22.4229 66.1136L24.6035 63.9701L27.4612 65.1611L27.4939 68.2369C27.4986 68.6753 27.6997 69.0884 28.0418 69.3624C28.9145 70.0619 29.6999 70.8738 30.3762 71.7756C30.6489 72.1391 31.0754 72.3554 31.5298 72.3605L34.6506 72.396L35.8385 75.2825L33.7981 77.3791C33.3449 77.6751 33.0405 78.3043 33.0912 78.8435C33.1854 79.8457 33.1721 80.8622 33.0518 81.8643C32.9989 82.3029 33.1473 82.7417 33.4551 83.0584L35.835 85.5063L34.6443 88.3927ZM61.0597 24.3592C62.9458 20.8665 66.5963 18.6545 70.591 18.6545C81.8431 18.7926 85.5148 33.6695 75.7706 39.1532C72.7276 32.6864 67.507 27.4381 61.0597 24.3592ZM97.0747 32.4221L91.8962 34.647C91.489 34.8219 91.1832 35.1722 91.0645 35.5991C90.6422 37.1179 90.056 38.5941 89.3221 39.9867C89.1224 40.3657 89.0988 40.8131 89.2576 41.2107L91.3233 46.3869L87.3134 50.4192L82.4783 48.468C82.0563 48.2975 81.5785 48.3336 81.1865 48.5653C80.3551 49.057 79.4892 49.4911 78.6004 49.8626C78.3853 47.081 77.8004 44.4013 76.8947 41.8728C81.4726 39.5179 84.3587 34.8305 84.3587 29.566C84.1955 15.0955 65.0807 10.4516 58.3524 23.2216C55.9545 22.3465 53.419 21.7603 50.7879 21.505C51.099 20.6978 51.4576 19.9078 51.8594 19.1452C52.0591 18.7663 52.0829 18.3189 51.9239 17.921L49.8582 12.7449L53.8681 8.71235L58.7032 10.6636C59.1252 10.834 59.6031 10.7981 59.995 10.5661C61.5112 9.66953 63.1324 8.96822 64.8133 8.48202C65.236 8.35974 65.5811 8.05375 65.7532 7.64888L67.7602 2.92537H73.4215L75.4285 7.64927C75.6006 8.05414 75.9455 8.36013 76.3682 8.48241C78.0491 8.96861 79.6703 9.66992 81.1865 10.5665C81.5785 10.7983 82.0563 10.8342 82.4783 10.664L87.3134 8.71274L91.3233 12.7451L89.2576 17.9212C89.099 18.3191 89.1224 18.7663 89.3221 19.1452C90.056 20.5377 90.642 22.0138 91.0645 23.5329C91.183 23.9598 91.489 24.3101 91.8962 24.485L97.0747 26.7098V32.4221Z" fill="url(#paint22_linear)"/>
<path d="M34.8298 61.584H35.8898C37.5419 61.584 38.8856 60.2401 38.8856 58.5882V49.7164C38.8856 48.0645 37.5417 46.7206 35.8898 46.7206C35.2608 46.7071 34.5884 46.6981 33.9663 46.7705C37.3529 31.8872 58.1714 31.8142 61.5956 46.7705C60.9735 46.6981 60.3013 46.7071 59.6725 46.7206C58.0205 46.7206 56.6767 48.0645 56.6767 49.7164V58.5882C56.6767 60.2401 58.0206 61.584 59.6725 61.584C60.3198 61.577 61.4392 61.5743 61.8886 61.577C61.8886 64.2451 59.936 66.4657 57.3849 66.8848C56.7672 65.2852 55.2133 64.1474 53.3984 64.1474H50.5898C44.9239 64.3818 44.9243 72.4561 50.5898 72.6901H53.3984C55.2591 72.6901 56.8456 71.4942 57.4299 69.8306C61.5775 69.3714 64.8142 65.8451 64.8142 61.577V60.3602C69.2972 57.4659 69.2445 50.7129 64.7244 47.886C64.2987 43.7418 62.3709 39.9105 59.2842 37.0828C49.1008 27.636 32.1707 34.1208 30.8383 47.886C24.6519 51.8647 27.377 61.5173 34.8298 61.584ZM53.3984 69.7647H50.5898C48.8081 69.7013 48.8092 67.1356 50.5898 67.0728H53.3984C55.1801 67.1362 55.1787 69.7021 53.3984 69.7647ZM60.7323 58.6586C60.7368 58.6581 59.6019 58.7257 59.6019 58.5882V49.7164C59.6019 49.5789 60.7368 49.6463 60.7323 49.6459C66.7123 49.8942 66.7076 58.4127 60.7323 58.6586ZM34.8298 49.6459C34.8253 49.6465 35.9602 49.5789 35.9602 49.7164V58.5882C35.9602 58.7257 34.8253 58.6582 34.8298 58.6586C28.8498 58.4104 28.8545 49.8921 34.8298 49.6459Z" fill="url(#paint23_linear)"/>
<path d="M23.1905 71.4774C20.8253 70.4917 18.2195 70.4886 15.8519 71.4684C13.4732 72.4529 11.6209 74.3103 10.6362 76.6984C7.54914 84.1686 14.5638 91.9852 22.2956 89.6248C23.0682 89.389 23.5033 88.5715 23.2674 87.7988C23.0316 87.0261 22.2136 86.5916 21.4415 86.8268C19.9705 87.2759 18.3765 87.1966 16.9536 86.6035C13.5481 85.1841 11.9274 81.2409 13.3406 77.8133C14.0267 76.1496 15.3158 74.8562 16.9706 74.1713C22.1725 71.9803 27.5667 77.0594 25.8797 82.4044C25.6381 83.1752 26.0669 83.996 26.8379 84.2377C27.608 84.4795 28.4293 84.0504 28.6709 83.2795C29.3892 80.9885 29.2304 78.5226 28.2239 76.336C27.2104 74.1334 25.4228 72.4078 23.1905 71.4774Z" fill="url(#paint24_linear)"/>
<defs>
<linearGradient id="paint0_linear" x1="60.5881" y1="94.5112" x2="60.5881" y2="97.4261" gradientUnits="userSpaceOnUse">
<stop stop-color="#FFE5AC"/>
<stop offset="1" stop-color="#B99C5D"/>
</linearGradient>
<linearGradient id="paint1_linear" x1="52.9326" y1="95.9238" x2="52.9326" y2="98.8505" gradientUnits="userSpaceOnUse">
<stop stop-color="#FFE5AC"/>
<stop offset="1" stop-color="#B99C5D"/>
</linearGradient>
<linearGradient id="paint2_linear" x1="37.4419" y1="94.8457" x2="37.4419" y2="97.7635" gradientUnits="userSpaceOnUse">
<stop stop-color="#FFE5AC"/>
<stop offset="1" stop-color="#B99C5D"/>
</linearGradient>
<linearGradient id="paint3_linear" x1="45.1425" y1="96.0366" x2="45.1425" y2="98.9619" gradientUnits="userSpaceOnUse">
<stop stop-color="#FFE5AC"/>
<stop offset="1" stop-color="#B99C5D"/>
</linearGradient>
<linearGradient id="paint4_linear" x1="67.9012" y1="91.8149" x2="67.9012" y2="94.7429" gradientUnits="userSpaceOnUse">
<stop stop-color="#FFE5AC"/>
<stop offset="1" stop-color="#B99C5D"/>
</linearGradient>
<linearGradient id="paint5_linear" x1="74.6509" y1="87.9297" x2="74.6509" y2="90.8564" gradientUnits="userSpaceOnUse">
<stop stop-color="#FFE5AC"/>
<stop offset="1" stop-color="#B99C5D"/>
</linearGradient>
<linearGradient id="paint6_linear" x1="89.7611" y1="70.3877" x2="89.7611" y2="73.3156" gradientUnits="userSpaceOnUse">
<stop stop-color="#FFE5AC"/>
<stop offset="1" stop-color="#B99C5D"/>
</linearGradient>
<linearGradient id="paint7_linear" x1="94.1687" y1="55.5034" x2="94.1687" y2="58.4295" gradientUnits="userSpaceOnUse">
<stop stop-color="#FFE5AC"/>
<stop offset="1" stop-color="#B99C5D"/>
</linearGradient>
<linearGradient id="paint8_linear" x1="92.5997" y1="63.1318" x2="92.5997" y2="66.0485" gradientUnits="userSpaceOnUse">
<stop stop-color="#FFE5AC"/>
<stop offset="1" stop-color="#B99C5D"/>
</linearGradient>
<linearGradient id="paint9_linear" x1="80.6521" y1="82.9629" x2="80.6521" y2="85.8888" gradientUnits="userSpaceOnUse">
<stop stop-color="#FFE5AC"/>
<stop offset="1" stop-color="#B99C5D"/>
</linearGradient>
<linearGradient id="paint10_linear" x1="85.7379" y1="77.061" x2="85.7379" y2="79.9857" gradientUnits="userSpaceOnUse">
<stop stop-color="#FFE5AC"/>
<stop offset="1" stop-color="#B99C5D"/>
</linearGradient>
<linearGradient id="paint11_linear" x1="23.3008" y1="11.2988" x2="23.3008" y2="14.2253" gradientUnits="userSpaceOnUse">
<stop stop-color="#FFE5AC"/>
<stop offset="1" stop-color="#B99C5D"/>
</linearGradient>
<linearGradient id="paint12_linear" x1="30.1609" y1="7.62842" x2="30.1609" y2="10.5546" gradientUnits="userSpaceOnUse">
<stop stop-color="#FFE5AC"/>
<stop offset="1" stop-color="#B99C5D"/>
</linearGradient>
<linearGradient id="paint13_linear" x1="45.2624" y1="4.00244" x2="45.2624" y2="6.92903" gradientUnits="userSpaceOnUse">
<stop stop-color="#FFE5AC"/>
<stop offset="1" stop-color="#B99C5D"/>
</linearGradient>
<linearGradient id="paint14_linear" x1="37.5577" y1="5.17188" x2="37.5577" y2="8.09912" gradientUnits="userSpaceOnUse">
<stop stop-color="#FFE5AC"/>
<stop offset="1" stop-color="#B99C5D"/>
</linearGradient>
<linearGradient id="paint15_linear" x1="17.1456" y1="16.0728" x2="17.1456" y2="18.9975" gradientUnits="userSpaceOnUse">
<stop stop-color="#FFE5AC"/>
<stop offset="1" stop-color="#B99C5D"/>
</linearGradient>
<linearGradient id="paint16_linear" x1="3.04068" y1="58.6123" x2="3.04068" y2="61.5333" gradientUnits="userSpaceOnUse">
<stop stop-color="#FFE5AC"/>
<stop offset="1" stop-color="#B99C5D"/>
</linearGradient>
<linearGradient id="paint17_linear" x1="2.76053" y1="43.0879" x2="2.76053" y2="46.0103" gradientUnits="userSpaceOnUse">
<stop stop-color="#FFE5AC"/>
<stop offset="1" stop-color="#B99C5D"/>
</linearGradient>
<linearGradient id="paint18_linear" x1="2.2505" y1="50.8604" x2="2.2505" y2="53.7859" gradientUnits="userSpaceOnUse">
<stop stop-color="#FFE5AC"/>
<stop offset="1" stop-color="#B99C5D"/>
</linearGradient>
<linearGradient id="paint19_linear" x1="4.57125" y1="35.5117" x2="4.57125" y2="38.4257" gradientUnits="userSpaceOnUse">
<stop stop-color="#FFE5AC"/>
<stop offset="1" stop-color="#B99C5D"/>
</linearGradient>
<linearGradient id="paint20_linear" x1="7.64165" y1="28.3501" x2="7.64165" y2="31.2764" gradientUnits="userSpaceOnUse">
<stop stop-color="#FFE5AC"/>
<stop offset="1" stop-color="#B99C5D"/>
</linearGradient>
<linearGradient id="paint21_linear" x1="11.8755" y1="21.8105" x2="11.8755" y2="24.7351" gradientUnits="userSpaceOnUse">
<stop stop-color="#FFE5AC"/>
<stop offset="1" stop-color="#B99C5D"/>
</linearGradient>
<linearGradient id="paint22_linear" x1="50" y1="0" x2="50" y2="99.9999" gradientUnits="userSpaceOnUse">
<stop stop-color="#FFE5AC"/>
<stop offset="1" stop-color="#B99C5D"/>
</linearGradient>
<linearGradient id="paint23_linear" x1="47.7812" y1="32.6235" x2="47.7812" y2="72.6901" gradientUnits="userSpaceOnUse">
<stop stop-color="#FFE5AC"/>
<stop offset="1" stop-color="#B99C5D"/>
</linearGradient>
<linearGradient id="paint24_linear" x1="19.5026" y1="70.7358" x2="19.5026" y2="90.0535" gradientUnits="userSpaceOnUse">
<stop stop-color="#FFE5AC"/>
<stop offset="1" stop-color="#B99C5D"/>
</linearGradient>
</defs>
</svg>
