<svg width="100" height="100" viewBox="0 0 100 100" fill="none" xmlns="http://www.w3.org/2000/svg">
<g clip-path="url(#clip0)">
<path d="M96.0874 41.6801L64.786 10.3786L51.6064 23.5582L28.0475 0L25.7412 2.30626L51.6064 28.1715L64.786 14.9919L93.7812 43.9871H87.8502V47.282H99.3823V35.7499H96.0874V41.6801Z" fill="black"/>
<path d="M96.0874 41.6801L64.786 10.3786L51.6064 23.5582L28.0475 0L25.7412 2.30626L51.6064 28.1715L64.786 14.9919L93.7812 43.9871H87.8502V47.282H99.3823V35.7499H96.0874V41.6801Z" fill="url(#paint0_linear)"/>
<path d="M15.3622 6.0957C7.12494 6.0957 0.535156 12.6855 0.535156 20.9227C0.535156 24.7115 2.0177 28.3362 4.65377 31.1364C2.0177 32.2899 0.535156 33.9374 0.535156 35.7497V93.4104C0.535156 97.6931 7.94867 100 15.3622 100C22.7757 100 30.1892 97.6931 30.1892 93.4104V35.7497C30.1892 33.9374 28.7066 32.2899 26.0706 31.1364C31.6717 25.2054 31.5068 15.8155 25.5759 10.2143C22.7757 7.57824 19.151 6.0957 15.3622 6.0957ZM15.3622 9.3906C21.7871 9.3906 26.8943 14.497 26.8943 20.9227C26.8943 27.3476 21.7871 32.4548 15.3622 32.4548C8.93729 32.4548 3.83005 27.3476 3.83005 20.9227C3.83005 14.497 8.93729 9.3906 15.3622 9.3906ZM15.3622 96.7053C7.94867 96.7053 3.83005 94.3982 3.83005 93.4104V89.4559C7.45395 91.1033 11.4085 91.927 15.3622 91.7629C19.3159 91.927 23.2696 91.1033 26.8943 89.4559V93.4104C26.8943 94.3982 22.7757 96.7053 15.3622 96.7053ZM15.3622 88.468C7.94867 88.468 3.83005 86.161 3.83005 85.1731V81.2186C7.45395 82.8661 11.4085 83.6898 15.3622 83.5257C19.3159 83.6898 23.2696 82.8661 26.8943 81.2186V85.1731C26.8943 86.161 22.7757 88.468 15.3622 88.468ZM15.3622 80.2308C7.94867 80.2308 3.83005 77.9237 3.83005 76.9359V72.9814C7.45395 74.6288 11.4085 75.4526 15.3622 75.2885C19.3159 75.4526 23.2696 74.6288 26.8943 72.9814V76.9359C26.8943 77.9237 22.7757 80.2308 15.3622 80.2308ZM15.3622 71.9936C7.94867 71.9936 3.83005 69.6865 3.83005 68.6987V64.7442C7.45395 66.3916 11.4085 67.2153 15.3622 67.0512C19.3159 67.2153 23.2696 66.3916 26.8943 64.7442V68.6987C26.8943 69.6865 22.7757 71.9936 15.3622 71.9936ZM15.3622 63.7563C7.94867 63.7563 3.83005 61.4493 3.83005 60.4614V56.5069C7.45395 58.1544 11.4085 58.9781 15.3622 58.814C19.3159 58.9781 23.2696 58.1544 26.8943 56.5069V60.4614C26.8943 61.4493 22.7757 63.7563 15.3622 63.7563ZM15.3622 55.5191C7.94867 55.5191 3.83005 53.212 3.83005 52.2242V48.2697C7.45395 49.9171 11.4085 50.7409 15.3622 50.5768C19.3159 50.7409 23.2696 49.9171 26.8943 48.2697V52.2242C26.8943 53.212 22.7757 55.5191 15.3622 55.5191ZM15.3622 47.2819C7.94867 47.2819 3.83005 44.9748 3.83005 43.987V40.0325C7.45395 41.6799 11.4085 42.5036 15.3622 42.3395C19.3159 42.5036 23.2696 41.6799 26.8943 40.0325V43.987C26.8943 44.9748 22.7757 47.2819 15.3622 47.2819ZM26.8943 35.7497C26.8943 36.7376 22.7757 39.0446 15.3622 39.0446C7.94867 39.0446 3.83005 36.7376 3.83005 35.7497C3.83005 35.4199 4.81868 34.2664 7.45395 33.4427C12.2322 36.4086 18.3273 36.4086 23.1047 33.4427C25.9057 34.2664 26.8943 35.4199 26.8943 35.7497Z" fill="black"/>
<path d="M15.3622 6.0957C7.12494 6.0957 0.535156 12.6855 0.535156 20.9227C0.535156 24.7115 2.0177 28.3362 4.65377 31.1364C2.0177 32.2899 0.535156 33.9374 0.535156 35.7497V93.4104C0.535156 97.6931 7.94867 100 15.3622 100C22.7757 100 30.1892 97.6931 30.1892 93.4104V35.7497C30.1892 33.9374 28.7066 32.2899 26.0706 31.1364C31.6717 25.2054 31.5068 15.8155 25.5759 10.2143C22.7757 7.57824 19.151 6.0957 15.3622 6.0957ZM15.3622 9.3906C21.7871 9.3906 26.8943 14.497 26.8943 20.9227C26.8943 27.3476 21.7871 32.4548 15.3622 32.4548C8.93729 32.4548 3.83005 27.3476 3.83005 20.9227C3.83005 14.497 8.93729 9.3906 15.3622 9.3906ZM15.3622 96.7053C7.94867 96.7053 3.83005 94.3982 3.83005 93.4104V89.4559C7.45395 91.1033 11.4085 91.927 15.3622 91.7629C19.3159 91.927 23.2696 91.1033 26.8943 89.4559V93.4104C26.8943 94.3982 22.7757 96.7053 15.3622 96.7053ZM15.3622 88.468C7.94867 88.468 3.83005 86.161 3.83005 85.1731V81.2186C7.45395 82.8661 11.4085 83.6898 15.3622 83.5257C19.3159 83.6898 23.2696 82.8661 26.8943 81.2186V85.1731C26.8943 86.161 22.7757 88.468 15.3622 88.468ZM15.3622 80.2308C7.94867 80.2308 3.83005 77.9237 3.83005 76.9359V72.9814C7.45395 74.6288 11.4085 75.4526 15.3622 75.2885C19.3159 75.4526 23.2696 74.6288 26.8943 72.9814V76.9359C26.8943 77.9237 22.7757 80.2308 15.3622 80.2308ZM15.3622 71.9936C7.94867 71.9936 3.83005 69.6865 3.83005 68.6987V64.7442C7.45395 66.3916 11.4085 67.2153 15.3622 67.0512C19.3159 67.2153 23.2696 66.3916 26.8943 64.7442V68.6987C26.8943 69.6865 22.7757 71.9936 15.3622 71.9936ZM15.3622 63.7563C7.94867 63.7563 3.83005 61.4493 3.83005 60.4614V56.5069C7.45395 58.1544 11.4085 58.9781 15.3622 58.814C19.3159 58.9781 23.2696 58.1544 26.8943 56.5069V60.4614C26.8943 61.4493 22.7757 63.7563 15.3622 63.7563ZM15.3622 55.5191C7.94867 55.5191 3.83005 53.212 3.83005 52.2242V48.2697C7.45395 49.9171 11.4085 50.7409 15.3622 50.5768C19.3159 50.7409 23.2696 49.9171 26.8943 48.2697V52.2242C26.8943 53.212 22.7757 55.5191 15.3622 55.5191ZM15.3622 47.2819C7.94867 47.2819 3.83005 44.9748 3.83005 43.987V40.0325C7.45395 41.6799 11.4085 42.5036 15.3622 42.3395C19.3159 42.5036 23.2696 41.6799 26.8943 40.0325V43.987C26.8943 44.9748 22.7757 47.2819 15.3622 47.2819ZM26.8943 35.7497C26.8943 36.7376 22.7757 39.0446 15.3622 39.0446C7.94867 39.0446 3.83005 36.7376 3.83005 35.7497C3.83005 35.4199 4.81868 34.2664 7.45395 33.4427C12.2322 36.4086 18.3273 36.4086 23.1047 33.4427C25.9057 34.2664 26.8943 35.4199 26.8943 35.7497Z" fill="url(#paint1_linear)"/>
<path d="M49.9588 45.6348C42.5453 45.6348 35.1318 47.941 35.1318 52.2246V93.4107C35.1318 97.6934 42.5453 100 49.9588 100C57.3723 100 64.7858 97.6934 64.7858 93.4107V52.2246C64.7858 47.941 57.3723 45.6348 49.9588 45.6348ZM49.9588 96.7056C42.5453 96.7056 38.4267 94.3985 38.4267 93.4107V89.4562C42.0506 91.1036 46.0051 91.9274 49.9588 91.7633C53.9125 91.9274 57.8662 91.1036 61.4909 89.4562V93.4107C61.4909 94.3985 57.3723 96.7056 49.9588 96.7056ZM49.9588 88.4684C42.5453 88.4684 38.4267 86.1613 38.4267 85.1735V81.219C42.0506 82.8664 46.0051 83.6901 49.9588 83.526C53.9125 83.6901 57.8662 82.8664 61.4909 81.219V85.1735C61.4909 86.1613 57.3723 88.4684 49.9588 88.4684ZM49.9588 80.2311C42.5453 80.2311 38.4267 77.9241 38.4267 76.9362V72.9817C42.0506 74.6292 46.0051 75.4529 49.9588 75.2888C53.9125 75.4529 57.8662 74.6292 61.4909 72.9817V76.9362C61.4909 77.9241 57.3723 80.2311 49.9588 80.2311ZM49.9588 71.9939C42.5453 71.9939 38.4267 69.6868 38.4267 68.699V64.7445C42.0506 66.3919 46.0051 67.2157 49.9588 67.0516C53.9125 67.2157 57.8662 66.3919 61.4909 64.7445V68.699C61.4909 69.6868 57.3723 71.9939 49.9588 71.9939ZM49.9588 63.7567C42.5453 63.7567 38.4267 61.4496 38.4267 60.4618V56.5073C42.0506 58.1547 46.0051 58.9784 49.9588 58.8143C53.9125 58.9784 57.8662 58.1547 61.4909 56.5073V60.4618C61.4909 61.4496 57.3723 63.7567 49.9588 63.7567ZM49.9588 55.5194C42.5453 55.5194 38.4267 53.2124 38.4267 52.2246C38.4267 51.2359 42.5453 48.9297 49.9588 48.9297C57.3723 48.9297 61.4909 51.2359 61.4909 52.2246C61.4909 53.2124 57.3723 55.5194 49.9588 55.5194Z" fill="black"/>
<path d="M49.9588 45.6348C42.5453 45.6348 35.1318 47.941 35.1318 52.2246V93.4107C35.1318 97.6934 42.5453 100 49.9588 100C57.3723 100 64.7858 97.6934 64.7858 93.4107V52.2246C64.7858 47.941 57.3723 45.6348 49.9588 45.6348ZM49.9588 96.7056C42.5453 96.7056 38.4267 94.3985 38.4267 93.4107V89.4562C42.0506 91.1036 46.0051 91.9274 49.9588 91.7633C53.9125 91.9274 57.8662 91.1036 61.4909 89.4562V93.4107C61.4909 94.3985 57.3723 96.7056 49.9588 96.7056ZM49.9588 88.4684C42.5453 88.4684 38.4267 86.1613 38.4267 85.1735V81.219C42.0506 82.8664 46.0051 83.6901 49.9588 83.526C53.9125 83.6901 57.8662 82.8664 61.4909 81.219V85.1735C61.4909 86.1613 57.3723 88.4684 49.9588 88.4684ZM49.9588 80.2311C42.5453 80.2311 38.4267 77.9241 38.4267 76.9362V72.9817C42.0506 74.6292 46.0051 75.4529 49.9588 75.2888C53.9125 75.4529 57.8662 74.6292 61.4909 72.9817V76.9362C61.4909 77.9241 57.3723 80.2311 49.9588 80.2311ZM49.9588 71.9939C42.5453 71.9939 38.4267 69.6868 38.4267 68.699V64.7445C42.0506 66.3919 46.0051 67.2157 49.9588 67.0516C53.9125 67.2157 57.8662 66.3919 61.4909 64.7445V68.699C61.4909 69.6868 57.3723 71.9939 49.9588 71.9939ZM49.9588 63.7567C42.5453 63.7567 38.4267 61.4496 38.4267 60.4618V56.5073C42.0506 58.1547 46.0051 58.9784 49.9588 58.8143C53.9125 58.9784 57.8662 58.1547 61.4909 56.5073V60.4618C61.4909 61.4496 57.3723 63.7567 49.9588 63.7567ZM49.9588 55.5194C42.5453 55.5194 38.4267 53.2124 38.4267 52.2246C38.4267 51.2359 42.5453 48.9297 49.9588 48.9297C57.3723 48.9297 61.4909 51.2359 61.4909 52.2246C61.4909 53.2124 57.3723 55.5194 49.9588 55.5194Z" fill="url(#paint2_linear)"/>
<path d="M84.5555 53.8716C77.142 53.8716 69.7285 56.1778 69.7285 60.4614V93.4103C69.7285 97.693 77.142 100 84.5555 100C91.969 100 99.3825 97.693 99.3825 93.4103V60.4614C99.3825 56.1778 91.969 53.8716 84.5555 53.8716ZM84.5555 96.7052C77.142 96.7052 73.0234 94.3981 73.0234 93.4103V89.4558C76.6473 91.1033 80.6018 91.927 84.5555 91.7629C88.5092 91.927 92.463 91.1033 96.0877 89.4558V93.4103C96.0877 94.3981 91.969 96.7052 84.5555 96.7052ZM84.5555 88.468C77.142 88.468 73.0234 86.1609 73.0234 85.1731V81.2186C76.6473 82.866 80.6018 83.6897 84.5555 83.5256C88.5092 83.6897 92.463 82.866 96.0877 81.2186V85.1731C96.0877 86.1609 91.969 88.468 84.5555 88.468ZM84.5555 80.2307C77.142 80.2307 73.0234 77.9237 73.0234 76.9358V72.9813C76.6473 74.6288 80.6018 75.4525 84.5555 75.2884C88.5092 75.4525 92.463 74.6288 96.0877 72.9813V76.9358C96.0877 77.9237 91.969 80.2307 84.5555 80.2307ZM84.5555 71.9935C77.142 71.9935 73.0234 69.6864 73.0234 68.6986V64.7441C76.6473 66.3915 80.6018 67.2153 84.5555 67.0512C88.5092 67.2153 92.463 66.3915 96.0877 64.7441V68.6986C96.0877 69.6864 91.969 71.9935 84.5555 71.9935ZM84.5555 63.7563C77.142 63.7563 73.0234 61.4492 73.0234 60.4614C73.0234 59.4727 77.142 57.1665 84.5555 57.1665C91.969 57.1665 96.0877 59.4727 96.0877 60.4614C96.0877 61.4492 91.969 63.7563 84.5555 63.7563Z" fill="black"/>
<path d="M84.5555 53.8716C77.142 53.8716 69.7285 56.1778 69.7285 60.4614V93.4103C69.7285 97.693 77.142 100 84.5555 100C91.969 100 99.3825 97.693 99.3825 93.4103V60.4614C99.3825 56.1778 91.969 53.8716 84.5555 53.8716ZM84.5555 96.7052C77.142 96.7052 73.0234 94.3981 73.0234 93.4103V89.4558C76.6473 91.1033 80.6018 91.927 84.5555 91.7629C88.5092 91.927 92.463 91.1033 96.0877 89.4558V93.4103C96.0877 94.3981 91.969 96.7052 84.5555 96.7052ZM84.5555 88.468C77.142 88.468 73.0234 86.1609 73.0234 85.1731V81.2186C76.6473 82.866 80.6018 83.6897 84.5555 83.5256C88.5092 83.6897 92.463 82.866 96.0877 81.2186V85.1731C96.0877 86.1609 91.969 88.468 84.5555 88.468ZM84.5555 80.2307C77.142 80.2307 73.0234 77.9237 73.0234 76.9358V72.9813C76.6473 74.6288 80.6018 75.4525 84.5555 75.2884C88.5092 75.4525 92.463 74.6288 96.0877 72.9813V76.9358C96.0877 77.9237 91.969 80.2307 84.5555 80.2307ZM84.5555 71.9935C77.142 71.9935 73.0234 69.6864 73.0234 68.6986V64.7441C76.6473 66.3915 80.6018 67.2153 84.5555 67.0512C88.5092 67.2153 92.463 66.3915 96.0877 64.7441V68.6986C96.0877 69.6864 91.969 71.9935 84.5555 71.9935ZM84.5555 63.7563C77.142 63.7563 73.0234 61.4492 73.0234 60.4614C73.0234 59.4727 77.142 57.1665 84.5555 57.1665C91.969 57.1665 96.0877 59.4727 96.0877 60.4614C96.0877 61.4492 91.969 63.7563 84.5555 63.7563Z" fill="url(#paint3_linear)"/>
<path d="M84.0608 42.8335L64.7862 23.5581L51.6066 36.7377L42.8746 28.0065L40.5684 30.3128L51.6066 41.351L64.7862 28.1714L81.7546 45.1398L84.0608 42.8335Z" fill="black"/>
<path d="M84.0608 42.8335L64.7862 23.5581L51.6066 36.7377L42.8746 28.0065L40.5684 30.3128L51.6066 41.351L64.7862 28.1714L81.7546 45.1398L84.0608 42.8335Z" fill="url(#paint4_linear)"/>
<path d="M32.3438 22.1128L34.6733 19.7832L39.5658 24.6757L37.2362 27.0053L32.3438 22.1128Z" fill="black"/>
<path d="M32.3438 22.1128L34.6733 19.7832L39.5658 24.6757L37.2362 27.0053L32.3438 22.1128Z" fill="url(#paint5_linear)"/>
</g>
<defs>
<linearGradient id="paint0_linear" x1="62.5618" y1="0" x2="62.5618" y2="47.282" gradientUnits="userSpaceOnUse">
<stop stop-color="#FFE5AC"/>
<stop offset="0.0001" stop-color="#FFE5AC"/>
<stop offset="1" stop-color="#B99C5D"/>
</linearGradient>
<linearGradient id="paint1_linear" x1="15.3622" y1="6.0957" x2="15.3622" y2="100" gradientUnits="userSpaceOnUse">
<stop stop-color="#FFE5AC"/>
<stop offset="0.0001" stop-color="#FFE5AC"/>
<stop offset="1" stop-color="#B99C5D"/>
</linearGradient>
<linearGradient id="paint2_linear" x1="49.9588" y1="45.6348" x2="49.9588" y2="100" gradientUnits="userSpaceOnUse">
<stop stop-color="#FFE5AC"/>
<stop offset="0.0001" stop-color="#FFE5AC"/>
<stop offset="1" stop-color="#B99C5D"/>
</linearGradient>
<linearGradient id="paint3_linear" x1="84.5555" y1="53.8716" x2="84.5555" y2="100" gradientUnits="userSpaceOnUse">
<stop stop-color="#FFE5AC"/>
<stop offset="0.0001" stop-color="#FFE5AC"/>
<stop offset="1" stop-color="#B99C5D"/>
</linearGradient>
<linearGradient id="paint4_linear" x1="62.3146" y1="23.5581" x2="62.3146" y2="45.1398" gradientUnits="userSpaceOnUse">
<stop stop-color="#FFE5AC"/>
<stop offset="0.0001" stop-color="#FFE5AC"/>
<stop offset="1" stop-color="#B99C5D"/>
</linearGradient>
<linearGradient id="paint5_linear" x1="35.9548" y1="19.7832" x2="35.9548" y2="27.0053" gradientUnits="userSpaceOnUse">
<stop stop-color="#FFE5AC"/>
<stop offset="0.0001" stop-color="#FFE5AC"/>
<stop offset="1" stop-color="#B99C5D"/>
</linearGradient>
<clipPath id="clip0">
<rect width="100" height="100" fill="white"/>
</clipPath>
</defs>
</svg>
