<svg width="100" height="100" viewBox="0 0 100 100" fill="none" xmlns="http://www.w3.org/2000/svg">
<g clip-path="url(#clip0)">
<path d="M50.9784 17.6747C50.9784 16.7042 50.1926 15.9165 49.2202 15.9165C39.0706 15.9165 30.8127 24.1744 30.8127 34.324C30.8127 35.2945 31.5985 36.0822 32.571 36.0822C33.5432 36.0822 34.3292 35.2945 34.3292 34.324C34.3292 26.1137 41.0101 19.4327 49.2204 19.4327C50.1926 19.4327 50.9784 18.6469 50.9784 17.6747Z" fill="url(#paint0_linear)"/>
<path d="M23.425 34.3239C23.425 40.3577 25.3749 46.0628 29.065 50.8222C29.0825 50.8452 29.102 50.8679 29.1212 50.8908C36.8166 61.5731 34.9037 66.6541 34.9037 66.6628C34.4923 67.5418 34.8721 68.588 35.7511 69.0011C35.9921 69.1135 36.2451 69.168 36.4947 69.1663C37.1557 69.1663 37.7888 68.7919 38.0875 68.1537C38.4056 67.4786 40.9198 61.1861 31.8813 48.7071C31.8408 48.6526 31.8004 48.5999 31.7548 48.5508C28.606 44.4367 26.9428 39.5211 26.9428 34.3222C26.9428 21.4035 37.4546 10.8936 50.3714 10.8936C63.2881 10.8936 73.8004 21.4035 73.8004 34.3222C73.8004 39.535 72.1268 44.47 68.9287 48.6297C59.8851 61.1176 62.5011 67.4821 62.8281 68.1677C63.2412 69.0275 64.2556 69.3791 65.1242 68.9905C65.9928 68.6018 66.3865 67.5682 66.019 66.6892C65.9978 66.6381 63.9831 61.4552 71.747 50.7325C75.3897 45.9925 77.3166 40.319 77.3166 34.3239C77.3166 19.466 65.2295 7.37891 50.3716 7.37891C35.5136 7.37891 23.425 19.4679 23.425 34.3239Z" fill="url(#paint1_linear)"/>
<path d="M66.063 75.9352V74.4408C66.063 72.0586 64.1238 70.1211 61.7433 70.1211H38.051C35.6688 70.1211 33.7313 72.0586 33.7313 74.4408V75.9352C33.7313 78.3156 35.6688 80.2549 38.051 80.2549H61.7453C64.1257 80.2549 66.063 78.3174 66.063 75.9352ZM37.2475 75.9352V74.4408C37.2475 73.9978 37.6079 73.6373 38.051 73.6373H61.7453C62.1882 73.6373 62.5488 73.9976 62.5488 74.4408V75.9352C62.5488 76.3781 62.1884 76.7387 61.7453 76.7387H38.051C37.6079 76.7387 37.2475 76.3783 37.2475 75.9352Z" fill="url(#paint2_linear)"/>
<path d="M40.8974 82.9272C39.9252 82.9272 39.1392 83.715 39.1392 84.6855V89.3287C39.1392 90.0178 39.5417 90.642 40.1676 90.9286L49.6421 95.2518C49.8742 95.3574 50.1221 95.4101 50.3717 95.4101C50.6284 95.4101 50.8852 95.3539 51.1224 95.2414L60.6233 90.7582C61.2387 90.4682 61.6308 89.8493 61.6308 89.1689V84.6874C61.6308 83.7169 60.845 82.9292 59.8726 82.9292C58.9002 82.9292 58.1144 83.7169 58.1144 84.6874V88.0559L50.3594 91.7164L42.6554 88.2001V84.6874C42.6554 83.713 41.8696 82.9272 40.8974 82.9272Z" fill="url(#paint3_linear)"/>
<path d="M91.3308 66.0934C91.9074 65.3128 91.7404 64.2121 90.9598 63.6355L79.0328 54.8414C78.2505 54.2648 77.1515 54.43 76.5749 55.2123C75.9983 55.9929 76.1653 57.0936 76.9459 57.6702L88.8729 66.4643C89.1876 66.6964 89.5533 66.8071 89.9154 66.8071C90.4535 66.8089 90.9862 66.561 91.3308 66.0934Z" fill="url(#paint4_linear)"/>
<path d="M21.4472 16.7551C21.7619 16.9872 22.1277 17.098 22.4897 17.098C23.0294 17.098 23.5604 16.8501 23.9069 16.3825C24.4835 15.6019 24.3165 14.5012 23.5359 13.9246L11.3398 4.93345C10.5593 4.35509 9.45856 4.5238 8.88194 5.30439C8.30531 6.0867 8.47056 7.18739 9.25287 7.76402L21.4472 16.7551Z" fill="url(#paint5_linear)"/>
<path d="M22.0011 54.2365L9.25481 63.6353C8.47423 64.212 8.30725 65.3127 8.88388 66.0932C9.22842 66.5609 9.76114 66.8087 10.301 66.8087C10.6631 66.8087 11.0288 66.698 11.3435 66.4659L24.0898 57.0671C24.8704 56.4905 25.0374 55.3898 24.4608 54.6092C23.8805 53.8269 22.7817 53.6616 22.0011 54.2365Z" fill="url(#paint6_linear)"/>
<path d="M77.4662 13.3445C76.6857 13.9211 76.5187 15.0218 77.0953 15.8024C77.4398 16.27 77.9726 16.5179 78.5124 16.5179C78.8745 16.5179 79.2402 16.4054 79.5549 16.1751L90.9633 7.76424C91.7439 7.18762 91.9108 6.08692 91.3342 5.30634C90.7576 4.52575 89.6586 4.35705 88.8763 4.9354L77.4662 13.3445Z" fill="url(#paint7_linear)"/>
<path d="M98.242 33.9424H84.7942C83.822 33.9424 83.036 34.7301 83.036 35.7006C83.036 36.6711 83.8218 37.4588 84.7942 37.4588H98.242C99.2142 37.4588 100 36.6711 100 35.7006C100 34.7301 99.2142 33.9424 98.242 33.9424Z" fill="url(#paint8_linear)"/>
<path d="M17.3931 35.7006C17.3931 34.7301 16.6073 33.9424 15.6349 33.9424H1.75821C0.785993 33.9424 0 34.7301 0 35.7006C0 36.6711 0.785777 37.4588 1.75821 37.4588H15.6351C16.6053 37.4586 17.3931 36.6711 17.3931 35.7006Z" fill="url(#paint9_linear)"/>
</g>
<defs>
<linearGradient id="paint0_linear" x1="40.8956" y1="15.9165" x2="40.8956" y2="36.0822" gradientUnits="userSpaceOnUse">
<stop stop-color="#FFE5AC"/>
<stop offset="1" stop-color="#B99C5D"/>
</linearGradient>
<linearGradient id="paint1_linear" x1="50.3708" y1="7.37891" x2="50.3708" y2="69.1664" gradientUnits="userSpaceOnUse">
<stop stop-color="#FFE5AC"/>
<stop offset="1" stop-color="#B99C5D"/>
</linearGradient>
<linearGradient id="paint2_linear" x1="49.8972" y1="70.1211" x2="49.8972" y2="80.2549" gradientUnits="userSpaceOnUse">
<stop stop-color="#FFE5AC"/>
<stop offset="1" stop-color="#B99C5D"/>
</linearGradient>
<linearGradient id="paint3_linear" x1="50.385" y1="82.9272" x2="50.385" y2="95.4101" gradientUnits="userSpaceOnUse">
<stop stop-color="#FFE5AC"/>
<stop offset="1" stop-color="#B99C5D"/>
</linearGradient>
<linearGradient id="paint4_linear" x1="83.9528" y1="54.4976" x2="83.9528" y2="66.8071" gradientUnits="userSpaceOnUse">
<stop stop-color="#FFE5AC"/>
<stop offset="1" stop-color="#B99C5D"/>
</linearGradient>
<linearGradient id="paint5_linear" x1="16.3941" y1="4.58936" x2="16.3941" y2="17.098" gradientUnits="userSpaceOnUse">
<stop stop-color="#FFE5AC"/>
<stop offset="1" stop-color="#B99C5D"/>
</linearGradient>
<linearGradient id="paint6_linear" x1="16.6723" y1="53.894" x2="16.6723" y2="66.8087" gradientUnits="userSpaceOnUse">
<stop stop-color="#FFE5AC"/>
<stop offset="1" stop-color="#B99C5D"/>
</linearGradient>
<linearGradient id="paint7_linear" x1="84.2148" y1="4.59131" x2="84.2148" y2="16.5179" gradientUnits="userSpaceOnUse">
<stop stop-color="#FFE5AC"/>
<stop offset="1" stop-color="#B99C5D"/>
</linearGradient>
<linearGradient id="paint8_linear" x1="91.5181" y1="33.9424" x2="91.5181" y2="37.4588" gradientUnits="userSpaceOnUse">
<stop stop-color="#FFE5AC"/>
<stop offset="1" stop-color="#B99C5D"/>
</linearGradient>
<linearGradient id="paint9_linear" x1="8.69654" y1="33.9424" x2="8.69654" y2="37.4588" gradientUnits="userSpaceOnUse">
<stop stop-color="#FFE5AC"/>
<stop offset="1" stop-color="#B99C5D"/>
</linearGradient>
<clipPath id="clip0">
<rect width="100" height="100" fill="white"/>
</clipPath>
</defs>
</svg>
