<svg width="100" height="100" viewBox="0 0 100 100" fill="none" xmlns="http://www.w3.org/2000/svg">
<g clip-path="url(#clip0)">
<g filter="url(#filter0_d)">
<path d="M74.1894 0H25.8094C22.058 0 19.0059 3.05215 19.0059 6.80352V93.1967C19.0059 96.948 22.058 100 25.8094 100H74.1894C77.9408 100 80.993 96.948 80.993 93.1967V6.80352C80.993 3.05215 77.9408 0 74.1894 0ZM77.7531 93.1965C77.7531 95.1615 76.1547 96.7602 74.1894 96.7602H25.8094C23.8441 96.7602 22.2457 95.1615 22.2457 93.1965V44.7084H77.7533V93.1965H77.7531ZM24.1172 41.4688L35.3844 30.2016C36.7744 28.8123 39.0352 28.8123 40.4244 30.2016L51.6916 41.4688H24.1172ZM77.7531 41.4688H56.2732L52.29 37.4857L64.7576 25.018C66.1477 23.6285 68.4084 23.6287 69.7977 25.018L77.7531 32.9732V41.4688ZM77.7531 28.3914L72.0885 22.727C69.4359 20.0744 65.1197 20.0744 62.4668 22.727L49.9994 35.1947L42.7152 27.9105C40.0627 25.258 35.7465 25.258 33.0936 27.9105L22.2455 38.7586V6.80352C22.2455 4.83848 23.8439 3.23984 25.8092 3.23984H74.1893C76.1545 3.23984 77.7529 4.83848 77.7529 6.80352V28.3914H77.7531Z" fill="black"/>
<path d="M74.1894 0H25.8094C22.058 0 19.0059 3.05215 19.0059 6.80352V93.1967C19.0059 96.948 22.058 100 25.8094 100H74.1894C77.9408 100 80.993 96.948 80.993 93.1967V6.80352C80.993 3.05215 77.9408 0 74.1894 0ZM77.7531 93.1965C77.7531 95.1615 76.1547 96.7602 74.1894 96.7602H25.8094C23.8441 96.7602 22.2457 95.1615 22.2457 93.1965V44.7084H77.7533V93.1965H77.7531ZM24.1172 41.4688L35.3844 30.2016C36.7744 28.8123 39.0352 28.8123 40.4244 30.2016L51.6916 41.4688H24.1172ZM77.7531 41.4688H56.2732L52.29 37.4857L64.7576 25.018C66.1477 23.6285 68.4084 23.6287 69.7977 25.018L77.7531 32.9732V41.4688ZM77.7531 28.3914L72.0885 22.727C69.4359 20.0744 65.1197 20.0744 62.4668 22.727L49.9994 35.1947L42.7152 27.9105C40.0627 25.258 35.7465 25.258 33.0936 27.9105L22.2455 38.7586V6.80352C22.2455 4.83848 23.8439 3.23984 25.8092 3.23984H74.1893C76.1545 3.23984 77.7529 4.83848 77.7529 6.80352V28.3914H77.7531Z" fill="url(#paint0_linear)"/>
</g>
<path d="M56.9117 20.7343H54.8094C54.3035 19.2368 53.1176 18.0509 51.6201 17.545V15.4427C51.6201 14.5481 50.8951 13.8228 50.0002 13.8228C49.1053 13.8228 48.3803 14.5479 48.3803 15.4427V17.545C46.8828 18.0509 45.6969 19.2368 45.191 20.7343H43.0887C42.1939 20.7343 41.4688 21.4595 41.4688 22.3542C41.4688 23.2487 42.1938 23.9741 43.0887 23.9741H45.191C45.6969 25.4716 46.8828 26.6575 48.3803 27.1634V29.2657C48.3803 30.1602 49.1053 30.8856 50.0002 30.8856C50.8951 30.8856 51.6201 30.1604 51.6201 29.2657V27.1634C53.1176 26.6575 54.3035 25.4716 54.8094 23.9741H56.9117C57.8064 23.9741 58.5316 23.2489 58.5316 22.3542C58.5314 21.4595 57.8064 20.7343 56.9117 20.7343ZM50.0002 24.1899C48.9879 24.1899 48.1643 23.3663 48.1643 22.354C48.1643 21.3417 48.9879 20.5181 50.0002 20.5181C51.0125 20.5181 51.8361 21.3415 51.8361 22.354C51.8361 23.3665 51.0125 24.1899 50.0002 24.1899Z" fill="black"/>
<path d="M56.9117 20.7343H54.8094C54.3035 19.2368 53.1176 18.0509 51.6201 17.545V15.4427C51.6201 14.5481 50.8951 13.8228 50.0002 13.8228C49.1053 13.8228 48.3803 14.5479 48.3803 15.4427V17.545C46.8828 18.0509 45.6969 19.2368 45.191 20.7343H43.0887C42.1939 20.7343 41.4688 21.4595 41.4688 22.3542C41.4688 23.2487 42.1938 23.9741 43.0887 23.9741H45.191C45.6969 25.4716 46.8828 26.6575 48.3803 27.1634V29.2657C48.3803 30.1602 49.1053 30.8856 50.0002 30.8856C50.8951 30.8856 51.6201 30.1604 51.6201 29.2657V27.1634C53.1176 26.6575 54.3035 25.4716 54.8094 23.9741H56.9117C57.8064 23.9741 58.5316 23.2489 58.5316 22.3542C58.5314 21.4595 57.8064 20.7343 56.9117 20.7343ZM50.0002 24.1899C48.9879 24.1899 48.1643 23.3663 48.1643 22.354C48.1643 21.3417 48.9879 20.5181 50.0002 20.5181C51.0125 20.5181 51.8361 21.3415 51.8361 22.354C51.8361 23.3665 51.0125 24.1899 50.0002 24.1899Z" fill="url(#paint1_linear)"/>
<path d="M72.4623 6.91113H69.0066C68.1119 6.91113 67.3867 7.63633 67.3867 8.53105C67.3867 9.42559 68.1117 10.151 69.0066 10.151H72.4623C73.357 10.151 74.0822 9.42578 74.0822 8.53105C74.0822 7.63633 73.3572 6.91113 72.4623 6.91113Z" fill="black"/>
<path d="M72.4623 6.91113H69.0066C68.1119 6.91113 67.3867 7.63633 67.3867 8.53105C67.3867 9.42559 68.1117 10.151 69.0066 10.151H72.4623C73.357 10.151 74.0822 9.42578 74.0822 8.53105C74.0822 7.63633 73.3572 6.91113 72.4623 6.91113Z" fill="url(#paint2_linear)"/>
<path d="M62.0951 6.91113H58.6395C57.7447 6.91113 57.0195 7.63633 57.0195 8.53105C57.0195 9.42559 57.7445 10.151 58.6395 10.151H62.0951C62.9898 10.151 63.715 9.42578 63.715 8.53105C63.7148 7.63633 62.9898 6.91113 62.0951 6.91113Z" fill="black"/>
<path d="M62.0951 6.91113H58.6395C57.7447 6.91113 57.0195 7.63633 57.0195 8.53105C57.0195 9.42559 57.7445 10.151 58.6395 10.151H62.0951C62.9898 10.151 63.715 9.42578 63.715 8.53105C63.7148 7.63633 62.9898 6.91113 62.0951 6.91113Z" fill="url(#paint3_linear)"/>
<path d="M51.7279 6.91113H48.2723C47.3775 6.91113 46.6523 7.63633 46.6523 8.53105C46.6523 9.42559 47.3773 10.151 48.2723 10.151H51.7279C52.6226 10.151 53.3478 9.42578 53.3478 8.53105C53.3476 7.63633 52.6226 6.91113 51.7279 6.91113Z" fill="black"/>
<path d="M51.7279 6.91113H48.2723C47.3775 6.91113 46.6523 7.63633 46.6523 8.53105C46.6523 9.42559 47.3773 10.151 48.2723 10.151H51.7279C52.6226 10.151 53.3478 9.42578 53.3478 8.53105C53.3476 7.63633 52.6226 6.91113 51.7279 6.91113Z" fill="url(#paint4_linear)"/>
<path d="M41.3607 6.91113H27.5379C26.6432 6.91113 25.918 7.63633 25.918 8.53105C25.918 9.42559 26.643 10.151 27.5379 10.151H41.3607C42.2555 10.151 42.9807 9.42578 42.9807 8.53105C42.9805 7.63633 42.2555 6.91113 41.3607 6.91113Z" fill="black"/>
<path d="M41.3607 6.91113H27.5379C26.6432 6.91113 25.918 7.63633 25.918 8.53105C25.918 9.42559 26.643 10.151 27.5379 10.151H41.3607C42.2555 10.151 42.9807 9.42578 42.9807 8.53105C42.9805 7.63633 42.2555 6.91113 41.3607 6.91113Z" fill="url(#paint5_linear)"/>
<path d="M63.8233 48.3799H36.1775C35.2828 48.3799 34.5576 49.1051 34.5576 49.9998C34.5576 50.8943 35.2826 51.6197 36.1775 51.6197H63.8233C64.718 51.6197 65.4432 50.8945 65.4432 49.9998C65.4432 49.1053 64.7182 48.3799 63.8233 48.3799Z" fill="black"/>
<path d="M63.8233 48.3799H36.1775C35.2828 48.3799 34.5576 49.1051 34.5576 49.9998C34.5576 50.8943 35.2826 51.6197 36.1775 51.6197H63.8233C64.718 51.6197 65.4432 50.8945 65.4432 49.9998C65.4432 49.1053 64.7182 48.3799 63.8233 48.3799Z" fill="url(#paint6_linear)"/>
<path d="M37.9051 74.2979H27.5379C26.6432 74.2979 25.918 75.023 25.918 75.9178C25.918 76.8123 26.643 77.5377 27.5379 77.5377H37.9051C38.7998 77.5377 39.525 76.8125 39.525 75.9178C39.525 75.023 38.8 74.2979 37.9051 74.2979Z" fill="black"/>
<path d="M37.9051 74.2979H27.5379C26.6432 74.2979 25.918 75.023 25.918 75.9178C25.918 76.8123 26.643 77.5377 27.5379 77.5377H37.9051C38.7998 77.5377 39.525 76.8125 39.525 75.9178C39.525 75.023 38.8 74.2979 37.9051 74.2979Z" fill="url(#paint7_linear)"/>
<path d="M55.1834 74.2979H44.8162C43.9215 74.2979 43.1963 75.023 43.1963 75.9178C43.1963 76.8123 43.9213 77.5377 44.8162 77.5377H55.1834C56.0781 77.5377 56.8033 76.8125 56.8033 75.9178C56.8033 75.023 56.0781 74.2979 55.1834 74.2979Z" fill="black"/>
<path d="M55.1834 74.2979H44.8162C43.9215 74.2979 43.1963 75.023 43.1963 75.9178C43.1963 76.8123 43.9213 77.5377 44.8162 77.5377H55.1834C56.0781 77.5377 56.8033 76.8125 56.8033 75.9178C56.8033 75.023 56.0781 74.2979 55.1834 74.2979Z" fill="url(#paint8_linear)"/>
<path d="M72.4627 74.2979H62.0955C61.2008 74.2979 60.4756 75.023 60.4756 75.9178C60.4756 76.8123 61.2006 77.5377 62.0955 77.5377H72.4627C73.3574 77.5377 74.0826 76.8125 74.0826 75.9178C74.0826 75.023 73.3576 74.2979 72.4627 74.2979Z" fill="black"/>
<path d="M72.4627 74.2979H62.0955C61.2008 74.2979 60.4756 75.023 60.4756 75.9178C60.4756 76.8123 61.2006 77.5377 62.0955 77.5377H72.4627C73.3574 77.5377 74.0826 76.8125 74.0826 75.9178C74.0826 75.023 73.3576 74.2979 72.4627 74.2979Z" fill="url(#paint9_linear)"/>
<path d="M46.5443 81.2095H37.9051C37.0104 81.2095 36.2852 81.9347 36.2852 82.8294C36.2852 83.7239 37.0102 84.4493 37.9051 84.4493H46.5443C47.4391 84.4493 48.1643 83.7241 48.1643 82.8294C48.1641 81.9347 47.4391 81.2095 46.5443 81.2095Z" fill="black"/>
<path d="M46.5443 81.2095H37.9051C37.0104 81.2095 36.2852 81.9347 36.2852 82.8294C36.2852 83.7239 37.0102 84.4493 37.9051 84.4493H46.5443C47.4391 84.4493 48.1643 83.7241 48.1643 82.8294C48.1641 81.9347 47.4391 81.2095 46.5443 81.2095Z" fill="url(#paint10_linear)"/>
<path d="M30.9934 81.2095H29.2654C28.3707 81.2095 27.6455 81.9347 27.6455 82.8294C27.6455 83.7239 28.3705 84.4493 29.2654 84.4493H30.9934C31.8881 84.4493 32.6133 83.7241 32.6133 82.8294C32.6133 81.9347 31.8881 81.2095 30.9934 81.2095Z" fill="black"/>
<path d="M30.9934 81.2095H29.2654C28.3707 81.2095 27.6455 81.9347 27.6455 82.8294C27.6455 83.7239 28.3705 84.4493 29.2654 84.4493H30.9934C31.8881 84.4493 32.6133 83.7241 32.6133 82.8294C32.6133 81.9347 31.8881 81.2095 30.9934 81.2095Z" fill="url(#paint11_linear)"/>
<path d="M70.7348 81.2095H62.0955C61.2008 81.2095 60.4756 81.9347 60.4756 82.8294C60.4756 83.7239 61.2006 84.4493 62.0955 84.4493H70.7348C71.6295 84.4493 72.3547 83.7241 72.3547 82.8294C72.3547 81.9347 71.6295 81.2095 70.7348 81.2095Z" fill="black"/>
<path d="M70.7348 81.2095H62.0955C61.2008 81.2095 60.4756 81.9347 60.4756 82.8294C60.4756 83.7239 61.2006 84.4493 62.0955 84.4493H70.7348C71.6295 84.4493 72.3547 83.7241 72.3547 82.8294C72.3547 81.9347 71.6295 81.2095 70.7348 81.2095Z" fill="url(#paint12_linear)"/>
<path d="M55.1828 81.2095H53.4549C52.5602 81.2095 51.835 81.9347 51.835 82.8294C51.835 83.7239 52.56 84.4493 53.4549 84.4493H55.1828C56.0775 84.4493 56.8027 83.7241 56.8027 82.8294C56.8027 81.9347 56.0775 81.2095 55.1828 81.2095Z" fill="black"/>
<path d="M55.1828 81.2095H53.4549C52.5602 81.2095 51.835 81.9347 51.835 82.8294C51.835 83.7239 52.56 84.4493 53.4549 84.4493H55.1828C56.0775 84.4493 56.8027 83.7241 56.8027 82.8294C56.8027 81.9347 56.0775 81.2095 55.1828 81.2095Z" fill="url(#paint13_linear)"/>
<path d="M46.5443 88.1206H37.9051C37.0104 88.1206 36.2852 88.8458 36.2852 89.7405C36.2852 90.6351 37.0102 91.3605 37.9051 91.3605H46.5443C47.4391 91.3605 48.1643 90.6353 48.1643 89.7405C48.1641 88.846 47.4391 88.1206 46.5443 88.1206Z" fill="black"/>
<path d="M46.5443 88.1206H37.9051C37.0104 88.1206 36.2852 88.8458 36.2852 89.7405C36.2852 90.6351 37.0102 91.3605 37.9051 91.3605H46.5443C47.4391 91.3605 48.1643 90.6353 48.1643 89.7405C48.1641 88.846 47.4391 88.1206 46.5443 88.1206Z" fill="url(#paint14_linear)"/>
<path d="M30.9934 88.1206H29.2654C28.3707 88.1206 27.6455 88.8458 27.6455 89.7405C27.6455 90.6351 28.3705 91.3605 29.2654 91.3605H30.9934C31.8881 91.3605 32.6133 90.6353 32.6133 89.7405C32.6133 88.846 31.8881 88.1206 30.9934 88.1206Z" fill="black"/>
<path d="M30.9934 88.1206H29.2654C28.3707 88.1206 27.6455 88.8458 27.6455 89.7405C27.6455 90.6351 28.3705 91.3605 29.2654 91.3605H30.9934C31.8881 91.3605 32.6133 90.6353 32.6133 89.7405C32.6133 88.846 31.8881 88.1206 30.9934 88.1206Z" fill="url(#paint15_linear)"/>
<path d="M70.7348 88.1206H62.0955C61.2008 88.1206 60.4756 88.8458 60.4756 89.7405C60.4756 90.6351 61.2006 91.3605 62.0955 91.3605H70.7348C71.6295 91.3605 72.3547 90.6353 72.3547 89.7405C72.3547 88.846 71.6295 88.1206 70.7348 88.1206Z" fill="black"/>
<path d="M70.7348 88.1206H62.0955C61.2008 88.1206 60.4756 88.8458 60.4756 89.7405C60.4756 90.6351 61.2006 91.3605 62.0955 91.3605H70.7348C71.6295 91.3605 72.3547 90.6353 72.3547 89.7405C72.3547 88.846 71.6295 88.1206 70.7348 88.1206Z" fill="url(#paint16_linear)"/>
<path d="M55.1828 88.1206H53.4549C52.5602 88.1206 51.835 88.8458 51.835 89.7405C51.835 90.6351 52.56 91.3605 53.4549 91.3605H55.1828C56.0775 91.3605 56.8027 90.6353 56.8027 89.7405C56.8027 88.846 56.0775 88.1206 55.1828 88.1206Z" fill="black"/>
<path d="M55.1828 88.1206H53.4549C52.5602 88.1206 51.835 88.8458 51.835 89.7405C51.835 90.6351 52.56 91.3605 53.4549 91.3605H55.1828C56.0775 91.3605 56.8027 90.6353 56.8027 89.7405C56.8027 88.846 56.0775 88.1206 55.1828 88.1206Z" fill="url(#paint17_linear)"/>
<path d="M55.1834 55.292H44.8162C43.9215 55.292 43.1963 56.0172 43.1963 56.9119V69.007C43.1963 69.9016 43.9213 70.627 44.8162 70.627H55.1834C56.0781 70.627 56.8033 69.9018 56.8033 69.007V56.9119C56.8033 56.0172 56.0781 55.292 55.1834 55.292ZM53.5635 67.3869H46.4361V58.5316H53.5635V67.3869Z" fill="black"/>
<path d="M55.1834 55.292H44.8162C43.9215 55.292 43.1963 56.0172 43.1963 56.9119V69.007C43.1963 69.9016 43.9213 70.627 44.8162 70.627H55.1834C56.0781 70.627 56.8033 69.9018 56.8033 69.007V56.9119C56.8033 56.0172 56.0781 55.292 55.1834 55.292ZM53.5635 67.3869H46.4361V58.5316H53.5635V67.3869Z" fill="url(#paint18_linear)"/>
<path d="M72.4627 55.292H62.0955C61.2008 55.292 60.4756 56.0172 60.4756 56.9119V69.007C60.4756 69.9016 61.2006 70.627 62.0955 70.627H72.4627C73.3574 70.627 74.0826 69.9018 74.0826 69.007V56.9119C74.0826 56.0172 73.3576 55.292 72.4627 55.292ZM70.843 67.3869H63.7154V58.5316H70.8428V67.3869H70.843Z" fill="black"/>
<path d="M72.4627 55.292H62.0955C61.2008 55.292 60.4756 56.0172 60.4756 56.9119V69.007C60.4756 69.9016 61.2006 70.627 62.0955 70.627H72.4627C73.3574 70.627 74.0826 69.9018 74.0826 69.007V56.9119C74.0826 56.0172 73.3576 55.292 72.4627 55.292ZM70.843 67.3869H63.7154V58.5316H70.8428V67.3869H70.843Z" fill="url(#paint19_linear)"/>
<path d="M37.9051 55.292H27.5379C26.6432 55.292 25.918 56.0172 25.918 56.9119V69.007C25.918 69.9016 26.643 70.627 27.5379 70.627H37.9051C38.7998 70.627 39.525 69.9018 39.525 69.007V56.9119C39.525 56.0172 38.8 55.292 37.9051 55.292ZM36.2854 67.3869H29.158V58.5316H36.2854V67.3869Z" fill="black"/>
<path d="M37.9051 55.292H27.5379C26.6432 55.292 25.918 56.0172 25.918 56.9119V69.007C25.918 69.9016 26.643 70.627 27.5379 70.627H37.9051C38.7998 70.627 39.525 69.9018 39.525 69.007V56.9119C39.525 56.0172 38.8 55.292 37.9051 55.292ZM36.2854 67.3869H29.158V58.5316H36.2854V67.3869Z" fill="url(#paint20_linear)"/>
</g>
<defs>
<filter id="filter0_d" x="15.0059" y="0" width="69.9871" height="108" filterUnits="userSpaceOnUse" color-interpolation-filters="sRGB">
<feFlood flood-opacity="0" result="BackgroundImageFix"/>
<feColorMatrix in="SourceAlpha" type="matrix" values="0 0 0 0 0 0 0 0 0 0 0 0 0 0 0 0 0 0 127 0"/>
<feOffset dy="4"/>
<feGaussianBlur stdDeviation="2"/>
<feColorMatrix type="matrix" values="0 0 0 0 0 0 0 0 0 0 0 0 0 0 0 0 0 0 0.25 0"/>
<feBlend mode="normal" in2="BackgroundImageFix" result="effect1_dropShadow"/>
<feBlend mode="normal" in="SourceGraphic" in2="effect1_dropShadow" result="shape"/>
</filter>
<linearGradient id="paint0_linear" x1="49.9994" y1="0" x2="49.9994" y2="100" gradientUnits="userSpaceOnUse">
<stop stop-color="#FFE5AC"/>
<stop offset="0.0001" stop-color="#FFE5AC"/>
<stop offset="1" stop-color="#B99C5D"/>
</linearGradient>
<linearGradient id="paint1_linear" x1="50.0002" y1="13.8228" x2="50.0002" y2="30.8856" gradientUnits="userSpaceOnUse">
<stop stop-color="#FFE5AC"/>
<stop offset="0.0001" stop-color="#FFE5AC"/>
<stop offset="1" stop-color="#B99C5D"/>
</linearGradient>
<linearGradient id="paint2_linear" x1="70.7345" y1="6.91113" x2="70.7345" y2="10.151" gradientUnits="userSpaceOnUse">
<stop stop-color="#FFE5AC"/>
<stop offset="0.0001" stop-color="#FFE5AC"/>
<stop offset="1" stop-color="#B99C5D"/>
</linearGradient>
<linearGradient id="paint3_linear" x1="60.3673" y1="6.91113" x2="60.3673" y2="10.151" gradientUnits="userSpaceOnUse">
<stop stop-color="#FFE5AC"/>
<stop offset="0.0001" stop-color="#FFE5AC"/>
<stop offset="1" stop-color="#B99C5D"/>
</linearGradient>
<linearGradient id="paint4_linear" x1="50.0001" y1="6.91113" x2="50.0001" y2="10.151" gradientUnits="userSpaceOnUse">
<stop stop-color="#FFE5AC"/>
<stop offset="0.0001" stop-color="#FFE5AC"/>
<stop offset="1" stop-color="#B99C5D"/>
</linearGradient>
<linearGradient id="paint5_linear" x1="34.4493" y1="6.91113" x2="34.4493" y2="10.151" gradientUnits="userSpaceOnUse">
<stop stop-color="#FFE5AC"/>
<stop offset="0.0001" stop-color="#FFE5AC"/>
<stop offset="1" stop-color="#B99C5D"/>
</linearGradient>
<linearGradient id="paint6_linear" x1="50.0004" y1="48.3799" x2="50.0004" y2="51.6197" gradientUnits="userSpaceOnUse">
<stop stop-color="#FFE5AC"/>
<stop offset="0.0001" stop-color="#FFE5AC"/>
<stop offset="1" stop-color="#B99C5D"/>
</linearGradient>
<linearGradient id="paint7_linear" x1="32.7215" y1="74.2979" x2="32.7215" y2="77.5377" gradientUnits="userSpaceOnUse">
<stop stop-color="#FFE5AC"/>
<stop offset="0.0001" stop-color="#FFE5AC"/>
<stop offset="1" stop-color="#B99C5D"/>
</linearGradient>
<linearGradient id="paint8_linear" x1="49.9998" y1="74.2979" x2="49.9998" y2="77.5377" gradientUnits="userSpaceOnUse">
<stop stop-color="#FFE5AC"/>
<stop offset="0.0001" stop-color="#FFE5AC"/>
<stop offset="1" stop-color="#B99C5D"/>
</linearGradient>
<linearGradient id="paint9_linear" x1="67.2791" y1="74.2979" x2="67.2791" y2="77.5377" gradientUnits="userSpaceOnUse">
<stop stop-color="#FFE5AC"/>
<stop offset="0.0001" stop-color="#FFE5AC"/>
<stop offset="1" stop-color="#B99C5D"/>
</linearGradient>
<linearGradient id="paint10_linear" x1="42.2247" y1="81.2095" x2="42.2247" y2="84.4493" gradientUnits="userSpaceOnUse">
<stop stop-color="#FFE5AC"/>
<stop offset="0.0001" stop-color="#FFE5AC"/>
<stop offset="1" stop-color="#B99C5D"/>
</linearGradient>
<linearGradient id="paint11_linear" x1="30.1294" y1="81.2095" x2="30.1294" y2="84.4493" gradientUnits="userSpaceOnUse">
<stop stop-color="#FFE5AC"/>
<stop offset="0.0001" stop-color="#FFE5AC"/>
<stop offset="1" stop-color="#B99C5D"/>
</linearGradient>
<linearGradient id="paint12_linear" x1="66.4151" y1="81.2095" x2="66.4151" y2="84.4493" gradientUnits="userSpaceOnUse">
<stop stop-color="#FFE5AC"/>
<stop offset="0.0001" stop-color="#FFE5AC"/>
<stop offset="1" stop-color="#B99C5D"/>
</linearGradient>
<linearGradient id="paint13_linear" x1="54.3188" y1="81.2095" x2="54.3188" y2="84.4493" gradientUnits="userSpaceOnUse">
<stop stop-color="#FFE5AC"/>
<stop offset="0.0001" stop-color="#FFE5AC"/>
<stop offset="1" stop-color="#B99C5D"/>
</linearGradient>
<linearGradient id="paint14_linear" x1="42.2247" y1="88.1206" x2="42.2247" y2="91.3605" gradientUnits="userSpaceOnUse">
<stop stop-color="#FFE5AC"/>
<stop offset="0.0001" stop-color="#FFE5AC"/>
<stop offset="1" stop-color="#B99C5D"/>
</linearGradient>
<linearGradient id="paint15_linear" x1="30.1294" y1="88.1206" x2="30.1294" y2="91.3605" gradientUnits="userSpaceOnUse">
<stop stop-color="#FFE5AC"/>
<stop offset="0.0001" stop-color="#FFE5AC"/>
<stop offset="1" stop-color="#B99C5D"/>
</linearGradient>
<linearGradient id="paint16_linear" x1="66.4151" y1="88.1206" x2="66.4151" y2="91.3605" gradientUnits="userSpaceOnUse">
<stop stop-color="#FFE5AC"/>
<stop offset="0.0001" stop-color="#FFE5AC"/>
<stop offset="1" stop-color="#B99C5D"/>
</linearGradient>
<linearGradient id="paint17_linear" x1="54.3188" y1="88.1206" x2="54.3188" y2="91.3605" gradientUnits="userSpaceOnUse">
<stop stop-color="#FFE5AC"/>
<stop offset="0.0001" stop-color="#FFE5AC"/>
<stop offset="1" stop-color="#B99C5D"/>
</linearGradient>
<linearGradient id="paint18_linear" x1="49.9998" y1="55.292" x2="49.9998" y2="70.627" gradientUnits="userSpaceOnUse">
<stop stop-color="#FFE5AC"/>
<stop offset="0.0001" stop-color="#FFE5AC"/>
<stop offset="1" stop-color="#B99C5D"/>
</linearGradient>
<linearGradient id="paint19_linear" x1="67.2791" y1="55.292" x2="67.2791" y2="70.627" gradientUnits="userSpaceOnUse">
<stop stop-color="#FFE5AC"/>
<stop offset="0.0001" stop-color="#FFE5AC"/>
<stop offset="1" stop-color="#B99C5D"/>
</linearGradient>
<linearGradient id="paint20_linear" x1="32.7215" y1="55.292" x2="32.7215" y2="70.627" gradientUnits="userSpaceOnUse">
<stop stop-color="#FFE5AC"/>
<stop offset="0.0001" stop-color="#FFE5AC"/>
<stop offset="1" stop-color="#B99C5D"/>
</linearGradient>
<clipPath id="clip0">
<rect width="100" height="100" fill="white"/>
</clipPath>
</defs>
</svg>
