<svg width="100" height="100" viewBox="0 0 100 100" fill="none" xmlns="http://www.w3.org/2000/svg">
<path d="M40.625 51.7814V45.3127C40.628 44.1684 40.2113 43.0627 39.4538 42.205C38.6964 41.3473 37.6508 40.7971 36.5149 40.6585C35.3791 40.5199 34.2318 40.8025 33.2904 41.4529C32.3489 42.1033 31.6786 43.0763 31.4062 44.1877L16.8906 50.0002H7.8125C6.57044 50.0039 5.38031 50.4989 4.50203 51.3772C3.62376 52.2555 3.12871 53.4456 3.125 54.6877V60.9377C3.12871 62.1797 3.62376 63.3699 4.50203 64.2481C5.38031 65.1264 6.57044 65.6215 7.8125 65.6252V81.2502C7.81497 82.0782 8.14501 82.8716 8.73052 83.4571C9.31604 84.0427 10.1095 84.3727 10.9375 84.3752H17.1875C18.0155 84.3727 18.809 84.0427 19.3945 83.4571C19.98 82.8716 20.31 82.0782 20.3125 81.2502V67.0002L31.4062 71.4377C31.6786 72.5491 32.3489 73.5221 33.2904 74.1724C34.2318 74.8228 35.3791 75.1055 36.5149 74.9669C37.6508 74.8282 38.6964 74.278 39.4538 73.4203C40.2113 72.5626 40.628 71.4569 40.625 70.3127V63.8439C41.9657 63.5028 43.1546 62.7246 44.0037 61.6324C44.8528 60.5401 45.3138 59.1961 45.3138 57.8127C45.3138 56.4292 44.8528 55.0852 44.0037 53.993C43.1546 52.9007 41.9657 52.1226 40.625 51.7814ZM9.375 62.5002H7.8125C7.3981 62.5002 7.00067 62.3355 6.70765 62.0425C6.41462 61.7495 6.25 61.3521 6.25 60.9377V54.6877C6.25 54.2733 6.41462 53.8758 6.70765 53.5828C7.00067 53.2898 7.3981 53.1252 7.8125 53.1252H9.375V62.5002ZM12.5 53.1252H15.625V62.5002H12.5V53.1252ZM17.1875 81.2502H10.9375V65.6252H16.8906L17.1875 65.7502V81.2502ZM31.25 68.0002L18.75 63.0002V52.6252L31.25 47.6252V68.0002ZM37.5 70.3127C37.5 70.7271 37.3354 71.1245 37.0424 71.4175C36.7493 71.7105 36.3519 71.8752 35.9375 71.8752C35.5231 71.8752 35.1257 71.7105 34.8326 71.4175C34.5396 71.1245 34.375 70.7271 34.375 70.3127V45.3127C34.375 44.8983 34.5396 44.5008 34.8326 44.2078C35.1257 43.9148 35.5231 43.7502 35.9375 43.7502C36.3519 43.7502 36.7493 43.9148 37.0424 44.2078C37.3354 44.5008 37.5 44.8983 37.5 45.3127V70.3127ZM40.625 60.5002V55.1252C41.0996 55.3952 41.4942 55.7862 41.7687 56.2582C42.0432 56.7303 42.1878 57.2666 42.1878 57.8127C42.1878 58.3587 42.0432 58.8951 41.7687 59.3671C41.4942 59.8391 41.0996 60.2301 40.625 60.5002Z" fill="black"/>
<path d="M40.625 51.7814V45.3127C40.628 44.1684 40.2113 43.0627 39.4538 42.205C38.6964 41.3473 37.6508 40.7971 36.5149 40.6585C35.3791 40.5199 34.2318 40.8025 33.2904 41.4529C32.3489 42.1033 31.6786 43.0763 31.4062 44.1877L16.8906 50.0002H7.8125C6.57044 50.0039 5.38031 50.4989 4.50203 51.3772C3.62376 52.2555 3.12871 53.4456 3.125 54.6877V60.9377C3.12871 62.1797 3.62376 63.3699 4.50203 64.2481C5.38031 65.1264 6.57044 65.6215 7.8125 65.6252V81.2502C7.81497 82.0782 8.14501 82.8716 8.73052 83.4571C9.31604 84.0427 10.1095 84.3727 10.9375 84.3752H17.1875C18.0155 84.3727 18.809 84.0427 19.3945 83.4571C19.98 82.8716 20.31 82.0782 20.3125 81.2502V67.0002L31.4062 71.4377C31.6786 72.5491 32.3489 73.5221 33.2904 74.1724C34.2318 74.8228 35.3791 75.1055 36.5149 74.9669C37.6508 74.8282 38.6964 74.278 39.4538 73.4203C40.2113 72.5626 40.628 71.4569 40.625 70.3127V63.8439C41.9657 63.5028 43.1546 62.7246 44.0037 61.6324C44.8528 60.5401 45.3138 59.1961 45.3138 57.8127C45.3138 56.4292 44.8528 55.0852 44.0037 53.993C43.1546 52.9007 41.9657 52.1226 40.625 51.7814ZM9.375 62.5002H7.8125C7.3981 62.5002 7.00067 62.3355 6.70765 62.0425C6.41462 61.7495 6.25 61.3521 6.25 60.9377V54.6877C6.25 54.2733 6.41462 53.8758 6.70765 53.5828C7.00067 53.2898 7.3981 53.1252 7.8125 53.1252H9.375V62.5002ZM12.5 53.1252H15.625V62.5002H12.5V53.1252ZM17.1875 81.2502H10.9375V65.6252H16.8906L17.1875 65.7502V81.2502ZM31.25 68.0002L18.75 63.0002V52.6252L31.25 47.6252V68.0002ZM37.5 70.3127C37.5 70.7271 37.3354 71.1245 37.0424 71.4175C36.7493 71.7105 36.3519 71.8752 35.9375 71.8752C35.5231 71.8752 35.1257 71.7105 34.8326 71.4175C34.5396 71.1245 34.375 70.7271 34.375 70.3127V45.3127C34.375 44.8983 34.5396 44.5008 34.8326 44.2078C35.1257 43.9148 35.5231 43.7502 35.9375 43.7502C36.3519 43.7502 36.7493 43.9148 37.0424 44.2078C37.3354 44.5008 37.5 44.8983 37.5 45.3127V70.3127ZM40.625 60.5002V55.1252C41.0996 55.3952 41.4942 55.7862 41.7687 56.2582C42.0432 56.7303 42.1878 57.2666 42.1878 57.8127C42.1878 58.3587 42.0432 58.8951 41.7687 59.3671C41.4942 59.8391 41.0996 60.2301 40.625 60.5002Z" fill="url(#paint0_linear)"/>
<path d="M82.8125 89.0625C82.8125 90.3057 82.3186 91.498 81.4396 92.3771C80.5605 93.2561 79.3682 93.75 78.125 93.75H21.875C20.6318 93.75 19.4395 93.2561 18.5604 92.3771C17.6814 91.498 17.1875 90.3057 17.1875 89.0625V87.5H14.0625V89.0625C14.065 91.1337 14.8889 93.1194 16.3535 94.584C17.8181 96.0486 19.8038 96.8725 21.875 96.875H78.125C80.1962 96.8725 82.1819 96.0486 83.6465 94.584C85.1111 93.1194 85.935 91.1337 85.9375 89.0625V70.3125H82.8125V89.0625Z" fill="black"/>
<path d="M82.8125 89.0625C82.8125 90.3057 82.3186 91.498 81.4396 92.3771C80.5605 93.2561 79.3682 93.75 78.125 93.75H21.875C20.6318 93.75 19.4395 93.2561 18.5604 92.3771C17.6814 91.498 17.1875 90.3057 17.1875 89.0625V87.5H14.0625V89.0625C14.065 91.1337 14.8889 93.1194 16.3535 94.584C17.8181 96.0486 19.8038 96.8725 21.875 96.875H78.125C80.1962 96.8725 82.1819 96.0486 83.6465 94.584C85.1111 93.1194 85.935 91.1337 85.9375 89.0625V70.3125H82.8125V89.0625Z" fill="url(#paint1_linear)"/>
<path d="M17.1875 10.9375C17.1875 9.6943 17.6814 8.50201 18.5604 7.62294C19.4395 6.74386 20.6318 6.25 21.875 6.25H70.3125V14.0625C70.3125 15.3057 70.8064 16.498 71.6854 17.3771C72.5645 18.2561 73.7568 18.75 75 18.75H82.8125V40.625H85.9375V17.1875C85.9374 16.7731 85.7727 16.3758 85.4797 16.0828L72.9797 3.58281C72.6867 3.28977 72.2894 3.12509 71.875 3.125H21.875C19.8038 3.12748 17.8181 3.95138 16.3535 5.41597C14.8889 6.88056 14.065 8.86626 14.0625 10.9375V46.875H17.1875V10.9375ZM73.4375 14.0625V8.45937L80.6031 15.625H75C74.5856 15.625 74.1882 15.4604 73.8951 15.1674C73.6021 14.8743 73.4375 14.4769 73.4375 14.0625Z" fill="black"/>
<path d="M17.1875 10.9375C17.1875 9.6943 17.6814 8.50201 18.5604 7.62294C19.4395 6.74386 20.6318 6.25 21.875 6.25H70.3125V14.0625C70.3125 15.3057 70.8064 16.498 71.6854 17.3771C72.5645 18.2561 73.7568 18.75 75 18.75H82.8125V40.625H85.9375V17.1875C85.9374 16.7731 85.7727 16.3758 85.4797 16.0828L72.9797 3.58281C72.6867 3.28977 72.2894 3.12509 71.875 3.125H21.875C19.8038 3.12748 17.8181 3.95138 16.3535 5.41597C14.8889 6.88056 14.065 8.86626 14.0625 10.9375V46.875H17.1875V10.9375ZM73.4375 14.0625V8.45937L80.6031 15.625H75C74.5856 15.625 74.1882 15.4604 73.8951 15.1674C73.6021 14.8743 73.4375 14.4769 73.4375 14.0625Z" fill="url(#paint2_linear)"/>
<path d="M23.4375 12.5H26.5625V15.625H23.4375V12.5Z" fill="black"/>
<path d="M23.4375 12.5H26.5625V15.625H23.4375V12.5Z" fill="url(#paint3_linear)"/>
<path d="M29.6875 12.5H39.0625V15.625H29.6875V12.5Z" fill="black"/>
<path d="M29.6875 12.5H39.0625V15.625H29.6875V12.5Z" fill="url(#paint4_linear)"/>
<path d="M23.4375 18.75H39.0625V21.875H23.4375V18.75Z" fill="black"/>
<path d="M23.4375 18.75H39.0625V21.875H23.4375V18.75Z" fill="url(#paint5_linear)"/>
<path d="M23.4375 28.125H26.5625V31.25H23.4375V28.125Z" fill="black"/>
<path d="M23.4375 28.125H26.5625V31.25H23.4375V28.125Z" fill="url(#paint6_linear)"/>
<path d="M29.6875 28.125H32.8125V31.25H29.6875V28.125Z" fill="black"/>
<path d="M29.6875 28.125H32.8125V31.25H29.6875V28.125Z" fill="url(#paint7_linear)"/>
<path d="M35.9375 28.125H39.0625V31.25H35.9375V28.125Z" fill="black"/>
<path d="M35.9375 28.125H39.0625V31.25H35.9375V28.125Z" fill="url(#paint8_linear)"/>
<path d="M42.1875 28.125H73.4375V31.25H42.1875V28.125Z" fill="black"/>
<path d="M42.1875 28.125H73.4375V31.25H42.1875V28.125Z" fill="url(#paint9_linear)"/>
<path d="M23.4375 34.375H73.4375V37.5H23.4375V34.375Z" fill="black"/>
<path d="M23.4375 34.375H73.4375V37.5H23.4375V34.375Z" fill="url(#paint10_linear)"/>
<path d="M48.4375 40.625H73.4375V43.75H48.4375V40.625Z" fill="black"/>
<path d="M48.4375 40.625H73.4375V43.75H48.4375V40.625Z" fill="url(#paint11_linear)"/>
<path d="M48.4375 46.875H73.4375V50H48.4375V46.875Z" fill="black"/>
<path d="M48.4375 46.875H73.4375V50H48.4375V46.875Z" fill="url(#paint12_linear)"/>
<path d="M48.4375 53.125H67.1875V56.25H48.4375V53.125Z" fill="black"/>
<path d="M48.4375 53.125H67.1875V56.25H48.4375V53.125Z" fill="url(#paint13_linear)"/>
<path d="M31.25 84.375H46.875V87.5H31.25V84.375Z" fill="black"/>
<path d="M31.25 84.375H46.875V87.5H31.25V84.375Z" fill="url(#paint14_linear)"/>
<path d="M31.25 78.125H46.875V81.25H31.25V78.125Z" fill="black"/>
<path d="M31.25 78.125H46.875V81.25H31.25V78.125Z" fill="url(#paint15_linear)"/>
<path d="M95.1096 43.9532C93.6433 42.4904 91.6566 41.6689 89.5854 41.6689C87.5142 41.6689 85.5275 42.4904 84.0612 43.9532L56.4393 71.5751C56.2217 71.7929 56.0733 72.0701 56.0127 72.372L55.0002 77.4329L52.0205 80.4126C51.5794 80.8465 51.2285 81.3635 50.9882 81.9337C50.7478 82.5039 50.6228 83.116 50.6202 83.7348C50.6176 84.3536 50.7375 84.9668 50.9731 85.539C51.2086 86.1111 51.5552 86.631 51.9927 87.0686C52.4302 87.5062 52.95 87.8529 53.5221 88.0886C54.0942 88.3243 54.7074 88.4444 55.3261 88.4419C55.9449 88.4395 56.5571 88.3145 57.1274 88.0743C57.6976 87.8341 58.2147 87.4834 58.6487 87.0423L61.6299 84.0626L66.6909 83.0501C66.9929 82.9891 67.2701 82.8402 67.4877 82.622L95.1096 55.0001C96.5719 53.5338 97.3931 51.5475 97.3931 49.4767C97.3931 47.4058 96.5719 45.4195 95.1096 43.9532ZM58.1362 77.6907L58.8721 74.0064L65.0549 80.1892L61.3721 80.9267L58.1362 77.6907ZM60.858 71.5751L79.6409 52.7907L81.8518 55.0001L63.069 73.7845L60.858 71.5751ZM65.2784 75.9939L84.0627 57.2111L86.2721 59.422L67.4877 78.2032L65.2784 75.9939ZM81.8518 50.5814L82.9565 49.4767L89.5862 56.1064L88.4799 57.2126L81.8518 50.5814ZM56.4377 84.8329C56.1404 85.1169 55.745 85.2753 55.3338 85.2753C54.9227 85.2753 54.5273 85.1169 54.2299 84.8329C54.0846 84.6878 53.9694 84.5155 53.8908 84.3258C53.8121 84.1361 53.7717 83.9328 53.7717 83.7275C53.7717 83.5221 53.8121 83.3188 53.8908 83.1291C53.9694 82.9394 54.0846 82.7671 54.2299 82.622L56.4393 80.4126L58.6502 82.6236L56.4377 84.8329ZM92.9002 52.7923L91.7955 53.897L85.1659 47.2673L86.2705 46.1626C86.7059 45.7273 87.2226 45.382 87.7914 45.1464C88.3602 44.9108 88.9698 44.7896 89.5854 44.7896C90.201 44.7896 90.8106 44.9108 91.3794 45.1464C91.9481 45.382 92.4649 45.7273 92.9002 46.1626C93.3355 46.5979 93.6809 47.1147 93.9164 47.6835C94.152 48.2522 94.2733 48.8618 94.2733 49.4775C94.2733 50.0931 94.152 50.7027 93.9164 51.2714C93.6809 51.8402 93.3355 52.357 92.9002 52.7923Z" fill="black"/>
<path d="M95.1096 43.9532C93.6433 42.4904 91.6566 41.6689 89.5854 41.6689C87.5142 41.6689 85.5275 42.4904 84.0612 43.9532L56.4393 71.5751C56.2217 71.7929 56.0733 72.0701 56.0127 72.372L55.0002 77.4329L52.0205 80.4126C51.5794 80.8465 51.2285 81.3635 50.9882 81.9337C50.7478 82.5039 50.6228 83.116 50.6202 83.7348C50.6176 84.3536 50.7375 84.9668 50.9731 85.539C51.2086 86.1111 51.5552 86.631 51.9927 87.0686C52.4302 87.5062 52.95 87.8529 53.5221 88.0886C54.0942 88.3243 54.7074 88.4444 55.3261 88.4419C55.9449 88.4395 56.5571 88.3145 57.1274 88.0743C57.6976 87.8341 58.2147 87.4834 58.6487 87.0423L61.6299 84.0626L66.6909 83.0501C66.9929 82.9891 67.2701 82.8402 67.4877 82.622L95.1096 55.0001C96.5719 53.5338 97.3931 51.5475 97.3931 49.4767C97.3931 47.4058 96.5719 45.4195 95.1096 43.9532ZM58.1362 77.6907L58.8721 74.0064L65.0549 80.1892L61.3721 80.9267L58.1362 77.6907ZM60.858 71.5751L79.6409 52.7907L81.8518 55.0001L63.069 73.7845L60.858 71.5751ZM65.2784 75.9939L84.0627 57.2111L86.2721 59.422L67.4877 78.2032L65.2784 75.9939ZM81.8518 50.5814L82.9565 49.4767L89.5862 56.1064L88.4799 57.2126L81.8518 50.5814ZM56.4377 84.8329C56.1404 85.1169 55.745 85.2753 55.3338 85.2753C54.9227 85.2753 54.5273 85.1169 54.2299 84.8329C54.0846 84.6878 53.9694 84.5155 53.8908 84.3258C53.8121 84.1361 53.7717 83.9328 53.7717 83.7275C53.7717 83.5221 53.8121 83.3188 53.8908 83.1291C53.9694 82.9394 54.0846 82.7671 54.2299 82.622L56.4393 80.4126L58.6502 82.6236L56.4377 84.8329ZM92.9002 52.7923L91.7955 53.897L85.1659 47.2673L86.2705 46.1626C86.7059 45.7273 87.2226 45.382 87.7914 45.1464C88.3602 44.9108 88.9698 44.7896 89.5854 44.7896C90.201 44.7896 90.8106 44.9108 91.3794 45.1464C91.9481 45.382 92.4649 45.7273 92.9002 46.1626C93.3355 46.5979 93.6809 47.1147 93.9164 47.6835C94.152 48.2522 94.2733 48.8618 94.2733 49.4775C94.2733 50.0931 94.152 50.7027 93.9164 51.2714C93.6809 51.8402 93.3355 52.357 92.9002 52.7923Z" fill="url(#paint16_linear)"/>
<defs>
<linearGradient id="paint0_linear" x1="24.2194" y1="40.624" x2="24.2194" y2="84.3752" gradientUnits="userSpaceOnUse">
<stop stop-color="#FFE5AC"/>
<stop offset="0.0001" stop-color="#FFE5AC"/>
<stop offset="1" stop-color="#B99C5D"/>
</linearGradient>
<linearGradient id="paint1_linear" x1="50" y1="70.3125" x2="50" y2="96.875" gradientUnits="userSpaceOnUse">
<stop stop-color="#FFE5AC"/>
<stop offset="0.0001" stop-color="#FFE5AC"/>
<stop offset="1" stop-color="#B99C5D"/>
</linearGradient>
<linearGradient id="paint2_linear" x1="50" y1="3.125" x2="50" y2="46.875" gradientUnits="userSpaceOnUse">
<stop stop-color="#FFE5AC"/>
<stop offset="0.0001" stop-color="#FFE5AC"/>
<stop offset="1" stop-color="#B99C5D"/>
</linearGradient>
<linearGradient id="paint3_linear" x1="25" y1="12.5" x2="25" y2="15.625" gradientUnits="userSpaceOnUse">
<stop stop-color="#FFE5AC"/>
<stop offset="0.0001" stop-color="#FFE5AC"/>
<stop offset="1" stop-color="#B99C5D"/>
</linearGradient>
<linearGradient id="paint4_linear" x1="34.375" y1="12.5" x2="34.375" y2="15.625" gradientUnits="userSpaceOnUse">
<stop stop-color="#FFE5AC"/>
<stop offset="0.0001" stop-color="#FFE5AC"/>
<stop offset="1" stop-color="#B99C5D"/>
</linearGradient>
<linearGradient id="paint5_linear" x1="31.25" y1="18.75" x2="31.25" y2="21.875" gradientUnits="userSpaceOnUse">
<stop stop-color="#FFE5AC"/>
<stop offset="0.0001" stop-color="#FFE5AC"/>
<stop offset="1" stop-color="#B99C5D"/>
</linearGradient>
<linearGradient id="paint6_linear" x1="25" y1="28.125" x2="25" y2="31.25" gradientUnits="userSpaceOnUse">
<stop stop-color="#FFE5AC"/>
<stop offset="0.0001" stop-color="#FFE5AC"/>
<stop offset="1" stop-color="#B99C5D"/>
</linearGradient>
<linearGradient id="paint7_linear" x1="31.25" y1="28.125" x2="31.25" y2="31.25" gradientUnits="userSpaceOnUse">
<stop stop-color="#FFE5AC"/>
<stop offset="0.0001" stop-color="#FFE5AC"/>
<stop offset="1" stop-color="#B99C5D"/>
</linearGradient>
<linearGradient id="paint8_linear" x1="37.5" y1="28.125" x2="37.5" y2="31.25" gradientUnits="userSpaceOnUse">
<stop stop-color="#FFE5AC"/>
<stop offset="0.0001" stop-color="#FFE5AC"/>
<stop offset="1" stop-color="#B99C5D"/>
</linearGradient>
<linearGradient id="paint9_linear" x1="57.8125" y1="28.125" x2="57.8125" y2="31.25" gradientUnits="userSpaceOnUse">
<stop stop-color="#FFE5AC"/>
<stop offset="0.0001" stop-color="#FFE5AC"/>
<stop offset="1" stop-color="#B99C5D"/>
</linearGradient>
<linearGradient id="paint10_linear" x1="48.4375" y1="34.375" x2="48.4375" y2="37.5" gradientUnits="userSpaceOnUse">
<stop stop-color="#FFE5AC"/>
<stop offset="0.0001" stop-color="#FFE5AC"/>
<stop offset="1" stop-color="#B99C5D"/>
</linearGradient>
<linearGradient id="paint11_linear" x1="60.9375" y1="40.625" x2="60.9375" y2="43.75" gradientUnits="userSpaceOnUse">
<stop stop-color="#FFE5AC"/>
<stop offset="0.0001" stop-color="#FFE5AC"/>
<stop offset="1" stop-color="#B99C5D"/>
</linearGradient>
<linearGradient id="paint12_linear" x1="60.9375" y1="46.875" x2="60.9375" y2="50" gradientUnits="userSpaceOnUse">
<stop stop-color="#FFE5AC"/>
<stop offset="0.0001" stop-color="#FFE5AC"/>
<stop offset="1" stop-color="#B99C5D"/>
</linearGradient>
<linearGradient id="paint13_linear" x1="57.8125" y1="53.125" x2="57.8125" y2="56.25" gradientUnits="userSpaceOnUse">
<stop stop-color="#FFE5AC"/>
<stop offset="0.0001" stop-color="#FFE5AC"/>
<stop offset="1" stop-color="#B99C5D"/>
</linearGradient>
<linearGradient id="paint14_linear" x1="39.0625" y1="84.375" x2="39.0625" y2="87.5" gradientUnits="userSpaceOnUse">
<stop stop-color="#FFE5AC"/>
<stop offset="0.0001" stop-color="#FFE5AC"/>
<stop offset="1" stop-color="#B99C5D"/>
</linearGradient>
<linearGradient id="paint15_linear" x1="39.0625" y1="78.125" x2="39.0625" y2="81.25" gradientUnits="userSpaceOnUse">
<stop stop-color="#FFE5AC"/>
<stop offset="0.0001" stop-color="#FFE5AC"/>
<stop offset="1" stop-color="#B99C5D"/>
</linearGradient>
<linearGradient id="paint16_linear" x1="74.0066" y1="41.6689" x2="74.0066" y2="88.442" gradientUnits="userSpaceOnUse">
<stop stop-color="#FFE5AC"/>
<stop offset="0.0001" stop-color="#FFE5AC"/>
<stop offset="1" stop-color="#B99C5D"/>
</linearGradient>
</defs>
</svg>
