<svg width="100" height="100" viewBox="0 0 100 100" fill="none" xmlns="http://www.w3.org/2000/svg">
<path d="M89.0625 18.75H56.25V21.875H89.0625C90.3057 21.875 91.498 22.3689 92.3771 23.2479C93.2561 24.127 93.75 25.3193 93.75 26.5625V62.5H21.875V56.25H18.75V70.3125C18.7525 72.3837 19.5764 74.3694 21.041 75.834C22.5056 77.2986 24.4913 78.1225 26.5625 78.125H45.1047L43.9328 87.5H42.1875C40.9443 87.5 39.752 87.9939 38.8729 88.8729C37.9939 89.752 37.5 90.9443 37.5 92.1875C37.5 93.4307 37.9939 94.623 38.8729 95.5021C39.752 96.3811 40.9443 96.875 42.1875 96.875H73.4375C74.6807 96.875 75.873 96.3811 76.7521 95.5021C77.6311 94.623 78.125 93.4307 78.125 92.1875C78.125 90.9443 77.6311 89.752 76.7521 88.8729C75.873 87.9939 74.6807 87.5 73.4375 87.5H71.6922L70.5203 78.125H89.0625C91.1337 78.1225 93.1194 77.2986 94.584 75.834C96.0486 74.3694 96.8725 72.3837 96.875 70.3125V26.5625C96.8725 24.4913 96.0486 22.5056 94.584 21.041C93.1194 19.5764 91.1337 18.7525 89.0625 18.75ZM75 92.1875C75 92.6019 74.8354 92.9993 74.5424 93.2924C74.2493 93.5854 73.8519 93.75 73.4375 93.75H42.1875C41.7731 93.75 41.3757 93.5854 41.0826 93.2924C40.7896 92.9993 40.625 92.6019 40.625 92.1875C40.625 91.7731 40.7896 91.3757 41.0826 91.0826C41.3757 90.7896 41.7731 90.625 42.1875 90.625H73.4375C73.8519 90.625 74.2493 90.7896 74.5424 91.0826C74.8354 91.3757 75 91.7731 75 92.1875ZM68.5422 87.5H47.0828L48.2547 78.125H67.3703L68.5422 87.5ZM89.0625 75H26.5625C25.3193 75 24.127 74.5061 23.2479 73.6271C22.3689 72.748 21.875 71.5557 21.875 70.3125V65.625H93.75V70.3125C93.75 71.5557 93.2561 72.748 92.3771 73.6271C91.498 74.5061 90.3057 75 89.0625 75Z" fill="black"/>
<path d="M89.0625 18.75H56.25V21.875H89.0625C90.3057 21.875 91.498 22.3689 92.3771 23.2479C93.2561 24.127 93.75 25.3193 93.75 26.5625V62.5H21.875V56.25H18.75V70.3125C18.7525 72.3837 19.5764 74.3694 21.041 75.834C22.5056 77.2986 24.4913 78.1225 26.5625 78.125H45.1047L43.9328 87.5H42.1875C40.9443 87.5 39.752 87.9939 38.8729 88.8729C37.9939 89.752 37.5 90.9443 37.5 92.1875C37.5 93.4307 37.9939 94.623 38.8729 95.5021C39.752 96.3811 40.9443 96.875 42.1875 96.875H73.4375C74.6807 96.875 75.873 96.3811 76.7521 95.5021C77.6311 94.623 78.125 93.4307 78.125 92.1875C78.125 90.9443 77.6311 89.752 76.7521 88.8729C75.873 87.9939 74.6807 87.5 73.4375 87.5H71.6922L70.5203 78.125H89.0625C91.1337 78.1225 93.1194 77.2986 94.584 75.834C96.0486 74.3694 96.8725 72.3837 96.875 70.3125V26.5625C96.8725 24.4913 96.0486 22.5056 94.584 21.041C93.1194 19.5764 91.1337 18.7525 89.0625 18.75ZM75 92.1875C75 92.6019 74.8354 92.9993 74.5424 93.2924C74.2493 93.5854 73.8519 93.75 73.4375 93.75H42.1875C41.7731 93.75 41.3757 93.5854 41.0826 93.2924C40.7896 92.9993 40.625 92.6019 40.625 92.1875C40.625 91.7731 40.7896 91.3757 41.0826 91.0826C41.3757 90.7896 41.7731 90.625 42.1875 90.625H73.4375C73.8519 90.625 74.2493 90.7896 74.5424 91.0826C74.8354 91.3757 75 91.7731 75 92.1875ZM68.5422 87.5H47.0828L48.2547 78.125H67.3703L68.5422 87.5ZM89.0625 75H26.5625C25.3193 75 24.127 74.5061 23.2479 73.6271C22.3689 72.748 21.875 71.5557 21.875 70.3125V65.625H93.75V70.3125C93.75 71.5557 93.2561 72.748 92.3771 73.6271C91.498 74.5061 90.3057 75 89.0625 75Z" fill="url(#paint0_linear)"/>
<path d="M84.375 68.75H87.5V71.875H84.375V68.75Z" fill="black"/>
<path d="M84.375 68.75H87.5V71.875H84.375V68.75Z" fill="url(#paint1_linear)"/>
<path d="M53.125 48.4375V7.8125C53.125 6.5693 52.6311 5.37701 51.7521 4.49794C50.873 3.61886 49.6807 3.125 48.4375 3.125H7.8125C6.5693 3.125 5.37701 3.61886 4.49794 4.49794C3.61886 5.37701 3.125 6.5693 3.125 7.8125V48.4375C3.125 49.6807 3.61886 50.873 4.49794 51.7521C5.37701 52.6311 6.5693 53.125 7.8125 53.125H48.4375C49.6807 53.125 50.873 52.6311 51.7521 51.7521C52.6311 50.873 53.125 49.6807 53.125 48.4375ZM7.8125 6.25H48.4375C48.8519 6.25 49.2493 6.41462 49.5424 6.70765C49.8354 7.00067 50 7.3981 50 7.8125V12.5H6.25V7.8125C6.25 7.3981 6.41462 7.00067 6.70765 6.70765C7.00067 6.41462 7.3981 6.25 7.8125 6.25ZM6.25 48.4375V15.625H50V48.4375C50 48.8519 49.8354 49.2493 49.5424 49.5424C49.2493 49.8354 48.8519 50 48.4375 50H7.8125C7.3981 50 7.00067 49.8354 6.70765 49.5424C6.41462 49.2493 6.25 48.8519 6.25 48.4375Z" fill="black"/>
<path d="M53.125 48.4375V7.8125C53.125 6.5693 52.6311 5.37701 51.7521 4.49794C50.873 3.61886 49.6807 3.125 48.4375 3.125H7.8125C6.5693 3.125 5.37701 3.61886 4.49794 4.49794C3.61886 5.37701 3.125 6.5693 3.125 7.8125V48.4375C3.125 49.6807 3.61886 50.873 4.49794 51.7521C5.37701 52.6311 6.5693 53.125 7.8125 53.125H48.4375C49.6807 53.125 50.873 52.6311 51.7521 51.7521C52.6311 50.873 53.125 49.6807 53.125 48.4375ZM7.8125 6.25H48.4375C48.8519 6.25 49.2493 6.41462 49.5424 6.70765C49.8354 7.00067 50 7.3981 50 7.8125V12.5H6.25V7.8125C6.25 7.3981 6.41462 7.00067 6.70765 6.70765C7.00067 6.41462 7.3981 6.25 7.8125 6.25ZM6.25 48.4375V15.625H50V48.4375C50 48.8519 49.8354 49.2493 49.5424 49.5424C49.2493 49.8354 48.8519 50 48.4375 50H7.8125C7.3981 50 7.00067 49.8354 6.70765 49.5424C6.41462 49.2493 6.25 48.8519 6.25 48.4375Z" fill="url(#paint2_linear)"/>
<path d="M9.375 7.8125H12.5V10.9375H9.375V7.8125Z" fill="black"/>
<path d="M9.375 7.8125H12.5V10.9375H9.375V7.8125Z" fill="url(#paint3_linear)"/>
<path d="M15.625 7.8125H18.75V10.9375H15.625V7.8125Z" fill="black"/>
<path d="M15.625 7.8125H18.75V10.9375H15.625V7.8125Z" fill="url(#paint4_linear)"/>
<path d="M21.875 7.8125H25V10.9375H21.875V7.8125Z" fill="black"/>
<path d="M21.875 7.8125H25V10.9375H21.875V7.8125Z" fill="url(#paint5_linear)"/>
<path d="M40.625 31.25H37.5V42.1875H34.375V21.875H31.25V42.1875H28.125V28.125H25V42.1875H21.875V34.375H18.75V42.1875H15.625V45.3125H43.75V42.1875H40.625V31.25Z" fill="black"/>
<path d="M40.625 31.25H37.5V42.1875H34.375V21.875H31.25V42.1875H28.125V28.125H25V42.1875H21.875V34.375H18.75V42.1875H15.625V45.3125H43.75V42.1875H40.625V31.25Z" fill="url(#paint6_linear)"/>
<path d="M9.375 20.3125H18.75V23.4375H9.375V20.3125Z" fill="black"/>
<path d="M9.375 20.3125H18.75V23.4375H9.375V20.3125Z" fill="url(#paint7_linear)"/>
<path d="M9.375 26.5625H18.75V29.6875H9.375V26.5625Z" fill="black"/>
<path d="M9.375 26.5625H18.75V29.6875H9.375V26.5625Z" fill="url(#paint8_linear)"/>
<path d="M60.9375 28.125H64.0625V31.25H60.9375V28.125Z" fill="black"/>
<path d="M60.9375 28.125H64.0625V31.25H60.9375V28.125Z" fill="url(#paint9_linear)"/>
<path d="M67.1875 28.125H85.9375V31.25H67.1875V28.125Z" fill="black"/>
<path d="M67.1875 28.125H85.9375V31.25H67.1875V28.125Z" fill="url(#paint10_linear)"/>
<path d="M60.9375 34.375H85.9375V37.5H60.9375V34.375Z" fill="black"/>
<path d="M60.9375 34.375H85.9375V37.5H60.9375V34.375Z" fill="url(#paint11_linear)"/>
<path d="M60.9375 40.625H85.9375V43.75H60.9375V40.625Z" fill="black"/>
<path d="M60.9375 40.625H85.9375V43.75H60.9375V40.625Z" fill="url(#paint12_linear)"/>
<path d="M60.9375 46.875H79.6875V50H60.9375V46.875Z" fill="black"/>
<path d="M60.9375 46.875H79.6875V50H60.9375V46.875Z" fill="url(#paint13_linear)"/>
<path d="M82.8125 46.875H85.9375V50H82.8125V46.875Z" fill="black"/>
<path d="M82.8125 46.875H85.9375V50H82.8125V46.875Z" fill="url(#paint14_linear)"/>
<defs>
<linearGradient id="paint0_linear" x1="57.8125" y1="18.75" x2="57.8125" y2="96.875" gradientUnits="userSpaceOnUse">
<stop stop-color="#FFE5AC"/>
<stop offset="0.0001" stop-color="#FFE5AC"/>
<stop offset="1" stop-color="#B99C5D"/>
</linearGradient>
<linearGradient id="paint1_linear" x1="85.9375" y1="68.75" x2="85.9375" y2="71.875" gradientUnits="userSpaceOnUse">
<stop stop-color="#FFE5AC"/>
<stop offset="0.0001" stop-color="#FFE5AC"/>
<stop offset="1" stop-color="#B99C5D"/>
</linearGradient>
<linearGradient id="paint2_linear" x1="28.125" y1="3.125" x2="28.125" y2="53.125" gradientUnits="userSpaceOnUse">
<stop stop-color="#FFE5AC"/>
<stop offset="0.0001" stop-color="#FFE5AC"/>
<stop offset="1" stop-color="#B99C5D"/>
</linearGradient>
<linearGradient id="paint3_linear" x1="10.9375" y1="7.8125" x2="10.9375" y2="10.9375" gradientUnits="userSpaceOnUse">
<stop stop-color="#FFE5AC"/>
<stop offset="0.0001" stop-color="#FFE5AC"/>
<stop offset="1" stop-color="#B99C5D"/>
</linearGradient>
<linearGradient id="paint4_linear" x1="17.1875" y1="7.8125" x2="17.1875" y2="10.9375" gradientUnits="userSpaceOnUse">
<stop stop-color="#FFE5AC"/>
<stop offset="0.0001" stop-color="#FFE5AC"/>
<stop offset="1" stop-color="#B99C5D"/>
</linearGradient>
<linearGradient id="paint5_linear" x1="23.4375" y1="7.8125" x2="23.4375" y2="10.9375" gradientUnits="userSpaceOnUse">
<stop stop-color="#FFE5AC"/>
<stop offset="0.0001" stop-color="#FFE5AC"/>
<stop offset="1" stop-color="#B99C5D"/>
</linearGradient>
<linearGradient id="paint6_linear" x1="29.6875" y1="21.875" x2="29.6875" y2="45.3125" gradientUnits="userSpaceOnUse">
<stop stop-color="#FFE5AC"/>
<stop offset="0.0001" stop-color="#FFE5AC"/>
<stop offset="1" stop-color="#B99C5D"/>
</linearGradient>
<linearGradient id="paint7_linear" x1="14.0625" y1="20.3125" x2="14.0625" y2="23.4375" gradientUnits="userSpaceOnUse">
<stop stop-color="#FFE5AC"/>
<stop offset="0.0001" stop-color="#FFE5AC"/>
<stop offset="1" stop-color="#B99C5D"/>
</linearGradient>
<linearGradient id="paint8_linear" x1="14.0625" y1="26.5625" x2="14.0625" y2="29.6875" gradientUnits="userSpaceOnUse">
<stop stop-color="#FFE5AC"/>
<stop offset="0.0001" stop-color="#FFE5AC"/>
<stop offset="1" stop-color="#B99C5D"/>
</linearGradient>
<linearGradient id="paint9_linear" x1="62.5" y1="28.125" x2="62.5" y2="31.25" gradientUnits="userSpaceOnUse">
<stop stop-color="#FFE5AC"/>
<stop offset="0.0001" stop-color="#FFE5AC"/>
<stop offset="1" stop-color="#B99C5D"/>
</linearGradient>
<linearGradient id="paint10_linear" x1="76.5625" y1="28.125" x2="76.5625" y2="31.25" gradientUnits="userSpaceOnUse">
<stop stop-color="#FFE5AC"/>
<stop offset="0.0001" stop-color="#FFE5AC"/>
<stop offset="1" stop-color="#B99C5D"/>
</linearGradient>
<linearGradient id="paint11_linear" x1="73.4375" y1="34.375" x2="73.4375" y2="37.5" gradientUnits="userSpaceOnUse">
<stop stop-color="#FFE5AC"/>
<stop offset="0.0001" stop-color="#FFE5AC"/>
<stop offset="1" stop-color="#B99C5D"/>
</linearGradient>
<linearGradient id="paint12_linear" x1="73.4375" y1="40.625" x2="73.4375" y2="43.75" gradientUnits="userSpaceOnUse">
<stop stop-color="#FFE5AC"/>
<stop offset="0.0001" stop-color="#FFE5AC"/>
<stop offset="1" stop-color="#B99C5D"/>
</linearGradient>
<linearGradient id="paint13_linear" x1="70.3125" y1="46.875" x2="70.3125" y2="50" gradientUnits="userSpaceOnUse">
<stop stop-color="#FFE5AC"/>
<stop offset="0.0001" stop-color="#FFE5AC"/>
<stop offset="1" stop-color="#B99C5D"/>
</linearGradient>
<linearGradient id="paint14_linear" x1="84.375" y1="46.875" x2="84.375" y2="50" gradientUnits="userSpaceOnUse">
<stop stop-color="#FFE5AC"/>
<stop offset="0.0001" stop-color="#FFE5AC"/>
<stop offset="1" stop-color="#B99C5D"/>
</linearGradient>
</defs>
</svg>
