<svg width="100" height="100" viewBox="0 0 100 100" fill="none" xmlns="http://www.w3.org/2000/svg">
<path d="M100 41.9355H96.3757L90.9739 44.7778C90.3659 44.4423 89.7335 44.158 89.0515 43.9871L82.2565 42.2867V41.5141C85.2626 39.4161 87.0968 35.9501 87.0968 32.2581V29.4386C87.0968 23.1729 82.1872 17.9294 76.153 17.7467C75.8466 17.7388 75.545 17.7498 75.2418 17.7648L77.0035 13.6404L68.4625 5.10175L63.4277 8.37875C61.5148 7.30138 59.4916 6.46264 57.3904 5.87434L56.1468 0H43.8547L42.6112 5.87591C40.51 6.46421 38.4852 7.30296 36.5738 8.38032L31.539 5.10333L23.0051 13.6372L24.737 17.7648C24.6708 17.7616 24.6078 17.7498 24.5416 17.7482C21.4529 17.6585 18.5437 18.7854 16.3338 20.9307C14.1208 23.0744 12.9032 25.9514 12.9032 29.0323V32.2581C12.9032 35.9501 14.7359 39.4145 17.7419 41.5126V42.2867L13.3096 43.3948L5.2758 38.7097H0V72.131L15.8676 77.4194H18.9579L19.3438 76.0679L24.2077 78.9874C24.2873 81.632 26.4081 83.7599 29.0504 83.8529C29.1433 86.4841 31.2579 88.5986 33.8891 88.6916C33.982 91.3228 36.0966 93.4373 38.7278 93.5303C38.8239 96.2229 41.029 98.3871 43.7437 98.3871C44.7518 98.3871 45.7401 98.0729 46.571 97.5129L47.9996 98.7746C48.8951 99.5629 50.048 100 51.2451 100H51.5436C54.2276 100 56.4114 97.8303 56.4453 95.155C59.1001 95.1211 61.2502 92.9711 61.284 90.3163C63.9404 90.2824 66.092 88.1293 66.1227 85.4728C68.8036 85.4098 70.9677 83.2197 70.9677 80.5239C70.9677 80.3616 70.9599 80.2018 70.9433 80.0403L100 65.5132V41.9355ZM83.871 29.4386V32.2581C83.871 35.1208 82.3242 37.7953 79.834 39.2373L79.0275 39.7036L79.0338 44.8077L87.092 46.8207L69.3548 56.1563V51.8114C69.3548 49.6432 68.4791 47.6578 67.045 46.1906L72.5806 44.8077V39.6996L71.7758 39.2342C69.2871 37.7953 67.7419 35.1208 67.7419 32.2581V29.0323C67.7419 26.8326 68.6114 24.7755 70.192 23.2438C71.771 21.7128 73.8659 20.8874 76.0561 20.9725C80.3648 21.1016 83.871 24.9 83.871 29.4386ZM52.432 54.8883L45.1306 52.5548C41.8032 51.4885 38.2017 51.3294 34.7956 52.0839L33.871 52.2886V51.8114C33.871 49.5873 35.3791 47.6562 37.5354 47.116L46.7742 44.8077V39.6996L45.9693 39.2342C43.4807 37.7953 41.9355 35.1208 41.9355 32.2581V29.0323C41.9355 26.8326 42.8049 24.7755 44.3856 23.2438C45.9646 21.7128 48.0729 20.8874 50.2497 20.9725C54.5583 21.1016 58.0645 24.9 58.0645 29.4386V32.2581C58.0645 35.1208 56.5178 37.7953 54.0275 39.2373L53.2211 39.7036L53.2274 44.8077L62.4646 47.116C64.6209 47.6562 66.129 49.5873 66.129 51.8114V57.855L65.7305 58.0645H64.7422L54.8261 55.2309C54.0449 55.0096 53.24 54.919 52.432 54.8883ZM34.2325 24.14C37.2614 18.2712 43.3578 14.5161 50 14.5161C56.5792 14.5161 62.6496 18.2208 65.7014 24.01C64.9335 25.5497 64.5161 27.2548 64.5161 29.0323V32.2581C64.5161 35.9501 66.3488 39.4145 69.3548 41.5126V42.2867L62.9032 43.902L56.45 42.2867V41.5141C59.4561 39.4161 61.2903 35.9501 61.2903 32.2581V29.4386C61.2903 23.1729 56.3807 17.9294 50.3465 17.7467C47.2593 17.6561 44.3485 18.7839 42.1387 20.9292C39.9272 23.0744 38.7097 25.9514 38.7097 29.0323V32.2581C38.7097 35.9501 40.5423 39.4145 43.5484 41.5126V42.2867L37.0968 43.902L30.6436 42.2867V41.5141C33.6497 39.4161 35.4839 35.9501 35.4839 32.2581V29.4386C35.4839 27.5406 35.0271 25.7387 34.2325 24.14ZM26.8145 14.3854L31.9675 9.23245L36.503 12.1842L37.3708 11.6518C39.5453 10.3193 41.8953 9.3435 44.3548 8.7552L45.3472 8.51736L46.4694 3.22581H53.5322L54.6513 8.51578L55.6436 8.75284C58.1031 9.34192 60.4532 10.3177 62.6276 11.6502L63.4955 12.1826L68.031 9.23088L73.1776 14.3791L71.3481 18.6626C70.103 19.1981 68.9485 19.9518 67.9436 20.926C67.8774 20.9906 67.8207 21.0599 67.7561 21.126C63.9562 15.0855 57.2384 11.2903 50 11.2903C42.7096 11.2903 35.9729 15.121 32.1825 21.2229C31.1681 20.1613 29.9616 19.3013 28.6243 18.7004L26.8145 14.3854ZM20.9677 44.8077V39.6996L20.1629 39.2342C17.6742 37.7953 16.129 35.1208 16.129 32.2581V29.0323C16.129 26.8326 16.9985 24.7755 18.5791 23.2438C20.1581 21.7128 22.2577 20.8874 24.4432 20.9725C28.7519 21.1016 32.2581 24.9 32.2581 29.4386V32.2581C32.2581 35.1208 30.7113 37.7953 28.2211 39.2373L27.4146 39.7036L27.4209 44.8077L32.955 46.1906C31.5209 47.6578 30.6452 49.6432 30.6452 51.8114V53.0061L25.6143 54.1244L25.745 53.6676L25.8065 50.6867L17.3001 45.7244L20.9677 44.8077ZM3.22581 41.9355H4.40162L16.0014 48.7013L10.1484 72.1128L3.22581 69.8045V41.9355ZM16.3905 74.1936L13.2159 73.1359L18.902 50.3938L22.5806 52.5391V52.9998L16.526 74.1936H16.3905ZM27.4194 78.8369C27.4194 78.3613 27.6115 77.895 27.9486 77.558L30.7838 74.7228C31.1208 74.3857 31.5871 74.1936 32.0628 74.1936C33.0598 74.1936 33.871 75.0047 33.871 76.0018C33.871 76.4774 33.6788 76.9437 33.3417 77.2807L30.5066 80.1159C30.1695 80.453 29.7033 80.6452 29.2276 80.6452C28.2305 80.6452 27.4194 79.834 27.4194 78.8369ZM32.2581 83.6757C32.2581 83.2 32.4502 82.7337 32.7873 82.3967L35.6225 79.5615C35.9596 79.2244 36.4258 79.0323 36.9015 79.0323C37.8985 79.0323 38.7097 79.8434 38.7097 80.8405C38.7097 81.3162 38.5175 81.7824 38.1804 82.1195L35.3453 84.9546C35.0082 85.2917 34.542 85.4839 34.0663 85.4839C33.0692 85.4839 32.2581 84.6727 32.2581 83.6757ZM37.0968 88.5144C37.0968 88.0387 37.2889 87.5725 37.626 87.2354L40.4612 84.4002C40.7983 84.0631 41.2645 83.871 41.7402 83.871C42.7372 83.871 43.5484 84.6821 43.5484 85.6792C43.5484 86.1549 43.3562 86.6211 43.0192 86.9582L40.184 89.7934C39.8469 90.1304 39.3807 90.3226 38.905 90.3226C37.908 90.3226 37.0968 89.5114 37.0968 88.5144ZM43.7437 95.1613C42.7467 95.1613 41.9355 94.3501 41.9355 93.3531C41.9355 92.8774 42.1276 92.4112 42.4647 92.0741L45.2999 89.2389C45.637 88.9018 46.1032 88.7097 46.5789 88.7097C47.5759 88.7097 48.3871 89.5209 48.3871 90.5179C48.3871 90.9936 48.1949 91.4598 47.8579 91.7969L45.0227 94.6321C44.6856 94.9691 44.2194 95.1613 43.7437 95.1613ZM51.5436 96.7742H51.2451C50.834 96.7742 50.4402 96.6246 50.1339 96.3529L48.9274 95.2889L50.1386 94.0776C50.571 93.6453 50.9065 93.131 51.1545 92.5789L52.621 93.7996C53.0045 94.1194 53.2258 94.5903 53.2258 95.092C53.2258 96.0197 52.4713 96.7742 51.5436 96.7742ZM66.0078 82.2581H65.729C65.3242 82.2581 64.9288 82.1147 64.6193 81.8548L55.8728 74.5661L53.8062 77.0453L62.3 84.1222C62.6819 84.4419 62.9032 84.9129 62.9032 85.4146C62.9032 86.3423 62.1488 87.0968 61.221 87.0968H60.869C60.4776 87.0968 60.0948 86.9582 59.7932 86.7061L51.0325 79.4063L48.9659 81.8856L57.4597 88.9633C57.8432 89.2807 58.0645 89.7516 58.0645 90.2533C58.0645 91.181 57.31 91.9355 56.3823 91.9355C55.7633 91.9355 55.16 91.7158 54.6851 91.3212L51.0852 88.3206C50.2922 86.6999 48.6627 85.5697 46.7545 85.502C46.6616 82.8708 44.547 80.7562 41.9158 80.6633C41.8229 78.0321 39.7083 75.9175 37.0771 75.8246C36.9826 73.1319 34.7774 70.9677 32.0628 70.9677C30.7373 70.9677 29.4402 71.5049 28.503 72.442L25.6678 75.2772C25.4985 75.4465 25.3583 75.6387 25.2158 75.8293L20.2613 72.8563L24.6047 57.655L35.4933 55.2341C38.3498 54.5954 41.3614 54.734 44.1469 55.6255L46.523 56.3855L38.4679 60.413C36.6274 61.3352 35.4839 63.1867 35.4839 65.2454V65.5644C35.4839 68.5437 37.908 70.9677 40.8873 70.9677C41.8662 70.9677 42.8294 70.7016 43.6665 70.1967L49.6724 66.5953C50.8789 65.8723 52.4981 66.0306 53.54 66.9678L67.1678 79.2323C67.5324 79.5631 67.7419 80.0324 67.7419 80.5239C67.7419 81.4808 66.9646 82.2581 66.0078 82.2581ZM96.7742 63.5191L69.6013 77.1067C69.5131 77.013 69.421 76.924 69.3241 76.8374L55.6987 64.5728C54.5048 63.4955 52.9612 62.9032 51.353 62.9032C50.1772 62.9032 49.0227 63.223 48.0114 63.8294L42.0032 67.4324C41.6661 67.6356 41.281 67.7419 40.8873 67.7419C39.6855 67.7419 38.7097 66.7662 38.7097 65.5644V65.2454C38.7097 64.4145 39.1712 63.6695 39.9131 63.2986L48.91 58.8001C50.4497 58.0291 52.2776 57.8566 53.937 58.3339L64.0727 61.2289L66.5275 61.2903L96.7742 45.3708V63.5191Z" fill="url(#paint0_linear)"/>
<defs>
<linearGradient id="paint0_linear" x1="50" y1="0" x2="50" y2="100" gradientUnits="userSpaceOnUse">
<stop stop-color="#FFE5AC"/>
<stop offset="1" stop-color="#B99C5D"/>
</linearGradient>
</defs>
</svg>
