<svg width="100" height="100" viewBox="0 0 100 100" fill="none" xmlns="http://www.w3.org/2000/svg">
<path d="M93.8381 7.82812H6.16191C2.76406 7.82812 0 10.5922 0 13.9898V73.4846C0 76.8822 2.76406 79.6463 6.16191 79.6463H35.8154L34.616 89.2418H29.6465C28.8373 89.2418 28.1816 89.8977 28.1816 90.7066C28.1816 91.5156 28.8373 92.1715 29.6465 92.1715H70.3535C71.1627 92.1715 71.8184 91.5156 71.8184 90.7066C71.8184 89.8977 71.1627 89.2418 70.3535 89.2418H65.3842L64.1846 79.6463H93.8381C97.2357 79.6463 100 76.8822 100 73.4846V13.9898C100 10.5922 97.2359 7.82812 93.8381 7.82812ZM37.5686 89.2418L38.7682 79.6463H44.1594L44.6883 81.7615C45.2988 84.2035 47.4832 85.9088 50.0002 85.9088C52.5172 85.9088 54.7016 84.2035 55.3121 81.7615L55.841 79.6463H61.2322L62.4314 89.2418H37.5686ZM47.1791 79.6463H52.8207L52.4695 81.051C52.1857 82.1863 51.1703 82.9791 49.9998 82.9791C48.8293 82.9791 47.8141 82.1861 47.5301 81.051L47.1791 79.6463ZM97.0703 73.4846C97.0703 75.2668 95.6203 76.7166 93.8381 76.7166H6.16191C4.37969 76.7166 2.92969 75.2668 2.92969 73.4846V13.9898C2.92969 12.2076 4.37969 10.7578 6.16191 10.7578H93.8381C95.6203 10.7578 97.0703 12.2076 97.0703 13.9898V73.4846Z" fill="url(#paint0_linear)"/>
<path d="M82.8777 14.0908H7.72656C6.91738 14.0908 6.26172 14.7465 6.26172 15.5557V71.9189C6.26172 72.7281 6.91738 73.3838 7.72656 73.3838H10.858C11.6672 73.3838 12.3229 72.7281 12.3229 71.9189C12.323 71.11 11.6672 70.4541 10.8582 70.4541H9.1916V17.0205H82.8777C83.6869 17.0205 84.3426 16.3646 84.3426 15.5557C84.3426 14.7465 83.6869 14.0908 82.8777 14.0908Z" fill="url(#paint1_linear)"/>
<path d="M92.2723 14.0908H89.1408C88.3316 14.0908 87.676 14.7465 87.676 15.5557C87.676 16.3646 88.3316 17.0205 89.1408 17.0205H90.8074V70.4541H17.1211C16.3119 70.4541 15.6562 71.11 15.6562 71.9189C15.6562 72.7281 16.3119 73.3838 17.1211 73.3838H92.2721C93.0813 73.3838 93.7369 72.7281 93.7369 71.9189V15.5557C93.7371 14.7465 93.0812 14.0908 92.2723 14.0908Z" fill="url(#paint2_linear)"/>
<path d="M69.9412 30.3092C69.678 29.9727 69.2809 29.768 68.8543 29.7486L34.4102 28.1828C34.3832 28.1816 34.3568 28.1811 34.3297 28.1814C34.1258 27.5121 33.6949 26.9316 33.1117 26.5426L28.8936 23.7305C28.2205 23.2818 27.3109 23.4637 26.8623 24.1369C26.4137 24.8102 26.5955 25.7195 27.2686 26.1682L31.4865 28.9799C31.5065 28.9932 31.5211 29.0133 31.5277 29.0363L36.9006 47.8412C37.0682 48.4275 37.344 48.9545 37.6981 49.4096L35.7322 53.3412C35.259 54.2875 35.3086 55.3897 35.8649 56.2896C36.0666 56.616 36.3225 56.8939 36.6164 57.1166C36.2317 57.7883 36.0104 58.5652 36.0104 59.3934C36.0104 61.9277 38.0723 63.9895 40.6065 63.9895C43.1406 63.9895 45.2026 61.9275 45.2026 59.3934C45.2026 58.8057 45.0904 58.2439 44.8885 57.727H58.2434C58.0414 58.2439 57.9293 58.8057 57.9293 59.3934C57.9293 61.9277 59.9912 63.9895 62.5254 63.9895C65.0596 63.9895 67.1215 61.9275 67.1215 59.3934C67.1215 58.6582 66.9471 57.9635 66.6389 57.3467C66.9346 57.0787 67.1215 56.6928 67.1215 56.2621C67.1215 55.4531 66.4658 54.7973 65.6567 54.7973H38.4422C38.4213 54.7973 38.386 54.7973 38.3565 54.7494C38.327 54.7018 38.3428 54.6703 38.3522 54.6514L40.1631 51.0297C40.5317 51.1244 40.9156 51.1756 41.3086 51.1756C41.4897 51.1756 41.6725 51.1648 41.8565 51.1434L62.4397 48.7219C65.0981 48.409 67.2369 46.4355 67.7619 43.8105L70.224 31.4992C70.3078 31.0803 70.2045 30.6457 69.9412 30.3092ZM62.525 57.7273C63.444 57.7273 64.1914 58.475 64.1914 59.3937C64.1914 60.3127 63.444 61.0602 62.525 61.0602C61.6061 61.0602 60.8586 60.3127 60.8586 59.3937C60.8586 58.4748 61.6061 57.7273 62.525 57.7273ZM40.6061 57.7273C41.525 57.7273 42.2725 58.4748 42.2725 59.3937C42.2725 60.3127 41.525 61.0602 40.6061 61.0602C39.6871 61.0602 38.9397 60.3127 38.9397 59.3937C38.9397 58.4748 39.6871 57.7273 40.6061 57.7273ZM37.0139 37.5754L35.1781 31.1506L41.0346 31.4168L42.05 37.5754H37.0139ZM41.5143 48.2338C40.6975 48.3299 39.9426 47.8262 39.7172 47.0365L37.851 40.5051H42.533L43.7637 47.9691L41.5143 48.2338ZM50.1008 47.2236L46.6766 47.6266L45.5026 40.5053H50.1008V47.2236ZM50.1008 37.5754H45.0194L44.0264 31.5529L50.1008 31.8291V37.5754ZM57.5192 46.3508L53.0305 46.8789V40.5051H58.0483L57.5192 46.3508ZM58.3135 37.5754H53.0305V31.9621L58.7979 32.2242L58.3135 37.5754ZM64.8889 43.2363C64.6135 44.6129 63.4916 45.6482 62.0973 45.8123L60.4924 46.0012L60.9899 40.5053H65.435L64.8889 43.2363ZM66.0211 37.5754H61.2553L61.7276 32.3574L67.0166 32.5979L66.0211 37.5754Z" fill="url(#paint3_linear)"/>
<defs>
<linearGradient id="paint0_linear" x1="50" y1="7.82812" x2="50" y2="92.1715" gradientUnits="userSpaceOnUse">
<stop stop-color="#FFE5AC"/>
<stop offset="0.0001" stop-color="#FFE5AC"/>
<stop offset="1" stop-color="#B99C5D"/>
</linearGradient>
<linearGradient id="paint1_linear" x1="45.3022" y1="14.0908" x2="45.3022" y2="73.3838" gradientUnits="userSpaceOnUse">
<stop stop-color="#FFE5AC"/>
<stop offset="0.0001" stop-color="#FFE5AC"/>
<stop offset="1" stop-color="#B99C5D"/>
</linearGradient>
<linearGradient id="paint2_linear" x1="54.6966" y1="14.0908" x2="54.6966" y2="73.3838" gradientUnits="userSpaceOnUse">
<stop stop-color="#FFE5AC"/>
<stop offset="0.0001" stop-color="#FFE5AC"/>
<stop offset="1" stop-color="#B99C5D"/>
</linearGradient>
<linearGradient id="paint3_linear" x1="48.4344" y1="23.4844" x2="48.4344" y2="63.9895" gradientUnits="userSpaceOnUse">
<stop stop-color="#FFE5AC"/>
<stop offset="0.0001" stop-color="#FFE5AC"/>
<stop offset="1" stop-color="#B99C5D"/>
</linearGradient>
</defs>
</svg>
