<svg width="100" height="100" viewBox="0 0 100 100" fill="none" xmlns="http://www.w3.org/2000/svg">
<path d="M73.9035 64.4129L61.2908 61.6095V57.624C65.9972 54.2272 69.1132 48.7773 69.3214 42.5917C73.4971 38.1852 75.8069 32.4563 75.8069 26.3595V19.3549C75.8069 15.2695 72.7536 11.884 68.8084 11.3597C65.4261 4.42741 58.3922 0 50.6197 0H47.9052C42.6585 0 37.489 1.77416 33.3473 4.99528C27.5292 9.51937 24.1937 16.3419 24.1937 23.7112V26.3612C24.1937 32.4563 26.5035 38.1869 30.6792 42.5934C30.8888 48.779 34.0034 54.229 38.7098 57.6257V61.6113L26.0971 64.4129C16.4293 66.5613 9.67761 74.9757 9.67761 84.8806V100H43.4081H56.5919H90.3224V84.8806C90.3227 74.9757 83.5713 66.5613 73.9035 64.4129ZM62.7049 65.2272L60.2436 76.3013L52.6372 70.8691L60.1016 64.6481L62.7049 65.2272ZM50.0002 68.8676L41.9356 62.1466V59.5079C44.3938 60.6402 47.1196 61.2902 50.0002 61.2902C52.8807 61.2902 55.6066 60.6402 58.0647 59.5079V62.1466L50.0002 68.8676ZM30.6453 27.4195V37.3598C28.5532 34.105 27.4195 30.3227 27.4195 26.3598V23.7112C27.4195 17.345 30.3018 11.4515 35.3276 7.54199C38.9049 4.75809 43.3727 3.22577 47.9049 3.22577H50.6194C57.4356 3.22577 63.5742 7.27402 66.2597 13.5386L66.6792 14.5161H67.742C70.4098 14.5161 72.5808 16.6871 72.5808 19.3549V26.3598C72.5808 30.3227 71.4468 34.105 69.3551 37.3598V24.1937H67.1051C64.0036 24.1937 61.1262 22.6533 59.4066 20.0729L58.9276 19.3552H55.5372L55.0677 20.1373C52.3741 24.6292 47.445 27.4195 42.2082 27.4195H30.6453ZM33.8713 41.9353V30.6449H42.2085C48.2344 30.6449 53.9247 27.6047 57.2925 22.6483C59.449 25.3982 62.6457 27.1111 66.1296 27.3823V41.9356C66.1296 50.829 58.8942 58.0647 50.0005 58.0647C41.1067 58.0647 33.8713 50.829 33.8713 41.9353ZM39.897 64.6498L47.3614 70.8708L39.755 76.303L37.2936 65.229L39.897 64.6498ZM43.6775 96.7739H29.0325V90.3224H25.8067V96.7739H12.9034V84.8803C12.9034 76.5013 18.6163 69.3789 26.7953 67.5626L34.1454 65.9287L37.6647 81.7625L43.2406 77.7787L45.105 79.6432L43.6775 96.7739ZM53.0857 96.7739H46.9146L48.4437 78.4206L45.9002 75.8771L50.0002 72.9498L54.1001 75.8789L51.5566 78.4224L53.0857 96.7739ZM87.0969 96.7739H74.1939V90.3224H70.9681V96.7739H56.3228L54.8953 79.6432L56.7597 77.7787L62.3357 81.7625L65.8549 65.9287L73.205 67.5626C81.384 69.3789 87.0969 76.5013 87.0969 84.8803V96.7739Z" fill="url(#paint0_linear)"/>
<defs>
<linearGradient id="paint0_linear" x1="50" y1="0" x2="50" y2="100" gradientUnits="userSpaceOnUse">
<stop stop-color="#FFE5AC"/>
<stop offset="1" stop-color="#B99C5D"/>
</linearGradient>
</defs>
</svg>
