<svg width="100" height="100" viewBox="0 0 100 100" fill="none" xmlns="http://www.w3.org/2000/svg">
<path d="M84.9799 58.2421L84.5166 58.4921C82.6451 56.221 79.4028 55.3409 76.9324 56.5928C76.9237 56.5971 76.9149 56.6018 76.9063 56.6063L75.8125 57.1952C74.5081 56.0907 72.8948 55.4155 71.1925 55.2617C69.4903 55.1079 67.782 55.483 66.3008 56.3358L60.4112 59.5389H52.574C50.8771 59.5367 49.2023 59.1529 47.6736 58.4161L46.5955 57.8946C43.5261 56.4012 40.1033 55.7863 36.706 56.1181C33.3087 56.4499 30.0695 57.7154 27.3471 59.7745C27.3215 59.794 27.2965 59.8136 27.2727 59.8356L24.6697 62.1528C23.6861 63.0265 22.5233 63.6746 21.2629 64.0518L19.7846 59.1991C19.7113 58.9589 19.5629 58.7486 19.3611 58.5991C19.1593 58.4497 18.9148 58.369 18.6637 58.369H6.07521C5.90935 58.369 5.74537 58.4042 5.59413 58.4723C5.44289 58.5404 5.30782 58.6398 5.19786 58.764C5.0879 58.8882 5.00555 59.0343 4.95626 59.1926C4.90697 59.351 4.89186 59.518 4.91193 59.6827L9.10803 94.0889C9.14266 94.3731 9.2801 94.6347 9.4944 94.8245C9.70871 95.0143 9.98506 95.119 10.2713 95.119H29.1529C29.3361 95.119 29.5167 95.0761 29.6802 94.9937C29.8438 94.9113 29.9857 94.7917 30.0947 94.6445C30.2037 94.4974 30.2767 94.3267 30.3078 94.1462C30.3389 93.9658 30.3273 93.7805 30.2738 93.6054L27.7934 85.4659L35.5188 80.5831C36.5525 80.0111 37.7651 79.8542 38.9104 80.1442C38.9346 80.1503 38.959 80.1557 38.9836 80.16L54.6983 83.0538C58.9689 83.818 63.372 83.1963 67.2641 81.2796C67.3138 81.255 67.3617 81.227 67.4074 81.1956L94.5879 62.5331C94.8341 62.364 95.0065 62.1073 95.0698 61.8154C95.1331 61.5235 95.0826 61.2185 94.9285 60.9626C93.9395 59.3154 92.3532 58.1132 90.5 57.6065C88.6468 57.0997 86.6695 57.3274 84.9799 58.2421ZM78.0039 58.6772C79.4326 57.9618 81.2313 58.5483 82.3801 59.6446L72.0731 65.2052L71.4676 65.5241C71.1412 64.5974 70.6642 63.7309 70.0559 62.9594L78.0039 58.6772ZM67.435 58.3872C67.4442 58.3819 67.4545 58.3768 67.4627 58.3714C68.3859 57.8378 69.4352 57.5616 70.5015 57.5716C71.5677 57.5816 72.6117 57.8775 73.5246 58.4284L68.2842 61.2499C67.2852 60.5207 66.1452 60.0077 64.9369 59.7434L67.435 58.3872ZM11.308 92.7753L7.39884 60.7128H17.7951L27.5705 92.7753H11.308ZM66.1486 79.2145C62.7266 80.8803 58.8642 81.417 55.1176 80.7473L39.4416 77.8606C37.7173 77.4349 35.8957 77.6818 34.3469 78.5511C34.3287 78.561 34.3106 78.5719 34.2928 78.5833L27.0828 83.1413L21.9461 66.2954C23.53 65.818 24.9909 65.0011 26.2268 63.9014L28.793 61.6163C31.1706 59.8288 33.9954 58.7323 36.9562 58.4474C39.9171 58.1626 42.8991 58.7006 45.5738 60.002L46.6518 60.5235C48.4988 61.4138 50.5223 61.8774 52.5727 61.8802H63.0268C64.5631 61.8823 66.0507 62.4195 67.234 63.3993C68.4173 64.3791 69.2225 65.7404 69.5111 67.2493L61.934 66.9065C59.1794 66.7827 56.4193 66.9103 53.6879 67.2876C53.3824 67.3329 53.1072 67.497 52.9221 67.7442C52.7369 67.9913 52.6568 68.3016 52.6992 68.6075C52.7415 68.9134 52.9029 69.1902 53.1483 69.3778C53.3936 69.5653 53.7031 69.6484 54.0094 69.6091C56.5992 69.2511 59.2162 69.1303 61.8279 69.2481L70.7451 69.6514C70.7629 69.6514 70.7807 69.6526 70.7983 69.6526C71.1091 69.6526 71.4071 69.5292 71.6269 69.3094C71.8467 69.0896 71.9701 68.7915 71.9701 68.4807C71.9701 68.2911 71.9621 68.1032 71.9506 67.9163L73.1735 67.2718L86.0932 60.3038C87.0854 59.7665 88.2273 59.572 89.3415 59.7506C90.4556 59.9292 91.4795 60.4708 92.2541 61.2913L66.1486 79.2145Z" fill="black"/>
<path d="M84.9799 58.2421L84.5166 58.4921C82.6451 56.221 79.4028 55.3409 76.9324 56.5928C76.9237 56.5971 76.9149 56.6018 76.9063 56.6063L75.8125 57.1952C74.5081 56.0907 72.8948 55.4155 71.1925 55.2617C69.4903 55.1079 67.782 55.483 66.3008 56.3358L60.4112 59.5389H52.574C50.8771 59.5367 49.2023 59.1529 47.6736 58.4161L46.5955 57.8946C43.5261 56.4012 40.1033 55.7863 36.706 56.1181C33.3087 56.4499 30.0695 57.7154 27.3471 59.7745C27.3215 59.794 27.2965 59.8136 27.2727 59.8356L24.6697 62.1528C23.6861 63.0265 22.5233 63.6746 21.2629 64.0518L19.7846 59.1991C19.7113 58.9589 19.5629 58.7486 19.3611 58.5991C19.1593 58.4497 18.9148 58.369 18.6637 58.369H6.07521C5.90935 58.369 5.74537 58.4042 5.59413 58.4723C5.44289 58.5404 5.30782 58.6398 5.19786 58.764C5.0879 58.8882 5.00555 59.0343 4.95626 59.1926C4.90697 59.351 4.89186 59.518 4.91193 59.6827L9.10803 94.0889C9.14266 94.3731 9.2801 94.6347 9.4944 94.8245C9.70871 95.0143 9.98506 95.119 10.2713 95.119H29.1529C29.3361 95.119 29.5167 95.0761 29.6802 94.9937C29.8438 94.9113 29.9857 94.7917 30.0947 94.6445C30.2037 94.4974 30.2767 94.3267 30.3078 94.1462C30.3389 93.9658 30.3273 93.7805 30.2738 93.6054L27.7934 85.4659L35.5188 80.5831C36.5525 80.0111 37.7651 79.8542 38.9104 80.1442C38.9346 80.1503 38.959 80.1557 38.9836 80.16L54.6983 83.0538C58.9689 83.818 63.372 83.1963 67.2641 81.2796C67.3138 81.255 67.3617 81.227 67.4074 81.1956L94.5879 62.5331C94.8341 62.364 95.0065 62.1073 95.0698 61.8154C95.1331 61.5235 95.0826 61.2185 94.9285 60.9626C93.9395 59.3154 92.3532 58.1132 90.5 57.6065C88.6468 57.0997 86.6695 57.3274 84.9799 58.2421ZM78.0039 58.6772C79.4326 57.9618 81.2313 58.5483 82.3801 59.6446L72.0731 65.2052L71.4676 65.5241C71.1412 64.5974 70.6642 63.7309 70.0559 62.9594L78.0039 58.6772ZM67.435 58.3872C67.4442 58.3819 67.4545 58.3768 67.4627 58.3714C68.3859 57.8378 69.4352 57.5616 70.5015 57.5716C71.5677 57.5816 72.6117 57.8775 73.5246 58.4284L68.2842 61.2499C67.2852 60.5207 66.1452 60.0077 64.9369 59.7434L67.435 58.3872ZM11.308 92.7753L7.39884 60.7128H17.7951L27.5705 92.7753H11.308ZM66.1486 79.2145C62.7266 80.8803 58.8642 81.417 55.1176 80.7473L39.4416 77.8606C37.7173 77.4349 35.8957 77.6818 34.3469 78.5511C34.3287 78.561 34.3106 78.5719 34.2928 78.5833L27.0828 83.1413L21.9461 66.2954C23.53 65.818 24.9909 65.0011 26.2268 63.9014L28.793 61.6163C31.1706 59.8288 33.9954 58.7323 36.9562 58.4474C39.9171 58.1626 42.8991 58.7006 45.5738 60.002L46.6518 60.5235C48.4988 61.4138 50.5223 61.8774 52.5727 61.8802H63.0268C64.5631 61.8823 66.0507 62.4195 67.234 63.3993C68.4173 64.3791 69.2225 65.7404 69.5111 67.2493L61.934 66.9065C59.1794 66.7827 56.4193 66.9103 53.6879 67.2876C53.3824 67.3329 53.1072 67.497 52.9221 67.7442C52.7369 67.9913 52.6568 68.3016 52.6992 68.6075C52.7415 68.9134 52.9029 69.1902 53.1483 69.3778C53.3936 69.5653 53.7031 69.6484 54.0094 69.6091C56.5992 69.2511 59.2162 69.1303 61.8279 69.2481L70.7451 69.6514C70.7629 69.6514 70.7807 69.6526 70.7983 69.6526C71.1091 69.6526 71.4071 69.5292 71.6269 69.3094C71.8467 69.0896 71.9701 68.7915 71.9701 68.4807C71.9701 68.2911 71.9621 68.1032 71.9506 67.9163L73.1735 67.2718L86.0932 60.3038C87.0854 59.7665 88.2273 59.572 89.3415 59.7506C90.4556 59.9292 91.4795 60.4708 92.2541 61.2913L66.1486 79.2145Z" fill="url(#paint0_linear)"/>
<path d="M15.0342 87.9272C15.0342 88.6569 15.2506 89.3703 15.656 89.977C16.0614 90.5837 16.6376 91.0566 17.3117 91.3359C17.9859 91.6151 18.7277 91.6882 19.4434 91.5458C20.1591 91.4034 20.8165 91.0521 21.3325 90.5361C21.8484 90.0201 22.1998 89.3627 22.3422 88.647C22.4845 87.9313 22.4115 87.1895 22.1322 86.5154C21.853 85.8412 21.3801 85.265 20.7734 84.8596C20.1667 84.4542 19.4533 84.2378 18.7236 84.2378C17.7455 84.2389 16.8077 84.6279 16.116 85.3196C15.4243 86.0113 15.0353 86.9491 15.0342 87.9272ZM18.7236 86.5815C18.9898 86.5815 19.25 86.6605 19.4713 86.8083C19.6926 86.9562 19.865 87.1664 19.9669 87.4123C20.0688 87.6582 20.0954 87.9287 20.0435 88.1898C19.9916 88.4508 19.8634 88.6906 19.6752 88.8788C19.487 89.067 19.2472 89.1952 18.9862 89.2471C18.7251 89.299 18.4545 89.2724 18.2087 89.1705C17.9628 89.0687 17.7526 88.8962 17.6047 88.6749C17.4569 88.4536 17.3779 88.1934 17.3779 87.9272C17.3785 87.5706 17.5205 87.2287 17.7728 86.9765C18.025 86.7243 18.367 86.5824 18.7236 86.5819V86.5815Z" fill="black"/>
<path d="M15.0342 87.9272C15.0342 88.6569 15.2506 89.3703 15.656 89.977C16.0614 90.5837 16.6376 91.0566 17.3117 91.3359C17.9859 91.6151 18.7277 91.6882 19.4434 91.5458C20.1591 91.4034 20.8165 91.0521 21.3325 90.5361C21.8484 90.0201 22.1998 89.3627 22.3422 88.647C22.4845 87.9313 22.4115 87.1895 22.1322 86.5154C21.853 85.8412 21.3801 85.265 20.7734 84.8596C20.1667 84.4542 19.4533 84.2378 18.7236 84.2378C17.7455 84.2389 16.8077 84.6279 16.116 85.3196C15.4243 86.0113 15.0353 86.9491 15.0342 87.9272ZM18.7236 86.5815C18.9898 86.5815 19.25 86.6605 19.4713 86.8083C19.6926 86.9562 19.865 87.1664 19.9669 87.4123C20.0688 87.6582 20.0954 87.9287 20.0435 88.1898C19.9916 88.4508 19.8634 88.6906 19.6752 88.8788C19.487 89.067 19.2472 89.1952 18.9862 89.2471C18.7251 89.299 18.4545 89.2724 18.2087 89.1705C17.9628 89.0687 17.7526 88.8962 17.6047 88.6749C17.4569 88.4536 17.3779 88.1934 17.3779 87.9272C17.3785 87.5706 17.5205 87.2287 17.7728 86.9765C18.025 86.7243 18.367 86.5824 18.7236 86.5819V86.5815Z" fill="url(#paint1_linear)"/>
<path d="M58.9105 17.6377V13.776C58.8995 11.4241 57.9575 9.17221 56.2905 7.51302C54.6235 5.85383 52.3673 4.92236 50.0153 4.92236C47.6634 4.92236 45.4071 5.85383 43.7401 7.51302C42.0732 9.17221 41.1311 11.4241 41.1201 13.776V17.6377C41.1311 19.9896 42.0732 22.2415 43.7401 23.9007C45.4071 25.5599 47.6634 26.4913 50.0153 26.4913C52.3673 26.4913 54.6235 25.5599 56.2905 23.9007C57.9575 22.2415 58.8995 19.9896 58.9105 17.6377ZM43.4639 17.6377V13.776C43.4733 12.0446 44.1677 10.3874 45.3953 9.16648C46.623 7.94555 48.2839 7.2602 50.0153 7.2602C51.7467 7.2602 53.4077 7.94555 54.6353 9.16648C55.8629 10.3874 56.5573 12.0446 56.5668 13.776V17.6377C56.5573 19.3691 55.8629 21.0263 54.6353 22.2472C53.4077 23.4682 51.7467 24.1535 50.0153 24.1535C48.2839 24.1535 46.623 23.4682 45.3953 22.2472C44.1677 21.0263 43.4733 19.3691 43.4639 17.6377Z" fill="black"/>
<path d="M58.9105 17.6377V13.776C58.8995 11.4241 57.9575 9.17221 56.2905 7.51302C54.6235 5.85383 52.3673 4.92236 50.0153 4.92236C47.6634 4.92236 45.4071 5.85383 43.7401 7.51302C42.0732 9.17221 41.1311 11.4241 41.1201 13.776V17.6377C41.1311 19.9896 42.0732 22.2415 43.7401 23.9007C45.4071 25.5599 47.6634 26.4913 50.0153 26.4913C52.3673 26.4913 54.6235 25.5599 56.2905 23.9007C57.9575 22.2415 58.8995 19.9896 58.9105 17.6377ZM43.4639 17.6377V13.776C43.4733 12.0446 44.1677 10.3874 45.3953 9.16648C46.623 7.94555 48.2839 7.2602 50.0153 7.2602C51.7467 7.2602 53.4077 7.94555 54.6353 9.16648C55.8629 10.3874 56.5573 12.0446 56.5668 13.776V17.6377C56.5573 19.3691 55.8629 21.0263 54.6353 22.2472C53.4077 23.4682 51.7467 24.1535 50.0153 24.1535C48.2839 24.1535 46.623 23.4682 45.3953 22.2472C44.1677 21.0263 43.4733 19.3691 43.4639 17.6377Z" fill="url(#paint2_linear)"/>
<path d="M35.6773 50.6689H64.3535C64.6643 50.6689 64.9624 50.5454 65.1822 50.3256C65.4019 50.1059 65.5254 49.8078 65.5254 49.497V46.8072H85.1562C85.467 46.8072 85.7651 46.6837 85.9849 46.4639C86.2047 46.2442 86.3281 45.9461 86.3281 45.6353V38.029C86.3269 35.7972 85.476 33.6495 83.9485 32.0222C82.4209 30.395 80.3312 29.4103 78.1039 29.2681C77.4789 29.2222 77.1576 29.6179 76.8971 29.9357C76.3786 30.5691 75.7224 31.0759 74.9784 31.4173C74.2345 31.7587 73.4224 31.9258 72.604 31.9058C71.7857 31.8858 70.9827 31.6793 70.2563 31.302C69.5299 30.9246 68.8992 30.3864 68.4123 29.7284C68.3004 29.577 68.1537 29.4547 67.9846 29.372C67.8154 29.2893 67.6288 29.2486 67.4406 29.2532C65.9183 29.2874 64.4318 29.7211 63.1299 30.5109C62.2704 29.5114 61.219 28.6946 60.0381 28.1089C58.8572 27.5231 57.5707 27.1804 56.2549 27.1009C55.6494 27.0763 55.3432 27.4439 55.0465 27.804C54.4382 28.5475 53.6682 29.1422 52.7951 29.5429C51.9221 29.9436 50.9691 30.1397 50.0088 30.1162C49.0485 30.0928 48.1062 29.8504 47.2538 29.4076C46.4014 28.9647 45.6613 28.3331 45.09 27.5609C44.9783 27.4092 44.8317 27.2869 44.6625 27.2042C44.4933 27.1214 44.3066 27.0809 44.1184 27.0859C41.5484 27.1453 39.1045 28.2114 37.3127 30.0546C37.1646 30.206 37.0242 30.3628 36.8873 30.522C35.6772 29.7853 34.3058 29.3548 32.8918 29.2677C32.2689 29.2218 31.9453 29.6175 31.685 29.9353C31.1665 30.5687 30.5103 31.0755 29.7664 31.4169C29.0224 31.7583 28.2103 31.9254 27.392 31.9054C26.5737 31.8854 25.7708 31.6789 25.0444 31.3016C24.318 30.9242 23.6873 30.3861 23.2004 29.728C23.0883 29.5768 22.9416 29.4547 22.7725 29.372C22.6034 29.2893 22.4169 29.2484 22.2287 29.2529C19.9397 29.3111 17.764 30.2613 16.1655 31.9007C14.567 33.5402 13.6722 35.7393 13.6719 38.029V45.6353C13.6719 45.9461 13.7953 46.2442 14.0151 46.4639C14.2349 46.6837 14.5329 46.8072 14.8438 46.8072H34.5055V49.497C34.5055 49.8078 34.6289 50.1059 34.8487 50.3256C35.0685 50.5454 35.3665 50.6689 35.6773 50.6689ZM66.9402 31.6341C67.6627 32.4541 68.551 33.1115 69.5465 33.5627C70.5419 34.0139 71.6218 34.2487 72.7147 34.2516C73.8076 34.2545 74.8887 34.0253 75.8864 33.5793C76.8842 33.1333 77.776 32.4806 78.5027 31.6644C80.0266 31.8943 81.4176 32.6628 82.4234 33.8306C83.4291 34.9983 83.9829 36.4879 83.9844 38.029V44.4634H65.5254V36.9456C65.5266 35.3851 65.1553 33.8467 64.4424 32.4585C65.2081 32.012 66.0591 31.7311 66.9402 31.6341ZM43.6133 29.4652C44.4235 30.4032 45.4258 31.1562 46.5523 31.6734C47.6788 32.1905 48.9032 32.4596 50.1427 32.4626C51.3822 32.4655 52.6079 32.2022 53.7368 31.6904C54.8658 31.1787 55.8716 30.4304 56.6863 29.4962C58.4857 29.7451 60.1344 30.6363 61.3283 32.0054C62.5222 33.3744 63.1807 35.1291 63.1824 36.9456V48.3251H36.8492V36.9456C36.8608 35.0856 37.5568 33.2949 38.8044 31.9152C40.052 30.5355 41.7638 29.6634 43.6133 29.4652ZM16.0156 44.4634V38.029C16.0255 36.4501 16.6116 34.9291 17.6636 33.7518C18.7157 32.5744 20.1614 31.8216 21.7293 31.6349C22.4518 32.4547 23.34 33.1118 24.3353 33.5628C25.3306 34.0138 26.4103 34.2485 27.503 34.2513C28.5957 34.2541 29.6766 34.0249 30.6742 33.579C31.6718 33.133 32.5634 32.4805 33.29 31.6644C34.0969 31.785 34.8733 32.0589 35.5771 32.4714C34.8706 33.8569 34.5033 35.3904 34.5055 36.9456V44.4634H16.0156Z" fill="black"/>
<path d="M35.6773 50.6689H64.3535C64.6643 50.6689 64.9624 50.5454 65.1822 50.3256C65.4019 50.1059 65.5254 49.8078 65.5254 49.497V46.8072H85.1562C85.467 46.8072 85.7651 46.6837 85.9849 46.4639C86.2047 46.2442 86.3281 45.9461 86.3281 45.6353V38.029C86.3269 35.7972 85.476 33.6495 83.9485 32.0222C82.4209 30.395 80.3312 29.4103 78.1039 29.2681C77.4789 29.2222 77.1576 29.6179 76.8971 29.9357C76.3786 30.5691 75.7224 31.0759 74.9784 31.4173C74.2345 31.7587 73.4224 31.9258 72.604 31.9058C71.7857 31.8858 70.9827 31.6793 70.2563 31.302C69.5299 30.9246 68.8992 30.3864 68.4123 29.7284C68.3004 29.577 68.1537 29.4547 67.9846 29.372C67.8154 29.2893 67.6288 29.2486 67.4406 29.2532C65.9183 29.2874 64.4318 29.7211 63.1299 30.5109C62.2704 29.5114 61.219 28.6946 60.0381 28.1089C58.8572 27.5231 57.5707 27.1804 56.2549 27.1009C55.6494 27.0763 55.3432 27.4439 55.0465 27.804C54.4382 28.5475 53.6682 29.1422 52.7951 29.5429C51.9221 29.9436 50.9691 30.1397 50.0088 30.1162C49.0485 30.0928 48.1062 29.8504 47.2538 29.4076C46.4014 28.9647 45.6613 28.3331 45.09 27.5609C44.9783 27.4092 44.8317 27.2869 44.6625 27.2042C44.4933 27.1214 44.3066 27.0809 44.1184 27.0859C41.5484 27.1453 39.1045 28.2114 37.3127 30.0546C37.1646 30.206 37.0242 30.3628 36.8873 30.522C35.6772 29.7853 34.3058 29.3548 32.8918 29.2677C32.2689 29.2218 31.9453 29.6175 31.685 29.9353C31.1665 30.5687 30.5103 31.0755 29.7664 31.4169C29.0224 31.7583 28.2103 31.9254 27.392 31.9054C26.5737 31.8854 25.7708 31.6789 25.0444 31.3016C24.318 30.9242 23.6873 30.3861 23.2004 29.728C23.0883 29.5768 22.9416 29.4547 22.7725 29.372C22.6034 29.2893 22.4169 29.2484 22.2287 29.2529C19.9397 29.3111 17.764 30.2613 16.1655 31.9007C14.567 33.5402 13.6722 35.7393 13.6719 38.029V45.6353C13.6719 45.9461 13.7953 46.2442 14.0151 46.4639C14.2349 46.6837 14.5329 46.8072 14.8438 46.8072H34.5055V49.497C34.5055 49.8078 34.6289 50.1059 34.8487 50.3256C35.0685 50.5454 35.3665 50.6689 35.6773 50.6689ZM66.9402 31.6341C67.6627 32.4541 68.551 33.1115 69.5465 33.5627C70.5419 34.0139 71.6218 34.2487 72.7147 34.2516C73.8076 34.2545 74.8887 34.0253 75.8864 33.5793C76.8842 33.1333 77.776 32.4806 78.5027 31.6644C80.0266 31.8943 81.4176 32.6628 82.4234 33.8306C83.4291 34.9983 83.9829 36.4879 83.9844 38.029V44.4634H65.5254V36.9456C65.5266 35.3851 65.1553 33.8467 64.4424 32.4585C65.2081 32.012 66.0591 31.7311 66.9402 31.6341ZM43.6133 29.4652C44.4235 30.4032 45.4258 31.1562 46.5523 31.6734C47.6788 32.1905 48.9032 32.4596 50.1427 32.4626C51.3822 32.4655 52.6079 32.2022 53.7368 31.6904C54.8658 31.1787 55.8716 30.4304 56.6863 29.4962C58.4857 29.7451 60.1344 30.6363 61.3283 32.0054C62.5222 33.3744 63.1807 35.1291 63.1824 36.9456V48.3251H36.8492V36.9456C36.8608 35.0856 37.5568 33.2949 38.8044 31.9152C40.052 30.5355 41.7638 29.6634 43.6133 29.4652ZM16.0156 44.4634V38.029C16.0255 36.4501 16.6116 34.9291 17.6636 33.7518C18.7157 32.5744 20.1614 31.8216 21.7293 31.6349C22.4518 32.4547 23.34 33.1118 24.3353 33.5628C25.3306 34.0138 26.4103 34.2485 27.503 34.2513C28.5957 34.2541 29.6766 34.0249 30.6742 33.579C31.6718 33.133 32.5634 32.4805 33.29 31.6644C34.0969 31.785 34.8733 32.0589 35.5771 32.4714C34.8706 33.8569 34.5033 35.3904 34.5055 36.9456V44.4634H16.0156Z" fill="url(#paint3_linear)"/>
<path d="M80.5379 21.1287V17.7484C80.5379 15.6447 79.7022 13.6272 78.2146 12.1396C76.7271 10.6521 74.7096 9.81641 72.6059 9.81641C70.5022 9.81641 68.4846 10.6521 66.9971 12.1396C65.5095 13.6272 64.6738 15.6447 64.6738 17.7484V21.1287C64.6738 23.2324 65.5095 25.25 66.9971 26.7375C68.4846 28.225 70.5022 29.0607 72.6059 29.0607C74.7096 29.0607 76.7271 28.225 78.2146 26.7375C79.7022 25.25 80.5379 23.2324 80.5379 21.1287ZM67.0176 21.1287V17.7484C67.0176 16.2663 67.6063 14.8449 68.6543 13.7969C69.7024 12.7489 71.1238 12.1602 72.6059 12.1602C74.088 12.1602 75.5094 12.7489 76.5574 13.7969C77.6054 14.8449 78.1941 16.2663 78.1941 17.7484V21.1287C78.1941 22.6108 77.6054 24.0322 76.5574 25.0802C75.5094 26.1282 74.088 26.717 72.6059 26.717C71.1238 26.717 69.7024 26.1282 68.6543 25.0802C67.6063 24.0322 67.0176 22.6108 67.0176 21.1287Z" fill="black"/>
<path d="M80.5379 21.1287V17.7484C80.5379 15.6447 79.7022 13.6272 78.2146 12.1396C76.7271 10.6521 74.7096 9.81641 72.6059 9.81641C70.5022 9.81641 68.4846 10.6521 66.9971 12.1396C65.5095 13.6272 64.6738 15.6447 64.6738 17.7484V21.1287C64.6738 23.2324 65.5095 25.25 66.9971 26.7375C68.4846 28.225 70.5022 29.0607 72.6059 29.0607C74.7096 29.0607 76.7271 28.225 78.2146 26.7375C79.7022 25.25 80.5379 23.2324 80.5379 21.1287ZM67.0176 21.1287V17.7484C67.0176 16.2663 67.6063 14.8449 68.6543 13.7969C69.7024 12.7489 71.1238 12.1602 72.6059 12.1602C74.088 12.1602 75.5094 12.7489 76.5574 13.7969C77.6054 14.8449 78.1941 16.2663 78.1941 17.7484V21.1287C78.1941 22.6108 77.6054 24.0322 76.5574 25.0802C75.5094 26.1282 74.088 26.717 72.6059 26.717C71.1238 26.717 69.7024 26.1282 68.6543 25.0802C67.6063 24.0322 67.0176 22.6108 67.0176 21.1287Z" fill="url(#paint4_linear)"/>
<path d="M35.326 21.1287V17.7484C35.326 16.7068 35.1208 15.6753 34.7222 14.713C34.3236 13.7506 33.7393 12.8762 33.0027 12.1396C32.2662 11.4031 31.3918 10.8188 30.4294 10.4202C29.467 10.0216 28.4356 9.81641 27.3939 9.81641C26.3523 9.81641 25.3208 10.0216 24.3585 10.4202C23.3961 10.8188 22.5217 11.4031 21.7852 12.1396C21.0486 12.8762 20.4643 13.7506 20.0657 14.713C19.6671 15.6753 19.4619 16.7068 19.4619 17.7484V21.1287C19.4619 22.1704 19.6671 23.2018 20.0657 24.1642C20.4643 25.1265 21.0486 26.0009 21.7852 26.7375C22.5217 27.4741 23.3961 28.0583 24.3585 28.457C25.3208 28.8556 26.3523 29.0607 27.3939 29.0607C28.4356 29.0607 29.467 28.8556 30.4294 28.457C31.3918 28.0583 32.2662 27.4741 33.0027 26.7375C33.7393 26.0009 34.3236 25.1265 34.7222 24.1642C35.1208 23.2018 35.326 22.1704 35.326 21.1287ZM21.8057 21.1287V17.7484C21.8057 16.2663 22.3944 14.8449 23.4424 13.7969C24.4904 12.7489 25.9118 12.1602 27.3939 12.1602C28.876 12.1602 30.2974 12.7489 31.3455 13.7969C32.3935 14.8449 32.9822 16.2663 32.9822 17.7484V21.1287C32.9822 21.8626 32.8377 22.5893 32.5568 23.2673C32.276 23.9453 31.8644 24.5613 31.3455 25.0802C30.8265 25.5991 30.2105 26.0108 29.5325 26.2916C28.8545 26.5724 28.1278 26.717 27.3939 26.717C26.6601 26.717 25.9334 26.5724 25.2554 26.2916C24.5774 26.0108 23.9614 25.5991 23.4424 25.0802C22.9235 24.5613 22.5119 23.9453 22.231 23.2673C21.9502 22.5893 21.8057 21.8626 21.8057 21.1287Z" fill="black"/>
<path d="M35.326 21.1287V17.7484C35.326 16.7068 35.1208 15.6753 34.7222 14.713C34.3236 13.7506 33.7393 12.8762 33.0027 12.1396C32.2662 11.4031 31.3918 10.8188 30.4294 10.4202C29.467 10.0216 28.4356 9.81641 27.3939 9.81641C26.3523 9.81641 25.3208 10.0216 24.3585 10.4202C23.3961 10.8188 22.5217 11.4031 21.7852 12.1396C21.0486 12.8762 20.4643 13.7506 20.0657 14.713C19.6671 15.6753 19.4619 16.7068 19.4619 17.7484V21.1287C19.4619 22.1704 19.6671 23.2018 20.0657 24.1642C20.4643 25.1265 21.0486 26.0009 21.7852 26.7375C22.5217 27.4741 23.3961 28.0583 24.3585 28.457C25.3208 28.8556 26.3523 29.0607 27.3939 29.0607C28.4356 29.0607 29.467 28.8556 30.4294 28.457C31.3918 28.0583 32.2662 27.4741 33.0027 26.7375C33.7393 26.0009 34.3236 25.1265 34.7222 24.1642C35.1208 23.2018 35.326 22.1704 35.326 21.1287ZM21.8057 21.1287V17.7484C21.8057 16.2663 22.3944 14.8449 23.4424 13.7969C24.4904 12.7489 25.9118 12.1602 27.3939 12.1602C28.876 12.1602 30.2974 12.7489 31.3455 13.7969C32.3935 14.8449 32.9822 16.2663 32.9822 17.7484V21.1287C32.9822 21.8626 32.8377 22.5893 32.5568 23.2673C32.276 23.9453 31.8644 24.5613 31.3455 25.0802C30.8265 25.5991 30.2105 26.0108 29.5325 26.2916C28.8545 26.5724 28.1278 26.717 27.3939 26.717C26.6601 26.717 25.9334 26.5724 25.2554 26.2916C24.5774 26.0108 23.9614 25.5991 23.4424 25.0802C22.9235 24.5613 22.5119 23.9453 22.231 23.2673C21.9502 22.5893 21.8057 21.8626 21.8057 21.1287Z" fill="url(#paint5_linear)"/>
<defs>
<linearGradient id="paint0_linear" x1="49.9999" y1="55.228" x2="49.9999" y2="95.119" gradientUnits="userSpaceOnUse">
<stop stop-color="#FFE5AC"/>
<stop offset="0.0001" stop-color="#FFE5AC"/>
<stop offset="1" stop-color="#B99C5D"/>
</linearGradient>
<linearGradient id="paint1_linear" x1="18.7236" y1="84.2378" x2="18.7236" y2="91.6167" gradientUnits="userSpaceOnUse">
<stop stop-color="#FFE5AC"/>
<stop offset="0.0001" stop-color="#FFE5AC"/>
<stop offset="1" stop-color="#B99C5D"/>
</linearGradient>
<linearGradient id="paint2_linear" x1="50.0153" y1="4.92236" x2="50.0153" y2="26.4913" gradientUnits="userSpaceOnUse">
<stop stop-color="#FFE5AC"/>
<stop offset="0.0001" stop-color="#FFE5AC"/>
<stop offset="1" stop-color="#B99C5D"/>
</linearGradient>
<linearGradient id="paint3_linear" x1="50" y1="27.0854" x2="50" y2="50.6689" gradientUnits="userSpaceOnUse">
<stop stop-color="#FFE5AC"/>
<stop offset="0.0001" stop-color="#FFE5AC"/>
<stop offset="1" stop-color="#B99C5D"/>
</linearGradient>
<linearGradient id="paint4_linear" x1="72.6059" y1="9.81641" x2="72.6059" y2="29.0607" gradientUnits="userSpaceOnUse">
<stop stop-color="#FFE5AC"/>
<stop offset="0.0001" stop-color="#FFE5AC"/>
<stop offset="1" stop-color="#B99C5D"/>
</linearGradient>
<linearGradient id="paint5_linear" x1="27.3939" y1="9.81641" x2="27.3939" y2="29.0607" gradientUnits="userSpaceOnUse">
<stop stop-color="#FFE5AC"/>
<stop offset="0.0001" stop-color="#FFE5AC"/>
<stop offset="1" stop-color="#B99C5D"/>
</linearGradient>
</defs>
</svg>
