<svg width="100" height="100" viewBox="0 0 100 100" fill="none" xmlns="http://www.w3.org/2000/svg">
<path d="M92.3664 43.7502H87.5014C87.2242 42.747 86.628 41.8613 85.8029 41.2271C84.9777 40.5928 83.9685 40.2444 82.9277 40.2346H77.7344V27.5346C77.7402 27.297 77.6828 27.0622 77.568 26.8541C77.4531 26.6461 77.285 26.4723 77.0809 26.3506L40.4447 5.19007C40.2383 5.07006 40.0037 5.00684 39.7648 5.00684C39.526 5.00684 39.2915 5.07006 39.085 5.19007L2.43751 26.3506C2.23015 26.4708 2.05813 26.6436 1.93881 26.8514C1.81948 27.0593 1.75705 27.2949 1.75782 27.5346V69.8559C1.75783 70.0959 1.821 70.3316 1.941 70.5395C2.06099 70.7473 2.23358 70.9199 2.44141 71.0399L39.0926 92.2004C39.3004 92.3204 39.5362 92.3836 39.7762 92.3836C40.0224 92.3838 40.2645 92.3207 40.4793 92.2004L59.7656 81.076V89.1178C59.7636 89.8835 59.9135 90.6419 60.2066 91.3492C60.4998 92.0565 60.9302 92.6987 61.4732 93.2385C62.0162 93.7783 62.6608 94.2051 63.3698 94.4941C64.0788 94.7831 64.8381 94.9285 65.6037 94.9221H92.3664C93.134 94.9292 93.8954 94.7845 94.6069 94.4962C95.3183 94.2079 95.9657 93.7818 96.5118 93.2423C97.0579 92.7029 97.492 92.0607 97.7889 91.3529C98.0859 90.645 98.2399 89.8854 98.2422 89.1178V49.6452C98.2413 48.0853 97.6225 46.5894 96.5214 45.4846C95.4202 44.3798 93.9262 43.7562 92.3664 43.7502ZM82.9764 42.969C83.5027 42.969 84.0075 43.1781 84.3797 43.5502C84.7519 43.9224 84.9609 44.4272 84.9609 44.9535V45.086C84.9609 45.6123 84.7519 46.1171 84.3797 46.4893C84.0075 46.8615 83.5027 47.0705 82.9764 47.0705H75.0315C74.5051 47.0705 74.0003 46.8615 73.6281 46.4893C73.256 46.1171 73.0469 45.6123 73.0469 45.086V44.9535C73.0469 44.4272 73.256 43.9224 73.6281 43.5502C74.0003 43.1781 74.5051 42.969 75.0315 42.969H82.9764ZM39.7762 7.95277L55.0055 16.7453L21.091 36.3258L5.86192 27.5332L39.7762 7.95277ZM38.4766 88.6483L4.49219 69.0664V29.8996L38.4766 49.4815V88.6483ZM39.7762 47.1135L23.8254 37.9043L57.7398 18.3241L73.6914 27.5332L39.7762 47.1135ZM59.7656 49.6452V77.9188L41.2109 88.6483V49.4815L75 29.8996V40.2346H75.0424C74.0017 40.2444 72.9924 40.5928 72.1672 41.227C71.3421 41.8613 70.7459 42.747 70.4688 43.7502H65.6037C64.0478 43.7578 62.5587 44.3831 61.4638 45.4886C60.3689 46.5941 59.7581 48.0893 59.7656 49.6452ZM95.5078 89.1178C95.506 89.5265 95.4229 89.9307 95.2635 90.307C95.104 90.6833 94.8714 91.0241 94.5792 91.3098C94.2869 91.5954 93.9408 91.8201 93.5609 91.9708C93.181 92.1215 92.775 92.1953 92.3664 92.1877H65.6037C65.1971 92.1946 64.7932 92.1201 64.4158 91.9687C64.0383 91.8173 63.6949 91.5919 63.4058 91.3059C63.1167 91.0199 62.8876 90.6791 62.732 90.3033C62.5765 89.9275 62.4976 89.5245 62.5 89.1178V49.6452C62.4959 49.2337 62.5729 48.8255 62.7268 48.4439C62.8806 48.0623 63.1081 47.7148 63.3964 47.4212C63.6847 47.1277 64.028 46.8938 64.4068 46.7331C64.7856 46.5724 65.1923 46.4879 65.6037 46.4846H70.5221C70.8153 47.4524 71.4143 48.299 72.2292 48.8976C73.0442 49.4962 74.0312 49.8146 75.0424 49.8049H82.9277C83.9389 49.8146 84.9259 49.4963 85.7408 48.8976C86.5558 48.299 87.1547 47.4524 87.4479 46.4846H92.3664C93.2013 46.4899 94.0001 46.8251 94.5887 47.4173C95.1772 48.0094 95.5076 48.8103 95.5078 49.6452V89.1178Z" fill="url(#paint0_linear)"/>
<path d="M67.1776 63.4766H68.6086C68.9712 63.4766 69.319 63.3325 69.5754 63.0761C69.8318 62.8197 69.9758 62.472 69.9758 62.1094C69.9758 61.7468 69.8318 61.399 69.5754 61.1426C69.319 60.8862 68.9712 60.7422 68.6086 60.7422H68.5547V57.0312H72.3256C72.4114 57.3061 72.5851 57.5453 72.8198 57.7121C73.0546 57.8788 73.3376 57.964 73.6254 57.9545C73.9885 57.9555 74.3371 57.8124 74.5948 57.5567C74.8525 57.301 74.9982 56.9535 75 56.5904V55.6705C74.997 55.3057 74.8501 54.9568 74.5913 54.6996C74.3326 54.4425 73.9828 54.2977 73.618 54.2969H67.1776C66.9982 54.2978 66.8208 54.3341 66.6555 54.4036C66.4902 54.4732 66.3402 54.5747 66.2141 54.7023C66.0881 54.8298 65.9884 54.981 65.9208 55.1472C65.8533 55.3133 65.8191 55.4912 65.8203 55.6705V62.1109C65.8193 62.2899 65.8536 62.4673 65.9213 62.6329C65.989 62.7985 66.0888 62.9491 66.2149 63.076C66.3411 63.2029 66.4911 63.3037 66.6563 63.3724C66.8215 63.4411 66.9986 63.4765 67.1776 63.4766Z" fill="url(#paint1_linear)"/>
<path d="M67.1875 75.9766H73.6328C73.9954 75.9766 74.3432 75.8325 74.5996 75.5761C74.856 75.3197 75 74.972 75 74.6094V68.1641C75 67.8015 74.856 67.4537 74.5996 67.1973C74.3432 66.9409 73.9954 66.7969 73.6328 66.7969H67.1875C66.8249 66.7969 66.4772 66.9409 66.2208 67.1973C65.9644 67.4537 65.8203 67.8015 65.8203 68.1641V74.6094C65.8203 74.972 65.9644 75.3197 66.2208 75.5761C66.4772 75.8325 66.8249 75.9766 67.1875 75.9766ZM68.5547 69.5312H72.2656V73.2422H68.5547V69.5312Z" fill="url(#paint2_linear)"/>
<path d="M68.6084 85.7422H68.5543V82.0312H72.2514C72.2584 82.3908 72.4061 82.7332 72.6627 82.9851C72.9194 83.237 73.2645 83.3783 73.6241 83.3787C73.9838 83.379 74.3292 83.2384 74.5863 82.9871C74.8435 82.7357 74.9918 82.3935 74.9996 82.034V80.7166C74.9982 80.347 74.8533 79.9923 74.5955 79.7275C74.3377 79.4626 73.987 79.3082 73.6176 79.2969H67.1771C66.8103 79.3092 66.4628 79.4647 66.2091 79.73C65.9554 79.9954 65.8157 80.3495 65.8199 80.7166V87.157C65.8197 87.3336 65.855 87.5083 65.9236 87.671C65.9922 87.8336 66.0928 87.9808 66.2194 88.1039C66.346 88.227 66.496 88.3234 66.6605 88.3874C66.825 88.4514 67.0007 88.4817 67.1771 88.4766H68.6084C68.971 88.4766 69.3187 88.3325 69.5751 88.0761C69.8315 87.8197 69.9756 87.472 69.9756 87.1094C69.9756 86.7468 69.8315 86.399 69.5751 86.1426C69.3187 85.8862 68.971 85.7422 68.6084 85.7422Z" fill="url(#paint3_linear)"/>
<path d="M76.7654 55.9748L72.7615 59.9787L71.5435 58.7605C71.4166 58.6336 71.2658 58.5329 71.1 58.4641C70.9341 58.3954 70.7563 58.3601 70.5767 58.3601C70.3972 58.3601 70.2194 58.3954 70.0535 58.4641C69.8876 58.5329 69.7369 58.6336 69.6099 58.7605C69.483 58.8875 69.3823 59.0382 69.3135 59.2041C69.2448 59.37 69.2095 59.5478 69.2095 59.7273C69.2095 59.9069 69.2448 60.0847 69.3135 60.2505C69.3823 60.4164 69.483 60.5672 69.6099 60.6941L71.7949 62.8789C71.9219 63.0059 72.0726 63.1066 72.2385 63.1753C72.4043 63.244 72.5821 63.2794 72.7617 63.2794C72.9412 63.2794 73.119 63.244 73.2849 63.1753C73.4508 63.1066 73.6015 63.0059 73.7285 62.8789L78.6996 57.9078C78.956 57.6514 79.1 57.3036 79.1 56.941C79.1 56.5784 78.956 56.2306 78.6996 55.9742C78.4432 55.7178 78.0954 55.5737 77.7328 55.5737C77.3702 55.5737 77.0224 55.7178 76.766 55.9742L76.7654 55.9748Z" fill="url(#paint4_linear)"/>
<path d="M76.7654 81.2189L72.7615 85.2228L71.5435 84.0047C71.4166 83.8777 71.2658 83.777 71.1 83.7083C70.9341 83.6396 70.7563 83.6042 70.5767 83.6042C70.3972 83.6042 70.2194 83.6396 70.0535 83.7083C69.8876 83.777 69.7369 83.8777 69.6099 84.0047C69.483 84.1316 69.3823 84.2824 69.3135 84.4482C69.2448 84.6141 69.2095 84.7919 69.2095 84.9715C69.2095 85.151 69.2448 85.3288 69.3135 85.4947C69.3823 85.6606 69.483 85.8113 69.6099 85.9383L71.7949 88.123C71.9219 88.25 72.0726 88.3507 72.2385 88.4194C72.4043 88.4881 72.5821 88.5235 72.7617 88.5235C72.9412 88.5235 73.119 88.4881 73.2849 88.4194C73.4508 88.3507 73.6015 88.25 73.7285 88.123L78.6996 83.1519C78.956 82.8955 79.1 82.5477 79.1 82.1851C79.1 81.8225 78.956 81.4747 78.6996 81.2183C78.4432 80.9619 78.0954 80.8179 77.7328 80.8179C77.3702 80.8179 77.0224 80.9619 76.766 81.2183L76.7654 81.2189Z" fill="url(#paint5_linear)"/>
<path d="M90.7927 57.6172H82.2056C81.843 57.6172 81.4952 57.7612 81.2388 58.0176C80.9824 58.274 80.8384 58.6218 80.8384 58.9844C80.8384 59.347 80.9824 59.6947 81.2388 59.9511C81.4952 60.2075 81.843 60.3516 82.2056 60.3516H90.7927C91.1553 60.3516 91.503 60.2075 91.7594 59.9511C92.0158 59.6947 92.1599 59.347 92.1599 58.9844C92.1599 58.6218 92.0158 58.274 91.7594 58.0176C91.503 57.7612 91.1553 57.6172 90.7927 57.6172Z" fill="url(#paint6_linear)"/>
<path d="M90.7927 70.1172H82.2056C81.843 70.1172 81.4952 70.2612 81.2388 70.5176C80.9824 70.774 80.8384 71.1218 80.8384 71.4844C80.8384 71.847 80.9824 72.1947 81.2388 72.4511C81.4952 72.7075 81.843 72.8516 82.2056 72.8516H90.7927C91.1553 72.8516 91.503 72.7075 91.7594 72.4511C92.0158 72.1947 92.1599 71.847 92.1599 71.4844C92.1599 71.1218 92.0158 70.774 91.7594 70.5176C91.503 70.2612 91.1553 70.1172 90.7927 70.1172Z" fill="url(#paint7_linear)"/>
<path d="M90.7927 82.6172H82.2056C81.843 82.6172 81.4952 82.7612 81.2388 83.0176C80.9824 83.274 80.8384 83.6218 80.8384 83.9844C80.8384 84.347 80.9824 84.6947 81.2388 84.9511C81.4952 85.2075 81.843 85.3516 82.2056 85.3516H90.7927C91.1553 85.3516 91.503 85.2075 91.7594 84.9511C92.0158 84.6947 92.1599 84.347 92.1599 83.9844C92.1599 83.6218 92.0158 83.274 91.7594 83.0176C91.503 82.7612 91.1553 82.6172 90.7927 82.6172Z" fill="url(#paint8_linear)"/>
<defs>
<linearGradient id="paint0_linear" x1="50" y1="5.00684" x2="50" y2="94.9224" gradientUnits="userSpaceOnUse">
<stop stop-color="#FFE5AC"/>
<stop offset="0.0001" stop-color="#FFE5AC"/>
<stop offset="1" stop-color="#B99C5D"/>
</linearGradient>
<linearGradient id="paint1_linear" x1="70.4102" y1="54.2969" x2="70.4102" y2="63.4766" gradientUnits="userSpaceOnUse">
<stop stop-color="#FFE5AC"/>
<stop offset="0.0001" stop-color="#FFE5AC"/>
<stop offset="1" stop-color="#B99C5D"/>
</linearGradient>
<linearGradient id="paint2_linear" x1="70.4102" y1="66.7969" x2="70.4102" y2="75.9766" gradientUnits="userSpaceOnUse">
<stop stop-color="#FFE5AC"/>
<stop offset="0.0001" stop-color="#FFE5AC"/>
<stop offset="1" stop-color="#B99C5D"/>
</linearGradient>
<linearGradient id="paint3_linear" x1="70.4097" y1="79.2969" x2="70.4097" y2="88.4771" gradientUnits="userSpaceOnUse">
<stop stop-color="#FFE5AC"/>
<stop offset="0.0001" stop-color="#FFE5AC"/>
<stop offset="1" stop-color="#B99C5D"/>
</linearGradient>
<linearGradient id="paint4_linear" x1="74.1548" y1="55.5737" x2="74.1548" y2="63.2794" gradientUnits="userSpaceOnUse">
<stop stop-color="#FFE5AC"/>
<stop offset="0.0001" stop-color="#FFE5AC"/>
<stop offset="1" stop-color="#B99C5D"/>
</linearGradient>
<linearGradient id="paint5_linear" x1="74.1548" y1="80.8179" x2="74.1548" y2="88.5235" gradientUnits="userSpaceOnUse">
<stop stop-color="#FFE5AC"/>
<stop offset="0.0001" stop-color="#FFE5AC"/>
<stop offset="1" stop-color="#B99C5D"/>
</linearGradient>
<linearGradient id="paint6_linear" x1="86.4991" y1="57.6172" x2="86.4991" y2="60.3516" gradientUnits="userSpaceOnUse">
<stop stop-color="#FFE5AC"/>
<stop offset="0.0001" stop-color="#FFE5AC"/>
<stop offset="1" stop-color="#B99C5D"/>
</linearGradient>
<linearGradient id="paint7_linear" x1="86.4991" y1="70.1172" x2="86.4991" y2="72.8516" gradientUnits="userSpaceOnUse">
<stop stop-color="#FFE5AC"/>
<stop offset="0.0001" stop-color="#FFE5AC"/>
<stop offset="1" stop-color="#B99C5D"/>
</linearGradient>
<linearGradient id="paint8_linear" x1="86.4991" y1="82.6172" x2="86.4991" y2="85.3516" gradientUnits="userSpaceOnUse">
<stop stop-color="#FFE5AC"/>
<stop offset="0.0001" stop-color="#FFE5AC"/>
<stop offset="1" stop-color="#B99C5D"/>
</linearGradient>
</defs>
</svg>
