<svg width="100" height="100" viewBox="0 0 100 100" fill="none" xmlns="http://www.w3.org/2000/svg">
<g clip-path="url(#clip0)">
<path d="M78.7523 7.15625C75.0068 7.15625 71.96 10.2033 71.96 13.9488C71.96 14.7578 72.6156 15.4137 73.4248 15.4137C74.234 15.4137 74.8896 14.7578 74.8896 13.9488C74.8896 11.8188 76.6225 10.0859 78.7523 10.0859C80.8824 10.0859 82.6152 11.8188 82.6152 13.9488C82.6152 16.0789 80.8824 17.8117 78.7523 17.8117H77.8227C77.0135 17.8117 76.3578 18.4676 76.3578 19.2766V24.2881C76.3578 25.0971 77.0135 25.7529 77.8227 25.7529C78.6318 25.7529 79.2875 25.0971 79.2875 24.2881V20.7205C82.7836 20.4467 85.5449 17.5141 85.5449 13.9488C85.5449 10.2033 82.4977 7.15625 78.7523 7.15625Z" fill="black"/>
<path d="M78.7523 7.15625C75.0068 7.15625 71.96 10.2033 71.96 13.9488C71.96 14.7578 72.6156 15.4137 73.4248 15.4137C74.234 15.4137 74.8896 14.7578 74.8896 13.9488C74.8896 11.8188 76.6225 10.0859 78.7523 10.0859C80.8824 10.0859 82.6152 11.8188 82.6152 13.9488C82.6152 16.0789 80.8824 17.8117 78.7523 17.8117H77.8227C77.0135 17.8117 76.3578 18.4676 76.3578 19.2766V24.2881C76.3578 25.0971 77.0135 25.7529 77.8227 25.7529C78.6318 25.7529 79.2875 25.0971 79.2875 24.2881V20.7205C82.7836 20.4467 85.5449 17.5141 85.5449 13.9488C85.5449 10.2033 82.4977 7.15625 78.7523 7.15625Z" fill="url(#paint0_linear)"/>
<path d="M77.8232 27.9849C77.0141 27.9849 76.3584 28.6407 76.3584 29.4497V29.8788C76.3584 30.6878 77.0141 31.3437 77.8232 31.3437C78.6324 31.3437 79.2881 30.6878 79.2881 29.8788V29.4497C79.2881 28.6407 78.6322 27.9849 77.8232 27.9849Z" fill="black"/>
<path d="M77.8232 27.9849C77.0141 27.9849 76.3584 28.6407 76.3584 29.4497V29.8788C76.3584 30.6878 77.0141 31.3437 77.8232 31.3437C78.6324 31.3437 79.2881 30.6878 79.2881 29.8788V29.4497C79.2881 28.6407 78.6322 27.9849 77.8232 27.9849Z" fill="url(#paint1_linear)"/>
<path d="M91.6053 0H65.8984C62.3713 0 59.502 2.86934 59.502 6.39648V17.9875C54.6814 11.0631 46.6654 6.52148 37.6074 6.52148H31.0586C23.4006 6.52148 16.2684 10.5529 12.2998 17.082C6.91406 18.7707 3.31543 23.7873 3.4791 29.4916L3.84902 42.2738C2.70977 43.3426 1.99609 44.8596 1.99609 46.5412V47.9162C1.99609 51.1428 4.62187 53.7678 7.84961 53.7678H11.7764C12.776 56.2402 14.2305 58.5471 16.1168 60.6488C15.0785 62.0867 9.74375 69.4744 9.41641 69.9281C9.31035 70.0752 9.23242 70.241 9.18672 70.4164L2.43027 96.4086C2.20508 97.2748 2.38984 98.1779 2.9375 98.8859C3.48496 99.5939 4.3125 100 5.20742 100H59.6992C60.6762 100 61.618 99.59 62.2834 98.875C62.949 98.1598 63.2908 97.1904 63.2207 96.2139L62.666 88.6209C62.5268 86.6992 62.0166 84.8602 61.1494 83.1547C60.7824 82.4336 59.9004 82.1461 59.1797 82.5129C58.4586 82.8795 58.1713 83.7615 58.5379 84.4826C59.2273 85.8385 59.633 87.302 59.7439 88.8336L60.2986 96.4258C60.315 96.6535 60.2055 96.8078 60.1391 96.8793C60.0727 96.9508 59.9268 97.0707 59.6992 97.0707H52.9428V91.0854C52.9428 90.2764 52.2871 89.6205 51.4779 89.6205C50.6687 89.6205 50.0131 90.2764 50.0131 91.0854V97.0703H17.9393L21.677 82.6922C21.6893 82.6449 21.7318 82.6119 21.7807 82.6119H28.2527C29.5662 82.6119 30.8043 82.285 31.8924 81.7105C32.833 81.8812 33.7967 81.9689 34.7656 81.9689C38.8738 81.9689 42.7943 80.3996 45.6645 77.6346L45.6699 77.6355C45.9559 77.6949 45.7391 77.6512 50.0785 78.3342C51.6695 78.5828 53.1596 79.149 54.508 80.017C54.7533 80.175 55.0279 80.2504 55.2996 80.2504C55.7811 80.2504 56.2527 80.0133 56.5326 79.5783C56.9705 78.8982 56.774 77.9916 56.0938 77.5537C54.3998 76.4631 52.5281 75.752 50.5314 75.4398C46.7729 74.8096 46.4279 74.8662 45.8262 74.635C44.7687 74.227 44.0457 73.2203 44.0275 72.0451C45.7598 71.3016 46.9824 69.6086 46.9979 67.6434C47.0027 67.1027 46.9186 66.576 46.7545 66.0779C50.2195 64.0238 55.1879 60.1365 57.7564 53.7676H60.5137C63.7402 53.7676 66.3652 51.1426 66.3652 47.916V46.541C66.3652 44.7426 65.5494 43.1314 64.2695 42.0568V38.2879C64.7984 38.4273 65.3461 38.5 65.8986 38.5H70.5117C71.0447 38.5 71.4785 38.9336 71.4785 39.4668V43.627C71.4785 44.6611 72.1107 45.5455 73.0894 45.8801C73.35 45.9691 73.615 46.0123 73.8756 46.0123C74.5936 46.0123 75.2775 45.6846 75.7412 45.0855L80.5879 38.8408C80.7562 38.6242 81.0098 38.5 81.2832 38.5H91.6074C95.1346 38.5 98.0039 35.6307 98.0039 32.1035V6.39648C98.0039 2.86934 95.1336 0 91.6053 0V0ZM4.92578 47.916V46.541C4.92578 44.9289 6.2373 43.6172 7.84961 43.6172H10.2266C10.1258 46.1643 10.1918 48.2617 10.8279 50.8379H7.84961C6.2373 50.8379 4.92578 49.5271 4.92578 47.916ZM34.816 79.0379C35.6113 77.8135 36.0754 76.3551 36.0754 74.7895V72.4486H41.1139C41.225 73.9119 41.8754 75.227 42.8844 76.183C40.6572 78.002 37.8029 79.0264 34.816 79.0379ZM42.0635 69.5188H35.7437C34.3111 69.5188 33.1457 70.6842 33.1457 72.1168V74.7893C33.1457 77.4871 30.9508 79.6822 28.2527 79.6822H21.7807C20.398 79.6822 19.1895 80.6168 18.8416 81.9551L14.9121 97.0703H5.28555L11.9531 71.4193C12.4697 70.7035 21.9711 57.5459 23.1695 55.884C23.4736 55.4625 23.9234 55.185 24.4359 55.1027C24.9545 55.0193 25.4777 55.1453 25.9064 55.4564L25.9779 55.5086C26.4434 55.8463 26.7186 56.3686 26.7338 56.9535C26.7471 57.3498 26.6334 57.7311 26.4035 58.0582L23.673 61.9594C23.1643 62.684 23.102 63.6223 23.5102 64.408C23.9188 65.1941 24.7232 65.6826 25.6098 65.6826H42.15C42.6627 65.6826 43.1447 65.8824 43.5076 66.2451C43.8736 66.6113 44.0728 67.0984 44.0682 67.6186C44.06 68.6664 43.1605 69.5188 42.0635 69.5188ZM63.4355 47.916C63.4355 49.5271 62.1248 50.8379 60.5137 50.8379H58.7053C59.1285 49.1238 59.3455 47.3541 59.3455 45.5527C59.3455 44.8996 59.3316 44.2531 59.3066 43.6172H60.5137C62.1248 43.6172 63.4355 44.9289 63.4355 46.541V47.916ZM60.5137 40.6875H59.0971C58.9254 39.0422 58.6637 37.4488 58.3135 35.9359C57.6291 32.9916 55.0307 30.8158 51.9941 30.6449C46.3187 30.3268 40.5305 28.8553 35.2541 26.3893C33.7768 25.7002 31.9926 26.176 31.1033 27.4963C30.7676 27.9951 30.0621 28.358 29.433 28.3438C28.4074 28.3318 27.2797 27.7684 25.8848 26.5709C24.9441 25.7619 23.9963 24.8148 22.9883 23.6766C22.2635 22.8561 21.2207 22.385 20.1273 22.384H20.1236C19.0367 22.384 18 22.85 17.2785 23.6633C15.8689 25.2539 14.6461 27.0801 13.6439 29.0906C13.283 29.8146 13.5773 30.6941 14.3014 31.0553C15.0256 31.4162 15.9049 31.1219 16.266 30.3979C17.1537 28.617 18.232 27.0049 19.4709 25.607C19.6971 25.3521 19.9766 25.3139 20.1238 25.3139C20.275 25.3162 20.5602 25.3531 20.7939 25.6178C21.892 26.8576 22.9324 27.8961 23.9756 28.7932C25.201 29.8451 27.0965 31.2469 29.3982 31.2734C31.0285 31.29 32.6447 30.4527 33.5334 29.1328C33.6219 29.0014 33.8383 28.9617 34.0146 29.0439C39.6252 31.666 45.7857 33.2311 51.8297 33.5701C53.5754 33.6684 55.0682 34.9139 55.4596 36.598C55.8711 38.376 56.1529 40.2803 56.2969 42.2615C56.3758 43.318 56.4158 44.4254 56.4158 45.5529C56.4158 47.7154 56.0617 49.8236 55.3633 51.8193C53.1748 58.0762 48.277 61.8137 45.0252 63.6967C44.1969 63.0842 43.1988 62.7531 42.15 62.7531H26.6936L28.802 59.7406C29.3992 58.8906 29.6965 57.893 29.6619 56.867C29.6236 55.3744 28.9078 54.015 27.7 53.1387L27.6287 53.0867C26.5639 52.3143 25.2652 52.0033 23.9721 52.2104C22.6852 52.4168 21.5564 53.1129 20.7934 54.1705C20.2422 54.935 19.1617 56.4316 17.8768 58.2115C16.2143 56.2514 14.9697 54.1078 14.1695 51.8191C13.0418 48.5977 12.9789 45.7043 13.2361 42.2592C13.3836 40.2361 13.676 38.2889 14.1051 36.4717C14.291 35.6844 13.8035 34.8953 13.016 34.7094C12.2287 34.5234 11.4396 35.0109 11.2537 35.7984C10.8863 37.3543 10.6135 38.9947 10.4361 40.6879H7.84961C7.46914 40.6879 7.09766 40.7256 6.73711 40.7953L6.40762 29.4076C6.27715 24.867 9.2498 20.8939 13.6365 19.7457C14.0176 19.6459 14.3426 19.3969 14.5379 19.0547C17.918 13.1309 24.2484 9.45117 31.0586 9.45117H37.6074C50.6936 9.45117 61.3398 20.0975 61.3398 33.1836V40.7469C61.0697 40.7086 60.7941 40.6875 60.5137 40.6875ZM95.0742 32.1035C95.0742 34.0152 93.5189 35.5703 91.6074 35.5703H81.2832C80.0992 35.5703 79.0031 36.1066 78.2746 37.0432L74.4082 42.025V39.4668C74.4082 37.3184 72.6603 35.5703 70.5117 35.5703H65.8984C65.3187 35.5703 64.766 35.4299 64.2693 35.1633V33.1836C64.2693 29.7523 63.6174 26.4707 62.4316 23.4553V6.39648C62.4316 4.48477 63.9869 2.92969 65.8984 2.92969H91.6053C93.518 2.92969 95.0742 4.48477 95.0742 6.39648V32.1035Z" fill="black"/>
<path d="M91.6053 0H65.8984C62.3713 0 59.502 2.86934 59.502 6.39648V17.9875C54.6814 11.0631 46.6654 6.52148 37.6074 6.52148H31.0586C23.4006 6.52148 16.2684 10.5529 12.2998 17.082C6.91406 18.7707 3.31543 23.7873 3.4791 29.4916L3.84902 42.2738C2.70977 43.3426 1.99609 44.8596 1.99609 46.5412V47.9162C1.99609 51.1428 4.62187 53.7678 7.84961 53.7678H11.7764C12.776 56.2402 14.2305 58.5471 16.1168 60.6488C15.0785 62.0867 9.74375 69.4744 9.41641 69.9281C9.31035 70.0752 9.23242 70.241 9.18672 70.4164L2.43027 96.4086C2.20508 97.2748 2.38984 98.1779 2.9375 98.8859C3.48496 99.5939 4.3125 100 5.20742 100H59.6992C60.6762 100 61.618 99.59 62.2834 98.875C62.949 98.1598 63.2908 97.1904 63.2207 96.2139L62.666 88.6209C62.5268 86.6992 62.0166 84.8602 61.1494 83.1547C60.7824 82.4336 59.9004 82.1461 59.1797 82.5129C58.4586 82.8795 58.1713 83.7615 58.5379 84.4826C59.2273 85.8385 59.633 87.302 59.7439 88.8336L60.2986 96.4258C60.315 96.6535 60.2055 96.8078 60.1391 96.8793C60.0727 96.9508 59.9268 97.0707 59.6992 97.0707H52.9428V91.0854C52.9428 90.2764 52.2871 89.6205 51.4779 89.6205C50.6687 89.6205 50.0131 90.2764 50.0131 91.0854V97.0703H17.9393L21.677 82.6922C21.6893 82.6449 21.7318 82.6119 21.7807 82.6119H28.2527C29.5662 82.6119 30.8043 82.285 31.8924 81.7105C32.833 81.8812 33.7967 81.9689 34.7656 81.9689C38.8738 81.9689 42.7943 80.3996 45.6645 77.6346L45.6699 77.6355C45.9559 77.6949 45.7391 77.6512 50.0785 78.3342C51.6695 78.5828 53.1596 79.149 54.508 80.017C54.7533 80.175 55.0279 80.2504 55.2996 80.2504C55.7811 80.2504 56.2527 80.0133 56.5326 79.5783C56.9705 78.8982 56.774 77.9916 56.0938 77.5537C54.3998 76.4631 52.5281 75.752 50.5314 75.4398C46.7729 74.8096 46.4279 74.8662 45.8262 74.635C44.7687 74.227 44.0457 73.2203 44.0275 72.0451C45.7598 71.3016 46.9824 69.6086 46.9979 67.6434C47.0027 67.1027 46.9186 66.576 46.7545 66.0779C50.2195 64.0238 55.1879 60.1365 57.7564 53.7676H60.5137C63.7402 53.7676 66.3652 51.1426 66.3652 47.916V46.541C66.3652 44.7426 65.5494 43.1314 64.2695 42.0568V38.2879C64.7984 38.4273 65.3461 38.5 65.8986 38.5H70.5117C71.0447 38.5 71.4785 38.9336 71.4785 39.4668V43.627C71.4785 44.6611 72.1107 45.5455 73.0894 45.8801C73.35 45.9691 73.615 46.0123 73.8756 46.0123C74.5936 46.0123 75.2775 45.6846 75.7412 45.0855L80.5879 38.8408C80.7562 38.6242 81.0098 38.5 81.2832 38.5H91.6074C95.1346 38.5 98.0039 35.6307 98.0039 32.1035V6.39648C98.0039 2.86934 95.1336 0 91.6053 0V0ZM4.92578 47.916V46.541C4.92578 44.9289 6.2373 43.6172 7.84961 43.6172H10.2266C10.1258 46.1643 10.1918 48.2617 10.8279 50.8379H7.84961C6.2373 50.8379 4.92578 49.5271 4.92578 47.916ZM34.816 79.0379C35.6113 77.8135 36.0754 76.3551 36.0754 74.7895V72.4486H41.1139C41.225 73.9119 41.8754 75.227 42.8844 76.183C40.6572 78.002 37.8029 79.0264 34.816 79.0379ZM42.0635 69.5188H35.7437C34.3111 69.5188 33.1457 70.6842 33.1457 72.1168V74.7893C33.1457 77.4871 30.9508 79.6822 28.2527 79.6822H21.7807C20.398 79.6822 19.1895 80.6168 18.8416 81.9551L14.9121 97.0703H5.28555L11.9531 71.4193C12.4697 70.7035 21.9711 57.5459 23.1695 55.884C23.4736 55.4625 23.9234 55.185 24.4359 55.1027C24.9545 55.0193 25.4777 55.1453 25.9064 55.4564L25.9779 55.5086C26.4434 55.8463 26.7186 56.3686 26.7338 56.9535C26.7471 57.3498 26.6334 57.7311 26.4035 58.0582L23.673 61.9594C23.1643 62.684 23.102 63.6223 23.5102 64.408C23.9188 65.1941 24.7232 65.6826 25.6098 65.6826H42.15C42.6627 65.6826 43.1447 65.8824 43.5076 66.2451C43.8736 66.6113 44.0728 67.0984 44.0682 67.6186C44.06 68.6664 43.1605 69.5188 42.0635 69.5188ZM63.4355 47.916C63.4355 49.5271 62.1248 50.8379 60.5137 50.8379H58.7053C59.1285 49.1238 59.3455 47.3541 59.3455 45.5527C59.3455 44.8996 59.3316 44.2531 59.3066 43.6172H60.5137C62.1248 43.6172 63.4355 44.9289 63.4355 46.541V47.916ZM60.5137 40.6875H59.0971C58.9254 39.0422 58.6637 37.4488 58.3135 35.9359C57.6291 32.9916 55.0307 30.8158 51.9941 30.6449C46.3187 30.3268 40.5305 28.8553 35.2541 26.3893C33.7768 25.7002 31.9926 26.176 31.1033 27.4963C30.7676 27.9951 30.0621 28.358 29.433 28.3438C28.4074 28.3318 27.2797 27.7684 25.8848 26.5709C24.9441 25.7619 23.9963 24.8148 22.9883 23.6766C22.2635 22.8561 21.2207 22.385 20.1273 22.384H20.1236C19.0367 22.384 18 22.85 17.2785 23.6633C15.8689 25.2539 14.6461 27.0801 13.6439 29.0906C13.283 29.8146 13.5773 30.6941 14.3014 31.0553C15.0256 31.4162 15.9049 31.1219 16.266 30.3979C17.1537 28.617 18.232 27.0049 19.4709 25.607C19.6971 25.3521 19.9766 25.3139 20.1238 25.3139C20.275 25.3162 20.5602 25.3531 20.7939 25.6178C21.892 26.8576 22.9324 27.8961 23.9756 28.7932C25.201 29.8451 27.0965 31.2469 29.3982 31.2734C31.0285 31.29 32.6447 30.4527 33.5334 29.1328C33.6219 29.0014 33.8383 28.9617 34.0146 29.0439C39.6252 31.666 45.7857 33.2311 51.8297 33.5701C53.5754 33.6684 55.0682 34.9139 55.4596 36.598C55.8711 38.376 56.1529 40.2803 56.2969 42.2615C56.3758 43.318 56.4158 44.4254 56.4158 45.5529C56.4158 47.7154 56.0617 49.8236 55.3633 51.8193C53.1748 58.0762 48.277 61.8137 45.0252 63.6967C44.1969 63.0842 43.1988 62.7531 42.15 62.7531H26.6936L28.802 59.7406C29.3992 58.8906 29.6965 57.893 29.6619 56.867C29.6236 55.3744 28.9078 54.015 27.7 53.1387L27.6287 53.0867C26.5639 52.3143 25.2652 52.0033 23.9721 52.2104C22.6852 52.4168 21.5564 53.1129 20.7934 54.1705C20.2422 54.935 19.1617 56.4316 17.8768 58.2115C16.2143 56.2514 14.9697 54.1078 14.1695 51.8191C13.0418 48.5977 12.9789 45.7043 13.2361 42.2592C13.3836 40.2361 13.676 38.2889 14.1051 36.4717C14.291 35.6844 13.8035 34.8953 13.016 34.7094C12.2287 34.5234 11.4396 35.0109 11.2537 35.7984C10.8863 37.3543 10.6135 38.9947 10.4361 40.6879H7.84961C7.46914 40.6879 7.09766 40.7256 6.73711 40.7953L6.40762 29.4076C6.27715 24.867 9.2498 20.8939 13.6365 19.7457C14.0176 19.6459 14.3426 19.3969 14.5379 19.0547C17.918 13.1309 24.2484 9.45117 31.0586 9.45117H37.6074C50.6936 9.45117 61.3398 20.0975 61.3398 33.1836V40.7469C61.0697 40.7086 60.7941 40.6875 60.5137 40.6875ZM95.0742 32.1035C95.0742 34.0152 93.5189 35.5703 91.6074 35.5703H81.2832C80.0992 35.5703 79.0031 36.1066 78.2746 37.0432L74.4082 42.025V39.4668C74.4082 37.3184 72.6603 35.5703 70.5117 35.5703H65.8984C65.3187 35.5703 64.766 35.4299 64.2693 35.1633V33.1836C64.2693 29.7523 63.6174 26.4707 62.4316 23.4553V6.39648C62.4316 4.48477 63.9869 2.92969 65.8984 2.92969H91.6053C93.518 2.92969 95.0742 4.48477 95.0742 6.39648V32.1035Z" fill="url(#paint2_linear)"/>
<path d="M27.3643 47.0032C28.1732 47.0032 28.8291 46.3474 28.8291 45.5384V43.9028C28.8291 43.0938 28.1732 42.438 27.3643 42.438C26.5553 42.438 25.8994 43.0938 25.8994 43.9028V45.5384C25.8994 46.3474 26.5553 47.0032 27.3643 47.0032Z" fill="black"/>
<path d="M27.3643 47.0032C28.1732 47.0032 28.8291 46.3474 28.8291 45.5384V43.9028C28.8291 43.0938 28.1732 42.438 27.3643 42.438C26.5553 42.438 25.8994 43.0938 25.8994 43.9028V45.5384C25.8994 46.3474 26.5553 47.0032 27.3643 47.0032Z" fill="url(#paint3_linear)"/>
<path d="M49.2549 47.0032C50.0641 47.0032 50.7197 46.3474 50.7197 45.5384V43.9028C50.7197 43.0938 50.0641 42.438 49.2549 42.438C48.4459 42.438 47.79 43.0938 47.79 43.9028V45.5384C47.79 46.3474 48.4459 47.0032 49.2549 47.0032Z" fill="black"/>
<path d="M49.2549 47.0032C50.0641 47.0032 50.7197 46.3474 50.7197 45.5384V43.9028C50.7197 43.0938 50.0641 42.438 49.2549 42.438C48.4459 42.438 47.79 43.0938 47.79 43.9028V45.5384C47.79 46.3474 48.4459 47.0032 49.2549 47.0032Z" fill="url(#paint4_linear)"/>
<path d="M35.7833 54.2109C37.7806 53.0459 39.6406 53.0459 41.6378 54.2109C41.8699 54.3463 42.1238 54.4107 42.3745 54.4106C42.8784 54.4106 43.3689 54.1502 43.6411 53.6836C44.0488 52.9848 43.8126 52.0879 43.1138 51.6803C40.2331 49.9998 37.1878 49.9998 34.3072 51.6803C33.6083 52.0879 33.3722 52.985 33.7798 53.6836C34.1874 54.3826 35.0847 54.6186 35.7833 54.2109Z" fill="black"/>
<path d="M35.7833 54.2109C37.7806 53.0459 39.6406 53.0459 41.6378 54.2109C41.8699 54.3463 42.1238 54.4107 42.3745 54.4106C42.8784 54.4106 43.3689 54.1502 43.6411 53.6836C44.0488 52.9848 43.8126 52.0879 43.1138 51.6803C40.2331 49.9998 37.1878 49.9998 34.3072 51.6803C33.6083 52.0879 33.3722 52.985 33.7798 53.6836C34.1874 54.3826 35.0847 54.6186 35.7833 54.2109Z" fill="url(#paint5_linear)"/>
</g>
<defs>
<linearGradient id="paint0_linear" x1="78.7524" y1="7.15625" x2="78.7524" y2="25.7529" gradientUnits="userSpaceOnUse">
<stop stop-color="#FFE5AC"/>
<stop offset="0.0001" stop-color="#FFE5AC"/>
<stop offset="1" stop-color="#B99C5D"/>
</linearGradient>
<linearGradient id="paint1_linear" x1="77.8232" y1="27.9849" x2="77.8232" y2="31.3437" gradientUnits="userSpaceOnUse">
<stop stop-color="#FFE5AC"/>
<stop offset="0.0001" stop-color="#FFE5AC"/>
<stop offset="1" stop-color="#B99C5D"/>
</linearGradient>
<linearGradient id="paint2_linear" x1="50" y1="0" x2="50" y2="100" gradientUnits="userSpaceOnUse">
<stop stop-color="#FFE5AC"/>
<stop offset="0.0001" stop-color="#FFE5AC"/>
<stop offset="1" stop-color="#B99C5D"/>
</linearGradient>
<linearGradient id="paint3_linear" x1="27.3643" y1="42.438" x2="27.3643" y2="47.0032" gradientUnits="userSpaceOnUse">
<stop stop-color="#FFE5AC"/>
<stop offset="0.0001" stop-color="#FFE5AC"/>
<stop offset="1" stop-color="#B99C5D"/>
</linearGradient>
<linearGradient id="paint4_linear" x1="49.2549" y1="42.438" x2="49.2549" y2="47.0032" gradientUnits="userSpaceOnUse">
<stop stop-color="#FFE5AC"/>
<stop offset="0.0001" stop-color="#FFE5AC"/>
<stop offset="1" stop-color="#B99C5D"/>
</linearGradient>
<linearGradient id="paint5_linear" x1="38.7105" y1="50.4199" x2="38.7105" y2="54.4107" gradientUnits="userSpaceOnUse">
<stop stop-color="#FFE5AC"/>
<stop offset="0.0001" stop-color="#FFE5AC"/>
<stop offset="1" stop-color="#B99C5D"/>
</linearGradient>
<clipPath id="clip0">
<rect width="100" height="100" fill="white"/>
</clipPath>
</defs>
</svg>
