<svg width="100" height="100" viewBox="0 0 100 100" fill="none" xmlns="http://www.w3.org/2000/svg">
<g clip-path="url(#clip0)">
<path d="M52.4726 47.5293C51.709 46.7656 50.4727 46.7656 49.709 47.5293C48.9473 48.291 48.9473 49.5273 49.709 50.291C50.4727 51.0527 51.709 51.0527 52.4726 50.291C53.2344 49.5273 53.2344 48.291 52.4726 47.5293Z" fill="black"/>
<path d="M52.4726 47.5293C51.709 46.7656 50.4727 46.7656 49.709 47.5293C48.9473 48.291 48.9473 49.5273 49.709 50.291C50.4727 51.0527 51.709 51.0527 52.4726 50.291C53.2344 49.5273 53.2344 48.291 52.4726 47.5293Z" fill="url(#paint0_linear)"/>
<path d="M77.33 22.6698C73.5136 18.8536 67.3355 18.8534 63.5189 22.6698C59.7125 26.4763 59.7123 32.6716 63.5195 36.4811C67.3273 40.2866 73.5226 40.2882 77.33 36.4808C81.146 32.6647 81.1468 26.4864 77.33 22.6698ZM74.5679 33.7185C72.2841 36.0024 68.5665 36.0024 66.2816 33.7188C63.9974 31.4333 63.9972 27.7157 66.2812 25.4319C68.5708 23.1423 72.2779 23.1419 74.5679 25.4319C76.8575 27.7214 76.8579 31.4286 74.5679 33.7185Z" fill="black"/>
<path d="M77.33 22.6698C73.5136 18.8536 67.3355 18.8534 63.5189 22.6698C59.7125 26.4763 59.7123 32.6716 63.5195 36.4811C67.3273 40.2866 73.5226 40.2882 77.33 36.4808C81.146 32.6647 81.1468 26.4864 77.33 22.6698ZM74.5679 33.7185C72.2841 36.0024 68.5665 36.0024 66.2816 33.7188C63.9974 31.4333 63.9972 27.7157 66.2812 25.4319C68.5708 23.1423 72.2779 23.1419 74.5679 25.4319C76.8575 27.7214 76.8579 31.4286 74.5679 33.7185Z" fill="url(#paint1_linear)"/>
<path d="M99.428 0.572088C99.0444 0.188691 98.521 -0.0191214 97.9768 0.00138633C97.5352 0.0172066 87.0206 0.439862 74.5216 4.85763C64.506 8.39395 56.1577 13.457 49.7087 19.9062C48.2636 21.3513 46.8574 22.8838 45.5119 24.4758C39.1353 20.7222 34.0256 21.8992 30.7953 23.6279C23.3576 27.6084 18.7539 38.4162 18.7539 46.1466C18.7545 46.9365 19.2305 47.6488 19.9602 47.9509C20.2018 48.0511 20.4557 48.0997 20.7072 48.0997C21.2156 48.0997 21.715 47.9011 22.0887 47.5277C26.0111 43.6052 30.8492 43.8505 32.4297 44.0583L33.1136 44.7423C31.7676 47.9454 30.6832 51.1306 29.8879 54.2284C29.6008 55.3495 29.6976 56.5358 30.1244 57.621C28.2439 58.4876 26.4297 59.7601 24.85 61.3397C19.8225 66.3675 18.8016 78.6202 18.7605 79.1393C18.7156 79.709 18.9223 80.27 19.3264 80.6741C19.6941 81.0417 20.1916 81.2461 20.7072 81.2461C20.7584 81.2461 20.8098 81.2442 20.8611 81.2401C21.3803 81.1993 33.6334 80.1784 38.6609 75.1509C40.24 73.5718 41.5123 71.7577 42.3789 69.8776C43.5277 70.3294 44.7101 70.385 45.7734 70.1126C48.8699 69.3175 52.0546 68.2335 55.2581 66.8872L55.9421 67.5712C56.1497 69.1518 56.395 73.9899 52.4728 77.912C51.9144 78.4706 51.7472 79.3106 52.0495 80.0403C52.3517 80.7702 53.0638 81.246 53.8538 81.246C61.5843 81.246 72.3919 76.6423 76.3724 69.2046C78.1011 65.9747 79.278 60.8649 75.5245 54.4882C77.1157 53.1433 78.6483 51.737 80.094 50.2913C86.5432 43.8421 91.6061 35.4939 95.1424 25.4791C99.5604 12.9795 99.9829 2.46466 99.9987 2.02326C100.018 1.48127 99.8114 0.955681 99.428 0.572088ZM23.1207 41.9456C24.334 36.074 27.858 29.6308 32.6392 27.0718C35.8343 25.3621 39.3267 25.5297 43.04 27.5623C39.8765 31.7228 37.1263 36.2052 34.834 40.9386C34.8049 40.9206 34.4533 40.4786 33.8002 40.3314C33.5316 40.2706 28.3638 39.1591 23.1207 41.9456ZM35.8988 72.3885C33.2133 75.0741 26.9135 76.4905 22.9316 77.0688C23.5101 73.0868 24.9267 66.7872 27.6121 64.1018C29.116 62.5979 30.8597 61.4577 32.6125 60.8155L39.1851 67.3882C38.5429 69.1409 37.4029 70.8847 35.8988 72.3885ZM44.8031 66.3286C44.2378 66.4733 43.5832 66.2608 43.0964 65.7749C40.5697 63.2481 39.5812 62.2597 39.2711 61.9497C38.7023 61.381 37.3076 59.9862 34.2269 56.9054C33.7398 56.4173 33.5273 55.7628 33.6717 55.1985C34.2972 52.7622 35.1154 50.2626 36.1103 47.739L52.2617 63.8903C49.7376 64.8854 47.2384 65.7034 44.8031 66.3286ZM72.9288 67.3614C70.3698 72.1425 63.9269 75.6667 58.0554 76.8798C59.9275 73.3569 60.3402 68.8724 59.6562 66.153C59.4974 65.5214 59.0853 65.2038 59.0622 65.1665C63.7952 62.8741 68.2774 60.1239 72.4384 56.9605C74.471 60.6741 74.6384 64.1669 72.9288 67.3614ZM77.3323 47.5292C75.5724 49.289 73.6772 50.9892 71.6995 52.5823C66.9452 56.4105 61.7124 59.653 56.1296 62.2343L37.7664 43.8714C40.3476 38.2882 43.5902 33.0554 47.4179 28.3017C49.0124 26.3226 50.7124 24.4273 52.4716 22.6683C58.2577 16.882 65.7253 12.2769 74.6729 8.96211L91.0385 25.3277C87.7241 34.2751 83.119 41.7427 77.3323 47.5292ZM92.4438 21.2084L78.7923 7.55684C86.23 5.24669 92.7005 4.38165 95.9301 4.07071C95.619 7.30098 94.7538 13.7715 92.4438 21.2084Z" fill="black"/>
<path d="M99.428 0.572088C99.0444 0.188691 98.521 -0.0191214 97.9768 0.00138633C97.5352 0.0172066 87.0206 0.439862 74.5216 4.85763C64.506 8.39395 56.1577 13.457 49.7087 19.9062C48.2636 21.3513 46.8574 22.8838 45.5119 24.4758C39.1353 20.7222 34.0256 21.8992 30.7953 23.6279C23.3576 27.6084 18.7539 38.4162 18.7539 46.1466C18.7545 46.9365 19.2305 47.6488 19.9602 47.9509C20.2018 48.0511 20.4557 48.0997 20.7072 48.0997C21.2156 48.0997 21.715 47.9011 22.0887 47.5277C26.0111 43.6052 30.8492 43.8505 32.4297 44.0583L33.1136 44.7423C31.7676 47.9454 30.6832 51.1306 29.8879 54.2284C29.6008 55.3495 29.6976 56.5358 30.1244 57.621C28.2439 58.4876 26.4297 59.7601 24.85 61.3397C19.8225 66.3675 18.8016 78.6202 18.7605 79.1393C18.7156 79.709 18.9223 80.27 19.3264 80.6741C19.6941 81.0417 20.1916 81.2461 20.7072 81.2461C20.7584 81.2461 20.8098 81.2442 20.8611 81.2401C21.3803 81.1993 33.6334 80.1784 38.6609 75.1509C40.24 73.5718 41.5123 71.7577 42.3789 69.8776C43.5277 70.3294 44.7101 70.385 45.7734 70.1126C48.8699 69.3175 52.0546 68.2335 55.2581 66.8872L55.9421 67.5712C56.1497 69.1518 56.395 73.9899 52.4728 77.912C51.9144 78.4706 51.7472 79.3106 52.0495 80.0403C52.3517 80.7702 53.0638 81.246 53.8538 81.246C61.5843 81.246 72.3919 76.6423 76.3724 69.2046C78.1011 65.9747 79.278 60.8649 75.5245 54.4882C77.1157 53.1433 78.6483 51.737 80.094 50.2913C86.5432 43.8421 91.6061 35.4939 95.1424 25.4791C99.5604 12.9795 99.9829 2.46466 99.9987 2.02326C100.018 1.48127 99.8114 0.955681 99.428 0.572088ZM23.1207 41.9456C24.334 36.074 27.858 29.6308 32.6392 27.0718C35.8343 25.3621 39.3267 25.5297 43.04 27.5623C39.8765 31.7228 37.1263 36.2052 34.834 40.9386C34.8049 40.9206 34.4533 40.4786 33.8002 40.3314C33.5316 40.2706 28.3638 39.1591 23.1207 41.9456ZM35.8988 72.3885C33.2133 75.0741 26.9135 76.4905 22.9316 77.0688C23.5101 73.0868 24.9267 66.7872 27.6121 64.1018C29.116 62.5979 30.8597 61.4577 32.6125 60.8155L39.1851 67.3882C38.5429 69.1409 37.4029 70.8847 35.8988 72.3885ZM44.8031 66.3286C44.2378 66.4733 43.5832 66.2608 43.0964 65.7749C40.5697 63.2481 39.5812 62.2597 39.2711 61.9497C38.7023 61.381 37.3076 59.9862 34.2269 56.9054C33.7398 56.4173 33.5273 55.7628 33.6717 55.1985C34.2972 52.7622 35.1154 50.2626 36.1103 47.739L52.2617 63.8903C49.7376 64.8854 47.2384 65.7034 44.8031 66.3286ZM72.9288 67.3614C70.3698 72.1425 63.9269 75.6667 58.0554 76.8798C59.9275 73.3569 60.3402 68.8724 59.6562 66.153C59.4974 65.5214 59.0853 65.2038 59.0622 65.1665C63.7952 62.8741 68.2774 60.1239 72.4384 56.9605C74.471 60.6741 74.6384 64.1669 72.9288 67.3614ZM77.3323 47.5292C75.5724 49.289 73.6772 50.9892 71.6995 52.5823C66.9452 56.4105 61.7124 59.653 56.1296 62.2343L37.7664 43.8714C40.3476 38.2882 43.5902 33.0554 47.4179 28.3017C49.0124 26.3226 50.7124 24.4273 52.4716 22.6683C58.2577 16.882 65.7253 12.2769 74.6729 8.96211L91.0385 25.3277C87.7241 34.2751 83.119 41.7427 77.3323 47.5292ZM92.4438 21.2084L78.7923 7.55684C86.23 5.24669 92.7005 4.38165 95.9301 4.07071C95.619 7.30098 94.7538 13.7715 92.4438 21.2084Z" fill="url(#paint2_linear)"/>
<path d="M46.9473 80.6734C46.1842 79.9107 44.9475 79.9111 44.185 80.6738L38.6616 86.1992C37.8991 86.962 37.8993 88.1988 38.662 88.9613C39.4251 89.7238 40.6618 89.7238 41.4243 88.9609L46.9477 83.4355C47.7102 82.6726 47.71 81.4359 46.9473 80.6734Z" fill="black"/>
<path d="M46.9473 80.6734C46.1842 79.9107 44.9475 79.9111 44.185 80.6738L38.6616 86.1992C37.8991 86.962 37.8993 88.1988 38.662 88.9613C39.4251 89.7238 40.6618 89.7238 41.4243 88.9609L46.9477 83.4355C47.7102 82.6726 47.71 81.4359 46.9473 80.6734Z" fill="url(#paint3_linear)"/>
<path d="M19.3266 53.0527C18.5641 52.2898 17.3276 52.2898 16.5645 53.0523L11.0391 58.5757C10.2762 59.3382 10.276 60.5749 11.0385 61.3378C11.8008 62.1003 13.0374 62.1011 13.8006 61.3382L19.326 55.8148C20.0889 55.0523 20.0891 53.8156 19.3266 53.0527Z" fill="black"/>
<path d="M19.3266 53.0527C18.5641 52.2898 17.3276 52.2898 16.5645 53.0523L11.0391 58.5757C10.2762 59.3382 10.276 60.5749 11.0385 61.3378C11.8008 62.1003 13.0374 62.1011 13.8006 61.3382L19.326 55.8148C20.0889 55.0523 20.0891 53.8156 19.3266 53.0527Z" fill="url(#paint4_linear)"/>
<path d="M33.137 83.4373C32.3747 82.6746 31.1378 82.6746 30.3749 83.4371L17.1445 96.6656C16.3816 97.4283 16.3816 98.665 17.1443 99.4277C17.9066 100.19 19.1435 100.191 19.9064 99.4279L33.1368 86.1994C33.8997 85.4367 33.8997 84.2 33.137 83.4373Z" fill="black"/>
<path d="M33.137 83.4373C32.3747 82.6746 31.1378 82.6746 30.3749 83.4371L17.1445 96.6656C16.3816 97.4283 16.3816 98.665 17.1443 99.4277C17.9066 100.19 19.1435 100.191 19.9064 99.4279L33.1368 86.1994C33.8997 85.4367 33.8997 84.2 33.137 83.4373Z" fill="url(#paint5_linear)"/>
<path d="M17.512 83.4373C16.7495 82.6746 15.5126 82.6746 14.7499 83.4371L1.51946 96.6656C0.756568 97.4283 0.756568 98.665 1.51926 99.4277C2.28156 100.19 3.51848 100.191 4.28137 99.4279L17.5118 86.1994C18.2747 85.4367 18.2747 84.2 17.512 83.4373Z" fill="black"/>
<path d="M17.512 83.4373C16.7495 82.6746 15.5126 82.6746 14.7499 83.4371L1.51946 96.6656C0.756568 97.4283 0.756568 98.665 1.51926 99.4277C2.28156 100.19 3.51848 100.191 4.28137 99.4279L17.5118 86.1994C18.2747 85.4367 18.2747 84.2 17.512 83.4373Z" fill="url(#paint6_linear)"/>
<path d="M16.5636 66.8629C15.8011 66.1004 14.5642 66.1004 13.8015 66.8631L0.572973 80.0935C-0.189721 80.8564 -0.189721 82.0929 0.573168 82.8558C1.33586 83.6185 2.57258 83.6185 3.33527 82.8556L16.5638 69.6252C17.3265 68.8623 17.3265 67.6258 16.5636 66.8629Z" fill="black"/>
<path d="M16.5636 66.8629C15.8011 66.1004 14.5642 66.1004 13.8015 66.8631L0.572973 80.0935C-0.189721 80.8564 -0.189721 82.0929 0.573168 82.8558C1.33586 83.6185 2.57258 83.6185 3.33527 82.8556L16.5638 69.6252C17.3265 68.8623 17.3265 67.6258 16.5636 66.8629Z" fill="url(#paint7_linear)"/>
<path d="M60.7581 39.2419C59.9952 38.4792 58.7589 38.4792 57.9958 39.2419L55.2341 42.0037C54.4714 42.7664 54.4714 44.0031 55.2341 44.766C55.997 45.5286 57.2335 45.5286 57.9964 44.766L60.7581 42.0042C61.5208 41.2415 61.5208 40.0048 60.7581 39.2419Z" fill="black"/>
<path d="M60.7581 39.2419C59.9952 38.4792 58.7589 38.4792 57.9958 39.2419L55.2341 42.0037C54.4714 42.7664 54.4714 44.0031 55.2341 44.766C55.997 45.5286 57.2335 45.5286 57.9964 44.766L60.7581 42.0042C61.5208 41.2415 61.5208 40.0048 60.7581 39.2419Z" fill="url(#paint8_linear)"/>
</g>
<defs>
<linearGradient id="paint0_linear" x1="51.0908" y1="46.9565" x2="51.0908" y2="50.8623" gradientUnits="userSpaceOnUse">
<stop stop-color="#FFE5AC"/>
<stop offset="0.0001" stop-color="#FFE5AC"/>
<stop offset="1" stop-color="#B99C5D"/>
</linearGradient>
<linearGradient id="paint1_linear" x1="70.4282" y1="19.8076" x2="70.4282" y2="39.3358" gradientUnits="userSpaceOnUse">
<stop stop-color="#FFE5AC"/>
<stop offset="0.0001" stop-color="#FFE5AC"/>
<stop offset="1" stop-color="#B99C5D"/>
</linearGradient>
<linearGradient id="paint2_linear" x1="59.3769" y1="0" x2="59.3769" y2="81.2461" gradientUnits="userSpaceOnUse">
<stop stop-color="#FFE5AC"/>
<stop offset="0.0001" stop-color="#FFE5AC"/>
<stop offset="1" stop-color="#B99C5D"/>
</linearGradient>
<linearGradient id="paint3_linear" x1="42.8047" y1="80.1016" x2="42.8047" y2="89.5331" gradientUnits="userSpaceOnUse">
<stop stop-color="#FFE5AC"/>
<stop offset="0.0001" stop-color="#FFE5AC"/>
<stop offset="1" stop-color="#B99C5D"/>
</linearGradient>
<linearGradient id="paint4_linear" x1="15.1826" y1="52.4805" x2="15.1826" y2="61.91" gradientUnits="userSpaceOnUse">
<stop stop-color="#FFE5AC"/>
<stop offset="0.0001" stop-color="#FFE5AC"/>
<stop offset="1" stop-color="#B99C5D"/>
</linearGradient>
<linearGradient id="paint5_linear" x1="25.1406" y1="82.8652" x2="25.1406" y2="99.9999" gradientUnits="userSpaceOnUse">
<stop stop-color="#FFE5AC"/>
<stop offset="0.0001" stop-color="#FFE5AC"/>
<stop offset="1" stop-color="#B99C5D"/>
</linearGradient>
<linearGradient id="paint6_linear" x1="9.51563" y1="82.8652" x2="9.51563" y2="99.9999" gradientUnits="userSpaceOnUse">
<stop stop-color="#FFE5AC"/>
<stop offset="0.0001" stop-color="#FFE5AC"/>
<stop offset="1" stop-color="#B99C5D"/>
</linearGradient>
<linearGradient id="paint7_linear" x1="8.56837" y1="66.291" x2="8.56837" y2="83.4278" gradientUnits="userSpaceOnUse">
<stop stop-color="#FFE5AC"/>
<stop offset="0.0001" stop-color="#FFE5AC"/>
<stop offset="1" stop-color="#B99C5D"/>
</linearGradient>
<linearGradient id="paint8_linear" x1="57.9961" y1="38.6699" x2="57.9961" y2="45.338" gradientUnits="userSpaceOnUse">
<stop stop-color="#FFE5AC"/>
<stop offset="0.0001" stop-color="#FFE5AC"/>
<stop offset="1" stop-color="#B99C5D"/>
</linearGradient>
<clipPath id="clip0">
<rect width="100" height="100" fill="white"/>
</clipPath>
</defs>
</svg>
