<svg width="100" height="100" viewBox="0 0 100 100" fill="none" xmlns="http://www.w3.org/2000/svg">
<path d="M82.8125 31.25C85.5938 31.25 88.3126 30.4253 90.6252 28.8801C92.9378 27.3348 94.7402 25.1386 95.8046 22.569C96.8689 19.9994 97.1474 17.1719 96.6048 14.444C96.0622 11.7162 94.7229 9.21049 92.7562 7.24382C90.7895 5.27714 88.2838 3.93782 85.556 3.39521C82.8281 2.85261 80.0006 3.13109 77.431 4.19545C74.8614 5.25981 72.6652 7.06223 71.12 9.3748C69.5748 11.6874 68.75 14.4062 68.75 17.1875C68.7541 20.9158 70.237 24.4903 72.8734 27.1266C75.5097 29.763 79.0842 31.2459 82.8125 31.25ZM82.8125 6.25001C84.9757 6.25001 87.0904 6.89148 88.8891 8.09331C90.6877 9.29514 92.0896 11.0033 92.9174 13.0019C93.7453 15.0005 93.9619 17.1996 93.5398 19.3213C93.1178 21.443 92.0761 23.3919 90.5465 24.9215C89.0168 26.4511 87.068 27.4928 84.9463 27.9148C82.8246 28.3369 80.6255 28.1203 78.6269 27.2924C76.6283 26.4646 74.9201 25.0627 73.7183 23.2641C72.5165 21.4654 71.875 19.3507 71.875 17.1875C71.8783 14.2877 73.0317 11.5076 75.0822 9.45718C77.1326 7.40672 79.9127 6.25331 82.8125 6.25001Z" fill="url(#paint0_linear)"/>
<path d="M81.2502 21.8747C81.6646 21.8746 82.0619 21.7099 82.3549 21.4169L90.1674 13.6044L87.958 11.395L81.2502 18.1028L77.6674 14.52L75.458 16.7294L80.1455 21.4169C80.4385 21.7099 80.8358 21.8746 81.2502 21.8747Z" fill="url(#paint1_linear)"/>
<path d="M95.3125 87.5H93.75V64.0625C93.75 63.6481 93.5854 63.2507 93.2924 62.9576C92.9993 62.6646 92.6019 62.5 92.1875 62.5H73.4375V59.75C74.4219 58.0469 79.9219 49.5 83.6562 43.75H89.0625C91.1345 43.75 93.1216 42.9269 94.5868 41.4618C96.0519 39.9966 96.875 38.0095 96.875 35.9375C96.875 35.5231 96.7104 35.1257 96.4174 34.8326C96.1243 34.5396 95.7269 34.375 95.3125 34.375H79.6875C77.7315 34.3801 75.8489 35.1204 74.4133 36.4489C72.9776 37.7774 72.0939 39.5971 71.9375 41.5469L66.8438 47.7812C65.2503 46.5579 63.3849 45.7378 61.4062 45.3906L56.75 43.8281C56.4293 43.7236 56.0829 43.7291 55.7656 43.8438L55.2656 40.8281C56.7453 40.0097 58.0158 38.8605 58.9779 37.47C59.9401 36.0796 60.568 34.4856 60.8125 32.8125H62.5C63.328 32.81 64.1215 32.48 64.707 31.8945C65.2925 31.309 65.6225 30.5155 65.625 29.6875V28.125C65.6237 27.4002 65.3705 26.6984 64.9087 26.1397C64.447 25.581 63.8054 25.2002 63.0938 25.0625L65.1719 22.9844C65.4597 22.6864 65.6219 22.2892 65.625 21.875V20.3125C65.6217 17.4127 64.4683 14.6326 62.4178 12.5822C60.3674 10.5317 57.5873 9.37831 54.6875 9.375H45.3125C42.4127 9.37831 39.6326 10.5317 37.5822 12.5822C35.5317 14.6326 34.3783 17.4127 34.375 20.3125V21.875C34.3781 22.2892 34.5403 22.6864 34.8281 22.9844L36.9062 25.0625C36.1946 25.2002 35.553 25.581 35.0913 26.1397C34.6295 26.6984 34.3763 27.4002 34.375 28.125V29.6875C34.3775 30.5155 34.7075 31.309 35.293 31.8945C35.8785 32.48 36.672 32.81 37.5 32.8125H39.1875C39.432 34.4856 40.0599 36.0796 41.0221 37.47C41.9842 38.8605 43.2547 40.0097 44.7344 40.8281L44.2344 43.8438C43.9171 43.7291 43.5707 43.7236 43.25 43.8281L38.5938 45.3906C36.6151 45.7378 34.7497 46.5579 33.1562 47.7812L28.0625 41.5469C27.9061 39.5971 27.0224 37.7774 25.5867 36.4489C24.1511 35.1204 22.2685 34.3801 20.3125 34.375H4.6875C4.2731 34.375 3.87567 34.5396 3.58265 34.8326C3.28962 35.1257 3.125 35.5231 3.125 35.9375C3.125 38.0095 3.9481 39.9966 5.41323 41.4618C6.87836 42.9269 8.8655 43.75 10.9375 43.75H16.3281L26.5625 59.8281V62.5H7.8125C7.3981 62.5 7.00067 62.6646 6.70765 62.9576C6.41462 63.2507 6.25 63.6481 6.25 64.0625V87.5H4.6875C4.2731 87.5 3.87567 87.6646 3.58265 87.9576C3.28962 88.2507 3.125 88.6481 3.125 89.0625V95.3125C3.125 95.7269 3.28962 96.1243 3.58265 96.4174C3.87567 96.7104 4.2731 96.875 4.6875 96.875H95.3125C95.7269 96.875 96.1243 96.7104 96.4174 96.4174C96.7104 96.1243 96.875 95.7269 96.875 95.3125V89.0625C96.875 88.6481 96.7104 88.2507 96.4174 87.9576C96.1243 87.6646 95.7269 87.5 95.3125 87.5ZM78.125 65.625H81.25V68.75H78.125V65.625ZM75 65.625V70.3125C75 70.7269 75.1646 71.1243 75.4576 71.4174C75.7507 71.7104 76.1481 71.875 76.5625 71.875H82.8125C83.2269 71.875 83.6243 71.7104 83.9174 71.4174C84.2104 71.1243 84.375 70.7269 84.375 70.3125V65.625H90.625V87.5H68.75V65.625H75ZM79.6875 37.5H93.4844C93.1584 38.4125 92.5588 39.2023 91.7675 39.7615C90.9761 40.3208 90.0315 40.6223 89.0625 40.625H75.2656C75.5916 39.7125 76.1912 38.9227 76.9825 38.3635C77.7739 37.8042 78.7185 37.5027 79.6875 37.5ZM62.5 29.6875H60.9375V28.125H62.5V29.6875ZM39.0625 29.6875H37.5V28.125H39.0625V29.6875ZM39.0625 21.875V22.7969L37.5 21.2344V20.3125C37.5 18.2405 38.3231 16.2534 39.7882 14.7882C41.2534 13.3231 43.2405 12.5 45.3125 12.5H54.6875C56.7595 12.5 58.7466 13.3231 60.2118 14.7882C61.6769 16.2534 62.5 18.2405 62.5 20.3125V21.2344L60.9375 22.7969V21.875C60.9372 21.526 60.8202 21.1872 60.6049 20.9125C60.3897 20.6379 60.0888 20.4431 59.75 20.3594L47.25 17.2344C46.8875 17.1418 46.5036 17.1863 46.1719 17.3594L39.9219 20.4844C39.6615 20.6109 39.4425 20.8087 39.2904 21.055C39.1382 21.3012 39.0592 21.5856 39.0625 21.875ZM42.1875 31.25V22.8438L47.0625 20.4063L57.8125 23.0938V31.25C57.8125 33.322 56.9894 35.3091 55.5243 36.7743C54.0591 38.2394 52.072 39.0625 50 39.0625C47.928 39.0625 45.9409 38.2394 44.4757 36.7743C43.0106 35.3091 42.1875 33.322 42.1875 31.25ZM53.0156 46.3438L50 49.3594L46.9844 46.3438L47.7188 41.9375C49.2213 42.2708 50.7787 42.2708 52.2812 41.9375L53.0156 46.3438ZM43.3281 47.0938L48.8906 52.6719C49.1856 52.9646 49.5844 53.1289 50 53.1289C50.4156 53.1289 50.8144 52.9646 51.1094 52.6719L56.6719 47.0938L58.4375 47.6875L52.3281 56.25H47.6719L41.5625 47.6875L43.3281 47.0938ZM52.8438 65.625L54.5781 76.0312L50 80.6094L45.4219 76.0312L47.1562 65.625H52.8438ZM47.6719 62.5L48.2031 59.375H51.7969L52.3281 62.5H47.6719ZM10.9375 40.625C9.96849 40.6223 9.02388 40.3208 8.23254 39.7615C7.44119 39.2023 6.84163 38.4125 6.51562 37.5H20.3125C21.2815 37.5027 22.2261 37.8042 23.0175 38.3635C23.8088 38.9227 24.4084 39.7125 24.7344 40.625H10.9375ZM20.0312 43.75H25.8281L39.4219 60.3594L41.8281 58.3906L35.125 50.1875C36.1109 49.4712 37.2168 48.9368 38.3906 48.6094L45.2344 58.1875L42.2031 76.3125C42.1642 76.5575 42.1835 76.8083 42.2595 77.0444C42.3355 77.2806 42.4661 77.4956 42.6406 77.6719L48.8906 83.9219C49.1868 84.2124 49.5851 84.3751 50 84.3751C50.4149 84.3751 50.8132 84.2124 51.1094 83.9219L57.3594 77.6719C57.5339 77.4956 57.6645 77.2806 57.7405 77.0444C57.8165 76.8083 57.8358 76.5575 57.7969 76.3125L54.7656 58.1875L61.6094 48.6094C62.7832 48.9368 63.8891 49.4712 64.875 50.1875L58.1719 58.3906L60.5781 60.3594L74.1719 43.75H79.9375C70.3125 58.5781 70.3125 58.8125 70.3125 59.375V62.5H67.1875C66.7731 62.5 66.3757 62.6646 66.0826 62.9576C65.7896 63.2507 65.625 63.6481 65.625 64.0625V87.5H34.375V64.0625C34.375 63.6481 34.2104 63.2507 33.9174 62.9576C33.6243 62.6646 33.2269 62.5 32.8125 62.5H29.6875V59.375C29.6915 59.0749 29.6043 58.7807 29.4375 58.5312L20.0312 43.75ZM18.75 65.625H21.875V68.75H18.75V65.625ZM9.375 65.625H15.625V70.3125C15.625 70.7269 15.7896 71.1243 16.0826 71.4174C16.3757 71.7104 16.7731 71.875 17.1875 71.875H23.4375C23.8519 71.875 24.2493 71.7104 24.5424 71.4174C24.8354 71.1243 25 70.7269 25 70.3125V65.625H31.25V87.5H9.375V65.625ZM93.75 93.75H6.25V90.625H93.75V93.75Z" fill="url(#paint2_linear)"/>
<path d="M7.8125 31.25H26.5625C27.8057 31.25 28.998 30.7561 29.8771 29.8771C30.7561 28.998 31.25 27.8057 31.25 26.5625V7.8125C31.25 6.5693 30.7561 5.37701 29.8771 4.49794C28.998 3.61886 27.8057 3.125 26.5625 3.125H7.8125C6.5693 3.125 5.37701 3.61886 4.49794 4.49794C3.61886 5.37701 3.125 6.5693 3.125 7.8125V26.5625C3.125 27.8057 3.61886 28.998 4.49794 29.8771C5.37701 30.7561 6.5693 31.25 7.8125 31.25ZM6.25 7.8125C6.25 7.3981 6.41462 7.00067 6.70765 6.70765C7.00067 6.41462 7.3981 6.25 7.8125 6.25H26.5625C26.9769 6.25 27.3743 6.41462 27.6674 6.70765C27.9604 7.00067 28.125 7.3981 28.125 7.8125V26.5625C28.125 26.9769 27.9604 27.3743 27.6674 27.6674C27.3743 27.9604 26.9769 28.125 26.5625 28.125H7.8125C7.3981 28.125 7.00067 27.9604 6.70765 27.6674C6.41462 27.3743 6.25 26.9769 6.25 26.5625V7.8125Z" fill="url(#paint3_linear)"/>
<path d="M12.5 9.375H9.375V12.5H12.5V9.375Z" fill="url(#paint4_linear)"/>
<path d="M25 9.375H15.625V12.5H25V9.375Z" fill="url(#paint5_linear)"/>
<path d="M25 15.625H9.375V18.75H25V15.625Z" fill="url(#paint6_linear)"/>
<path d="M25 21.875H9.375V25H25V21.875Z" fill="url(#paint7_linear)"/>
<defs>
<linearGradient id="paint0_linear" x1="82.8125" y1="3.125" x2="82.8125" y2="31.25" gradientUnits="userSpaceOnUse">
<stop stop-color="#FFE5AC"/>
<stop offset="0.0001" stop-color="#FFE5AC"/>
<stop offset="1" stop-color="#B99C5D"/>
</linearGradient>
<linearGradient id="paint1_linear" x1="82.8127" y1="11.395" x2="82.8127" y2="21.8747" gradientUnits="userSpaceOnUse">
<stop stop-color="#FFE5AC"/>
<stop offset="0.0001" stop-color="#FFE5AC"/>
<stop offset="1" stop-color="#B99C5D"/>
</linearGradient>
<linearGradient id="paint2_linear" x1="50" y1="9.375" x2="50" y2="96.875" gradientUnits="userSpaceOnUse">
<stop stop-color="#FFE5AC"/>
<stop offset="0.0001" stop-color="#FFE5AC"/>
<stop offset="1" stop-color="#B99C5D"/>
</linearGradient>
<linearGradient id="paint3_linear" x1="17.1875" y1="3.125" x2="17.1875" y2="31.25" gradientUnits="userSpaceOnUse">
<stop stop-color="#FFE5AC"/>
<stop offset="0.0001" stop-color="#FFE5AC"/>
<stop offset="1" stop-color="#B99C5D"/>
</linearGradient>
<linearGradient id="paint4_linear" x1="10.9375" y1="9.375" x2="10.9375" y2="12.5" gradientUnits="userSpaceOnUse">
<stop stop-color="#FFE5AC"/>
<stop offset="0.0001" stop-color="#FFE5AC"/>
<stop offset="1" stop-color="#B99C5D"/>
</linearGradient>
<linearGradient id="paint5_linear" x1="20.3125" y1="9.375" x2="20.3125" y2="12.5" gradientUnits="userSpaceOnUse">
<stop stop-color="#FFE5AC"/>
<stop offset="0.0001" stop-color="#FFE5AC"/>
<stop offset="1" stop-color="#B99C5D"/>
</linearGradient>
<linearGradient id="paint6_linear" x1="17.1875" y1="15.625" x2="17.1875" y2="18.75" gradientUnits="userSpaceOnUse">
<stop stop-color="#FFE5AC"/>
<stop offset="0.0001" stop-color="#FFE5AC"/>
<stop offset="1" stop-color="#B99C5D"/>
</linearGradient>
<linearGradient id="paint7_linear" x1="17.1875" y1="21.875" x2="17.1875" y2="25" gradientUnits="userSpaceOnUse">
<stop stop-color="#FFE5AC"/>
<stop offset="0.0001" stop-color="#FFE5AC"/>
<stop offset="1" stop-color="#B99C5D"/>
</linearGradient>
</defs>
</svg>
