<svg width="100" height="100" viewBox="0 0 100 100" fill="none" xmlns="http://www.w3.org/2000/svg">
<g clip-path="url(#clip0)">
<path d="M90.0948 57.1304L75.1549 56.063L65.281 39.6148L60.3447 31.3789V29.0977C60.3463 26.622 58.3405 24.6139 55.8648 24.6124C55.3101 24.6116 54.76 24.7146 54.2435 24.9145L40.0467 30.3909L41.1194 26.7906C41.9663 23.764 40.5922 20.5558 37.8174 19.0803L26.6777 13.0958C25.8675 12.6609 24.8581 12.9387 24.3843 13.7268L8.04447 39.8925L7.69962 39.6927C6.87412 39.2181 5.8205 39.5034 5.34671 40.3289C5.33603 40.3465 5.32688 40.364 5.31696 40.3824L0.20145 50.0129C-0.239529 50.8445 0.0679355 51.8753 0.891147 52.3307L63.105 86.8133C63.3606 86.9545 63.6475 87.0285 63.9397 87.0285H89.6553C95.3659 87.0231 99.9947 82.3951 100 76.6838V67.7665C99.9817 62.1788 95.6673 57.5462 90.0948 57.1304ZM71.5516 56.7611L69.5824 57.418L54.155 37.3596L58.1208 34.3818L71.5516 56.7611ZM26.4946 16.9113L36.1863 22.113C37.5298 22.8233 38.2012 24.369 37.8037 25.8354L36.3793 30.6358L26.4824 24.7009L23.0553 22.644L26.4946 16.9113ZM16.2865 33.3664L17.1692 31.987L22.8417 36.206C25.7286 38.3735 27.2026 41.9433 26.6861 45.5169L26.471 50.4997L11.0619 41.6183L16.2865 33.3664ZM89.6553 83.5807H64.383L4.03827 50.132L7.52262 43.5806L64.6553 76.4541C64.9178 76.6052 65.2146 76.6845 65.5175 76.6838H96.5516C96.5516 80.4924 93.4639 83.5807 89.6553 83.5807ZM96.5516 73.2353H65.9775L54.152 66.4268L58.1276 62.3733C58.7845 61.6844 58.7586 60.5926 58.0689 59.9357C57.3937 59.2918 56.3286 59.3025 55.6656 59.9594L51.0659 64.6492L44.5137 60.8734L51.0849 55.6167C51.828 55.0216 51.9486 53.936 51.3535 53.1921C50.7584 52.449 49.6727 52.3285 48.9296 52.9236L41.3033 59.0255L35.6896 55.7975L44.207 48.6992C44.9395 48.0896 45.0386 47.0024 44.4298 46.27C43.8202 45.5375 42.7323 45.4384 41.9999 46.0472L32.5035 53.9627L29.8378 52.4284L30.1171 45.8099C30.7557 41.0415 28.7575 36.3022 24.8986 33.4305L19.0239 29.0626L21.2433 25.5783L36.5052 34.7351C36.7104 34.8533 36.9378 34.9266 37.1727 34.951C37.2139 34.951 37.2498 34.9647 37.2918 34.9678C37.333 34.9716 37.3589 34.98 37.3917 34.98C37.6046 34.9807 37.8167 34.9418 38.0158 34.8648L55.481 28.1288C55.8007 28.0067 56.1585 28.0487 56.4415 28.2409C56.7253 28.4355 56.894 28.7582 56.8917 29.1031V30.9997L50.6844 35.6544C49.923 36.2266 49.7696 37.3077 50.3418 38.0684C50.3456 38.0737 50.3495 38.079 50.3533 38.0836L67.5949 60.498C68.0405 61.0817 68.8088 61.3167 69.5053 61.0824L74.3515 59.4665L89.8453 60.5735C93.6158 60.8528 96.5371 63.9854 96.5516 67.7665V73.2353Z" fill="url(#paint0_linear)"/>
<path d="M10.3447 62.8906H1.72424C0.772095 62.8906 0 63.6627 0 64.6149C0 65.567 0.772095 66.3391 1.72424 66.3391H10.3447C11.2968 66.3391 12.0689 65.567 12.0689 64.6149C12.0689 63.6627 11.2968 62.8906 10.3447 62.8906Z" fill="url(#paint1_linear)"/>
<path d="M0 74.9596C0 75.9117 0.772095 76.6838 1.72424 76.6838H24.1379C25.09 76.6838 25.8621 75.9117 25.8621 74.9596C25.8621 74.0074 25.09 73.2354 24.1379 73.2354H1.72424C0.772095 73.2354 0 74.0074 0 74.9596Z" fill="url(#paint2_linear)"/>
<path d="M43.1038 83.5806H1.72424C0.772095 83.5806 0 84.3519 0 85.304C0 86.2562 0.772095 87.0283 1.72424 87.0283H43.1038C44.0559 87.0283 44.8273 86.2562 44.8273 85.304C44.8273 84.3519 44.0559 83.5806 43.1038 83.5806Z" fill="url(#paint3_linear)"/>
</g>
<defs>
<linearGradient id="paint0_linear" x1="50.0001" y1="12.8906" x2="50.0001" y2="87.0285" gradientUnits="userSpaceOnUse">
<stop/>
<stop offset="0.0001" stop-color="#FFE5AC"/>
<stop offset="1" stop-color="#B99C5D"/>
</linearGradient>
<linearGradient id="paint1_linear" x1="6.03447" y1="62.8906" x2="6.03447" y2="66.3391" gradientUnits="userSpaceOnUse">
<stop/>
<stop offset="0.0001" stop-color="#FFE5AC"/>
<stop offset="1" stop-color="#B99C5D"/>
</linearGradient>
<linearGradient id="paint2_linear" x1="12.9311" y1="73.2354" x2="12.9311" y2="76.6838" gradientUnits="userSpaceOnUse">
<stop/>
<stop offset="0.0001" stop-color="#FFE5AC"/>
<stop offset="1" stop-color="#B99C5D"/>
</linearGradient>
<linearGradient id="paint3_linear" x1="22.4136" y1="83.5806" x2="22.4136" y2="87.0283" gradientUnits="userSpaceOnUse">
<stop/>
<stop offset="0.0001" stop-color="#FFE5AC"/>
<stop offset="1" stop-color="#B99C5D"/>
</linearGradient>
<clipPath id="clip0">
<rect width="100" height="100" fill="white"/>
</clipPath>
</defs>
</svg>
