<svg width="100" height="100" viewBox="0 0 100 100" fill="none" xmlns="http://www.w3.org/2000/svg">
<g clip-path="url(#clip0)">
<path d="M88.4828 70.5709C87.9344 70.3435 87.3031 70.4691 86.8832 70.8888L70.8429 86.9291C70.4232 87.349 70.2976 87.9803 70.525 88.5287C70.7519 89.0774 71.2875 89.4348 71.881 89.4348H87.9213C88.732 89.4348 89.3891 88.7777 89.3891 87.967V71.9267C89.3889 71.3332 89.0312 70.798 88.4828 70.5709ZM75.424 86.4994L86.4531 75.4703V86.4994H75.424Z" fill="url(#paint0_linear)"/>
<path d="M99.0941 47.0444C98.5457 46.8171 97.9145 46.9427 97.4945 47.3624L93.0986 51.7583V21.8694C93.0986 21.0586 92.4414 20.4016 91.6309 20.4016H80.3533L84.4471 16.3078C84.4476 16.3073 84.4482 16.3065 84.4488 16.3059L88.3933 12.3614C89.2385 11.5162 89.7039 10.392 89.7039 9.1967C89.7039 8.00138 89.2385 6.87755 88.3933 6.03204L83.832 1.47071C82.9869 0.625587 81.8627 0.160156 80.6674 0.160156C79.472 0.160156 78.348 0.625587 77.5027 1.47071L73.5562 5.4172L68.7874 10.186L58.572 20.4014H13.0117V5.88087C13.0117 5.07013 12.3545 4.41309 11.544 4.41309C5.17872 4.41348 0 9.59182 0 15.9575V78.2986C0 78.407 0.0125 78.5125 0.0347657 78.614C0.2375 81.315 1.40606 83.8246 3.35899 85.7297C5.4465 87.7656 8.20216 88.8869 11.1186 88.8869H55.9698L47.5228 97.334C47.103 97.7539 46.9774 98.3849 47.2046 98.9336C47.4317 99.482 47.9671 99.8396 48.5606 99.8396H98.5324C99.343 99.8396 100 99.1826 100 98.3719V48.4005C100 47.8069 99.6424 47.2716 99.0941 47.0444ZM79.5789 3.54669C80.1789 2.94629 81.1564 2.94629 81.7564 3.54669L86.3179 8.10822C86.9183 8.70842 86.9183 9.68556 86.3179 10.286L83.4095 13.1946L76.6701 6.45529L79.5789 3.54669ZM74.5943 8.53107L81.3336 15.2701L78.6404 17.9633L71.9015 11.2242L74.5943 8.53107ZM97.065 64.8931H94.357C93.5463 64.8931 92.8893 65.5501 92.8893 66.3609C92.8893 67.1716 93.5463 67.8286 94.357 67.8286H97.065V72.2517H94.357C93.5463 72.2517 92.8893 72.9087 92.8893 73.7195C92.8893 74.5302 93.5463 75.1873 94.357 75.1873H97.065V79.6101H94.357C93.5463 79.6101 92.8893 80.2671 92.8893 81.0779C92.8893 81.8886 93.5463 82.5457 94.357 82.5457H97.065V86.9687H94.357C93.5463 86.9687 92.8893 87.6259 92.8893 88.4365C92.8893 89.2472 93.5463 89.9043 94.357 89.9043H97.065V96.9047H52.104L66.9298 82.0791C67.5031 81.5056 67.5031 80.5765 66.9298 80.0033C66.864 79.9375 66.7933 79.8804 66.7193 79.8296C66.1478 79.4382 65.3615 79.4958 64.8538 80.0033L58.9054 85.9517H11.1188C6.6672 85.9517 3.0836 82.4763 2.94258 78.0328C2.95098 77.7539 2.97266 77.4773 3.00743 77.2039C3.00762 77.2023 3.00782 77.2007 3.00801 77.1992C3.02442 77.0693 3.04415 76.94 3.06661 76.8115C3.06915 76.7968 3.07188 76.7822 3.07442 76.7675C3.09493 76.6529 3.11798 76.5388 3.14317 76.4251C3.1502 76.3935 3.15762 76.3619 3.16505 76.3304C3.18731 76.2343 3.21133 76.1388 3.23712 76.0437C3.25118 75.9921 3.26583 75.9412 3.28087 75.8898C3.30235 75.8152 3.32462 75.7408 3.34825 75.6671C3.37188 75.5935 3.39708 75.5206 3.42266 75.4478C3.44044 75.3968 3.45801 75.3458 3.47716 75.2953C3.5129 75.1992 3.55079 75.104 3.58985 75.0097C3.60098 74.9826 3.61192 74.955 3.62345 74.9279C3.67364 74.8107 3.72579 74.6949 3.78087 74.5804C3.78321 74.5755 3.78536 74.5706 3.7877 74.5658C4.93575 72.19 7.14376 70.4187 9.79358 69.8691C9.801 69.8675 9.80842 69.8658 9.81584 69.8642C9.93733 69.8394 10.06 69.8181 10.1834 69.7984C10.2039 69.7951 10.2244 69.7909 10.2453 69.7878C10.3569 69.7708 10.4696 69.7576 10.5822 69.7449C10.6139 69.7413 10.6453 69.7365 10.6772 69.7333C10.786 69.7224 10.8957 69.7152 11.0055 69.7083C11.0403 69.7062 11.075 69.7025 11.1098 69.7007C11.2535 69.6935 11.3985 69.6898 11.544 69.6898C12.3545 69.6898 13.0117 69.0327 13.0117 68.222V57.5796C13.0117 56.7689 12.3545 56.1118 11.544 56.1118C10.7334 56.1118 10.0762 56.7689 10.0762 57.5796V66.8466C7.59767 67.1601 5.29708 68.2656 3.48302 70.037C3.29219 70.2234 3.11133 70.4171 2.93516 70.614V15.9575C2.93516 11.7112 6.02618 8.17267 10.076 7.47384V21.8694V51.7087V51.7089C10.076 52.5194 10.7332 53.1767 11.5438 53.1767C12.3543 53.1767 13.0116 52.5194 13.0116 51.7089V51.7087V23.3372H55.6366L47.5226 31.4512C46.9493 32.0247 46.9493 32.9538 47.5226 33.527C48.0958 34.1001 49.0251 34.1001 49.5981 33.527L60.2179 22.9073C60.2183 22.9069 60.2185 22.9065 60.2189 22.9063L69.8253 13.2998L76.5642 20.0391L75.7736 20.8297C75.773 20.8303 75.7722 20.8309 75.7716 20.8315L46.1763 50.4272L39.4372 43.6882L45.2708 37.8546C45.844 37.2811 45.844 36.352 45.2708 35.7788C44.6976 35.2057 43.7683 35.2057 43.1952 35.7788L36.3235 42.6503C36.2868 42.687 36.2524 42.7259 36.2202 42.7657C36.2094 42.779 36.1999 42.7932 36.1897 42.8071C36.169 42.8346 36.1487 42.8624 36.1298 42.8913C36.119 42.9081 36.1093 42.9253 36.0991 42.9427C36.0829 42.97 36.0673 42.9977 36.053 43.0261C36.0436 43.0444 36.0352 43.063 36.0266 43.0821C36.0135 43.1108 36.0014 43.1401 35.9903 43.1694C35.9864 43.1798 35.9813 43.1895 35.9776 43.1999L33.118 51.3005L31.1684 56.8237C31.1426 56.8972 31.1241 56.9718 31.1102 57.047H26.229C25.4184 57.047 24.7612 57.704 24.7612 58.5148C24.7612 59.3255 25.4184 59.9825 26.229 59.9825H66.8763C67.6871 59.9825 68.3441 59.3255 68.3441 58.5148C68.3441 57.704 67.6871 57.047 66.8763 57.047H37.7136L46.6647 53.8872C46.6722 53.8845 46.6792 53.8808 46.6866 53.878C46.7214 53.8651 46.7556 53.8507 46.7894 53.8353C46.8028 53.829 46.8163 53.8231 46.8294 53.8167C46.8646 53.7991 46.8991 53.7798 46.9331 53.7591C46.944 53.7524 46.9554 53.7464 46.9661 53.7396C47.0015 53.7169 47.0358 53.6921 47.0696 53.6659C47.078 53.6595 47.0868 53.6538 47.095 53.6472C47.1358 53.6144 47.1759 53.579 47.2138 53.5411L77.4177 23.3373H90.1629V54.694L69.1675 75.6896C68.5943 76.263 68.5943 77.1921 69.1675 77.7654C69.2033 77.8011 69.2406 77.8347 69.2791 77.8662C69.5482 78.0855 69.8769 78.1953 70.2054 78.1953C70.5339 78.1953 70.8628 78.0855 71.1318 77.8662C71.1703 77.8349 71.2076 77.8011 71.2433 77.7654C71.2439 77.7648 71.2433 77.7654 71.2439 77.7648L97.065 51.9435V64.8931ZM43.4917 51.8938L39.2874 53.378L36.4862 50.5769L37.9704 46.3725L43.4917 51.8938Z" fill="url(#paint1_linear)"/>
</g>
<defs>
<linearGradient id="paint0_linear" x1="79.9011" y1="70.459" x2="79.9011" y2="89.4348" gradientUnits="userSpaceOnUse">
<stop stop-color="#FFE5AC"/>
<stop offset="0.0001" stop-color="#FFE5AC"/>
<stop offset="1" stop-color="#B99C5D"/>
</linearGradient>
<linearGradient id="paint1_linear" x1="50.0001" y1="0.160156" x2="50.0001" y2="99.8396" gradientUnits="userSpaceOnUse">
<stop stop-color="#FFE5AC"/>
<stop offset="0.0001" stop-color="#FFE5AC"/>
<stop offset="1" stop-color="#B99C5D"/>
</linearGradient>
<clipPath id="clip0">
<rect width="100" height="100" fill="white"/>
</clipPath>
</defs>
</svg>
