<svg width="100" height="100" viewBox="0 0 100 100" fill="none" xmlns="http://www.w3.org/2000/svg">
<path d="M57.8125 84.375H54.6875V69.0625C54.6875 68.6481 54.5229 68.2507 54.2299 67.9576C53.9368 67.6646 53.5394 67.5 53.125 67.5C52.7106 67.5 52.3132 67.6646 52.0201 67.9576C51.7271 68.2507 51.5625 68.6481 51.5625 69.0625V84.375H10.9375V53.125H23.9375C24.3519 53.125 24.7493 52.9604 25.0424 52.6674C25.3354 52.3743 25.5 51.9769 25.5 51.5625C25.5 51.1481 25.3354 50.7507 25.0424 50.4576C24.7493 50.1646 24.3519 50 23.9375 50H9.375C8.9606 50 8.56317 50.1646 8.27015 50.4576C7.97712 50.7507 7.8125 51.1481 7.8125 51.5625V84.375H4.6875C4.2731 84.375 3.87567 84.5396 3.58265 84.8326C3.28962 85.1257 3.125 85.5231 3.125 85.9375V89.0625C3.125 91.1345 3.9481 93.1216 5.41323 94.5868C6.87836 96.0519 8.8655 96.875 10.9375 96.875H51.5625C53.6345 96.875 55.6216 96.0519 57.0868 94.5868C58.5519 93.1216 59.375 91.1345 59.375 89.0625V85.9375C59.375 85.5231 59.2104 85.1257 58.9174 84.8326C58.6243 84.5396 58.2269 84.375 57.8125 84.375ZM56.25 89.0625C56.25 90.3057 55.7561 91.498 54.8771 92.3771C53.998 93.2561 52.8057 93.75 51.5625 93.75H48.4375V92.1875C48.4375 91.7731 48.2729 91.3757 47.9799 91.0826C47.6868 90.7896 47.2894 90.625 46.875 90.625C46.4606 90.625 46.0632 90.7896 45.7701 91.0826C45.4771 91.3757 45.3125 91.7731 45.3125 92.1875V93.75H17.1875V92.1875C17.1875 91.7731 17.0229 91.3757 16.7299 91.0826C16.4368 90.7896 16.0394 90.625 15.625 90.625C15.2106 90.625 14.8132 90.7896 14.5201 91.0826C14.2271 91.3757 14.0625 91.7731 14.0625 92.1875V93.75H10.9375C9.6943 93.75 8.50201 93.2561 7.62294 92.3771C6.74386 91.498 6.25 90.3057 6.25 89.0625V87.5H56.25V89.0625Z" fill="black"/>
<path d="M57.8125 84.375H54.6875V69.0625C54.6875 68.6481 54.5229 68.2507 54.2299 67.9576C53.9368 67.6646 53.5394 67.5 53.125 67.5C52.7106 67.5 52.3132 67.6646 52.0201 67.9576C51.7271 68.2507 51.5625 68.6481 51.5625 69.0625V84.375H10.9375V53.125H23.9375C24.3519 53.125 24.7493 52.9604 25.0424 52.6674C25.3354 52.3743 25.5 51.9769 25.5 51.5625C25.5 51.1481 25.3354 50.7507 25.0424 50.4576C24.7493 50.1646 24.3519 50 23.9375 50H9.375C8.9606 50 8.56317 50.1646 8.27015 50.4576C7.97712 50.7507 7.8125 51.1481 7.8125 51.5625V84.375H4.6875C4.2731 84.375 3.87567 84.5396 3.58265 84.8326C3.28962 85.1257 3.125 85.5231 3.125 85.9375V89.0625C3.125 91.1345 3.9481 93.1216 5.41323 94.5868C6.87836 96.0519 8.8655 96.875 10.9375 96.875H51.5625C53.6345 96.875 55.6216 96.0519 57.0868 94.5868C58.5519 93.1216 59.375 91.1345 59.375 89.0625V85.9375C59.375 85.5231 59.2104 85.1257 58.9174 84.8326C58.6243 84.5396 58.2269 84.375 57.8125 84.375ZM56.25 89.0625C56.25 90.3057 55.7561 91.498 54.8771 92.3771C53.998 93.2561 52.8057 93.75 51.5625 93.75H48.4375V92.1875C48.4375 91.7731 48.2729 91.3757 47.9799 91.0826C47.6868 90.7896 47.2894 90.625 46.875 90.625C46.4606 90.625 46.0632 90.7896 45.7701 91.0826C45.4771 91.3757 45.3125 91.7731 45.3125 92.1875V93.75H17.1875V92.1875C17.1875 91.7731 17.0229 91.3757 16.7299 91.0826C16.4368 90.7896 16.0394 90.625 15.625 90.625C15.2106 90.625 14.8132 90.7896 14.5201 91.0826C14.2271 91.3757 14.0625 91.7731 14.0625 92.1875V93.75H10.9375C9.6943 93.75 8.50201 93.2561 7.62294 92.3771C6.74386 91.498 6.25 90.3057 6.25 89.0625V87.5H56.25V89.0625Z" fill="url(#paint0_linear)"/>
<path d="M84.375 12.5H87.5C87.9144 12.5 88.3118 12.3354 88.6049 12.0424C88.8979 11.7493 89.0625 11.3519 89.0625 10.9375C89.0625 10.5231 88.8979 10.1257 88.6049 9.83265C88.3118 9.53962 87.9144 9.375 87.5 9.375H84.375C83.1318 9.375 81.9395 9.86886 81.0604 10.7479C80.1814 11.627 79.6875 12.8193 79.6875 14.0625V15.625H78.125C77.7106 15.625 77.3132 15.7896 77.0201 16.0826C76.7271 16.3757 76.5625 16.7731 76.5625 17.1875C76.5625 17.6019 76.7271 17.9993 77.0201 18.2924C77.3132 18.5854 77.7106 18.75 78.125 18.75H79.6875V23.4375C79.6875 23.8519 79.8521 24.2493 80.1451 24.5424C80.4382 24.8354 80.8356 25 81.25 25C81.6644 25 82.0618 24.8354 82.3549 24.5424C82.6479 24.2493 82.8125 23.8519 82.8125 23.4375V18.75H84.375C84.7894 18.75 85.1868 18.5854 85.4799 18.2924C85.7729 17.9993 85.9375 17.6019 85.9375 17.1875C85.9375 16.7731 85.7729 16.3757 85.4799 16.0826C85.1868 15.7896 84.7894 15.625 84.375 15.625H82.8125V14.0625C82.8125 13.6481 82.9771 13.2507 83.2701 12.9576C83.5632 12.6646 83.9606 12.5 84.375 12.5Z" fill="black"/>
<path d="M84.375 12.5H87.5C87.9144 12.5 88.3118 12.3354 88.6049 12.0424C88.8979 11.7493 89.0625 11.3519 89.0625 10.9375C89.0625 10.5231 88.8979 10.1257 88.6049 9.83265C88.3118 9.53962 87.9144 9.375 87.5 9.375H84.375C83.1318 9.375 81.9395 9.86886 81.0604 10.7479C80.1814 11.627 79.6875 12.8193 79.6875 14.0625V15.625H78.125C77.7106 15.625 77.3132 15.7896 77.0201 16.0826C76.7271 16.3757 76.5625 16.7731 76.5625 17.1875C76.5625 17.6019 76.7271 17.9993 77.0201 18.2924C77.3132 18.5854 77.7106 18.75 78.125 18.75H79.6875V23.4375C79.6875 23.8519 79.8521 24.2493 80.1451 24.5424C80.4382 24.8354 80.8356 25 81.25 25C81.6644 25 82.0618 24.8354 82.3549 24.5424C82.6479 24.2493 82.8125 23.8519 82.8125 23.4375V18.75H84.375C84.7894 18.75 85.1868 18.5854 85.4799 18.2924C85.7729 17.9993 85.9375 17.6019 85.9375 17.1875C85.9375 16.7731 85.7729 16.3757 85.4799 16.0826C85.1868 15.7896 84.7894 15.625 84.375 15.625H82.8125V14.0625C82.8125 13.6481 82.9771 13.2507 83.2701 12.9576C83.5632 12.6646 83.9606 12.5 84.375 12.5Z" fill="url(#paint1_linear)"/>
<path d="M92.1875 3.125H73.4375C72.1943 3.125 71.002 3.61886 70.1229 4.49794C69.2439 5.37701 68.75 6.5693 68.75 7.8125V10.9375C68.75 11.3519 68.9146 11.7493 69.2076 12.0424C69.5007 12.3354 69.8981 12.5 70.3125 12.5C70.7269 12.5 71.1243 12.3354 71.4174 12.0424C71.7104 11.7493 71.875 11.3519 71.875 10.9375V7.8125C71.875 7.3981 72.0396 7.00067 72.3326 6.70765C72.6257 6.41462 73.0231 6.25 73.4375 6.25H92.1875C92.6019 6.25 92.9993 6.41462 93.2924 6.70765C93.5854 7.00067 93.75 7.3981 93.75 7.8125V26.5625C93.75 26.9769 93.5854 27.3743 93.2924 27.6674C92.9993 27.9604 92.6019 28.125 92.1875 28.125H73.4375C73.0231 28.125 72.6257 27.9604 72.3326 27.6674C72.0396 27.3743 71.875 26.9769 71.875 26.5625V17.1875C71.875 16.7731 71.7104 16.3757 71.4174 16.0826C71.1243 15.7896 70.7269 15.625 70.3125 15.625C69.8981 15.625 69.5007 15.7896 69.2076 16.0826C68.9146 16.3757 68.75 16.7731 68.75 17.1875V26.5625C68.75 27.8057 69.2439 28.998 70.1229 29.8771C71.002 30.7561 72.1943 31.25 73.4375 31.25H92.1875C93.4307 31.25 94.623 30.7561 95.5021 29.8771C96.3811 28.998 96.875 27.8057 96.875 26.5625V7.8125C96.875 6.5693 96.3811 5.37701 95.5021 4.49794C94.623 3.61886 93.4307 3.125 92.1875 3.125Z" fill="black"/>
<path d="M92.1875 3.125H73.4375C72.1943 3.125 71.002 3.61886 70.1229 4.49794C69.2439 5.37701 68.75 6.5693 68.75 7.8125V10.9375C68.75 11.3519 68.9146 11.7493 69.2076 12.0424C69.5007 12.3354 69.8981 12.5 70.3125 12.5C70.7269 12.5 71.1243 12.3354 71.4174 12.0424C71.7104 11.7493 71.875 11.3519 71.875 10.9375V7.8125C71.875 7.3981 72.0396 7.00067 72.3326 6.70765C72.6257 6.41462 73.0231 6.25 73.4375 6.25H92.1875C92.6019 6.25 92.9993 6.41462 93.2924 6.70765C93.5854 7.00067 93.75 7.3981 93.75 7.8125V26.5625C93.75 26.9769 93.5854 27.3743 93.2924 27.6674C92.9993 27.9604 92.6019 28.125 92.1875 28.125H73.4375C73.0231 28.125 72.6257 27.9604 72.3326 27.6674C72.0396 27.3743 71.875 26.9769 71.875 26.5625V17.1875C71.875 16.7731 71.7104 16.3757 71.4174 16.0826C71.1243 15.7896 70.7269 15.625 70.3125 15.625C69.8981 15.625 69.5007 15.7896 69.2076 16.0826C68.9146 16.3757 68.75 16.7731 68.75 17.1875V26.5625C68.75 27.8057 69.2439 28.998 70.1229 29.8771C71.002 30.7561 72.1943 31.25 73.4375 31.25H92.1875C93.4307 31.25 94.623 30.7561 95.5021 29.8771C96.3811 28.998 96.875 27.8057 96.875 26.5625V7.8125C96.875 6.5693 96.3811 5.37701 95.5021 4.49794C94.623 3.61886 93.4307 3.125 92.1875 3.125Z" fill="url(#paint2_linear)"/>
<path d="M76.5625 65.625C76.5625 66.8611 76.9291 68.0695 77.6158 69.0973C78.3026 70.1251 79.2787 70.9262 80.4207 71.3992C81.5628 71.8723 82.8194 71.9961 84.0318 71.7549C85.2442 71.5137 86.3578 70.9185 87.2319 70.0444C88.106 69.1703 88.7013 68.0567 88.9424 66.8443C89.1836 65.6319 89.0598 64.3753 88.5868 63.2332C88.1137 62.0912 87.3126 61.1151 86.2848 60.4283C85.257 59.7416 84.0486 59.375 82.8125 59.375C81.1549 59.375 79.5652 60.0335 78.3931 61.2056C77.221 62.3777 76.5625 63.9674 76.5625 65.625ZM85.9375 65.625C85.9375 66.2431 85.7542 66.8473 85.4109 67.3612C85.0675 67.8751 84.5794 68.2756 84.0084 68.5121C83.4374 68.7486 82.809 68.8105 82.2028 68.69C81.5967 68.5694 81.0398 68.2717 80.6028 67.8347C80.1658 67.3977 79.8681 66.8408 79.7475 66.2347C79.627 65.6285 79.6889 65.0001 79.9254 64.4291C80.1619 63.8581 80.5624 63.37 81.0763 63.0267C81.5903 62.6833 82.1944 62.5 82.8125 62.5C83.6413 62.5 84.4362 62.8292 85.0222 63.4153C85.6083 64.0013 85.9375 64.7962 85.9375 65.625Z" fill="black"/>
<path d="M76.5625 65.625C76.5625 66.8611 76.9291 68.0695 77.6158 69.0973C78.3026 70.1251 79.2787 70.9262 80.4207 71.3992C81.5628 71.8723 82.8194 71.9961 84.0318 71.7549C85.2442 71.5137 86.3578 70.9185 87.2319 70.0444C88.106 69.1703 88.7013 68.0567 88.9424 66.8443C89.1836 65.6319 89.0598 64.3753 88.5868 63.2332C88.1137 62.0912 87.3126 61.1151 86.2848 60.4283C85.257 59.7416 84.0486 59.375 82.8125 59.375C81.1549 59.375 79.5652 60.0335 78.3931 61.2056C77.221 62.3777 76.5625 63.9674 76.5625 65.625ZM85.9375 65.625C85.9375 66.2431 85.7542 66.8473 85.4109 67.3612C85.0675 67.8751 84.5794 68.2756 84.0084 68.5121C83.4374 68.7486 82.809 68.8105 82.2028 68.69C81.5967 68.5694 81.0398 68.2717 80.6028 67.8347C80.1658 67.3977 79.8681 66.8408 79.7475 66.2347C79.627 65.6285 79.6889 65.0001 79.9254 64.4291C80.1619 63.8581 80.5624 63.37 81.0763 63.0267C81.5903 62.6833 82.1944 62.5 82.8125 62.5C83.6413 62.5 84.4362 62.8292 85.0222 63.4153C85.6083 64.0013 85.9375 64.7962 85.9375 65.625Z" fill="url(#paint3_linear)"/>
<path d="M92.1875 51.5625H73.4375C72.1943 51.5625 71.002 52.0564 70.1229 52.9354C69.2439 53.8145 68.75 55.0068 68.75 56.25V75C68.75 76.2432 69.2439 77.4355 70.1229 78.3146C71.002 79.1936 72.1943 79.6875 73.4375 79.6875H92.1875C93.4307 79.6875 94.623 79.1936 95.5021 78.3146C96.3811 77.4355 96.875 76.2432 96.875 75V71.875C96.875 71.4606 96.7104 71.0632 96.4174 70.7701C96.1243 70.4771 95.7269 70.3125 95.3125 70.3125C94.8981 70.3125 94.5007 70.4771 94.2076 70.7701C93.9146 71.0632 93.75 71.4606 93.75 71.875V75C93.75 75.4144 93.5854 75.8118 93.2924 76.1049C92.9993 76.3979 92.6019 76.5625 92.1875 76.5625H73.4375C73.0231 76.5625 72.6257 76.3979 72.3326 76.1049C72.0396 75.8118 71.875 75.4144 71.875 75V56.25C71.875 55.8356 72.0396 55.4382 72.3326 55.1451C72.6257 54.8521 73.0231 54.6875 73.4375 54.6875H92.1875C92.6019 54.6875 92.9993 54.8521 93.2924 55.1451C93.5854 55.4382 93.75 55.8356 93.75 56.25V65.625C93.75 66.0394 93.9146 66.4368 94.2076 66.7299C94.5007 67.0229 94.8981 67.1875 95.3125 67.1875C95.7269 67.1875 96.1243 67.0229 96.4174 66.7299C96.7104 66.4368 96.875 66.0394 96.875 65.625V56.25C96.875 55.0068 96.3811 53.8145 95.5021 52.9354C94.623 52.0564 93.4307 51.5625 92.1875 51.5625Z" fill="black"/>
<path d="M92.1875 51.5625H73.4375C72.1943 51.5625 71.002 52.0564 70.1229 52.9354C69.2439 53.8145 68.75 55.0068 68.75 56.25V75C68.75 76.2432 69.2439 77.4355 70.1229 78.3146C71.002 79.1936 72.1943 79.6875 73.4375 79.6875H92.1875C93.4307 79.6875 94.623 79.1936 95.5021 78.3146C96.3811 77.4355 96.875 76.2432 96.875 75V71.875C96.875 71.4606 96.7104 71.0632 96.4174 70.7701C96.1243 70.4771 95.7269 70.3125 95.3125 70.3125C94.8981 70.3125 94.5007 70.4771 94.2076 70.7701C93.9146 71.0632 93.75 71.4606 93.75 71.875V75C93.75 75.4144 93.5854 75.8118 93.2924 76.1049C92.9993 76.3979 92.6019 76.5625 92.1875 76.5625H73.4375C73.0231 76.5625 72.6257 76.3979 72.3326 76.1049C72.0396 75.8118 71.875 75.4144 71.875 75V56.25C71.875 55.8356 72.0396 55.4382 72.3326 55.1451C72.6257 54.8521 73.0231 54.6875 73.4375 54.6875H92.1875C92.6019 54.6875 92.9993 54.8521 93.2924 55.1451C93.5854 55.4382 93.75 55.8356 93.75 56.25V65.625C93.75 66.0394 93.9146 66.4368 94.2076 66.7299C94.5007 67.0229 94.8981 67.1875 95.3125 67.1875C95.7269 67.1875 96.1243 67.0229 96.4174 66.7299C96.7104 66.4368 96.875 66.0394 96.875 65.625V56.25C96.875 55.0068 96.3811 53.8145 95.5021 52.9354C94.623 52.0564 93.4307 51.5625 92.1875 51.5625Z" fill="url(#paint4_linear)"/>
<path d="M38.2344 21.6403C38.483 21.7944 38.77 21.8756 39.0625 21.8747C39.3071 21.8732 39.5479 21.8143 39.7656 21.7028L49.1406 17.0153C49.3966 16.8842 49.6114 16.685 49.7613 16.4396C49.9113 16.1942 49.9907 15.9122 49.9907 15.6247C49.9907 15.3371 49.9113 15.0551 49.7613 14.8097C49.6114 14.5644 49.3966 14.3652 49.1406 14.234L39.7656 9.54654C39.5278 9.42668 39.2632 9.36962 38.9971 9.38076C38.731 9.39191 38.4721 9.4709 38.2451 9.61023C38.0181 9.74957 37.8305 9.94461 37.7001 10.1769C37.5697 10.4091 37.5008 10.6708 37.5 10.9372V20.3122C37.4995 20.5777 37.5666 20.839 37.6951 21.0714C37.8236 21.3038 38.0092 21.4996 38.2344 21.6403ZM40.625 13.4684L44.9375 15.6247L40.625 17.7809V13.4684Z" fill="black"/>
<path d="M38.2344 21.6403C38.483 21.7944 38.77 21.8756 39.0625 21.8747C39.3071 21.8732 39.5479 21.8143 39.7656 21.7028L49.1406 17.0153C49.3966 16.8842 49.6114 16.685 49.7613 16.4396C49.9113 16.1942 49.9907 15.9122 49.9907 15.6247C49.9907 15.3371 49.9113 15.0551 49.7613 14.8097C49.6114 14.5644 49.3966 14.3652 49.1406 14.234L39.7656 9.54654C39.5278 9.42668 39.2632 9.36962 38.9971 9.38076C38.731 9.39191 38.4721 9.4709 38.2451 9.61023C38.0181 9.74957 37.8305 9.94461 37.7001 10.1769C37.5697 10.4091 37.5008 10.6708 37.5 10.9372V20.3122C37.4995 20.5777 37.5666 20.839 37.6951 21.0714C37.8236 21.3038 38.0092 21.4996 38.2344 21.6403ZM40.625 13.4684L44.9375 15.6247L40.625 17.7809V13.4684Z" fill="url(#paint5_linear)"/>
<path d="M42.1875 29.6875C44.9688 29.6875 47.6876 28.8628 50.0002 27.3175C52.3128 25.7723 54.1152 23.5761 55.1796 21.0065C56.2439 18.4369 56.5224 15.6094 55.9798 12.8815C55.4372 10.1537 54.0979 7.64799 52.1312 5.68132C50.1645 3.71464 47.6588 2.37532 44.931 1.83271C42.2031 1.29011 39.3756 1.56859 36.806 2.63295C34.2364 3.69731 32.0402 5.49973 30.495 7.8123C28.9498 10.1249 28.125 12.8437 28.125 15.625C28.125 19.3546 29.6066 22.9315 32.2438 25.5687C34.881 28.2059 38.4579 29.6875 42.1875 29.6875ZM42.1875 4.68751C44.3507 4.68751 46.4654 5.32898 48.2641 6.53081C50.0627 7.73264 51.4646 9.44084 52.2924 11.4394C53.1203 13.438 53.3369 15.6371 52.9148 17.7588C52.4928 19.8805 51.4511 21.8293 49.9215 23.359C48.3918 24.8886 46.443 25.9303 44.3213 26.3523C42.1996 26.7744 40.0005 26.5578 38.0019 25.7299C36.0033 24.9021 34.2951 23.5002 33.0933 21.7016C31.8915 19.9029 31.25 17.7882 31.25 15.625C31.25 12.7242 32.4023 9.9422 34.4535 7.89103C36.5047 5.83985 39.2867 4.68751 42.1875 4.68751Z" fill="black"/>
<path d="M42.1875 29.6875C44.9688 29.6875 47.6876 28.8628 50.0002 27.3175C52.3128 25.7723 54.1152 23.5761 55.1796 21.0065C56.2439 18.4369 56.5224 15.6094 55.9798 12.8815C55.4372 10.1537 54.0979 7.64799 52.1312 5.68132C50.1645 3.71464 47.6588 2.37532 44.931 1.83271C42.2031 1.29011 39.3756 1.56859 36.806 2.63295C34.2364 3.69731 32.0402 5.49973 30.495 7.8123C28.9498 10.1249 28.125 12.8437 28.125 15.625C28.125 19.3546 29.6066 22.9315 32.2438 25.5687C34.881 28.2059 38.4579 29.6875 42.1875 29.6875ZM42.1875 4.68751C44.3507 4.68751 46.4654 5.32898 48.2641 6.53081C50.0627 7.73264 51.4646 9.44084 52.2924 11.4394C53.1203 13.438 53.3369 15.6371 52.9148 17.7588C52.4928 19.8805 51.4511 21.8293 49.9215 23.359C48.3918 24.8886 46.443 25.9303 44.3213 26.3523C42.1996 26.7744 40.0005 26.5578 38.0019 25.7299C36.0033 24.9021 34.2951 23.5002 33.0933 21.7016C31.8915 19.9029 31.25 17.7882 31.25 15.625C31.25 12.7242 32.4023 9.9422 34.4535 7.89103C36.5047 5.83985 39.2867 4.68751 42.1875 4.68751Z" fill="url(#paint6_linear)"/>
<path d="M57.8125 35.9375C58.0551 35.9375 58.2943 35.881 58.5113 35.7725C58.7282 35.6641 58.917 35.5066 59.0625 35.3125L63.75 29.0625C63.9986 28.731 64.1054 28.3143 64.0468 27.904C63.9882 27.4938 63.769 27.1236 63.4375 26.875C63.106 26.6264 62.6893 26.5196 62.279 26.5782C61.8688 26.6368 61.4986 26.856 61.25 27.1875L56.5625 33.4375C56.3139 33.769 56.2071 34.1857 56.2657 34.596C56.3243 35.0062 56.5435 35.3764 56.875 35.625C57.1455 35.8279 57.4744 35.9375 57.8125 35.9375Z" fill="black"/>
<path d="M57.8125 35.9375C58.0551 35.9375 58.2943 35.881 58.5113 35.7725C58.7282 35.6641 58.917 35.5066 59.0625 35.3125L63.75 29.0625C63.9986 28.731 64.1054 28.3143 64.0468 27.904C63.9882 27.4938 63.769 27.1236 63.4375 26.875C63.106 26.6264 62.6893 26.5196 62.279 26.5782C61.8688 26.6368 61.4986 26.856 61.25 27.1875L56.5625 33.4375C56.3139 33.769 56.2071 34.1857 56.2657 34.596C56.3243 35.0062 56.5435 35.3764 56.875 35.625C57.1455 35.8279 57.4744 35.9375 57.8125 35.9375Z" fill="url(#paint7_linear)"/>
<path d="M61.25 41.5625C61.3955 41.7566 61.5843 41.9141 61.8012 42.0225C62.0182 42.131 62.2574 42.1875 62.5 42.1875C62.8381 42.1875 63.167 42.0779 63.4375 41.875L69.6875 37.1875C70.019 36.9389 70.2382 36.5687 70.2968 36.1585C70.3554 35.7482 70.2486 35.3315 70 35C69.7514 34.6685 69.3812 34.4493 68.971 34.3907C68.5607 34.3321 68.144 34.4389 67.8125 34.6875L61.5625 39.375C61.231 39.6236 61.0118 39.9938 60.9532 40.404C60.8946 40.8143 61.0014 41.231 61.25 41.5625Z" fill="black"/>
<path d="M61.25 41.5625C61.3955 41.7566 61.5843 41.9141 61.8012 42.0225C62.0182 42.131 62.2574 42.1875 62.5 42.1875C62.8381 42.1875 63.167 42.0779 63.4375 41.875L69.6875 37.1875C70.019 36.9389 70.2382 36.5687 70.2968 36.1585C70.3554 35.7482 70.2486 35.3315 70 35C69.7514 34.6685 69.3812 34.4493 68.971 34.3907C68.5607 34.3321 68.144 34.4389 67.8125 34.6875L61.5625 39.375C61.231 39.6236 61.0118 39.9938 60.9532 40.404C60.8946 40.8143 61.0014 41.231 61.25 41.5625Z" fill="url(#paint8_linear)"/>
<path d="M76.5625 45.0002C76.5253 44.793 76.4467 44.5955 76.3314 44.4195C76.216 44.2434 76.0663 44.0925 75.8912 43.9758C75.7161 43.8591 75.5192 43.7789 75.3124 43.7401C75.1055 43.7014 74.893 43.7048 74.6875 43.7502L66.875 45.3127C66.6698 45.3332 66.4706 45.3939 66.2889 45.4914C66.1072 45.5889 65.9465 45.7212 65.8159 45.8808C65.5522 46.2031 65.4273 46.617 65.4687 47.0314C65.5102 47.4458 65.7145 47.8268 66.0369 48.0905C66.3592 48.3542 66.7731 48.4791 67.1875 48.4377H67.5L75.3125 46.8752C75.5196 46.838 75.7171 46.7594 75.8932 46.6441C76.0692 46.5287 76.2201 46.379 76.3368 46.2039C76.4536 46.0288 76.5337 45.8319 76.5725 45.6251C76.6113 45.4182 76.6079 45.2057 76.5625 45.0002Z" fill="black"/>
<path d="M76.5625 45.0002C76.5253 44.793 76.4467 44.5955 76.3314 44.4195C76.216 44.2434 76.0663 44.0925 75.8912 43.9758C75.7161 43.8591 75.5192 43.7789 75.3124 43.7401C75.1055 43.7014 74.893 43.7048 74.6875 43.7502L66.875 45.3127C66.6698 45.3332 66.4706 45.3939 66.2889 45.4914C66.1072 45.5889 65.9465 45.7212 65.8159 45.8808C65.5522 46.2031 65.4273 46.617 65.4687 47.0314C65.5102 47.4458 65.7145 47.8268 66.0369 48.0905C66.3592 48.3542 66.7731 48.4791 67.1875 48.4377H67.5L75.3125 46.8752C75.5196 46.838 75.7171 46.7594 75.8932 46.6441C76.0692 46.5287 76.2201 46.379 76.3368 46.2039C76.4536 46.0288 76.5337 45.8319 76.5725 45.6251C76.6113 45.4182 76.6079 45.2057 76.5625 45.0002Z" fill="url(#paint9_linear)"/>
<path d="M4.6875 45.3125H23.4375C23.8519 45.3125 24.2493 45.1479 24.5424 44.8549C24.8354 44.5618 25 44.1644 25 43.75V18.75C25 18.3356 24.8354 17.9382 24.5424 17.6451C24.2493 17.3521 23.8519 17.1875 23.4375 17.1875H4.6875C4.2731 17.1875 3.87567 17.3521 3.58265 17.6451C3.28962 17.9382 3.125 18.3356 3.125 18.75V43.75C3.125 44.1644 3.28962 44.5618 3.58265 44.8549C3.87567 45.1479 4.2731 45.3125 4.6875 45.3125ZM6.25 20.3125H21.875V42.1875H6.25V20.3125Z" fill="black"/>
<path d="M4.6875 45.3125H23.4375C23.8519 45.3125 24.2493 45.1479 24.5424 44.8549C24.8354 44.5618 25 44.1644 25 43.75V18.75C25 18.3356 24.8354 17.9382 24.5424 17.6451C24.2493 17.3521 23.8519 17.1875 23.4375 17.1875H4.6875C4.2731 17.1875 3.87567 17.3521 3.58265 17.6451C3.28962 17.9382 3.125 18.3356 3.125 18.75V43.75C3.125 44.1644 3.28962 44.5618 3.58265 44.8549C3.87567 45.1479 4.2731 45.3125 4.6875 45.3125ZM6.25 20.3125H21.875V42.1875H6.25V20.3125Z" fill="url(#paint10_linear)"/>
<path d="M17.1875 23.4375H14.0625C13.6481 23.4375 13.2507 23.6021 12.9576 23.8951C12.6646 24.1882 12.5 24.5856 12.5 25C12.5 25.4144 12.6646 25.8118 12.9576 26.1049C13.2507 26.3979 13.6481 26.5625 14.0625 26.5625H17.1875C17.6019 26.5625 17.9993 26.3979 18.2924 26.1049C18.5854 25.8118 18.75 25.4144 18.75 25C18.75 24.5856 18.5854 24.1882 18.2924 23.8951C17.9993 23.6021 17.6019 23.4375 17.1875 23.4375Z" fill="black"/>
<path d="M17.1875 23.4375H14.0625C13.6481 23.4375 13.2507 23.6021 12.9576 23.8951C12.6646 24.1882 12.5 24.5856 12.5 25C12.5 25.4144 12.6646 25.8118 12.9576 26.1049C13.2507 26.3979 13.6481 26.5625 14.0625 26.5625H17.1875C17.6019 26.5625 17.9993 26.3979 18.2924 26.1049C18.5854 25.8118 18.75 25.4144 18.75 25C18.75 24.5856 18.5854 24.1882 18.2924 23.8951C17.9993 23.6021 17.6019 23.4375 17.1875 23.4375Z" fill="url(#paint11_linear)"/>
<path d="M17.1875 29.6875H10.9375C10.5231 29.6875 10.1257 29.8521 9.83265 30.1451C9.53962 30.4382 9.375 30.8356 9.375 31.25C9.375 31.6644 9.53962 32.0618 9.83265 32.3549C10.1257 32.6479 10.5231 32.8125 10.9375 32.8125H17.1875C17.6019 32.8125 17.9993 32.6479 18.2924 32.3549C18.5854 32.0618 18.75 31.6644 18.75 31.25C18.75 30.8356 18.5854 30.4382 18.2924 30.1451C17.9993 29.8521 17.6019 29.6875 17.1875 29.6875Z" fill="black"/>
<path d="M17.1875 29.6875H10.9375C10.5231 29.6875 10.1257 29.8521 9.83265 30.1451C9.53962 30.4382 9.375 30.8356 9.375 31.25C9.375 31.6644 9.53962 32.0618 9.83265 32.3549C10.1257 32.6479 10.5231 32.8125 10.9375 32.8125H17.1875C17.6019 32.8125 17.9993 32.6479 18.2924 32.3549C18.5854 32.0618 18.75 31.6644 18.75 31.25C18.75 30.8356 18.5854 30.4382 18.2924 30.1451C17.9993 29.8521 17.6019 29.6875 17.1875 29.6875Z" fill="url(#paint12_linear)"/>
<path d="M17.1875 35.9375H10.9375C10.5231 35.9375 10.1257 36.1021 9.83265 36.3951C9.53962 36.6882 9.375 37.0856 9.375 37.5C9.375 37.9144 9.53962 38.3118 9.83265 38.6049C10.1257 38.8979 10.5231 39.0625 10.9375 39.0625H17.1875C17.6019 39.0625 17.9993 38.8979 18.2924 38.6049C18.5854 38.3118 18.75 37.9144 18.75 37.5C18.75 37.0856 18.5854 36.6882 18.2924 36.3951C17.9993 36.1021 17.6019 35.9375 17.1875 35.9375Z" fill="black"/>
<path d="M17.1875 35.9375H10.9375C10.5231 35.9375 10.1257 36.1021 9.83265 36.3951C9.53962 36.6882 9.375 37.0856 9.375 37.5C9.375 37.9144 9.53962 38.3118 9.83265 38.6049C10.1257 38.8979 10.5231 39.0625 10.9375 39.0625H17.1875C17.6019 39.0625 17.9993 38.8979 18.2924 38.6049C18.5854 38.3118 18.75 37.9144 18.75 37.5C18.75 37.0856 18.5854 36.6882 18.2924 36.3951C17.9993 36.1021 17.6019 35.9375 17.1875 35.9375Z" fill="url(#paint13_linear)"/>
<path d="M56.4372 44.8439C56.3346 44.6654 56.1978 44.5089 56.0347 44.3832C55.8716 44.2575 55.6854 44.1652 55.4866 44.1115C55.2878 44.0578 55.0804 44.0438 54.8762 44.0703C54.672 44.0968 54.4751 44.1632 54.2966 44.2658C54.118 44.3684 53.9615 44.5052 53.8358 44.6683C53.7101 44.8314 53.6178 45.0176 53.5642 45.2164C53.5105 45.4152 53.4965 45.6226 53.5229 45.8267C53.5494 46.0309 53.6158 46.2279 53.7184 46.4064L60.6091 58.3283L35.6091 67.7033C35.6091 67.7033 35.609 67.7033 35.4997 67.7033H35.3747L31.3122 70.0471L28.609 71.6096C28.2532 71.8153 27.8602 71.9488 27.4527 72.0024C27.0451 72.056 26.631 72.0287 26.2341 71.9221C25.4366 71.7066 24.7568 71.1842 24.3434 70.4689L21.2184 65.0627C20.8508 64.3554 20.7673 63.5343 20.9852 62.7675C21.203 62.0006 21.7057 61.3461 22.3903 60.9377L27.7966 57.8127L31.7028 64.5783C31.8405 64.8167 32.0387 65.0146 32.2774 65.1518C32.5161 65.289 32.7868 65.3606 33.0622 65.3596C33.337 65.3606 33.6072 65.2892 33.8456 65.1526C34.084 65.0159 34.2821 64.8187 34.42 64.581C34.5579 64.3433 34.6306 64.0734 34.6309 63.7986C34.6312 63.5238 34.559 63.2538 34.4216 63.0158L30.3903 56.0471L49.9997 39.8752L50.6403 40.9846C50.7429 41.1631 50.8797 41.3196 51.0428 41.4453C51.2058 41.571 51.3921 41.6633 51.5909 41.717C51.7897 41.7706 51.9971 41.7846 52.2012 41.7582C52.4054 41.7317 52.6024 41.6653 52.7809 41.5627C52.9594 41.4601 53.116 41.3233 53.2417 41.1602C53.3673 40.9971 53.4596 40.8109 53.5133 40.6121C53.567 40.4133 53.581 40.2059 53.5545 40.0017C53.5281 39.7975 53.4616 39.6006 53.3591 39.4221L51.7966 36.7189C51.682 36.5232 51.5263 36.3547 51.3401 36.2252C51.1539 36.0956 50.9418 36.0082 50.7184 35.9689C50.4939 35.9266 50.2627 35.9341 50.0414 35.9907C49.82 36.0474 49.6138 36.152 49.4372 36.2971L27.5622 54.3283L20.9059 58.1721C19.7114 58.8678 18.7813 59.94 18.2611 61.2207C17.7408 62.5015 17.6599 63.9185 18.0309 65.2502L16.4684 66.1408C15.6634 66.6031 15.0137 67.2941 14.6018 68.1261C14.1899 68.9581 14.0344 69.8937 14.1549 70.8142C14.2754 71.7347 14.6665 72.5987 15.2787 73.2966C15.8909 73.9946 16.6965 74.495 17.5934 74.7346C17.9911 74.8399 18.4008 74.8924 18.8122 74.8908C19.6342 74.8874 20.4414 74.6721 21.1559 74.2658L22.7184 73.3752C23.469 74.1506 24.413 74.7115 25.4528 75.0002C25.9867 75.1495 26.539 75.2232 27.0934 75.2189C28.1917 75.2215 29.2707 74.9301 30.2184 74.3752L31.5778 73.5939L34.7028 79.0158C35.3238 80.0895 36.3452 80.8733 37.543 81.1955C38.7409 81.5177 40.0176 81.3519 41.0934 80.7346C41.6272 80.427 42.0951 80.0173 42.4704 79.5288C42.8457 79.0403 43.121 78.4826 43.2806 77.8877C43.4402 77.2927 43.481 76.6721 43.4007 76.0614C43.3203 75.4506 43.1203 74.8617 42.8122 74.3283L39.9684 69.3752L63.4059 60.5783C63.6185 60.4984 63.8111 60.3731 63.9703 60.2112C64.1295 60.0493 64.2515 59.8547 64.3278 59.6408C64.4038 59.4295 64.4334 59.2042 64.4146 58.9804C64.3957 58.7566 64.3288 58.5395 64.2184 58.3439L56.4372 44.8439ZM19.5309 71.5471C19.353 71.6499 19.1565 71.7167 18.9527 71.7435C18.749 71.7703 18.5419 71.7566 18.3434 71.7033C17.9431 71.5993 17.6004 71.3408 17.3903 70.9846C17.2874 70.8066 17.2207 70.6101 17.1939 70.4064C17.1671 70.2026 17.1807 69.9955 17.2341 69.7971C17.2874 69.5975 17.3798 69.4106 17.5058 69.247C17.6319 69.0834 17.7891 68.9464 17.9684 68.8439L19.3278 68.0627L20.8903 70.7658L19.5309 71.5471ZM40.0934 75.9221C40.1963 76.1 40.263 76.2965 40.2899 76.5002C40.3167 76.704 40.303 76.9111 40.2497 77.1096C40.1382 77.5067 39.8743 77.8438 39.5153 78.0471C39.1584 78.2521 38.735 78.308 38.3372 78.2027C37.9393 78.0973 37.599 77.8393 37.3903 77.4846L34.2653 72.0627L36.859 70.5783H36.984L40.0934 75.9221Z" fill="black"/>
<path d="M56.4372 44.8439C56.3346 44.6654 56.1978 44.5089 56.0347 44.3832C55.8716 44.2575 55.6854 44.1652 55.4866 44.1115C55.2878 44.0578 55.0804 44.0438 54.8762 44.0703C54.672 44.0968 54.4751 44.1632 54.2966 44.2658C54.118 44.3684 53.9615 44.5052 53.8358 44.6683C53.7101 44.8314 53.6178 45.0176 53.5642 45.2164C53.5105 45.4152 53.4965 45.6226 53.5229 45.8267C53.5494 46.0309 53.6158 46.2279 53.7184 46.4064L60.6091 58.3283L35.6091 67.7033C35.6091 67.7033 35.609 67.7033 35.4997 67.7033H35.3747L31.3122 70.0471L28.609 71.6096C28.2532 71.8153 27.8602 71.9488 27.4527 72.0024C27.0451 72.056 26.631 72.0287 26.2341 71.9221C25.4366 71.7066 24.7568 71.1842 24.3434 70.4689L21.2184 65.0627C20.8508 64.3554 20.7673 63.5343 20.9852 62.7675C21.203 62.0006 21.7057 61.3461 22.3903 60.9377L27.7966 57.8127L31.7028 64.5783C31.8405 64.8167 32.0387 65.0146 32.2774 65.1518C32.5161 65.289 32.7868 65.3606 33.0622 65.3596C33.337 65.3606 33.6072 65.2892 33.8456 65.1526C34.084 65.0159 34.2821 64.8187 34.42 64.581C34.5579 64.3433 34.6306 64.0734 34.6309 63.7986C34.6312 63.5238 34.559 63.2538 34.4216 63.0158L30.3903 56.0471L49.9997 39.8752L50.6403 40.9846C50.7429 41.1631 50.8797 41.3196 51.0428 41.4453C51.2058 41.571 51.3921 41.6633 51.5909 41.717C51.7897 41.7706 51.9971 41.7846 52.2012 41.7582C52.4054 41.7317 52.6024 41.6653 52.7809 41.5627C52.9594 41.4601 53.116 41.3233 53.2417 41.1602C53.3673 40.9971 53.4596 40.8109 53.5133 40.6121C53.567 40.4133 53.581 40.2059 53.5545 40.0017C53.5281 39.7975 53.4616 39.6006 53.3591 39.4221L51.7966 36.7189C51.682 36.5232 51.5263 36.3547 51.3401 36.2252C51.1539 36.0956 50.9418 36.0082 50.7184 35.9689C50.4939 35.9266 50.2627 35.9341 50.0414 35.9907C49.82 36.0474 49.6138 36.152 49.4372 36.2971L27.5622 54.3283L20.9059 58.1721C19.7114 58.8678 18.7813 59.94 18.2611 61.2207C17.7408 62.5015 17.6599 63.9185 18.0309 65.2502L16.4684 66.1408C15.6634 66.6031 15.0137 67.2941 14.6018 68.1261C14.1899 68.9581 14.0344 69.8937 14.1549 70.8142C14.2754 71.7347 14.6665 72.5987 15.2787 73.2966C15.8909 73.9946 16.6965 74.495 17.5934 74.7346C17.9911 74.8399 18.4008 74.8924 18.8122 74.8908C19.6342 74.8874 20.4414 74.6721 21.1559 74.2658L22.7184 73.3752C23.469 74.1506 24.413 74.7115 25.4528 75.0002C25.9867 75.1495 26.539 75.2232 27.0934 75.2189C28.1917 75.2215 29.2707 74.9301 30.2184 74.3752L31.5778 73.5939L34.7028 79.0158C35.3238 80.0895 36.3452 80.8733 37.543 81.1955C38.7409 81.5177 40.0176 81.3519 41.0934 80.7346C41.6272 80.427 42.0951 80.0173 42.4704 79.5288C42.8457 79.0403 43.121 78.4826 43.2806 77.8877C43.4402 77.2927 43.481 76.6721 43.4007 76.0614C43.3203 75.4506 43.1203 74.8617 42.8122 74.3283L39.9684 69.3752L63.4059 60.5783C63.6185 60.4984 63.8111 60.3731 63.9703 60.2112C64.1295 60.0493 64.2515 59.8547 64.3278 59.6408C64.4038 59.4295 64.4334 59.2042 64.4146 58.9804C64.3957 58.7566 64.3288 58.5395 64.2184 58.3439L56.4372 44.8439ZM19.5309 71.5471C19.353 71.6499 19.1565 71.7167 18.9527 71.7435C18.749 71.7703 18.5419 71.7566 18.3434 71.7033C17.9431 71.5993 17.6004 71.3408 17.3903 70.9846C17.2874 70.8066 17.2207 70.6101 17.1939 70.4064C17.1671 70.2026 17.1807 69.9955 17.2341 69.7971C17.2874 69.5975 17.3798 69.4106 17.5058 69.247C17.6319 69.0834 17.7891 68.9464 17.9684 68.8439L19.3278 68.0627L20.8903 70.7658L19.5309 71.5471ZM40.0934 75.9221C40.1963 76.1 40.263 76.2965 40.2899 76.5002C40.3167 76.704 40.303 76.9111 40.2497 77.1096C40.1382 77.5067 39.8743 77.8438 39.5153 78.0471C39.1584 78.2521 38.735 78.308 38.3372 78.2027C37.9393 78.0973 37.599 77.8393 37.3903 77.4846L34.2653 72.0627L36.859 70.5783H36.984L40.0934 75.9221Z" fill="url(#paint14_linear)"/>
<defs>
<linearGradient id="paint0_linear" x1="31.25" y1="50" x2="31.25" y2="96.875" gradientUnits="userSpaceOnUse">
<stop stop-color="#FFE5AC"/>
<stop offset="0.0001" stop-color="#FFE5AC"/>
<stop offset="1" stop-color="#B99C5D"/>
</linearGradient>
<linearGradient id="paint1_linear" x1="82.8125" y1="9.375" x2="82.8125" y2="25" gradientUnits="userSpaceOnUse">
<stop stop-color="#FFE5AC"/>
<stop offset="0.0001" stop-color="#FFE5AC"/>
<stop offset="1" stop-color="#B99C5D"/>
</linearGradient>
<linearGradient id="paint2_linear" x1="82.8125" y1="3.125" x2="82.8125" y2="31.25" gradientUnits="userSpaceOnUse">
<stop stop-color="#FFE5AC"/>
<stop offset="0.0001" stop-color="#FFE5AC"/>
<stop offset="1" stop-color="#B99C5D"/>
</linearGradient>
<linearGradient id="paint3_linear" x1="82.8125" y1="59.375" x2="82.8125" y2="71.875" gradientUnits="userSpaceOnUse">
<stop stop-color="#FFE5AC"/>
<stop offset="0.0001" stop-color="#FFE5AC"/>
<stop offset="1" stop-color="#B99C5D"/>
</linearGradient>
<linearGradient id="paint4_linear" x1="82.8125" y1="51.5625" x2="82.8125" y2="79.6875" gradientUnits="userSpaceOnUse">
<stop stop-color="#FFE5AC"/>
<stop offset="0.0001" stop-color="#FFE5AC"/>
<stop offset="1" stop-color="#B99C5D"/>
</linearGradient>
<linearGradient id="paint5_linear" x1="43.7453" y1="9.37939" x2="43.7453" y2="21.8747" gradientUnits="userSpaceOnUse">
<stop stop-color="#FFE5AC"/>
<stop offset="0.0001" stop-color="#FFE5AC"/>
<stop offset="1" stop-color="#B99C5D"/>
</linearGradient>
<linearGradient id="paint6_linear" x1="42.1875" y1="1.5625" x2="42.1875" y2="29.6875" gradientUnits="userSpaceOnUse">
<stop stop-color="#FFE5AC"/>
<stop offset="0.0001" stop-color="#FFE5AC"/>
<stop offset="1" stop-color="#B99C5D"/>
</linearGradient>
<linearGradient id="paint7_linear" x1="60.1562" y1="26.5625" x2="60.1562" y2="35.9375" gradientUnits="userSpaceOnUse">
<stop stop-color="#FFE5AC"/>
<stop offset="0.0001" stop-color="#FFE5AC"/>
<stop offset="1" stop-color="#B99C5D"/>
</linearGradient>
<linearGradient id="paint8_linear" x1="65.625" y1="34.375" x2="65.625" y2="42.1875" gradientUnits="userSpaceOnUse">
<stop stop-color="#FFE5AC"/>
<stop offset="0.0001" stop-color="#FFE5AC"/>
<stop offset="1" stop-color="#B99C5D"/>
</linearGradient>
<linearGradient id="paint9_linear" x1="71.0301" y1="43.7134" x2="71.0301" y2="48.4455" gradientUnits="userSpaceOnUse">
<stop stop-color="#FFE5AC"/>
<stop offset="0.0001" stop-color="#FFE5AC"/>
<stop offset="1" stop-color="#B99C5D"/>
</linearGradient>
<linearGradient id="paint10_linear" x1="14.0625" y1="17.1875" x2="14.0625" y2="45.3125" gradientUnits="userSpaceOnUse">
<stop stop-color="#FFE5AC"/>
<stop offset="0.0001" stop-color="#FFE5AC"/>
<stop offset="1" stop-color="#B99C5D"/>
</linearGradient>
<linearGradient id="paint11_linear" x1="15.625" y1="23.4375" x2="15.625" y2="26.5625" gradientUnits="userSpaceOnUse">
<stop stop-color="#FFE5AC"/>
<stop offset="0.0001" stop-color="#FFE5AC"/>
<stop offset="1" stop-color="#B99C5D"/>
</linearGradient>
<linearGradient id="paint12_linear" x1="14.0625" y1="29.6875" x2="14.0625" y2="32.8125" gradientUnits="userSpaceOnUse">
<stop stop-color="#FFE5AC"/>
<stop offset="0.0001" stop-color="#FFE5AC"/>
<stop offset="1" stop-color="#B99C5D"/>
</linearGradient>
<linearGradient id="paint13_linear" x1="14.0625" y1="35.9375" x2="14.0625" y2="39.0625" gradientUnits="userSpaceOnUse">
<stop stop-color="#FFE5AC"/>
<stop offset="0.0001" stop-color="#FFE5AC"/>
<stop offset="1" stop-color="#B99C5D"/>
</linearGradient>
<linearGradient id="paint14_linear" x1="39.2677" y1="35.9419" x2="39.2677" y2="81.3564" gradientUnits="userSpaceOnUse">
<stop stop-color="#FFE5AC"/>
<stop offset="0.0001" stop-color="#FFE5AC"/>
<stop offset="1" stop-color="#B99C5D"/>
</linearGradient>
</defs>
</svg>
