<svg width="100" height="100" viewBox="0 0 100 100" fill="none" xmlns="http://www.w3.org/2000/svg">
<g clip-path="url(#clip0)">
<path d="M17.588 77.3338C16.188 77.3338 14.8422 77.6833 13.6482 78.3394C7.35855 70.2766 3.90625 60.2608 3.90625 50C3.90625 24.5834 24.5834 3.90625 50 3.90625C53.0899 3.90625 56.1783 4.21371 59.1797 4.82025C60.2356 5.03387 61.2671 4.35028 61.4807 3.29285C61.6943 2.23541 61.0107 1.20544 59.9533 0.991058C56.6978 0.333405 53.3493 0 50 0C36.6447 0 24.0883 5.20096 14.6446 14.6446C5.20096 24.0883 0 36.6447 0 50C0 61.2343 3.8147 72.1977 10.7597 80.9868C9.86557 82.3227 9.38492 83.8928 9.38492 85.537C9.38492 87.7281 10.2386 89.7881 11.7882 91.3368C13.3369 92.8864 15.3969 93.7401 17.588 93.7401C19.7792 93.7401 21.8391 92.8864 23.3887 91.3368C24.9382 89.7881 25.7912 87.7274 25.7912 85.5362C25.7912 83.3458 24.9382 81.2851 23.3887 79.7363C21.8391 78.1868 19.7792 77.3338 17.588 77.3338ZM20.6261 88.575C19.8151 89.3867 18.7355 89.8338 17.588 89.8338C16.4406 89.8338 15.3618 89.3867 14.55 88.575C13.7383 87.7632 13.2912 86.6844 13.2912 85.537C13.2912 84.3887 13.7383 83.3099 14.55 82.4982C15.361 81.6864 16.4406 81.2401 17.588 81.2401C18.7355 81.2401 19.8143 81.6872 20.6261 82.4982C21.4378 83.3099 21.8849 84.3887 21.8849 85.537C21.8849 86.6844 21.4378 87.7632 20.6261 88.575Z" fill="url(#paint0_linear)"/>
<path d="M89.2385 19.0108C91.3617 15.8255 91.0207 11.4706 88.2123 8.66226C86.6628 7.11349 84.6028 6.25977 82.4117 6.25977C80.2205 6.25977 78.1606 7.11349 76.611 8.66226C75.0615 10.2118 74.2086 12.2717 74.2086 14.4629C74.2086 16.6541 75.0615 18.714 76.611 20.2635C78.1606 21.813 80.2205 22.666 82.4117 22.666C83.8117 22.666 85.1575 22.3166 86.3515 21.6605C92.6412 29.724 96.0935 39.7391 96.0935 49.9998C96.0935 75.4164 75.4163 96.0936 49.9997 96.0936C46.9403 96.0936 43.881 95.7922 40.9078 95.1971C39.8503 94.9858 38.8211 95.6717 38.609 96.7291C38.3977 97.7873 39.0836 98.8158 40.141 99.0279C43.366 99.6725 46.6832 99.9998 49.9997 99.9998C63.355 99.9998 75.9114 94.7989 85.3551 85.3552C94.7988 75.9116 99.9997 63.3551 99.9997 49.9998C99.9997 38.7648 96.1843 27.8006 89.2385 19.0108ZM79.3737 17.5017C78.5619 16.6899 78.1148 15.6111 78.1148 14.4629C78.1148 13.3154 78.5619 12.2366 79.3737 11.4249C80.1847 10.6131 81.2642 10.166 82.4117 10.166C83.5591 10.166 84.6387 10.6131 85.4505 11.4249C87.1251 13.1003 87.1251 15.8263 85.4505 17.5017C84.6387 18.3127 83.5591 18.7598 82.4117 18.7598C81.2635 18.7598 80.1847 18.3127 79.3737 17.5017Z" fill="url(#paint1_linear)"/>
<path d="M41.9404 83.5938C41.9404 84.6725 42.8155 85.5469 43.8936 85.5469H56.1059C57.1847 85.5469 58.0591 84.6725 58.0591 83.5938V79.8073C60.6271 79.1161 63.0822 78.0983 65.3894 76.7693L68.0627 79.4426C68.4289 79.8088 68.9256 80.0148 69.4444 80.0148C69.9617 80.0148 70.4591 79.8088 70.8253 79.4418L79.4572 70.8038C80.2194 70.0409 80.2194 68.8042 79.4572 68.042L76.7869 65.3717C78.116 63.0646 79.1337 60.6094 79.825 58.0414H83.5969C84.6757 58.0414 85.55 57.1671 85.55 56.0883V43.8759C85.55 42.7971 84.6757 41.9228 83.5969 41.9228H79.8242C79.133 39.3555 78.116 36.9003 76.7869 34.5932L79.4427 31.9374C79.8089 31.5712 80.0149 31.0738 80.0149 30.5557C80.0142 30.0377 79.8082 29.5403 79.442 29.174L70.8032 20.5421C70.041 19.78 68.8043 19.78 68.0414 20.5429L65.3894 23.1956C63.0822 21.8666 60.6271 20.8488 58.0591 20.1576V16.4062C58.0591 15.3275 57.1847 14.4531 56.1059 14.4531H43.8936C42.8155 14.4531 41.9404 15.3275 41.9404 16.4062V20.1584C39.3731 20.8488 36.918 21.8666 34.6109 23.1956L31.9581 20.5429C31.196 19.7807 29.9592 19.78 29.1963 20.5421L20.5583 29.1748C20.1913 29.541 19.9853 30.0377 19.9853 30.5557C19.9853 31.0738 20.1913 31.5712 20.5575 31.9374L23.2133 34.5932C21.8843 36.9003 20.8665 39.3547 20.1753 41.9228H16.4102C15.3314 41.9228 14.4571 42.7971 14.4571 43.8751L14.4502 56.0875C14.4494 56.6055 14.6554 57.103 15.0216 57.4692C15.3878 57.8354 15.8845 58.0414 16.4033 58.0414H20.1753C20.8665 60.6094 21.8843 63.0646 23.2133 65.3717L20.543 68.042C19.7809 68.8042 19.7801 70.0409 20.543 70.8038L29.1749 79.4418C29.5411 79.808 30.0378 80.0148 30.5558 80.0148H30.5566C31.0746 80.0148 31.5713 79.8088 31.9375 79.4426L34.6101 76.7693C36.918 78.0983 39.3731 79.1161 41.9404 79.8073V83.5938ZM35.3761 72.6616C34.6032 72.1619 33.5862 72.2702 32.9347 72.921L30.5566 75.2991L24.6858 69.4237L27.0616 67.0471C27.7124 66.3963 27.8207 65.3793 27.321 64.6065C25.5502 61.866 24.3051 58.8623 23.6215 55.6778C23.4277 54.7783 22.6327 54.1351 21.7119 54.1351H18.3572L18.3618 45.829H21.7119C22.6327 45.829 23.4277 45.1866 23.6215 44.2863C24.3051 41.1026 25.5502 38.0989 27.321 35.3584C27.8207 34.5856 27.7124 33.5686 27.0616 32.9178L24.7011 30.5565L30.5764 24.6857L32.9347 27.0447C33.5862 27.6955 34.6025 27.803 35.3761 27.3041C38.1158 25.5333 41.1195 24.2882 44.304 23.6046C45.2035 23.4108 45.8467 22.6151 45.8467 21.6949V18.3594H54.1528V21.6942C54.1528 22.6151 54.7952 23.4108 55.6955 23.6038C58.8792 24.2882 61.8837 25.5325 64.6234 27.3033C65.3962 27.803 66.4132 27.6955 67.064 27.0439L69.423 24.6857L75.2984 30.5565L72.9379 32.917C72.2863 33.5686 72.1788 34.5856 72.6785 35.3584C74.4493 38.0989 75.6936 41.1026 76.378 44.2863C76.571 45.1866 77.3668 45.829 78.2876 45.829H81.6438V54.1351H78.2876C77.3668 54.1351 76.5718 54.7783 76.378 55.6778C75.6944 58.8615 74.4493 61.866 72.6785 64.6057C72.1788 65.3793 72.2871 66.3963 72.9379 67.0471L75.3137 69.4229L69.4429 75.2983L67.0648 72.921C66.4132 72.2694 65.3962 72.1619 64.6234 72.6616C61.8829 74.4324 58.8792 75.6767 55.6955 76.3611C54.7952 76.5549 54.1528 77.3499 54.1528 78.2707V81.6406H45.8467V78.2707C45.8467 77.3506 45.2035 76.5549 44.304 76.3611C41.1203 75.6775 38.1166 74.4324 35.3761 72.6616Z" fill="url(#paint2_linear)"/>
<path d="M66.1382 49.9998C66.1382 41.1009 58.8987 33.8613 49.9998 33.8613C41.1009 33.8613 33.8613 41.1009 33.8613 49.9998C33.8613 58.8987 41.1009 66.1382 49.9998 66.1382C58.8987 66.1382 66.1382 58.8987 66.1382 49.9998ZM37.7676 49.9998C37.7676 43.2546 43.2546 37.7676 49.9998 37.7676C56.7449 37.7676 62.232 43.2554 62.232 49.9998C62.232 56.7442 56.7449 62.232 49.9998 62.232C43.2546 62.232 37.7676 56.7449 37.7676 49.9998Z" fill="url(#paint3_linear)"/>
<path d="M67.9839 7.38657C68.4981 7.38657 69.0016 7.17752 69.3648 6.81436C69.728 6.44891 69.937 5.94537 69.937 5.43115C69.937 4.91998 69.7287 4.41568 69.3648 4.05023C69.0016 3.68707 68.4981 3.47803 67.9839 3.47803C67.4681 3.47803 66.9669 3.68707 66.6037 4.05023C66.2398 4.41568 66.0308 4.91769 66.0308 5.43115C66.0308 5.9469 66.2398 6.44891 66.6037 6.81436C66.9669 7.17752 67.4681 7.38657 67.9839 7.38657Z" fill="url(#paint4_linear)"/>
<path d="M32.1016 92.6484C31.5881 92.6484 31.0838 92.8575 30.7206 93.2206C30.3575 93.5838 30.1484 94.0881 30.1484 94.6016C30.1484 95.1173 30.3575 95.6193 30.7206 95.9825C31.0838 96.3456 31.5881 96.5547 32.1016 96.5547C32.615 96.5547 33.1193 96.3456 33.4825 95.9825C33.8456 95.6193 34.0547 95.115 34.0547 94.6016C34.0547 94.0881 33.8456 93.5838 33.4825 93.2206C33.1193 92.8575 32.615 92.6484 32.1016 92.6484Z" fill="url(#paint5_linear)"/>
</g>
<defs>
<linearGradient id="paint0_linear" x1="30.7599" y1="0" x2="30.7599" y2="93.7401" gradientUnits="userSpaceOnUse">
<stop stop-color="#FFE5AC"/>
<stop offset="0.0001" stop-color="#FFE5AC"/>
<stop offset="1" stop-color="#B99C5D"/>
</linearGradient>
<linearGradient id="paint1_linear" x1="69.2853" y1="6.25977" x2="69.2853" y2="99.9998" gradientUnits="userSpaceOnUse">
<stop stop-color="#FFE5AC"/>
<stop offset="0.0001" stop-color="#FFE5AC"/>
<stop offset="1" stop-color="#B99C5D"/>
</linearGradient>
<linearGradient id="paint2_linear" x1="50.0001" y1="14.4531" x2="50.0001" y2="85.5469" gradientUnits="userSpaceOnUse">
<stop stop-color="#FFE5AC"/>
<stop offset="0.0001" stop-color="#FFE5AC"/>
<stop offset="1" stop-color="#B99C5D"/>
</linearGradient>
<linearGradient id="paint3_linear" x1="49.9998" y1="33.8613" x2="49.9998" y2="66.1382" gradientUnits="userSpaceOnUse">
<stop stop-color="#FFE5AC"/>
<stop offset="0.0001" stop-color="#FFE5AC"/>
<stop offset="1" stop-color="#B99C5D"/>
</linearGradient>
<linearGradient id="paint4_linear" x1="67.9839" y1="3.47803" x2="67.9839" y2="7.38657" gradientUnits="userSpaceOnUse">
<stop stop-color="#FFE5AC"/>
<stop offset="0.0001" stop-color="#FFE5AC"/>
<stop offset="1" stop-color="#B99C5D"/>
</linearGradient>
<linearGradient id="paint5_linear" x1="32.1016" y1="92.6484" x2="32.1016" y2="96.5547" gradientUnits="userSpaceOnUse">
<stop stop-color="#FFE5AC"/>
<stop offset="0.0001" stop-color="#FFE5AC"/>
<stop offset="1" stop-color="#B99C5D"/>
</linearGradient>
<clipPath id="clip0">
<rect width="100" height="100" fill="white"/>
</clipPath>
</defs>
</svg>
