<svg width="100" height="100" viewBox="0 0 100 100" fill="none" xmlns="http://www.w3.org/2000/svg">
<path d="M95 38.8508V13.3325C95 12.4121 94.2537 11.6658 93.3333 11.6658H78.25C58.9423 -3.94458 30.6354 -0.947081 15.0252 18.3606C10.3817 24.1038 7.22479 30.9025 5.83333 38.1558C2.15917 40.9867 0.00458333 45.3608 0 49.9992V56.6658C0.0108333 64.3825 5.86708 70.8356 13.5467 71.5925C14.4185 75.1631 18.02 77.3506 21.5904 76.4788C24.5754 75.7498 26.6733 73.0719 26.6667 69.9992V36.6658C26.6748 32.9904 23.7017 30.0044 20.0262 29.9963C16.9535 29.9896 14.2756 32.0875 13.5467 35.0725C12.2385 35.2038 10.9535 35.5075 9.725 35.9758C15.5946 13.7604 38.3621 0.509378 60.5775 6.37896C64.8187 7.49959 68.856 9.28396 72.54 11.6658H50C49.0796 11.6658 48.3333 12.4121 48.3333 13.3325V39.9992C48.3333 40.9196 49.0796 41.6658 50 41.6658H59.1667L63.6667 47.6658C64.219 48.4023 65.2635 48.5515 66 47.9992C66.1262 47.9044 66.2385 47.7921 66.3333 47.6658L70.8333 41.6658H73.3333V69.9992C73.3252 73.6746 76.2983 76.6606 79.9737 76.6688C83.0465 76.6754 85.7244 74.5775 86.4533 71.5925C87.6637 71.4708 88.8548 71.2015 90 70.7908V74.9992C89.99 83.2792 83.28 89.989 75 89.9992H66.6667V88.3325C66.6667 87.4121 65.9204 86.6658 65 86.6658H57.6967C56.4935 85.5977 54.9421 85.0052 53.3333 84.9992H46.6667C42.9848 84.9992 40 87.984 40 91.6658C40 95.3477 42.9848 98.3325 46.6667 98.3325H53.3333C54.9421 98.3265 56.4935 97.734 57.6967 96.6658H65C65.9204 96.6658 66.6667 95.9196 66.6667 94.9992V93.3325H75C85.1202 93.3206 93.3215 85.1194 93.3333 74.9992V69.1292C97.4962 66.3477 99.9971 61.6725 100 56.6658V49.9992C100.002 45.7394 98.1829 41.6819 95 38.8508ZM16.6667 36.6658C16.6667 34.8248 18.159 33.3325 20 33.3325C21.841 33.3325 23.3333 34.8248 23.3333 36.6658V69.9992C23.3333 71.8402 21.841 73.3325 20 73.3325C18.159 73.3325 16.6667 71.8402 16.6667 69.9992V36.6658ZM13.3333 38.4508V68.2142C7.59687 67.3781 3.34062 62.4629 3.33333 56.6658V49.9992C3.34062 44.2021 7.59687 39.2869 13.3333 38.4508ZM53.3333 94.9992H46.6667C44.8256 94.9992 43.3333 93.5069 43.3333 91.6658C43.3333 89.8248 44.8256 88.3325 46.6667 88.3325H53.3333C55.1744 88.3325 56.6667 89.8248 56.6667 91.6658C56.6667 93.5069 55.1744 94.9992 53.3333 94.9992ZM63.3333 93.3325H59.7633C60.079 92.2438 60.079 91.0879 59.7633 89.9992H63.3333V93.3325ZM83.3333 69.9992C83.3333 71.8402 81.841 73.3325 80 73.3325C78.159 73.3325 76.6667 71.8402 76.6667 69.9992V41.6658H83.3333V69.9992ZM70 38.3325C69.4754 38.3325 68.9815 38.5796 68.6667 38.9992L65 43.8875L61.3333 38.9992C61.0185 38.5796 60.5246 38.3325 60 38.3325H51.6667V14.9992H91.6667V38.3325H70ZM96.6667 56.6658C96.6598 62.4602 92.4015 67.3715 86.6667 68.1992V41.6658H93.155C95.4042 43.8546 96.671 46.8608 96.6667 49.9992V56.6658Z" fill="url(#paint0_linear)"/>
<path d="M63.1816 18.3325H59.9833V21.6659H63.1816V18.3325Z" fill="url(#paint1_linear)"/>
<path d="M88.3333 18.3325H66.6666V21.6659H88.3333V18.3325Z" fill="url(#paint2_linear)"/>
<path d="M88.3333 24.999H55V28.3324H88.3333V24.999Z" fill="url(#paint3_linear)"/>
<path d="M88.3333 31.6655H55V34.9989H88.3333V31.6655Z" fill="url(#paint4_linear)"/>
<defs>
<linearGradient id="paint0_linear" x1="50" y1="1.66748" x2="50" y2="98.3325" gradientUnits="userSpaceOnUse">
<stop stop-color="#FFE5AC"/>
<stop offset="1" stop-color="#B99C5D"/>
</linearGradient>
<linearGradient id="paint1_linear" x1="61.5824" y1="18.3325" x2="61.5824" y2="21.6659" gradientUnits="userSpaceOnUse">
<stop stop-color="#FFE5AC"/>
<stop offset="1" stop-color="#B99C5D"/>
</linearGradient>
<linearGradient id="paint2_linear" x1="77.5" y1="18.3325" x2="77.5" y2="21.6659" gradientUnits="userSpaceOnUse">
<stop stop-color="#FFE5AC"/>
<stop offset="1" stop-color="#B99C5D"/>
</linearGradient>
<linearGradient id="paint3_linear" x1="71.6667" y1="24.999" x2="71.6667" y2="28.3324" gradientUnits="userSpaceOnUse">
<stop stop-color="#FFE5AC"/>
<stop offset="1" stop-color="#B99C5D"/>
</linearGradient>
<linearGradient id="paint4_linear" x1="71.6667" y1="31.6655" x2="71.6667" y2="34.9989" gradientUnits="userSpaceOnUse">
<stop stop-color="#FFE5AC"/>
<stop offset="1" stop-color="#B99C5D"/>
</linearGradient>
</defs>
</svg>
