<svg width="100" height="98" viewBox="0 0 100 98" fill="none" xmlns="http://www.w3.org/2000/svg">
<path d="M8.06436 87.6759H50V84.4494H8.06436C5.39214 84.4494 3.22566 82.283 3.22566 79.6108V8.64297C3.22566 5.96994 5.39214 3.80427 8.06436 3.80427H79.0321C81.7056 3.80427 83.8708 5.96994 83.8708 8.64297V45.7395H87.0973V8.64297C87.092 4.19116 83.4844 0.583869 79.0321 0.578613H8.06436C3.61336 0.583869 0.00565976 4.19116 0 8.64297V79.6108C0.00565976 84.0626 3.61336 87.6699 8.06436 87.6759Z" fill="black"/>
<path d="M8.06436 87.6759H50V84.4494H8.06436C5.39214 84.4494 3.22566 82.283 3.22566 79.6108V8.64297C3.22566 5.96994 5.39214 3.80427 8.06436 3.80427H79.0321C81.7056 3.80427 83.8708 5.96994 83.8708 8.64297V45.7395H87.0973V8.64297C87.092 4.19116 83.4844 0.583869 79.0321 0.578613H8.06436C3.61336 0.583869 0.00565976 4.19116 0 8.64297V79.6108C0.00565976 84.0626 3.61336 87.6699 8.06436 87.6759Z" fill="url(#paint0_linear)"/>
<path d="M6.45215 7.03076H9.67741V10.256H6.45215V7.03076Z" fill="black"/>
<path d="M6.45215 7.03076H9.67741V10.256H6.45215V7.03076Z" fill="url(#paint1_linear)"/>
<path d="M12.9033 7.03076H16.1298V10.256H12.9033V7.03076Z" fill="black"/>
<path d="M12.9033 7.03076H16.1298V10.256H12.9033V7.03076Z" fill="url(#paint2_linear)"/>
<path d="M19.3545 7.03076H22.5806V10.256H19.3545V7.03076Z" fill="black"/>
<path d="M19.3545 7.03076H22.5806V10.256H19.3545V7.03076Z" fill="url(#paint3_linear)"/>
<path d="M6.45215 13.4814H80.6452V16.7079H6.45215V13.4814Z" fill="black"/>
<path d="M6.45215 13.4814H80.6452V16.7079H6.45215V13.4814Z" fill="url(#paint4_linear)"/>
<path d="M23.0533 20.4062L18.9564 24.5031C15.4934 22.2105 10.8561 22.9139 8.22793 26.1303C5.60018 29.3463 5.83587 34.0309 8.77248 36.9671C11.7087 39.9045 16.3938 40.1402 19.6101 37.5121C22.8261 34.8843 23.5299 30.2462 21.2369 26.784L25.3334 22.6871L23.0533 20.4062ZM14.5155 36.0624C11.8437 36.0624 9.67723 33.8963 9.67723 31.2241C9.67723 28.5515 11.8437 26.3858 14.5155 26.3858C15.2351 26.3882 15.943 26.5532 16.5886 26.8689L13.3759 30.082L15.656 32.3629L18.8711 29.1518C19.1868 29.797 19.3522 30.5049 19.3546 31.2241C19.3546 33.8963 17.189 36.0624 14.5155 36.0624Z" fill="black"/>
<path d="M23.0533 20.4062L18.9564 24.5031C15.4934 22.2105 10.8561 22.9139 8.22793 26.1303C5.60018 29.3463 5.83587 34.0309 8.77248 36.9671C11.7087 39.9045 16.3938 40.1402 19.6101 37.5121C22.8261 34.8843 23.5299 30.2462 21.2369 26.784L25.3334 22.6871L23.0533 20.4062ZM14.5155 36.0624C11.8437 36.0624 9.67723 33.8963 9.67723 31.2241C9.67723 28.5515 11.8437 26.3858 14.5155 26.3858C15.2351 26.3882 15.943 26.5532 16.5886 26.8689L13.3759 30.082L15.656 32.3629L18.8711 29.1518C19.1868 29.797 19.3522 30.5049 19.3546 31.2241C19.3546 33.8963 17.189 36.0624 14.5155 36.0624Z" fill="url(#paint5_linear)"/>
<path d="M27.4199 26.3853H54.8387V29.6105H27.4199V26.3853Z" fill="black"/>
<path d="M27.4199 26.3853H54.8387V29.6105H27.4199V26.3853Z" fill="url(#paint6_linear)"/>
<path d="M27.4199 32.8369H38.71V36.0622H27.4199V32.8369Z" fill="black"/>
<path d="M27.4199 32.8369H38.71V36.0622H27.4199V32.8369Z" fill="url(#paint7_linear)"/>
<path d="M41.9355 32.8369H64.5155V36.0622H41.9355V32.8369Z" fill="black"/>
<path d="M41.9355 32.8369H64.5155V36.0622H41.9355V32.8369Z" fill="url(#paint8_linear)"/>
<path d="M58.0645 26.3853H74.1936V29.6105H58.0645V26.3853Z" fill="black"/>
<path d="M58.0645 26.3853H74.1936V29.6105H58.0645V26.3853Z" fill="url(#paint9_linear)"/>
<path d="M23.0533 39.7607L18.9564 43.8576C15.4934 41.565 10.8561 42.2684 8.22793 45.4848C5.60018 48.7011 5.83587 53.3854 8.77248 56.3224C11.7087 59.259 16.3938 59.4947 19.6101 56.8666C22.8261 54.2384 23.5299 49.6019 21.2369 46.1385L25.3334 42.0416L23.0533 39.7607ZM14.5155 55.4173C11.8437 55.4173 9.67723 53.2508 9.67723 50.5786C9.67723 47.906 11.8437 45.7395 14.5155 45.7395C15.2351 45.7423 15.943 45.9077 16.5886 46.2234L13.3759 49.4373L15.656 51.7174L18.8711 48.5059C19.1868 49.1515 19.3522 49.8594 19.3546 50.5786C19.3546 53.2508 17.189 55.4173 14.5155 55.4173Z" fill="black"/>
<path d="M23.0533 39.7607L18.9564 43.8576C15.4934 41.565 10.8561 42.2684 8.22793 45.4848C5.60018 48.7011 5.83587 53.3854 8.77248 56.3224C11.7087 59.259 16.3938 59.4947 19.6101 56.8666C22.8261 54.2384 23.5299 49.6019 21.2369 46.1385L25.3334 42.0416L23.0533 39.7607ZM14.5155 55.4173C11.8437 55.4173 9.67723 53.2508 9.67723 50.5786C9.67723 47.906 11.8437 45.7395 14.5155 45.7395C15.2351 45.7423 15.943 45.9077 16.5886 46.2234L13.3759 49.4373L15.656 51.7174L18.8711 48.5059C19.1868 49.1515 19.3522 49.8594 19.3546 50.5786C19.3546 53.2508 17.189 55.4173 14.5155 55.4173Z" fill="url(#paint10_linear)"/>
<path d="M27.4199 45.7397H54.8387V48.9658H27.4199V45.7397Z" fill="black"/>
<path d="M27.4199 45.7397H54.8387V48.9658H27.4199V45.7397Z" fill="url(#paint11_linear)"/>
<path d="M27.4199 52.1919H38.71V55.4176H27.4199V52.1919Z" fill="black"/>
<path d="M27.4199 52.1919H38.71V55.4176H27.4199V52.1919Z" fill="url(#paint12_linear)"/>
<path d="M41.9355 52.1919H54.8382V55.4176H41.9355V52.1919Z" fill="black"/>
<path d="M41.9355 52.1919H54.8382V55.4176H41.9355V52.1919Z" fill="url(#paint13_linear)"/>
<path d="M58.0645 45.7397H64.5158V48.9658H58.0645V45.7397Z" fill="black"/>
<path d="M58.0645 45.7397H64.5158V48.9658H58.0645V45.7397Z" fill="url(#paint14_linear)"/>
<path d="M23.0533 59.1152L18.9564 63.2121C15.4934 60.9195 10.8561 61.6229 8.22793 64.8393C5.60018 68.0556 5.83587 72.7399 8.77248 75.6769C11.7087 78.6139 16.3938 78.8488 19.6101 76.2211C22.8261 73.5929 23.5299 68.9559 21.2369 65.4926L25.3334 61.3961L23.0533 59.1152ZM14.5155 74.7718C11.8437 74.7718 9.67723 72.6053 9.67723 69.9331C9.67723 67.2604 11.8437 65.0944 14.5155 65.0944C15.2351 65.0968 15.943 65.2617 16.5886 65.5779L13.3759 68.7918L15.656 71.0719L18.8711 67.8604C19.1868 68.506 19.3522 69.2143 19.3546 69.9331C19.3546 72.6053 17.189 74.7718 14.5155 74.7718Z" fill="black"/>
<path d="M23.0533 59.1152L18.9564 63.2121C15.4934 60.9195 10.8561 61.6229 8.22793 64.8393C5.60018 68.0556 5.83587 72.7399 8.77248 75.6769C11.7087 78.6139 16.3938 78.8488 19.6101 76.2211C22.8261 73.5929 23.5299 68.9559 21.2369 65.4926L25.3334 61.3961L23.0533 59.1152ZM14.5155 74.7718C11.8437 74.7718 9.67723 72.6053 9.67723 69.9331C9.67723 67.2604 11.8437 65.0944 14.5155 65.0944C15.2351 65.0968 15.943 65.2617 16.5886 65.5779L13.3759 68.7918L15.656 71.0719L18.8711 67.8604C19.1868 68.506 19.3522 69.2143 19.3546 69.9331C19.3546 72.6053 17.189 74.7718 14.5155 74.7718Z" fill="url(#paint15_linear)"/>
<path d="M27.4199 65.0947H48.3873V68.3212H27.4199V65.0947Z" fill="black"/>
<path d="M27.4199 65.0947H48.3873V68.3212H27.4199V65.0947Z" fill="url(#paint16_linear)"/>
<path d="M27.4199 71.5464H38.71V74.772H27.4199V71.5464Z" fill="black"/>
<path d="M27.4199 71.5464H38.71V74.772H27.4199V71.5464Z" fill="url(#paint17_linear)"/>
<path d="M41.9355 71.5464H48.3869V74.772H41.9355V71.5464Z" fill="black"/>
<path d="M41.9355 71.5464H48.3869V74.772H41.9355V71.5464Z" fill="url(#paint18_linear)"/>
<path d="M75.8071 97.3531C89.1694 97.3531 100 86.5203 100 73.1592C100 59.7969 89.1694 48.9653 75.8071 48.9653C62.4448 48.9653 51.6133 59.7969 51.6133 73.1592C51.629 86.5143 62.4513 97.3369 75.8071 97.3531ZM75.8071 52.1914C87.3866 52.1914 96.7749 61.5789 96.7749 73.1592C96.7749 84.7395 87.3866 94.1266 75.8071 94.1266C64.2265 94.1266 54.8385 84.7395 54.8385 73.1592C54.8523 61.5846 64.2317 52.2043 75.8071 52.1914Z" fill="black"/>
<path d="M75.8071 97.3531C89.1694 97.3531 100 86.5203 100 73.1592C100 59.7969 89.1694 48.9653 75.8071 48.9653C62.4448 48.9653 51.6133 59.7969 51.6133 73.1592C51.629 86.5143 62.4513 97.3369 75.8071 97.3531ZM75.8071 52.1914C87.3866 52.1914 96.7749 61.5789 96.7749 73.1592C96.7749 84.7395 87.3866 94.1266 75.8071 94.1266C64.2265 94.1266 54.8385 84.7395 54.8385 73.1592C54.8523 61.5846 64.2317 52.2043 75.8071 52.1914Z" fill="url(#paint19_linear)"/>
<path d="M65.9683 74.0508L63.0811 75.4924L66.3071 81.9441C66.5384 82.4082 66.9798 82.7329 67.492 82.8157C67.5753 82.8287 67.6586 82.8355 67.7423 82.8368C68.1696 82.8368 68.5799 82.6666 68.8831 82.3642L88.2371 63.0094L85.9571 60.7285L68.1837 78.501L65.9683 74.0508Z" fill="black"/>
<path d="M65.9683 74.0508L63.0811 75.4924L66.3071 81.9441C66.5384 82.4082 66.9798 82.7329 67.492 82.8157C67.5753 82.8287 67.6586 82.8355 67.7423 82.8368C68.1696 82.8368 68.5799 82.6666 68.8831 82.3642L88.2371 63.0094L85.9571 60.7285L68.1837 78.501L65.9683 74.0508Z" fill="url(#paint20_linear)"/>
<defs>
<linearGradient id="paint0_linear" x1="43.5487" y1="0.578613" x2="43.5487" y2="87.6759" gradientUnits="userSpaceOnUse">
<stop stop-color="#FFE5AC"/>
<stop offset="0.0001" stop-color="#FFE5AC"/>
<stop offset="1" stop-color="#B99C5D"/>
</linearGradient>
<linearGradient id="paint1_linear" x1="8.06478" y1="7.03076" x2="8.06478" y2="10.256" gradientUnits="userSpaceOnUse">
<stop stop-color="#FFE5AC"/>
<stop offset="0.0001" stop-color="#FFE5AC"/>
<stop offset="1" stop-color="#B99C5D"/>
</linearGradient>
<linearGradient id="paint2_linear" x1="14.5166" y1="7.03076" x2="14.5166" y2="10.256" gradientUnits="userSpaceOnUse">
<stop stop-color="#FFE5AC"/>
<stop offset="0.0001" stop-color="#FFE5AC"/>
<stop offset="1" stop-color="#B99C5D"/>
</linearGradient>
<linearGradient id="paint3_linear" x1="20.9675" y1="7.03076" x2="20.9675" y2="10.256" gradientUnits="userSpaceOnUse">
<stop stop-color="#FFE5AC"/>
<stop offset="0.0001" stop-color="#FFE5AC"/>
<stop offset="1" stop-color="#B99C5D"/>
</linearGradient>
<linearGradient id="paint4_linear" x1="43.5487" y1="13.4814" x2="43.5487" y2="16.7079" gradientUnits="userSpaceOnUse">
<stop stop-color="#FFE5AC"/>
<stop offset="0.0001" stop-color="#FFE5AC"/>
<stop offset="1" stop-color="#B99C5D"/>
</linearGradient>
<linearGradient id="paint5_linear" x1="15.8683" y1="20.4062" x2="15.8683" y2="39.3369" gradientUnits="userSpaceOnUse">
<stop stop-color="#FFE5AC"/>
<stop offset="0.0001" stop-color="#FFE5AC"/>
<stop offset="1" stop-color="#B99C5D"/>
</linearGradient>
<linearGradient id="paint6_linear" x1="41.1293" y1="26.3853" x2="41.1293" y2="29.6105" gradientUnits="userSpaceOnUse">
<stop stop-color="#FFE5AC"/>
<stop offset="0.0001" stop-color="#FFE5AC"/>
<stop offset="1" stop-color="#B99C5D"/>
</linearGradient>
<linearGradient id="paint7_linear" x1="33.0649" y1="32.8369" x2="33.0649" y2="36.0622" gradientUnits="userSpaceOnUse">
<stop stop-color="#FFE5AC"/>
<stop offset="0.0001" stop-color="#FFE5AC"/>
<stop offset="1" stop-color="#B99C5D"/>
</linearGradient>
<linearGradient id="paint8_linear" x1="53.2255" y1="32.8369" x2="53.2255" y2="36.0622" gradientUnits="userSpaceOnUse">
<stop stop-color="#FFE5AC"/>
<stop offset="0.0001" stop-color="#FFE5AC"/>
<stop offset="1" stop-color="#B99C5D"/>
</linearGradient>
<linearGradient id="paint9_linear" x1="66.129" y1="26.3853" x2="66.129" y2="29.6105" gradientUnits="userSpaceOnUse">
<stop stop-color="#FFE5AC"/>
<stop offset="0.0001" stop-color="#FFE5AC"/>
<stop offset="1" stop-color="#B99C5D"/>
</linearGradient>
<linearGradient id="paint10_linear" x1="15.8683" y1="39.7607" x2="15.8683" y2="58.6915" gradientUnits="userSpaceOnUse">
<stop stop-color="#FFE5AC"/>
<stop offset="0.0001" stop-color="#FFE5AC"/>
<stop offset="1" stop-color="#B99C5D"/>
</linearGradient>
<linearGradient id="paint11_linear" x1="41.1293" y1="45.7397" x2="41.1293" y2="48.9658" gradientUnits="userSpaceOnUse">
<stop stop-color="#FFE5AC"/>
<stop offset="0.0001" stop-color="#FFE5AC"/>
<stop offset="1" stop-color="#B99C5D"/>
</linearGradient>
<linearGradient id="paint12_linear" x1="33.0649" y1="52.1919" x2="33.0649" y2="55.4176" gradientUnits="userSpaceOnUse">
<stop stop-color="#FFE5AC"/>
<stop offset="0.0001" stop-color="#FFE5AC"/>
<stop offset="1" stop-color="#B99C5D"/>
</linearGradient>
<linearGradient id="paint13_linear" x1="48.3869" y1="52.1919" x2="48.3869" y2="55.4176" gradientUnits="userSpaceOnUse">
<stop stop-color="#FFE5AC"/>
<stop offset="0.0001" stop-color="#FFE5AC"/>
<stop offset="1" stop-color="#B99C5D"/>
</linearGradient>
<linearGradient id="paint14_linear" x1="61.2901" y1="45.7397" x2="61.2901" y2="48.9658" gradientUnits="userSpaceOnUse">
<stop stop-color="#FFE5AC"/>
<stop offset="0.0001" stop-color="#FFE5AC"/>
<stop offset="1" stop-color="#B99C5D"/>
</linearGradient>
<linearGradient id="paint15_linear" x1="15.8683" y1="59.1152" x2="15.8683" y2="78.046" gradientUnits="userSpaceOnUse">
<stop stop-color="#FFE5AC"/>
<stop offset="0.0001" stop-color="#FFE5AC"/>
<stop offset="1" stop-color="#B99C5D"/>
</linearGradient>
<linearGradient id="paint16_linear" x1="37.9036" y1="65.0947" x2="37.9036" y2="68.3212" gradientUnits="userSpaceOnUse">
<stop stop-color="#FFE5AC"/>
<stop offset="0.0001" stop-color="#FFE5AC"/>
<stop offset="1" stop-color="#B99C5D"/>
</linearGradient>
<linearGradient id="paint17_linear" x1="33.0649" y1="71.5464" x2="33.0649" y2="74.772" gradientUnits="userSpaceOnUse">
<stop stop-color="#FFE5AC"/>
<stop offset="0.0001" stop-color="#FFE5AC"/>
<stop offset="1" stop-color="#B99C5D"/>
</linearGradient>
<linearGradient id="paint18_linear" x1="45.1612" y1="71.5464" x2="45.1612" y2="74.772" gradientUnits="userSpaceOnUse">
<stop stop-color="#FFE5AC"/>
<stop offset="0.0001" stop-color="#FFE5AC"/>
<stop offset="1" stop-color="#B99C5D"/>
</linearGradient>
<linearGradient id="paint19_linear" x1="75.8067" y1="48.9653" x2="75.8067" y2="97.3531" gradientUnits="userSpaceOnUse">
<stop stop-color="#FFE5AC"/>
<stop offset="0.0001" stop-color="#FFE5AC"/>
<stop offset="1" stop-color="#B99C5D"/>
</linearGradient>
<linearGradient id="paint20_linear" x1="75.6591" y1="60.7285" x2="75.6591" y2="82.8368" gradientUnits="userSpaceOnUse">
<stop stop-color="#FFE5AC"/>
<stop offset="0.0001" stop-color="#FFE5AC"/>
<stop offset="1" stop-color="#B99C5D"/>
</linearGradient>
</defs>
</svg>
