<svg width="100" height="100" viewBox="0 0 100 100" fill="none" xmlns="http://www.w3.org/2000/svg">
<path d="M39.6965 32.4243C35.1511 32.4243 31.5146 36.0608 31.5146 40.6062C31.5146 45.1518 35.1511 48.788 39.6965 48.788C44.2419 48.788 47.8783 45.1516 47.8783 40.6062C47.8783 36.0608 44.2419 32.4243 39.6965 32.4243ZM39.6965 45.7579C36.8177 45.7579 34.545 43.4852 34.545 40.6064C34.545 37.7276 36.8177 35.4549 39.6965 35.4549C42.5753 35.4549 44.848 37.7276 44.848 40.6064C44.848 43.4852 42.5753 45.7579 39.6965 45.7579Z" fill="black"/>
<path d="M39.6965 32.4243C35.1511 32.4243 31.5146 36.0608 31.5146 40.6062C31.5146 45.1518 35.1511 48.788 39.6965 48.788C44.2419 48.788 47.8783 45.1516 47.8783 40.6062C47.8783 36.0608 44.2419 32.4243 39.6965 32.4243ZM39.6965 45.7579C36.8177 45.7579 34.545 43.4852 34.545 40.6064C34.545 37.7276 36.8177 35.4549 39.6965 35.4549C42.5753 35.4549 44.848 37.7276 44.848 40.6064C44.848 43.4852 42.5753 45.7579 39.6965 45.7579Z" fill="url(#paint0_linear)"/>
<path d="M60.3034 35.606C55.758 35.606 52.1216 39.2424 52.1216 43.7878C51.9701 48.3334 55.758 51.9696 60.3034 51.9696C64.8488 51.9696 68.4853 48.3332 68.4853 43.7878C68.4853 39.2424 64.8488 35.606 60.3034 35.606ZM60.3034 48.9393C57.4246 48.9393 55.1519 46.6666 55.1519 43.7878C55.1519 40.909 57.4246 38.6363 60.3034 38.6363C63.1822 38.6363 65.4549 40.909 65.4549 43.7878C65.4549 46.6666 63.1822 48.9393 60.3034 48.9393Z" fill="black"/>
<path d="M60.3034 35.606C55.758 35.606 52.1216 39.2424 52.1216 43.7878C51.9701 48.3334 55.758 51.9696 60.3034 51.9696C64.8488 51.9696 68.4853 48.3332 68.4853 43.7878C68.4853 39.2424 64.8488 35.606 60.3034 35.606ZM60.3034 48.9393C57.4246 48.9393 55.1519 46.6666 55.1519 43.7878C55.1519 40.909 57.4246 38.6363 60.3034 38.6363C63.1822 38.6363 65.4549 40.909 65.4549 43.7878C65.4549 46.6666 63.1822 48.9393 60.3034 48.9393Z" fill="url(#paint1_linear)"/>
<path d="M66.2127 52.7273H54.2431C53.334 52.7273 52.425 52.8788 51.6674 53.1818C50.0008 50.9091 47.425 49.5454 44.5462 49.5454H35.1524C30.1524 49.5454 26.2129 53.6362 26.2129 58.4849V62.8788C26.2129 63.7879 26.819 64.3938 27.728 64.3938H46.6674V66.0604C46.6674 66.9696 47.2735 67.5755 48.1825 67.5755H72.4249C73.3341 67.5755 73.94 66.9694 73.94 66.0604V60.303C73.94 56.0607 70.4551 52.7273 66.2127 52.7273ZM46.5157 60.303V61.3637H29.0915V58.4849C29.0915 55.1515 31.8188 52.5757 35.0006 52.5757H44.3945C46.2126 52.5757 47.8794 53.3334 48.9399 54.6969C47.4248 56.0605 46.5157 58.0303 46.5157 60.303ZM49.6975 64.5453V60.303C49.6484 56.2381 53.3108 55.9111 54.3944 55.9091H66.364C68.9398 55.9091 70.9094 58.0303 70.9094 60.4545V64.5453H49.6975Z" fill="black"/>
<path d="M66.2127 52.7273H54.2431C53.334 52.7273 52.425 52.8788 51.6674 53.1818C50.0008 50.9091 47.425 49.5454 44.5462 49.5454H35.1524C30.1524 49.5454 26.2129 53.6362 26.2129 58.4849V62.8788C26.2129 63.7879 26.819 64.3938 27.728 64.3938H46.6674V66.0604C46.6674 66.9696 47.2735 67.5755 48.1825 67.5755H72.4249C73.3341 67.5755 73.94 66.9694 73.94 66.0604V60.303C73.94 56.0607 70.4551 52.7273 66.2127 52.7273ZM46.5157 60.303V61.3637H29.0915V58.4849C29.0915 55.1515 31.8188 52.5757 35.0006 52.5757H44.3945C46.2126 52.5757 47.8794 53.3334 48.9399 54.6969C47.4248 56.0605 46.5157 58.0303 46.5157 60.303ZM49.6975 64.5453V60.303C49.6484 56.2381 53.3108 55.9111 54.3944 55.9091H66.364C68.9398 55.9091 70.9094 58.0303 70.9094 60.4545V64.5453H49.6975Z" fill="url(#paint2_linear)"/>
<path d="M50.0001 11.8184C28.9395 11.8184 11.8184 28.9395 11.8184 50.0001C11.8184 71.0607 28.9395 88.1818 50.0001 88.1818C71.0607 88.1818 88.1818 71.0607 88.1818 50.0001C88.1818 28.9395 71.0607 11.8184 50.0001 11.8184ZM51.5151 84.9999V77.5757C51.5151 76.6666 50.909 76.0607 50.0001 76.0607C49.0911 76.0607 48.485 76.6668 48.485 77.5757V84.9999C30.3032 84.2423 15.7579 69.6969 15.0002 51.5151H22.4244C23.3336 51.5151 23.9395 50.909 23.9395 50.0001C23.9395 49.0911 23.3334 48.485 22.4244 48.485H15.0002C15.7579 30.3032 30.3032 15.7579 48.485 15.0002V22.4244C48.485 23.3336 49.0911 23.9395 50.0001 23.9395C50.909 23.9395 51.5151 23.3334 51.5151 22.4244V15.0002C69.6969 15.7579 84.2423 30.3032 84.9999 48.485H77.5757C76.6666 48.485 76.0607 49.0911 76.0607 50.0001C76.0607 50.909 76.6668 51.5151 77.5757 51.5151H84.9999C84.2425 69.6969 69.6969 84.2425 51.5151 84.9999Z" fill="black"/>
<path d="M50.0001 11.8184C28.9395 11.8184 11.8184 28.9395 11.8184 50.0001C11.8184 71.0607 28.9395 88.1818 50.0001 88.1818C71.0607 88.1818 88.1818 71.0607 88.1818 50.0001C88.1818 28.9395 71.0607 11.8184 50.0001 11.8184ZM51.5151 84.9999V77.5757C51.5151 76.6666 50.909 76.0607 50.0001 76.0607C49.0911 76.0607 48.485 76.6668 48.485 77.5757V84.9999C30.3032 84.2423 15.7579 69.6969 15.0002 51.5151H22.4244C23.3336 51.5151 23.9395 50.909 23.9395 50.0001C23.9395 49.0911 23.3334 48.485 22.4244 48.485H15.0002C15.7579 30.3032 30.3032 15.7579 48.485 15.0002V22.4244C48.485 23.3336 49.0911 23.9395 50.0001 23.9395C50.909 23.9395 51.5151 23.3334 51.5151 22.4244V15.0002C69.6969 15.7579 84.2423 30.3032 84.9999 48.485H77.5757C76.6666 48.485 76.0607 49.0911 76.0607 50.0001C76.0607 50.909 76.6668 51.5151 77.5757 51.5151H84.9999C84.2425 69.6969 69.6969 84.2425 51.5151 84.9999Z" fill="url(#paint3_linear)"/>
<path d="M50 0C22.4243 0 0 22.4243 0 50C0 77.5757 22.4243 100 50 100C77.5757 100 100 77.5757 100 50C100 22.4243 77.5757 0 50 0ZM50 96.9697C24.0909 96.9697 3.03033 75.9091 3.03033 50C3.03033 24.0909 24.0909 3.03033 50 3.03033C75.9091 3.03033 96.9697 24.0909 96.9697 50C96.9697 75.9091 75.9091 96.9697 50 96.9697Z" fill="black"/>
<path d="M50 0C22.4243 0 0 22.4243 0 50C0 77.5757 22.4243 100 50 100C77.5757 100 100 77.5757 100 50C100 22.4243 77.5757 0 50 0ZM50 96.9697C24.0909 96.9697 3.03033 75.9091 3.03033 50C3.03033 24.0909 24.0909 3.03033 50 3.03033C75.9091 3.03033 96.9697 24.0909 96.9697 50C96.9697 75.9091 75.9091 96.9697 50 96.9697Z" fill="url(#paint4_linear)"/>
<defs>
<linearGradient id="paint0_linear" x1="39.6965" y1="32.4243" x2="39.6965" y2="48.788" gradientUnits="userSpaceOnUse">
<stop stop-color="#FFE5AC"/>
<stop offset="0.0001" stop-color="#FFE5AC"/>
<stop offset="1" stop-color="#B99C5D"/>
</linearGradient>
<linearGradient id="paint1_linear" x1="60.3012" y1="35.606" x2="60.3012" y2="51.9696" gradientUnits="userSpaceOnUse">
<stop stop-color="#FFE5AC"/>
<stop offset="0.0001" stop-color="#FFE5AC"/>
<stop offset="1" stop-color="#B99C5D"/>
</linearGradient>
<linearGradient id="paint2_linear" x1="50.0764" y1="49.5454" x2="50.0764" y2="67.5755" gradientUnits="userSpaceOnUse">
<stop stop-color="#FFE5AC"/>
<stop offset="0.0001" stop-color="#FFE5AC"/>
<stop offset="1" stop-color="#B99C5D"/>
</linearGradient>
<linearGradient id="paint3_linear" x1="50.0001" y1="11.8184" x2="50.0001" y2="88.1818" gradientUnits="userSpaceOnUse">
<stop stop-color="#FFE5AC"/>
<stop offset="0.0001" stop-color="#FFE5AC"/>
<stop offset="1" stop-color="#B99C5D"/>
</linearGradient>
<linearGradient id="paint4_linear" x1="50" y1="0" x2="50" y2="100" gradientUnits="userSpaceOnUse">
<stop stop-color="#FFE5AC"/>
<stop offset="0.0001" stop-color="#FFE5AC"/>
<stop offset="1" stop-color="#B99C5D"/>
</linearGradient>
</defs>
</svg>
