<svg width="100" height="100" viewBox="0 0 100 100" fill="none" xmlns="http://www.w3.org/2000/svg">
<path d="M56.6656 93.3264C76.9145 93.3264 93.3295 76.9113 93.3295 56.6624C93.3295 36.4136 76.9145 19.9985 56.6656 19.9985C36.4167 19.9985 20.0016 36.4136 20.0016 56.6624C20.0246 76.9018 36.426 93.3035 56.6656 93.3264ZM28.3344 54.9959H23.4197C24.2884 37.9278 37.9309 24.2853 54.999 23.4166V28.3312C54.999 29.2516 55.7452 29.9978 56.6656 29.9978C57.5859 29.9978 58.3321 29.2516 58.3321 28.3312V23.4166C75.4002 24.2853 89.0427 37.9278 89.9114 54.9959H83.3302C82.4099 54.9959 81.6637 55.7421 81.6637 56.6624C81.6637 57.5828 82.4099 58.329 83.3302 58.329H89.9114C89.0427 75.3969 75.4002 89.0396 58.3321 89.9083V84.9937C58.3321 84.0733 57.5859 83.3271 56.6656 83.3271C55.7452 83.3271 54.999 84.0733 54.999 84.9937V89.9083C37.9311 89.0396 24.2884 75.3971 23.4197 58.329H28.3344C29.2547 58.329 30.0009 57.5828 30.0009 56.6624C30.0009 55.7421 29.2547 54.9959 28.3344 54.9959Z" fill="url(#paint0_linear)"/>
<path d="M94.1877 35.0261C93.6909 34.1654 93.1645 33.3221 92.6095 32.4976L96.7242 28.3829C97.3748 27.7321 97.3748 26.6772 96.7242 26.0264L87.3083 16.6104C86.6575 15.9598 85.6025 15.9598 84.9518 16.6104L80.8304 20.7184C74.1638 16.2175 66.3702 13.6733 58.3321 13.374V3.33308H69.9979C70.9182 3.33308 71.6644 2.58689 71.6644 1.66654C71.6644 0.746194 70.9182 0 69.9979 0H43.3332C42.4129 0 41.6667 0.746194 41.6667 1.66654C41.6667 2.58689 42.4129 3.33308 43.3332 3.33308H54.999V13.389C40.136 13.9565 26.6053 22.1163 19.1684 34.9974H10.0024C9.08203 34.9974 8.33584 35.7436 8.33584 36.6639C8.33584 37.5843 9.08203 38.3305 10.0024 38.3305H20.0016C20.045 38.3305 20.0816 38.3088 20.125 38.3055C20.7255 38.3132 21.2826 37.994 21.5798 37.4722C32.183 18.0936 56.4879 10.9796 75.8666 21.5825C95.2454 32.1855 102.359 56.4908 91.756 75.8693C81.1529 95.2479 56.848 102.362 37.4693 91.759C30.7631 88.0896 25.2489 82.5755 21.5796 75.8693C21.2853 75.3454 20.7291 75.0229 20.1281 75.0277C20.0848 75.0277 20.0464 75.0027 20.0014 75.0027H10.0022C9.08183 75.0027 8.33563 75.7489 8.33563 76.6693C8.33563 77.5896 9.08183 78.3358 10.0022 78.3358H19.1682C31.1279 99.0517 57.6167 106.15 78.3327 94.1906C99.0488 82.2309 106.147 55.7421 94.1877 35.0261ZM83.5537 22.7212L86.1298 20.1452L93.1893 27.2046L90.6095 29.7844C88.5346 27.1688 86.1673 24.799 83.5537 22.7212Z" fill="url(#paint1_linear)"/>
<path d="M16.6685 56.6626C16.6685 55.7423 15.9223 54.9961 15.002 54.9961H1.66965C0.749307 54.9961 0.00311279 55.7423 0.00311279 56.6626C0.00311279 57.583 0.749307 58.3292 1.66965 58.3292H15.002C15.9223 58.3292 16.6685 57.583 16.6685 56.6626Z" fill="url(#paint2_linear)"/>
<path d="M5.00278 48.3297H16.6686C17.5889 48.3297 18.3351 47.5835 18.3351 46.6631C18.3351 45.7428 17.5889 44.9966 16.6686 44.9966H5.00278C4.08244 44.9966 3.33624 45.7428 3.33624 46.6631C3.33624 47.5835 4.08223 48.3297 5.00278 48.3297Z" fill="url(#paint3_linear)"/>
<path d="M18.3351 66.6617C18.3351 65.7413 17.5889 64.9951 16.6686 64.9951H5.00278C4.08244 64.9951 3.33624 65.7413 3.33624 66.6617C3.33624 67.582 4.08244 68.3282 5.00278 68.3282H16.6686C17.5889 68.3282 18.3351 67.582 18.3351 66.6617Z" fill="url(#paint4_linear)"/>
<path d="M52.1542 67.8398C52.805 68.4904 53.8599 68.4904 54.5107 67.8398L77.6757 44.6749C78.3152 44.0128 78.2969 42.9579 77.6348 42.3184C76.989 41.6947 75.9652 41.6947 75.3192 42.3184L53.3325 64.305L43.4166 54.3891C42.7545 53.7498 41.6994 53.7679 41.0601 54.43C40.4364 55.0757 40.4364 56.0996 41.0601 56.7456L52.1542 67.8398Z" fill="url(#paint5_linear)"/>
<defs>
<linearGradient id="paint0_linear" x1="56.6656" y1="19.9985" x2="56.6656" y2="93.3264" gradientUnits="userSpaceOnUse">
<stop stop-color="#FFE5AC"/>
<stop offset="1" stop-color="#B99C5D"/>
</linearGradient>
<linearGradient id="paint1_linear" x1="54.1663" y1="0" x2="54.1663" y2="100" gradientUnits="userSpaceOnUse">
<stop stop-color="#FFE5AC"/>
<stop offset="1" stop-color="#B99C5D"/>
</linearGradient>
<linearGradient id="paint2_linear" x1="8.33582" y1="54.9961" x2="8.33582" y2="58.3292" gradientUnits="userSpaceOnUse">
<stop stop-color="#FFE5AC"/>
<stop offset="1" stop-color="#B99C5D"/>
</linearGradient>
<linearGradient id="paint3_linear" x1="10.8357" y1="44.9966" x2="10.8357" y2="48.3297" gradientUnits="userSpaceOnUse">
<stop stop-color="#FFE5AC"/>
<stop offset="1" stop-color="#B99C5D"/>
</linearGradient>
<linearGradient id="paint4_linear" x1="10.8357" y1="64.9951" x2="10.8357" y2="68.3282" gradientUnits="userSpaceOnUse">
<stop stop-color="#FFE5AC"/>
<stop offset="1" stop-color="#B99C5D"/>
</linearGradient>
<linearGradient id="paint5_linear" x1="59.3679" y1="41.8506" x2="59.3679" y2="68.3277" gradientUnits="userSpaceOnUse">
<stop stop-color="#FFE5AC"/>
<stop offset="1" stop-color="#B99C5D"/>
</linearGradient>
</defs>
</svg>
