<svg width="100" height="100" viewBox="0 0 100 100" fill="none" xmlns="http://www.w3.org/2000/svg">
<g clip-path="url(#clip0)">
<path d="M60.5479 38.2812C51.0706 38.2812 43.3604 45.9915 43.3604 55.4688C43.3604 64.946 51.0706 72.6562 60.5479 72.6562C70.0251 72.6562 77.7354 64.946 77.7354 55.4688C77.7354 45.9915 70.0251 38.2812 60.5479 38.2812ZM60.5479 68.75C53.2244 68.75 47.2666 62.7922 47.2666 55.4688C47.2666 48.1453 53.2244 42.1875 60.5479 42.1875C67.8713 42.1875 73.8291 48.1453 73.8291 55.4688C73.8291 62.7922 67.8713 68.75 60.5479 68.75Z" fill="black"/>
<path d="M60.5479 38.2812C51.0706 38.2812 43.3604 45.9915 43.3604 55.4688C43.3604 64.946 51.0706 72.6562 60.5479 72.6562C70.0251 72.6562 77.7354 64.946 77.7354 55.4688C77.7354 45.9915 70.0251 38.2812 60.5479 38.2812ZM60.5479 68.75C53.2244 68.75 47.2666 62.7922 47.2666 55.4688C47.2666 48.1453 53.2244 42.1875 60.5479 42.1875C67.8713 42.1875 73.8291 48.1453 73.8291 55.4688C73.8291 62.7922 67.8713 68.75 60.5479 68.75Z" fill="url(#paint0_linear)"/>
<path d="M60.5479 46.6807C59.4691 46.6807 58.5947 47.555 58.5947 48.6338C58.5947 49.7126 59.4691 50.5869 60.5479 50.5869C63.2395 50.5869 65.4299 52.7773 65.4299 55.469C65.4299 56.5478 66.3042 57.4221 67.383 57.4221C68.4618 57.4221 69.3362 56.5478 69.3362 55.469C69.3362 50.6228 65.394 46.6807 60.5479 46.6807Z" fill="black"/>
<path d="M60.5479 46.6807C59.4691 46.6807 58.5947 47.555 58.5947 48.6338C58.5947 49.7126 59.4691 50.5869 60.5479 50.5869C63.2395 50.5869 65.4299 52.7773 65.4299 55.469C65.4299 56.5478 66.3042 57.4221 67.383 57.4221C68.4618 57.4221 69.3362 56.5478 69.3362 55.469C69.3362 50.6228 65.394 46.6807 60.5479 46.6807Z" fill="url(#paint1_linear)"/>
<path d="M12.0397 20.1959C11.5438 19.2384 10.3658 18.8638 9.40753 19.359C8.44928 19.8549 8.07468 21.0336 8.57059 21.9919L13.828 32.1482C14.1683 32.8058 14.8564 33.2079 15.5919 33.2033C16.332 33.1919 17.0026 32.7631 17.323 32.0955L20.506 25.4686L23.9629 32.1482C24.2994 32.7966 24.9685 33.2033 25.6978 33.2033H25.7268C26.4676 33.1919 27.1375 32.7631 27.4587 32.0955L32.3362 21.9393C32.8031 20.9673 32.3934 19.8 31.4214 19.3331C30.4486 18.8661 29.2821 19.2758 28.8152 20.2486L25.6322 26.8755L22.1746 20.1959C21.8343 19.5383 21.1476 19.1347 20.4114 19.1408C19.6706 19.1522 19 19.581 18.6795 20.2486L15.4973 26.8755L12.0397 20.1959Z" fill="black"/>
<path d="M12.0397 20.1959C11.5438 19.2384 10.3658 18.8638 9.40753 19.359C8.44928 19.8549 8.07468 21.0336 8.57059 21.9919L13.828 32.1482C14.1683 32.8058 14.8564 33.2079 15.5919 33.2033C16.332 33.1919 17.0026 32.7631 17.323 32.0955L20.506 25.4686L23.9629 32.1482C24.2994 32.7966 24.9685 33.2033 25.6978 33.2033H25.7268C26.4676 33.1919 27.1375 32.7631 27.4587 32.0955L32.3362 21.9393C32.8031 20.9673 32.3934 19.8 31.4214 19.3331C30.4486 18.8661 29.2821 19.2758 28.8152 20.2486L25.6322 26.8755L22.1746 20.1959C21.8343 19.5383 21.1476 19.1347 20.4114 19.1408C19.6706 19.1522 19 19.581 18.6795 20.2486L15.4973 26.8755L12.0397 20.1959Z" fill="url(#paint2_linear)"/>
<path d="M24.6074 9.375C25.1216 9.375 25.6252 9.16595 25.9883 8.8028C26.3523 8.43964 26.5605 7.93533 26.5605 7.42188C26.5605 6.90842 26.3523 6.40411 25.9883 6.04095C25.6252 5.6778 25.1216 5.46875 24.6074 5.46875C24.094 5.46875 23.5904 5.6778 23.2273 6.04095C22.8633 6.40411 22.6543 6.90842 22.6543 7.42188C22.6543 7.93533 22.8633 8.43964 23.2273 8.8028C23.5904 9.16595 24.094 9.375 24.6074 9.375Z" fill="black"/>
<path d="M24.6074 9.375C25.1216 9.375 25.6252 9.16595 25.9883 8.8028C26.3523 8.43964 26.5605 7.93533 26.5605 7.42188C26.5605 6.90842 26.3523 6.40411 25.9883 6.04095C25.6252 5.6778 25.1216 5.46875 24.6074 5.46875C24.094 5.46875 23.5904 5.6778 23.2273 6.04095C22.8633 6.40411 22.6543 6.90842 22.6543 7.42188C22.6543 7.93533 22.8633 8.43964 23.2273 8.8028C23.5904 9.16595 24.094 9.375 24.6074 9.375Z" fill="url(#paint3_linear)"/>
<path d="M100 39.0625V13.2812C100 8.97369 96.4951 5.46875 92.1875 5.46875H32.8102C31.7322 5.46875 30.8571 6.34308 30.8571 7.42188C30.8571 8.50067 31.7322 9.375 32.8102 9.375H92.1875C94.3413 9.375 96.0938 11.1275 96.0938 13.2812V39.0625C96.0938 41.2163 94.3413 42.9688 92.1875 42.9688H82.8125C82.756 42.9688 82.7011 42.9726 82.6462 42.9771C79.6318 37.6656 74.7589 33.5426 68.9171 31.4972L71.8124 25.4692L75.2701 32.148C75.6058 32.7972 76.2749 33.2031 77.0042 33.2031H77.034C77.774 33.1917 78.4447 32.7629 78.7651 32.0953L83.6426 21.9391C84.1095 20.9671 83.6998 19.8006 82.7278 19.3336C81.7558 18.866 80.5885 19.2757 80.1216 20.2484L76.9394 26.8753L73.4818 20.1958C73.1415 19.5381 72.4556 19.1345 71.7178 19.1414C70.977 19.1521 70.3072 19.5808 69.9867 20.2484L66.8037 26.8753L63.3469 20.1958C62.851 19.2383 61.6722 18.8637 60.714 19.3596C59.7557 19.8555 59.3819 21.0335 59.877 21.9917L64.1998 30.3421C63.0074 30.1697 61.7882 30.0781 60.5484 30.0781C58.1474 30.0781 55.8228 30.4138 53.6194 31.0394L57.9903 21.9391C58.4572 20.9671 58.0475 19.8006 57.0747 19.3336C56.1028 18.866 54.9355 19.2757 54.4693 20.2484L51.2863 26.8753L47.8287 20.1958C47.4884 19.5381 46.8056 19.1345 46.0648 19.1414C45.3247 19.1521 44.6541 19.5808 44.3336 20.2484L41.1514 26.8753L37.6938 20.1958C37.1979 19.2383 36.0199 18.8637 35.0616 19.3596C34.1034 19.8555 33.7288 21.0335 34.2247 21.9917L39.4821 32.148C39.8224 32.8056 40.5075 33.2077 41.246 33.2031C41.9861 33.1917 42.6567 32.7629 42.9771 32.0953L46.1601 25.4692L49.617 32.148C49.675 32.2601 49.7459 32.3616 49.823 32.4585C45.0333 34.7 41.0538 38.3926 38.4544 42.9688H7.8125C5.65872 42.9688 3.90625 41.2163 3.90625 39.0625V13.2812C3.90625 11.1275 5.65872 9.375 7.8125 9.375H15.8188C16.8976 9.375 17.7719 8.50067 17.7719 7.42188C17.7719 6.34308 16.8976 5.46875 15.8188 5.46875H7.8125C3.50494 5.46875 0 8.97369 0 13.2812V39.0625C0 43.3708 3.50494 46.875 7.8125 46.875H36.6554C35.6865 49.5605 35.157 52.4536 35.157 55.4688C35.157 69.4695 46.5469 80.8594 60.5476 80.8594C65.1482 80.8594 69.4672 79.6295 73.1926 77.4811L88.694 92.9825C89.9849 94.2734 91.6809 94.9188 93.3769 94.9188C95.0729 94.9188 96.769 94.2734 98.0598 92.9825C100.642 90.3999 100.642 86.1984 98.0598 83.6159L91.9693 77.5253C91.2064 76.7632 89.9696 76.7624 89.2075 77.5253C88.4445 78.2883 88.4445 79.5242 89.2075 80.2872L95.298 86.3785C96.357 87.4374 96.357 89.1609 95.298 90.2206C94.239 91.2796 92.5156 91.2796 91.4566 90.2206L76.4687 75.2319C82.2395 70.5742 85.9383 63.446 85.9383 55.4688C85.9383 52.4536 85.4088 49.5605 84.4398 46.875H92.1875C96.4958 46.875 100 43.3701 100 39.0625ZM60.5476 76.9531C48.7015 76.9531 39.0633 67.3149 39.0633 55.4688C39.0633 43.6226 48.7015 33.9844 60.5476 33.9844C72.3938 33.9844 82.032 43.6226 82.032 55.4688C82.032 67.3149 72.3946 76.9531 60.5476 76.9531Z" fill="black"/>
<path d="M100 39.0625V13.2812C100 8.97369 96.4951 5.46875 92.1875 5.46875H32.8102C31.7322 5.46875 30.8571 6.34308 30.8571 7.42188C30.8571 8.50067 31.7322 9.375 32.8102 9.375H92.1875C94.3413 9.375 96.0938 11.1275 96.0938 13.2812V39.0625C96.0938 41.2163 94.3413 42.9688 92.1875 42.9688H82.8125C82.756 42.9688 82.7011 42.9726 82.6462 42.9771C79.6318 37.6656 74.7589 33.5426 68.9171 31.4972L71.8124 25.4692L75.2701 32.148C75.6058 32.7972 76.2749 33.2031 77.0042 33.2031H77.034C77.774 33.1917 78.4447 32.7629 78.7651 32.0953L83.6426 21.9391C84.1095 20.9671 83.6998 19.8006 82.7278 19.3336C81.7558 18.866 80.5885 19.2757 80.1216 20.2484L76.9394 26.8753L73.4818 20.1958C73.1415 19.5381 72.4556 19.1345 71.7178 19.1414C70.977 19.1521 70.3072 19.5808 69.9867 20.2484L66.8037 26.8753L63.3469 20.1958C62.851 19.2383 61.6722 18.8637 60.714 19.3596C59.7557 19.8555 59.3819 21.0335 59.877 21.9917L64.1998 30.3421C63.0074 30.1697 61.7882 30.0781 60.5484 30.0781C58.1474 30.0781 55.8228 30.4138 53.6194 31.0394L57.9903 21.9391C58.4572 20.9671 58.0475 19.8006 57.0747 19.3336C56.1028 18.866 54.9355 19.2757 54.4693 20.2484L51.2863 26.8753L47.8287 20.1958C47.4884 19.5381 46.8056 19.1345 46.0648 19.1414C45.3247 19.1521 44.6541 19.5808 44.3336 20.2484L41.1514 26.8753L37.6938 20.1958C37.1979 19.2383 36.0199 18.8637 35.0616 19.3596C34.1034 19.8555 33.7288 21.0335 34.2247 21.9917L39.4821 32.148C39.8224 32.8056 40.5075 33.2077 41.246 33.2031C41.9861 33.1917 42.6567 32.7629 42.9771 32.0953L46.1601 25.4692L49.617 32.148C49.675 32.2601 49.7459 32.3616 49.823 32.4585C45.0333 34.7 41.0538 38.3926 38.4544 42.9688H7.8125C5.65872 42.9688 3.90625 41.2163 3.90625 39.0625V13.2812C3.90625 11.1275 5.65872 9.375 7.8125 9.375H15.8188C16.8976 9.375 17.7719 8.50067 17.7719 7.42188C17.7719 6.34308 16.8976 5.46875 15.8188 5.46875H7.8125C3.50494 5.46875 0 8.97369 0 13.2812V39.0625C0 43.3708 3.50494 46.875 7.8125 46.875H36.6554C35.6865 49.5605 35.157 52.4536 35.157 55.4688C35.157 69.4695 46.5469 80.8594 60.5476 80.8594C65.1482 80.8594 69.4672 79.6295 73.1926 77.4811L88.694 92.9825C89.9849 94.2734 91.6809 94.9188 93.3769 94.9188C95.0729 94.9188 96.769 94.2734 98.0598 92.9825C100.642 90.3999 100.642 86.1984 98.0598 83.6159L91.9693 77.5253C91.2064 76.7632 89.9696 76.7624 89.2075 77.5253C88.4445 78.2883 88.4445 79.5242 89.2075 80.2872L95.298 86.3785C96.357 87.4374 96.357 89.1609 95.298 90.2206C94.239 91.2796 92.5156 91.2796 91.4566 90.2206L76.4687 75.2319C82.2395 70.5742 85.9383 63.446 85.9383 55.4688C85.9383 52.4536 85.4088 49.5605 84.4398 46.875H92.1875C96.4958 46.875 100 43.3701 100 39.0625ZM60.5476 76.9531C48.7015 76.9531 39.0633 67.3149 39.0633 55.4688C39.0633 43.6226 48.7015 33.9844 60.5476 33.9844C72.3938 33.9844 82.032 43.6226 82.032 55.4688C82.032 67.3149 72.3946 76.9531 60.5476 76.9531Z" fill="url(#paint4_linear)"/>
<path d="M84.5742 72.8925C84.211 73.2557 84.002 73.7592 84.002 74.2734C84.002 74.7869 84.211 75.2904 84.5742 75.6544C84.9396 76.0175 85.4416 76.2266 85.9551 76.2266C86.4685 76.2266 86.9728 76.0175 87.336 75.6544C87.7014 75.2904 87.9082 74.7869 87.9082 74.2734C87.9082 73.7592 87.7014 73.2557 87.336 72.8925C86.9728 72.5294 86.4708 72.3203 85.9551 72.3203C85.4416 72.3203 84.9373 72.5294 84.5742 72.8925Z" fill="black"/>
<path d="M84.5742 72.8925C84.211 73.2557 84.002 73.7592 84.002 74.2734C84.002 74.7869 84.211 75.2904 84.5742 75.6544C84.9396 76.0175 85.4416 76.2266 85.9551 76.2266C86.4685 76.2266 86.9728 76.0175 87.336 75.6544C87.7014 75.2904 87.9082 74.7869 87.9082 74.2734C87.9082 73.7592 87.7014 73.2557 87.336 72.8925C86.9728 72.5294 86.4708 72.3203 85.9551 72.3203C85.4416 72.3203 84.9373 72.5294 84.5742 72.8925Z" fill="url(#paint5_linear)"/>
</g>
<defs>
<linearGradient id="paint0_linear" x1="60.5479" y1="38.2812" x2="60.5479" y2="72.6562" gradientUnits="userSpaceOnUse">
<stop stop-color="#FFE5AC"/>
<stop offset="0.0001" stop-color="#FFE5AC"/>
<stop offset="1" stop-color="#B99C5D"/>
</linearGradient>
<linearGradient id="paint1_linear" x1="63.9654" y1="46.6807" x2="63.9654" y2="57.4221" gradientUnits="userSpaceOnUse">
<stop stop-color="#FFE5AC"/>
<stop offset="0.0001" stop-color="#FFE5AC"/>
<stop offset="1" stop-color="#B99C5D"/>
</linearGradient>
<linearGradient id="paint2_linear" x1="20.4403" y1="19.1401" x2="20.4403" y2="33.2033" gradientUnits="userSpaceOnUse">
<stop stop-color="#FFE5AC"/>
<stop offset="0.0001" stop-color="#FFE5AC"/>
<stop offset="1" stop-color="#B99C5D"/>
</linearGradient>
<linearGradient id="paint3_linear" x1="24.6074" y1="5.46875" x2="24.6074" y2="9.375" gradientUnits="userSpaceOnUse">
<stop stop-color="#FFE5AC"/>
<stop offset="0.0001" stop-color="#FFE5AC"/>
<stop offset="1" stop-color="#B99C5D"/>
</linearGradient>
<linearGradient id="paint4_linear" x1="50" y1="5.46875" x2="50" y2="94.9188" gradientUnits="userSpaceOnUse">
<stop stop-color="#FFE5AC"/>
<stop offset="0.0001" stop-color="#FFE5AC"/>
<stop offset="1" stop-color="#B99C5D"/>
</linearGradient>
<linearGradient id="paint5_linear" x1="85.9551" y1="72.3203" x2="85.9551" y2="76.2266" gradientUnits="userSpaceOnUse">
<stop stop-color="#FFE5AC"/>
<stop offset="0.0001" stop-color="#FFE5AC"/>
<stop offset="1" stop-color="#B99C5D"/>
</linearGradient>
<clipPath id="clip0">
<rect width="100" height="100" fill="white"/>
</clipPath>
</defs>
</svg>
